<svg width="175" height="45" viewBox="0 0 175 45" fill="none" xmlns="http://www.w3.org/2000/svg">
<path fill-rule="evenodd" clip-rule="evenodd" d="M70.443 10.7195C70.2412 10.9276 70.2217 12.1664 70.2544 22.7207L70.291 34.49L70.6018 34.7024C70.8822 34.8943 70.9425 34.8841 71.2189 34.5995C71.5185 34.2909 71.5242 34.2021 71.4856 30.4354C71.4474 26.7228 71.458 26.5503 71.783 25.5619C72.0475 24.7571 72.2795 24.3726 72.8642 23.7706C73.4427 23.175 73.7935 22.9487 74.4379 22.7557C75.0016 22.587 75.5547 22.5312 76.1643 22.5816C76.7688 22.6316 77.2643 22.7782 77.6837 23.0313C78.0261 23.2381 78.4754 23.6594 78.6823 23.9677C78.889 24.276 79.1731 24.793 79.3133 25.1164C79.5337 25.6244 79.5784 26.303 79.6413 30.0975C79.7125 34.406 79.7199 34.4947 80.0247 34.7027C80.3043 34.8937 80.3651 34.8844 80.6315 34.6101C80.9149 34.3183 80.9273 34.1533 80.9246 30.74C80.9231 28.7792 80.8571 26.7137 80.778 26.1501C80.6989 25.5866 80.4789 24.7759 80.2889 24.3487C80.099 23.9214 79.6157 23.215 79.2151 22.7787C78.7791 22.304 78.1884 21.8497 77.744 21.6474C77.178 21.3897 76.7287 21.3074 75.8561 21.3015C74.8448 21.2947 74.601 21.3496 73.7709 21.7703C73.2081 22.0557 72.5648 22.5398 72.1677 22.9769L71.5045 23.7071V17.3407C71.5045 11.3598 71.4887 10.9596 71.2434 10.731C71.0998 10.5972 70.9118 10.4877 70.8254 10.4877C70.739 10.4877 70.567 10.5921 70.443 10.7195ZM59.4624 16.9315C59.2651 17.1559 59.2262 17.5565 59.2262 19.3574V21.5144H57.724C56.2422 21.5144 56.2195 21.5197 56.0516 21.8991C55.9006 22.2402 55.9203 22.3165 56.2245 22.5703C56.5203 22.817 56.7512 22.8501 57.8972 22.8102L59.2267 22.7641L59.2264 28.5978C59.2262 33.7053 59.2541 34.4601 59.4504 34.6624C59.5739 34.7895 59.786 34.8934 59.9216 34.8934C60.0574 34.8934 60.2455 34.814 60.3398 34.717C60.4673 34.5857 60.511 33.0364 60.5108 28.6523L60.5105 22.7641L61.9117 22.8099C63.1278 22.8499 63.3583 22.8182 63.6558 22.57C63.9598 22.3165 63.9793 22.2402 63.8284 21.8991C63.6598 21.518 63.6434 21.5144 62.0846 21.5144H60.5111V19.3195C60.5111 17.5202 60.4707 17.0831 60.2868 16.8936C60.1633 16.7666 59.9806 16.6626 59.8806 16.6626C59.7805 16.6626 59.5924 16.7836 59.4624 16.9315ZM42.319 21.5295C41.8539 21.6942 41.21 22.0157 40.8879 22.2439C40.5659 22.4721 40.0452 22.9471 39.7309 23.2995C39.4167 23.6519 39.0221 24.1718 38.854 24.4548C38.686 24.7378 38.4146 25.3808 38.2508 25.8836C38.0376 26.5384 37.9531 27.1703 37.9531 28.1102C37.9531 29.0093 38.0435 29.7238 38.24 30.3791C38.3977 30.905 38.7886 31.7392 39.1086 32.2326C39.4285 32.726 39.9625 33.3594 40.2952 33.64C40.6278 33.9207 41.2809 34.3332 41.7466 34.557C42.4352 34.8878 42.8398 34.9735 43.9143 35.0163C44.9487 35.0575 45.4454 35.0031 46.2039 34.7659C46.7366 34.5992 47.5326 34.1974 47.9724 33.8731C48.4125 33.5486 48.9724 32.9721 49.217 32.5919C49.6143 31.9743 49.6407 31.8684 49.4655 31.596C49.3576 31.4285 49.1757 31.2721 49.0612 31.2487C48.9467 31.2252 48.4073 31.6613 47.8626 32.2177C47.106 32.9908 46.6876 33.2942 46.0891 33.504C45.5844 33.6811 44.8998 33.7794 44.1637 33.7806C43.2257 33.7821 42.8755 33.7127 42.2049 33.3925C41.7556 33.178 41.1122 32.7101 40.7752 32.3529C40.4381 31.9957 39.9855 31.3318 39.7695 30.8775C39.5535 30.4232 39.3389 29.7681 39.2928 29.4217L39.2089 28.792L44.4544 28.8323C49.1073 28.8681 49.7401 28.8456 50.0553 28.6327C50.3861 28.4097 50.4058 28.3299 50.3379 27.4898C50.2978 26.993 50.1329 26.2036 49.9715 25.7355C49.8102 25.2674 49.4291 24.5066 49.1247 24.0448C48.8204 23.583 48.1735 22.8934 47.687 22.5124C47.1318 22.0773 46.4523 21.708 45.8608 21.5199C45.3316 21.3516 44.5345 21.2225 44.0416 21.2252C43.5432 21.2281 42.7991 21.3595 42.319 21.5295ZM91.9692 21.5239C91.4853 21.682 90.7705 22.0586 90.3804 22.3611C89.9905 22.6636 89.4287 23.2088 89.1319 23.5727C88.8352 23.9366 88.4087 24.6486 88.1843 25.1548C87.9599 25.6611 87.7042 26.5543 87.6161 27.1396C87.4946 27.9481 87.4979 28.4582 87.6299 29.2623C87.7256 29.8444 88.016 30.7706 88.2751 31.3206C88.5342 31.8705 88.9914 32.6107 89.2908 32.9656C89.5902 33.3204 90.16 33.8234 90.5569 34.0832C90.9538 34.3431 91.622 34.6723 92.0419 34.8146C92.6248 35.0123 93.1308 35.0595 94.1834 35.0144C95.3799 34.9631 95.6991 34.8897 96.604 34.4581C97.3704 34.0924 97.8524 33.7316 98.4243 33.0955C98.8855 32.5827 99.2023 32.0959 99.2023 31.9005C99.2023 31.719 99.1252 31.4913 99.031 31.3943C98.9368 31.2972 98.7601 31.2187 98.6384 31.2198C98.5166 31.2208 98.1008 31.5928 97.7143 32.0465C97.2428 32.6001 96.7352 33.0061 96.1708 33.2809C95.7084 33.5061 94.9538 33.7355 94.4941 33.7903C94.014 33.8478 93.3271 33.8194 92.8801 33.7238C92.4521 33.6324 91.7582 33.3454 91.3381 33.0861C90.9181 32.8267 90.3309 32.2838 90.0332 31.8794C89.7354 31.4751 89.3729 30.8135 89.2277 30.4092C89.0823 30.0049 88.927 29.4756 88.8823 29.233L88.8012 28.792L94.0929 28.8323C98.7873 28.868 99.4247 28.8455 99.74 28.6329C100.077 28.4058 100.09 28.3434 100.001 27.4457C99.9491 26.9245 99.7761 26.1387 99.6165 25.6992C99.4567 25.2598 99.07 24.5052 98.757 24.0226C98.4326 23.5224 97.818 22.8586 97.3277 22.4791C96.8096 22.078 96.0969 21.6953 95.5355 21.5167C95.0057 21.3482 94.225 21.2238 93.7263 21.2286C93.2437 21.2331 92.453 21.366 91.9692 21.5239ZM122.76 21.496C122.328 21.6389 121.717 21.9248 121.403 22.1313C121.089 22.3378 120.554 22.7962 120.214 23.15C119.873 23.5037 119.44 24.0631 119.25 24.3931C119.061 24.723 118.787 25.3515 118.64 25.7898C118.494 26.2281 118.33 26.9548 118.276 27.4048C118.222 27.8547 118.246 28.6817 118.33 29.2426C118.417 29.8297 118.689 30.6989 118.97 31.2914C119.238 31.8574 119.686 32.5947 119.965 32.9299C120.244 33.265 120.81 33.7678 121.223 34.0473C121.636 34.3266 122.291 34.6643 122.678 34.7978C123.108 34.946 123.845 35.0404 124.574 35.0404C125.396 35.0404 126.035 34.9474 126.63 34.7409C127.105 34.5761 127.741 34.2803 128.044 34.0835C128.347 33.8865 128.859 33.4426 129.181 33.0971C129.504 32.7514 129.806 32.3093 129.854 32.1145C129.901 31.9197 129.876 31.6549 129.797 31.5259C129.718 31.3969 129.543 31.269 129.408 31.2417C129.254 31.2105 128.879 31.5151 128.398 32.0626C127.85 32.6863 127.377 33.0522 126.731 33.3529C125.971 33.7071 125.639 33.7735 124.616 33.7771C123.664 33.7806 123.254 33.7118 122.713 33.4585C122.333 33.2807 121.778 32.9352 121.478 32.6907C121.178 32.4462 120.735 31.9293 120.494 31.5419C120.253 31.1546 119.967 30.5759 119.859 30.2559C119.751 29.936 119.626 29.4756 119.58 29.233L119.497 28.792L124.789 28.8323C129.489 28.8681 130.12 28.8458 130.437 28.6322C130.771 28.4068 130.788 28.3347 130.711 27.4795C130.665 26.9777 130.492 26.1922 130.325 25.7336C130.158 25.2752 129.766 24.5052 129.453 24.0226C129.129 23.5224 128.514 22.8586 128.024 22.4791C127.506 22.078 126.793 21.6953 126.231 21.5167C125.703 21.3485 124.92 21.2237 124.422 21.2283C123.94 21.2325 123.192 21.3531 122.76 21.496ZM159.442 21.4122C159.083 21.5169 158.501 21.7765 158.149 21.9891C157.796 22.2017 157.239 22.6766 156.91 23.0444L156.311 23.7131V22.7902C156.311 22.2683 156.237 21.7905 156.14 21.6908C156.046 21.5938 155.823 21.5144 155.645 21.5144C155.467 21.5144 155.255 21.6423 155.174 21.7987C155.079 21.9819 155.026 24.2831 155.026 28.2595V34.4357L155.341 34.6626C155.609 34.8559 155.699 34.86 155.948 34.6901C156.227 34.4991 156.243 34.3128 156.318 30.3181C156.391 26.3893 156.416 26.0946 156.731 25.2721C156.945 24.714 157.311 24.1465 157.744 23.7003C158.255 23.1744 158.626 22.9408 159.248 22.7546C159.806 22.5876 160.363 22.5313 160.964 22.581C161.526 22.6275 162.079 22.7835 162.461 23.0034C162.795 23.1953 163.25 23.5859 163.473 23.8716C163.696 24.1574 164.006 24.7677 164.164 25.2279C164.423 25.9894 164.449 26.4412 164.449 30.2501C164.449 34.3979 164.452 34.4378 164.764 34.6626C165.032 34.8559 165.122 34.86 165.371 34.6901C165.649 34.5001 165.666 34.3111 165.739 30.6856C165.808 27.2231 165.844 26.7966 166.138 25.9462C166.316 25.4324 166.566 24.8369 166.694 24.623C166.823 24.4092 167.125 24.0134 167.366 23.7435C167.607 23.4737 168.061 23.1109 168.375 22.9375C168.821 22.6913 169.197 22.6216 170.089 22.6195C171.074 22.6173 171.321 22.6714 171.883 23.0121C172.242 23.2294 172.705 23.6594 172.912 23.9677C173.119 24.276 173.403 24.793 173.543 25.1164C173.766 25.6291 173.804 26.2414 173.838 29.8946C173.859 32.1992 173.907 34.2258 173.944 34.3981C173.981 34.5702 174.138 34.7452 174.292 34.7868C174.446 34.8283 174.675 34.7849 174.801 34.6902C175.004 34.5376 175.025 33.9961 174.986 29.8871L174.943 25.2561L174.487 24.3041C174.236 23.7806 173.754 23.0616 173.416 22.7064C173.078 22.3514 172.448 21.89 172.016 21.6814C171.377 21.3726 171.018 21.3021 170.089 21.3021C169.155 21.3021 168.798 21.3729 168.136 21.6892C167.691 21.9019 167.027 22.3594 166.663 22.7057C166.298 23.0519 165.836 23.6221 165.637 23.9727L165.274 24.6101L164.972 23.9811C164.806 23.6352 164.392 23.0657 164.052 22.7155C163.712 22.3655 163.091 21.9169 162.671 21.719C162.223 21.5076 161.533 21.3307 161.001 21.2904C160.478 21.2509 159.818 21.3025 159.442 21.4122ZM107.083 21.6908C106.955 21.8225 106.912 23.4551 106.912 28.1304C106.912 32.8057 106.955 34.4382 107.083 34.57C107.178 34.667 107.404 34.7464 107.587 34.7464C107.811 34.7464 107.963 34.6248 108.058 34.3693C108.134 34.1618 108.197 32.5137 108.197 30.7068C108.197 27.865 108.234 27.2973 108.475 26.5024C108.628 25.9968 108.979 25.2467 109.255 24.8352C109.532 24.4238 110.066 23.8747 110.441 23.6147C110.817 23.3549 111.501 23.0422 111.962 22.9199C112.423 22.7976 112.888 22.6217 112.997 22.529C113.105 22.4363 113.194 22.2443 113.194 22.1024C113.194 21.9606 113.097 21.7618 112.979 21.6608C112.844 21.5452 112.513 21.5032 112.087 21.5473C111.714 21.586 111.088 21.7728 110.695 21.9625C110.298 22.1546 109.57 22.7342 109.054 23.2708L108.126 24.2343V23.0157C108.126 22.0926 108.074 21.7636 107.911 21.6582C107.794 21.5816 107.598 21.5179 107.476 21.5166C107.354 21.5154 107.178 21.5938 107.083 21.6908ZM137.715 21.6731C137.486 21.8105 137.465 22.1836 137.465 26.1373C137.465 30.0561 137.492 30.5402 137.755 31.4169C137.914 31.9478 138.278 32.6972 138.563 33.0822C138.849 33.4671 139.216 33.9039 139.38 34.0527C139.544 34.2015 140.032 34.501 140.463 34.7185C141.116 35.0472 141.441 35.1136 142.391 35.1136C143.331 35.1136 143.672 35.0453 144.318 34.726C144.75 34.5128 145.297 34.1489 145.533 33.9175C145.769 33.6861 146.137 33.2651 146.352 32.9821L146.742 32.4675L146.744 33.4495C146.745 34.1443 146.811 34.4988 146.97 34.6624C147.093 34.7895 147.305 34.8934 147.441 34.8934C147.577 34.8934 147.765 34.814 147.859 34.717C147.987 34.5852 148.03 32.9512 148.03 28.2708C148.03 22.2784 148.018 21.9897 147.757 21.7459C147.539 21.5432 147.422 21.5242 147.187 21.6539C147.025 21.7436 146.86 21.9638 146.822 22.1435C146.784 22.323 146.731 24.0909 146.703 26.0721C146.659 29.273 146.619 29.7806 146.348 30.6298C146.179 31.1554 145.852 31.8939 145.619 32.2708C145.365 32.6835 144.931 33.1169 144.528 33.3598C144.014 33.6703 143.616 33.7796 142.803 33.8332C142.028 33.8844 141.58 33.8379 141.124 33.6586C140.782 33.5242 140.27 33.1747 139.985 32.882C139.701 32.5893 139.34 32.0763 139.183 31.742C139.026 31.4077 138.832 30.78 138.752 30.3473C138.673 29.9145 138.607 27.8185 138.607 25.6896C138.607 22.0131 138.594 21.811 138.331 21.6665C138.179 21.5829 138.035 21.5164 138.01 21.5188C137.985 21.5213 137.853 21.5907 137.715 21.6731ZM46.1297 22.9639C46.5042 23.1529 47.0955 23.601 47.4436 23.9595C47.7917 24.3179 48.2671 25.0226 48.5001 25.5254C48.7331 26.0282 48.964 26.6878 49.013 26.9909L49.1023 27.5423H44.114H39.1257L39.2606 26.9174C39.3349 26.5738 39.5456 25.9539 39.7288 25.5398C39.912 25.1258 40.3003 24.5152 40.5918 24.1831C40.8832 23.8508 41.3488 23.4345 41.6265 23.2579C41.9042 23.0812 42.3638 22.8478 42.6478 22.7393C42.9626 22.6191 43.6105 22.5573 44.3065 22.581C45.1584 22.6101 45.6217 22.7074 46.1297 22.9639ZM95.8603 23.0237C96.2601 23.2345 96.9087 23.7692 97.3014 24.2118C97.7624 24.7312 98.1211 25.3211 98.3128 25.8752C98.4762 26.3473 98.6481 26.9155 98.6946 27.138L98.7794 27.5423H93.777H88.7745L88.8585 27.138C88.9047 26.9155 89.0448 26.4359 89.1699 26.0721C89.2949 25.7082 89.4945 25.2451 89.6136 25.0429C89.7325 24.8407 90.0916 24.3886 90.4114 24.0383C90.7312 23.6881 91.2499 23.2645 91.564 23.0974C91.8781 22.93 92.2957 22.7389 92.492 22.6725C92.6883 22.6062 93.3629 22.5717 93.9911 22.596C94.8836 22.6307 95.2922 22.7242 95.8603 23.0237ZM126.523 22.9902C126.904 23.186 127.557 23.7256 127.974 24.1894C128.439 24.7068 128.839 25.333 129.009 25.8096C129.162 26.237 129.326 26.8016 129.375 27.0645L129.463 27.5423H124.46C119.762 27.5423 119.461 27.5266 119.531 27.285C119.572 27.1436 119.65 26.8292 119.704 26.5866C119.758 26.344 119.96 25.8148 120.153 25.4105C120.346 25.0061 120.771 24.3886 121.097 24.0383C121.422 23.6881 121.946 23.2645 122.26 23.0974C122.574 22.93 122.992 22.7389 123.188 22.6725C123.384 22.6062 124.059 22.5703 124.688 22.5929C125.555 22.6241 125.998 22.7202 126.523 22.9902Z" fill="white"/>
<path d="M13.4531 30.6386L13.7535 30.9383L27.5017 22.8117L13.7535 0L13.4531 1.02069V30.6386Z" fill="#BFBFBF"/>
<path d="M13.7483 30.9385V0L0 22.8117L13.7483 30.9385Z" fill="white"/>
<path d="M13.5781 44.2982L13.7473 44.7924L27.5038 25.4188L13.7474 33.5413L13.5782 33.7477L13.5781 44.2982Z" fill="#C7C7C5"/>
<path d="M0 25.4188L13.7483 44.7924V33.5413L0 25.4188Z" fill="white"/>
<path d="M13.7422 16.5629V30.9383L27.4902 22.8118L13.7422 16.5629Z" fill="#8E8E8E"/>
<path d="M13.7481 16.5629L0 22.8117L13.7481 30.9382V16.5629Z" fill="#BCBCBC"/>
</svg>
