<svg width="178" height="120" viewBox="0 0 178 120" fill="none" xmlns="http://www.w3.org/2000/svg">
<path fill-rule="evenodd" clip-rule="evenodd" d="M0.710938 113.769V119.974H1.86845H3.02597V117.41V114.846H5.50636H7.98675V113.854V112.862H5.50636H3.02597V111.208V109.554H6.17606H9.32616L9.27655 108.603L9.22694 107.652L4.96894 107.607L0.710938 107.563V113.769ZM14.6019 107.859C14.2474 108.036 13.8641 108.435 13.6098 108.892C13.1992 109.63 13.1956 109.672 13.1956 113.689C13.1956 116.549 13.2574 117.915 13.4061 118.334C13.5218 118.66 13.8428 119.144 14.1193 119.409L14.6221 119.891L17.9948 119.942C20.492 119.979 21.4658 119.938 21.7463 119.783C21.9545 119.667 22.1761 119.587 22.2386 119.604C22.3009 119.622 22.5614 119.21 22.8173 118.688L23.2825 117.741V113.854C23.2825 110.473 23.2428 109.864 22.9777 109.177C22.773 108.646 22.4754 108.252 22.0712 107.978C21.4832 107.578 21.3976 107.569 18.3247 107.569C15.6616 107.569 15.0914 107.614 14.6019 107.859ZM28.3569 112.82C28.3949 116.688 28.464 118.169 28.6191 118.44C28.735 118.643 29.0261 119.005 29.266 119.245C29.5059 119.485 29.9316 119.747 30.2119 119.828C30.4922 119.908 31.92 119.974 33.3849 119.974C34.9769 119.974 36.2695 119.897 36.5979 119.782C36.9002 119.677 37.2891 119.472 37.4624 119.327C37.6357 119.183 37.9019 118.841 38.0539 118.568C38.2923 118.14 38.3375 117.352 38.3838 112.82L38.4375 107.569H37.2745H36.1117L36.0634 112.523C36.0266 116.309 35.9646 117.527 35.8007 117.691C35.6548 117.837 34.9382 117.924 33.5611 117.96C31.7395 118.009 31.4951 117.982 31.1298 117.686L30.7237 117.357L30.6752 112.463L30.6269 107.569H29.4659H28.3049L28.3569 112.82ZM43.6493 107.679C43.5886 107.74 43.539 110.531 43.539 113.882V119.974H44.694H45.8489L45.8929 115.219L45.9367 110.463L46.5707 111.747C46.9194 112.453 47.3064 113.133 47.4306 113.257C47.5547 113.381 48.0075 114.218 48.4366 115.116C48.8655 116.014 49.2743 116.772 49.3448 116.8C49.4152 116.829 49.8167 117.555 50.237 118.413L51.001 119.974H52.5615H54.122V113.771V107.569H52.9645H51.807V111.964C51.807 115.686 51.7722 116.324 51.5803 116.132C51.4556 116.007 51.0076 115.189 50.5846 114.313C50.1618 113.438 49.7499 112.697 49.6694 112.667C49.5888 112.638 49.1452 111.832 48.6835 110.877C48.2218 109.922 47.8392 109.215 47.8332 109.306C47.8273 109.397 47.6015 109.043 47.3317 108.52L46.8409 107.569H45.3002C44.4528 107.569 43.7098 107.619 43.6493 107.679ZM59.2481 113.774V120L63.2037 119.945C67.0412 119.893 67.1712 119.88 67.5551 119.519C67.7727 119.314 68.0317 119.147 68.1306 119.147C68.2293 119.147 68.4527 118.905 68.6266 118.609C68.8006 118.314 69.0313 117.631 69.1391 117.093C69.2469 116.555 69.335 115.06 69.335 113.771C69.335 112.483 69.2469 110.988 69.1391 110.45C69.0313 109.911 68.8006 109.229 68.6266 108.933C68.4527 108.638 68.2293 108.396 68.1306 108.396C68.0317 108.396 67.7727 108.228 67.5551 108.024C67.171 107.663 67.0428 107.65 63.2037 107.6L59.2481 107.547V113.774ZM74.1305 113.771V119.979L78.6365 119.935L83.1425 119.891L83.1922 118.94L83.2418 117.989H79.8436H76.4455V116.252V114.516H79.2566H82.0677V113.523V112.531H79.2566H76.4455V111.042V109.554H79.8436H83.2418L83.1922 108.603L83.1425 107.652L78.6365 107.608L74.1305 107.564V113.771ZM87.6899 113.766V119.974H88.8474H90.005V117.493V115.012H92.2279C94.2689 115.012 94.47 115.039 94.6843 115.345C94.8293 115.552 94.9272 116.162 94.9433 116.958C94.9573 117.661 95.014 118.628 95.0691 119.105L95.1691 119.974H96.3318H97.4944L97.3823 117.865C97.3206 116.705 97.2257 115.507 97.1715 115.203C97.106 114.836 96.9147 114.554 96.6013 114.363L96.1299 114.077L96.6079 113.723C96.8707 113.529 97.1764 113.095 97.2872 112.76C97.4155 112.371 97.4592 111.589 97.4078 110.604C97.3378 109.266 97.2667 108.972 96.8765 108.409C96.6288 108.052 96.3275 107.721 96.2068 107.675C96.0862 107.628 94.1206 107.583 91.8386 107.575L87.6899 107.559V113.766ZM103.647 107.72C103.465 107.797 103.121 108.056 102.882 108.296C102.643 108.535 102.401 108.963 102.344 109.246C102.288 109.529 102.242 110.505 102.242 111.416C102.242 112.784 102.299 113.164 102.574 113.608C102.756 113.904 103.113 114.232 103.367 114.337C103.62 114.442 105.079 114.628 106.61 114.75C108.585 114.909 109.433 115.039 109.535 115.199C109.613 115.324 109.679 115.858 109.68 116.387C109.682 116.916 109.606 117.493 109.512 117.669C109.355 117.962 109.145 117.989 107.064 117.989C105.514 117.989 104.725 117.926 104.59 117.791C104.481 117.681 104.391 117.198 104.391 116.715V115.839H103.234H102.076L102.077 116.873C102.078 117.441 102.154 118.181 102.247 118.516C102.34 118.851 102.643 119.316 102.921 119.55L103.424 119.974H106.865C109.519 119.974 110.433 119.919 110.863 119.732C111.169 119.599 111.358 119.488 111.283 119.484C111.208 119.481 111.262 119.363 111.403 119.222C111.543 119.081 111.742 118.654 111.845 118.272C111.95 117.882 112.005 116.852 111.969 115.923C111.921 114.661 111.829 114.139 111.584 113.728C111.372 113.372 111.064 113.133 110.681 113.027C110.362 112.939 108.946 112.782 107.535 112.678C106.124 112.575 104.874 112.413 104.757 112.319C104.608 112.2 104.558 111.769 104.591 110.893L104.639 109.636H106.954H109.269L109.412 110.587L109.555 111.538H110.708H111.861L111.747 110.257C111.683 109.538 111.515 108.793 111.365 108.561C111.218 108.334 111.116 108.086 111.138 108.012C111.161 107.936 111.109 107.918 111.024 107.971C110.938 108.024 110.837 107.974 110.799 107.859C110.748 107.703 109.891 107.643 107.354 107.616C105.497 107.596 103.829 107.643 103.647 107.72ZM123.408 113.771V119.974H124.648H125.888V117.41V114.846H128.203H130.518V113.854V112.862H128.203H125.888V111.208V109.554H128.864H131.841V108.561V107.569H127.624H123.408V113.771ZM136.336 112.813C136.383 117.506 136.42 118.13 136.686 118.618C136.85 118.918 137.092 119.205 137.223 119.255C137.354 119.306 137.425 119.406 137.38 119.478C137.336 119.55 137.429 119.667 137.588 119.738C137.747 119.809 139.164 119.899 140.739 119.937C142.313 119.975 143.847 119.961 144.148 119.904C144.449 119.848 144.91 119.617 145.172 119.392C145.434 119.166 145.692 118.982 145.746 118.982C145.8 118.982 145.947 118.777 146.073 118.527C146.25 118.175 146.315 116.88 146.36 112.82L146.417 107.569H145.254H144.091L144.043 112.523C144.006 116.304 143.944 117.527 143.781 117.691C143.639 117.833 142.928 117.925 141.668 117.965C140.41 118.005 139.602 117.956 139.277 117.822C139.007 117.71 138.773 117.608 138.758 117.597C138.742 117.585 138.687 115.343 138.634 112.614L138.538 107.652L137.411 107.602L136.284 107.553L136.336 112.813ZM151.519 113.771V119.974H152.676H153.834L153.841 115.301L153.848 110.629L154.194 111.29C154.385 111.654 154.595 111.989 154.661 112.035C154.727 112.08 155.088 112.762 155.463 113.551C155.838 114.339 156.242 115.084 156.36 115.205C156.479 115.326 156.94 116.17 157.385 117.079C157.83 117.989 158.289 118.808 158.405 118.899C158.52 118.99 158.69 119.269 158.783 119.519C158.95 119.969 158.967 119.974 160.444 119.974H161.936V113.764V107.554L160.82 107.603L159.704 107.652L159.621 112.035L159.539 116.418L159.136 115.467C158.915 114.944 158.672 114.516 158.597 114.516C158.522 114.516 158.249 114.088 157.989 113.565C157.73 113.042 157.396 112.39 157.248 112.117C157.099 111.844 156.977 111.516 156.976 111.387C156.976 111.258 156.925 111.203 156.864 111.264C156.803 111.325 156.481 110.835 156.148 110.175C155.816 109.515 155.438 108.794 155.309 108.574C155.18 108.353 154.964 108.037 154.83 107.871C154.626 107.618 154.339 107.569 153.053 107.569H151.519V113.771ZM167.183 107.668C167.117 107.735 167.062 110.536 167.062 113.892V119.995L171.006 119.943C174.045 119.903 175.012 119.839 175.223 119.664C175.373 119.539 175.496 119.48 175.496 119.532C175.496 119.584 175.67 119.463 175.882 119.263C176.095 119.063 176.387 118.713 176.531 118.485C176.675 118.258 176.844 117.718 176.907 117.286C176.97 116.854 177.087 116.5 177.168 116.5C177.249 116.5 177.315 115.272 177.315 113.771C177.315 112.27 177.25 111.042 177.17 111.042C177.091 111.042 176.976 110.731 176.916 110.35C176.855 109.969 176.687 109.408 176.542 109.104C176.385 108.772 175.974 108.37 175.516 108.101C174.754 107.653 174.738 107.651 171.028 107.6C168.98 107.571 167.25 107.602 167.183 107.668ZM20.7665 110.133C20.8509 110.405 20.9221 112.08 20.925 113.854C20.9281 115.85 20.86 117.253 20.7462 117.534L20.5623 117.989H18.2489C16.0232 117.989 15.9276 117.975 15.7231 117.617C15.5686 117.346 15.5106 116.297 15.5106 113.771C15.5106 111.225 15.568 110.197 15.7256 109.921C15.9352 109.554 15.9961 109.546 18.2769 109.591L20.6134 109.636L20.7665 110.133ZM66.0819 109.736C66.3323 109.85 66.5674 110.175 66.7098 110.604C66.8649 111.072 66.9373 112.133 66.9373 113.937C66.9373 115.755 66.8692 116.745 66.7194 117.099C66.5997 117.383 66.3171 117.699 66.0915 117.802C65.857 117.909 64.8006 117.989 63.6224 117.989H61.5632V113.771V109.554H63.6224C64.7713 109.554 65.8585 109.634 66.0819 109.736ZM94.8068 109.81C94.9345 109.964 95.0235 110.549 95.0299 111.277C95.0368 112.065 94.9624 112.584 94.8176 112.758C94.6312 112.983 94.2162 113.027 92.2998 113.027H90.005V111.29V109.554H92.2998C94.169 109.554 94.6339 109.601 94.8068 109.81ZM174.08 109.807C174.257 109.941 174.423 110.143 174.45 110.257C174.476 110.37 174.582 110.873 174.684 111.373C174.797 111.92 174.84 113.189 174.793 114.554C174.742 116.031 174.641 116.913 174.506 117.076C174.391 117.214 174.363 117.329 174.442 117.331C174.521 117.333 174.4 117.48 174.173 117.658C173.811 117.942 173.488 117.982 171.568 117.985L169.377 117.989V113.771V109.554L171.568 109.559C173.233 109.563 173.837 109.623 174.08 109.807Z" fill="white"/>
<path fill-rule="evenodd" clip-rule="evenodd" d="M48.25 40.1887V80.3773H89.0047H129.759V40.1887V0H89.0047H48.25V40.1887Z" fill="#EAEAEA"/>
<path fill-rule="evenodd" clip-rule="evenodd" d="M48.25 10.1239V20.2477H89.0047H129.759V10.1239V0H89.0047H48.25V10.1239ZM48.25 60.1296V80.3773H89.0047H129.759V60.1296V39.8819H89.0047H48.25V60.1296Z" fill="#B6B6B6"/>
<path fill-rule="evenodd" clip-rule="evenodd" d="M48.25 10.1239V20.2477H89.0047H129.759V10.1239V0H89.0047H48.25V10.1239ZM48.25 69.9467V80.3773H89.0047H129.759V69.9467V59.516H89.0047H48.25V69.9467Z" fill="white"/>
<path d="M48.25 80.3773V69.3731V58.8679H89.34H129.759V69.6226V80.3773H89.4129H48.25Z" fill="#373737"/>
</svg>
