<svg width="73" height="71" viewBox="0 0 73 71" fill="none" xmlns="http://www.w3.org/2000/svg">
<path fill-rule="evenodd" clip-rule="evenodd" d="M0.710938 35.5V71H36.7109H72.7109V35.5V0H36.7109H0.710938V35.5Z" fill="#EAEAEA"/>
<path fill-rule="evenodd" clip-rule="evenodd" d="M0.710938 8.94275V17.8855H36.7109H72.7109V8.94275V0H36.7109H0.710938V8.94275ZM0.710938 53.1145V71H36.7109H72.7109V53.1145V35.229H36.7109H0.710938V53.1145Z" fill="#B6B6B6"/>
<path fill-rule="evenodd" clip-rule="evenodd" d="M0.710938 8.94275V17.8855H36.7109H72.7109V8.94275V0H36.7109H0.710938V8.94275ZM0.710938 61.7863V71H36.7109H72.7109V61.7863V52.5725H36.7109H0.710938V61.7863Z" fill="white"/>
<path d="M0.710938 71V61.2796V52H37.0071H72.7109V61.5V71H37.0715H0.710938Z" fill="#373737"/>
</svg>
