<svg width="141" height="123" viewBox="0 0 141 123" fill="none" xmlns="http://www.w3.org/2000/svg">
<path fill-rule="evenodd" clip-rule="evenodd" d="M0.572266 117.267V122.629H1.41872H2.26517V120.574V118.519L6.13767 118.493L10.0102 118.468L10.5162 118.216C11.8192 117.569 12.5957 116.068 12.3438 114.685C12.0922 113.302 11.0504 112.252 9.67718 111.997C9.35841 111.938 7.60363 111.904 4.87358 111.904H0.572266V117.267ZM25.1315 112.054C25.0883 112.137 23.8447 114.521 22.3679 117.352C20.891 120.184 19.6658 122.529 19.6451 122.564C19.6243 122.6 20.0381 122.628 20.5646 122.627L21.5219 122.626L22.117 121.448L22.7122 120.269L26.2794 120.247L29.8467 120.225L30.4485 121.427L31.0503 122.629H31.9784C32.4889 122.629 32.9066 122.607 32.9066 122.579C32.9066 122.552 31.6592 120.139 30.1346 117.217L27.3626 111.904H26.2862C25.3475 111.904 25.1999 111.924 25.1315 112.054ZM42.4715 117.267V122.629H43.318H44.1644L44.1678 118.232L44.1711 113.835L44.5569 114.26C44.769 114.493 46.5836 116.472 48.5892 118.657L52.2359 122.629H53.3218H54.4077L54.386 117.288L54.3641 111.947H53.5177H52.6712L52.6289 116.295L52.5866 120.643L48.5753 116.274L44.5641 111.904H43.5178H42.4715V117.267ZM63.9436 111.961C63.9123 111.993 63.8867 112.36 63.8867 112.777V113.534H66.426H68.9654V118.082V122.629H69.8118H70.6583V118.082V113.534H73.2008H75.7433L75.719 112.741L75.6947 111.947L69.8476 111.925C66.6318 111.913 63.975 111.929 63.9436 111.961ZM85.2172 117.267V122.629H90.7191H96.221V121.814V120.999H91.5656H86.9101V119.54V118.082H89.9996H93.0892V117.267V116.451H89.9996H86.9101V114.993V113.534H91.5656H96.221V112.719V111.904H90.7191H85.2172V117.267ZM105.786 117.267V122.629H106.632H107.479V120.569V118.508L110.156 118.531L112.833 118.553L114.243 120.57L115.653 122.586L116.645 122.61C117.19 122.623 117.636 122.61 117.636 122.58C117.636 122.55 117.027 121.624 116.282 120.522C115.537 119.419 114.928 118.497 114.928 118.471C114.928 118.446 114.994 118.425 115.076 118.425C115.379 118.425 116.293 117.905 116.657 117.525C118.469 115.635 117.459 112.474 114.891 111.998C114.572 111.938 112.82 111.904 110.087 111.904H105.786V117.267ZM132.227 112.183C132.035 112.562 127.714 120.842 127.191 121.835L126.772 122.629L127.727 122.627L128.682 122.625L129.285 121.447L129.887 120.269L133.453 120.247L137.018 120.225L137.612 121.427L138.206 122.629H139.137C139.648 122.629 140.067 122.605 140.067 122.575C140.067 122.545 138.821 120.132 137.298 117.213L134.529 111.904H133.449H132.369L132.227 112.183ZM9.84436 113.696C11.1238 114.285 11.1313 116.105 9.85705 116.749L9.42672 116.966H5.84599H2.26517V115.25V113.534L5.88374 113.536C9.21138 113.538 9.52982 113.551 9.84436 113.696ZM27.6442 116.031C28.3568 117.404 28.9241 118.543 28.9047 118.563C28.8853 118.583 27.6884 118.589 26.245 118.576L23.6207 118.553L24.9396 116.044C25.6651 114.664 26.2789 113.534 26.3035 113.534C26.3282 113.534 26.9315 114.658 27.6442 116.031ZM115.055 113.697C115.464 113.888 115.722 114.16 115.897 114.584C116.275 115.5 115.727 116.599 114.75 116.883C114.585 116.931 112.981 116.966 110.971 116.966H107.479V115.25V113.534L111.097 113.536C114.434 113.538 114.742 113.551 115.055 113.697ZM134.809 116.029C135.522 117.4 136.088 118.54 136.068 118.561C136.047 118.582 134.85 118.589 133.409 118.576L130.788 118.553L132.105 116.044C132.83 114.664 133.443 113.535 133.468 113.535C133.493 113.535 134.096 114.657 134.809 116.029Z" fill="white"/>
<path fill-rule="evenodd" clip-rule="evenodd" d="M21.7043 50.6323L21.8251 100.391H70.6112H119.397L119.518 50.6323L119.638 0.874023H70.6112H21.584L21.7043 50.6323ZM55.6912 62.5599V40.6325V18.7051H51.1915H46.6918V40.6325V62.5599H51.1915H55.6912ZM75.1109 50.5118V82.3186H70.6112H66.1115V50.5118V18.7051H70.6112H75.1109V50.5118ZM94.5306 62.5599V40.6325V18.7051H90.3469C88.0454 18.7051 86.0205 18.8497 85.8472 19.0265C85.6734 19.2029 85.5313 29.0702 85.5313 40.9539V62.5599H90.0309H94.5306Z" fill="white"/>
</svg>
