<svg width="65" height="65" viewBox="0 0 65 65" fill="none"
  xmlns="http://www.w3.org/2000/svg">
  <path fill-rule="evenodd" clip-rule="evenodd" d="M0 64.9997L62.4596 12.9888C63.2248 12.3217 63.8446 11.5046 64.2808 10.5881C64.717 9.67159 64.9603 8.67521 64.9956 7.6608C65.0308 6.64636 64.8572 5.6355 64.4855 4.69094C64.1139 3.74635 63.5523 2.88819 62.8352 2.16968C62.1165 1.45121 61.2576 0.888198 60.3121 0.51571C59.3666 0.143225 58.3547 -0.0307769 57.3391 0.00445608C56.3232 0.0396891 55.3257 0.28341 54.4083 0.720522C53.4908 1.15764 52.673 1.77877 52.0058 2.54532L0 64.9997ZM30.1309 9.60099L3.83213 29.3235L23.5561 3.02685C23.9596 2.48919 24.4738 2.04442 25.0639 1.72254C25.654 1.40067 26.3066 1.20921 26.977 1.16113C27.6474 1.11305 28.3204 1.20946 28.9504 1.44384C29.5804 1.67822 30.1527 2.04512 30.6288 2.51971C31.1056 2.99514 31.4745 3.56749 31.7106 4.19798C31.9467 4.8285 32.0444 5.50244 31.9973 6.17407C31.9499 6.84568 31.7591 7.49927 31.4371 8.09056C31.1151 8.68185 30.6694 9.19695 30.1309 9.60099ZM61.9721 41.4452L35.6732 61.1675L55.3974 34.871C55.8006 34.3333 56.3148 33.8885 56.9049 33.5666C57.495 33.2448 58.1474 33.0533 58.818 33.0052C59.4884 32.9572 60.1614 33.0535 60.7912 33.288C61.4213 33.5222 61.994 33.8892 62.4698 34.3637C62.9467 34.8392 63.3155 35.4116 63.5516 36.0421C63.7879 36.6726 63.8857 37.3465 63.8383 38.0181C63.7912 38.6897 63.5999 39.3434 63.2779 39.9347C62.956 40.5259 62.5107 41.0411 61.9721 41.4452Z" fill="white"/>
</svg>
