<svg width="175" height="32" viewBox="0 0 175 32" fill="none"
  xmlns="http://www.w3.org/2000/svg">
  <path fill-rule="evenodd" clip-rule="evenodd" d="M0 31.9843L30.7344 6.39138C31.1109 6.06314 31.4159 5.66107 31.6306 5.21008C31.8452 4.75909 31.9649 4.2688 31.9823 3.76964C31.9996 3.27047 31.9142 2.77305 31.7313 2.30826C31.5484 1.84346 31.2721 1.42119 30.9193 1.06763C30.5656 0.714096 30.143 0.437054 29.6777 0.253765C29.2124 0.0704766 28.7145 -0.0151443 28.2148 0.0021927C27.7149 0.0195298 27.224 0.139457 26.7726 0.354546C26.3212 0.569636 25.9187 0.875275 25.5904 1.25247L0 31.9843ZM14.8265 4.72435L1.88567 14.4292L11.5912 1.48942C11.7898 1.22485 12.0428 1.00599 12.3332 0.84761C12.6235 0.689226 12.9446 0.595015 13.2745 0.571357C13.6044 0.547699 13.9356 0.595138 14.2456 0.71047C14.5556 0.825801 14.8372 1.00634 15.0715 1.23987C15.3061 1.47382 15.4876 1.75545 15.6038 2.0657C15.72 2.37596 15.768 2.70758 15.7449 3.03807C15.7216 3.36854 15.6277 3.69016 15.4692 3.98111C15.3108 4.27207 15.0915 4.52553 14.8265 4.72435ZM30.4945 20.3939L17.5537 30.0986L27.2593 17.1589C27.4578 16.8944 27.7108 16.6755 28.0011 16.5171C28.2915 16.3587 28.6125 16.2645 28.9425 16.2408C29.2724 16.2172 29.6036 16.2646 29.9135 16.38C30.2235 16.4952 30.5053 16.6758 30.7395 16.9093C30.9741 17.1433 31.1556 17.425 31.2718 17.7352C31.3881 18.0454 31.4361 18.3771 31.4128 18.7075C31.3897 19.038 31.2955 19.3597 31.1371 19.6506C30.9787 19.9415 30.7596 20.195 30.4945 20.3939Z" fill="white"/>
  <path fill-rule="evenodd" clip-rule="evenodd" d="M49.118 15.9921C49.118 11.768 52.7087 8.11027 57.6852 8.11027C60.1522 8.11027 62.3558 9.01049 63.9233 10.4252C64.0169 10.5097 64.1612 10.5065 64.2484 10.4153L67.2451 7.27497C67.3322 7.18369 67.329 7.03893 67.2362 6.95343C64.7609 4.67294 61.3638 3.31262 57.6852 3.31262C50.3215 3.31262 44.3203 8.86324 44.3203 15.9921C44.3203 23.121 50.3215 28.6716 57.6852 28.6716C60.9591 28.6716 64.1949 27.5738 66.5918 25.6911L67.4216 25.0395C67.4767 24.9962 67.509 24.9299 67.509 24.8598V23.8046V21.7036V21.4585V15.9921V14.1644C67.509 14.0382 67.4067 13.936 67.2805 13.936H61.2106C61.1477 13.936 61.0876 13.9619 61.0445 14.0076L57.1628 18.1199C57.0253 18.2656 57.1286 18.5052 57.3289 18.5052H62.4828C62.6091 18.5052 62.7113 18.6074 62.7113 18.7336V21.4585V21.7036V22.4085C62.7113 22.4897 62.6684 22.5649 62.5976 22.6049C61.2055 23.391 59.4707 23.874 57.6852 23.874C52.7087 23.874 49.118 20.2162 49.118 15.9921ZM130.677 3.88389H125.3C125.113 3.88389 125.005 4.09819 125.117 4.24888L133.88 16.0038C133.942 16.0856 133.94 16.198 133.879 16.279L125.125 27.7335C125.011 27.8838 125.118 28.1006 125.307 28.1006H131.127C131.2 28.1006 131.267 28.0666 131.311 28.0086L136.888 20.5284C136.979 20.4058 137.162 20.4058 137.253 20.5284L142.83 28.0086C142.873 28.0666 142.941 28.1006 143.013 28.1006H148.833C149.022 28.1006 149.13 27.8838 149.014 27.7335L140.262 16.279C140.2 16.198 140.199 16.0856 140.26 16.0038L149.023 4.24888C149.135 4.09819 149.028 3.88389 148.839 3.88389H143.464C143.392 3.88389 143.326 3.91707 143.282 3.97362L137.252 11.8649C137.161 11.9846 136.98 11.9846 136.889 11.8649L130.858 3.97362C130.815 3.91707 130.748 3.88389 130.677 3.88389ZM88.2644 3.88366H83.0786C82.9882 3.88366 82.9063 3.93691 82.8698 4.01952L72.3347 27.7793C72.2678 27.9304 72.3783 28.1004 72.5436 28.1004H77.5252C77.6163 28.1004 77.6988 28.0462 77.7349 27.9625L79.7484 23.3028H91.5945L93.6081 27.9625C93.6442 28.0462 93.7266 28.1004 93.8178 28.1004H98.7995C98.9646 28.1004 99.0752 27.9304 99.0083 27.7793L88.4733 4.01951C88.4366 3.93691 88.3547 3.88366 88.2644 3.88366ZM89.7189 18.9621H81.6241L85.4618 10.0806C85.5411 9.89681 85.8018 9.89681 85.8812 10.0806L89.7189 18.9621ZM104.74 3.88377C104.614 3.88377 104.511 3.98605 104.511 4.11223V27.872C104.511 27.9982 104.614 28.1005 104.74 28.1005H108.509H109.766H118.108C118.178 28.1005 118.244 28.0685 118.288 28.0136L121.353 24.1297C121.472 23.98 121.365 23.7597 121.174 23.7597H109.994V4.11223C109.994 3.98605 109.892 3.88377 109.766 3.88377H104.74ZM160.035 8.45296C160.035 8.32678 160.138 8.2245 160.264 8.2245H174.314C174.441 8.2245 174.542 8.12222 174.542 7.99604V4.11223C174.542 3.98605 174.441 3.88377 174.314 3.88377H154.78C154.778 3.88377 154.776 3.88381 154.774 3.88389C154.651 3.88389 154.552 3.98297 154.552 4.10519V27.8721C154.552 27.9984 154.655 28.1006 154.78 28.1006H160.035V28.1005H174.771C174.897 28.1005 174.999 27.9982 174.999 27.872V23.9882C174.999 23.862 174.897 23.7597 174.771 23.7597H160.264C160.138 23.7597 160.035 23.6575 160.035 23.5313V18.2767C160.035 18.1505 160.138 18.0483 160.264 18.0483H173.4C173.527 18.0483 173.628 17.946 173.628 17.8198V13.936C173.628 13.8098 173.527 13.7075 173.4 13.7075H160.264C160.138 13.7075 160.035 13.6053 160.035 13.4791V8.45296Z" fill="white"/>
</svg>
