<svg width="569" height="463" viewBox="0 0 569 463" fill="none" xmlns="http://www.w3.org/2000/svg">
<g clip-path="url(#clip0_1014_21118)">
<mask id="mask0_1014_21118" style="mask-type:luminance" maskUnits="userSpaceOnUse" x="16" y="145" width="440" height="173">
<path d="M455.916 145H16V317.693H455.916V145Z" fill="white"/>
</mask>
<g mask="url(#mask0_1014_21118)">
<path d="M57.3056 186.431H63.4977V282.185C63.4977 303.387 47.2538 317.693 16 317.693V297.558C29.4198 297.558 36.1246 291.907 36.1246 280.417V186.431H57.3056ZM39.1265 170.88C37.701 169.488 36.5682 167.826 35.7947 165.99C35.0213 164.154 34.6228 162.182 34.6228 160.19C34.6228 158.197 35.0213 156.225 35.7947 154.389C36.5682 152.553 37.701 150.891 39.1265 149.5C40.517 148.074 42.1786 146.94 44.0136 146.166C45.8486 145.392 47.8198 144.994 49.8112 144.994C51.8025 144.994 53.7737 145.392 55.6087 146.166C57.4437 146.94 59.1053 148.074 60.4958 149.5C61.9212 150.891 63.0541 152.553 63.8276 154.389C64.6011 156.225 64.9995 158.197 64.9995 160.19C64.9995 162.182 64.6011 164.154 63.8276 165.99C63.0541 167.826 61.9212 169.488 60.4958 170.88C59.1053 172.306 57.4437 173.439 55.6087 174.213C53.7737 174.987 51.8025 175.386 49.8112 175.386C47.8198 175.386 45.8486 174.987 44.0136 174.213C42.1786 173.439 40.517 172.306 39.1265 170.88Z" fill="white"/>
<path d="M142.741 186.431H170.114V277.058H142.741V263.809C138.597 268.626 133.442 272.472 127.645 275.071C121.847 277.67 115.549 278.959 109.196 278.847C88.7055 278.847 75.1082 266.132 75.1082 242.283V186.452H102.492V231.86C102.492 247.557 108.673 255.531 121.215 255.531C133.222 255.531 142.751 246.165 142.751 227.61L142.741 186.431Z" fill="white"/>
<path d="M340.911 221.29V277.11H313.549V230.823C313.549 215.628 307.719 208.034 296.06 208.041C284.764 208.041 275.046 217.575 275.046 235.951V277.11H247.673V230.823C247.673 215.628 241.847 208.034 230.195 208.041C218.898 208.041 209.181 217.575 209.181 235.951V277.11H181.808V186.483H209.181V199.554C218.187 189.665 228.783 184.715 241.324 184.715C257.212 184.715 267.473 190.899 272.222 203.269C281.943 190.864 293.598 184.662 307.189 184.662C328.203 184.662 340.911 195.964 340.911 221.29Z" fill="white"/>
<path d="M442.674 197.032C451.502 205.509 455.916 216.989 455.916 231.66C455.916 246.332 451.502 257.823 442.674 266.111C433.846 274.588 422.717 278.826 409.119 278.826C397.112 278.826 387.398 274.94 379.979 267.168V315.935H352.616V186.431H379.979V196.174C387.398 188.409 397.112 184.523 409.119 184.516C422.717 184.484 433.846 188.723 442.674 197.032ZM427.309 231.66C427.309 215.408 417.247 204.629 403.649 204.629C390.229 204.629 379.979 214.874 379.979 231.66C379.979 248.446 390.229 258.691 403.649 258.691C417.247 258.691 427.309 247.913 427.309 231.66Z" fill="white"/>
</g>
<path d="M553 252.01V273.412H467.434V252.01H553Z" fill="white"/>
</g>
<defs>
<clipPath id="clip0_1014_21118">
<rect width="537" height="173" fill="white" transform="translate(16 145)"/>
</clipPath>
</defs>
</svg>
