<svg width="168" height="23" viewBox="0 0 168 23" fill="none" xmlns="http://www.w3.org/2000/svg">
<path fill-rule="evenodd" clip-rule="evenodd" d="M0.666016 22.6845H58.5101V0.333008H0.666016V22.6845ZM38.6009 4.25479H54.5385V6.39399H47.8932V18.7377H45.4314V6.39399H38.6009V4.25479ZM26.81 4.25479H29.2899V16.598H39.8589V18.7377H26.81V4.25479ZM13.3528 4.25479H15.1486L23.7557 18.7377H20.9793L14.2606 7.07311L7.43002 18.7377H4.69034L13.3528 4.25479Z" fill="white"/>
<path fill-rule="evenodd" clip-rule="evenodd" d="M76.3009 7.73228C76.3009 6.84099 75.7573 6.39534 74.6718 6.39534H66.0646C64.9785 6.39534 64.436 6.84099 64.436 7.73228V15.2619C64.436 16.1531 64.9785 16.5988 66.0646 16.5988H74.6718C75.7573 16.5988 76.3009 16.1531 76.3009 15.2619V7.73228ZM66.0646 18.7385C65.3241 18.7385 64.6948 18.6532 64.1768 18.4816C63.6582 18.3099 63.2355 18.0701 62.9086 17.7614C62.5817 17.4528 62.3443 17.086 62.1963 16.6606C62.0483 16.2358 61.9737 15.7624 61.9737 15.2411V7.75307C61.9737 7.23173 62.0483 6.75836 62.1963 6.33351C62.3443 5.90865 62.5817 5.54137 62.9086 5.23272C63.2355 4.92408 63.6582 4.6842 64.1768 4.51255C64.6948 4.34143 65.3241 4.25561 66.0646 4.25561H74.6718C75.4123 4.25561 76.0416 4.34143 76.5601 4.51255C77.0782 4.6842 77.5009 4.92408 77.8283 5.23272C78.1547 5.54137 78.3921 5.90865 78.5406 6.33351C78.6886 6.75836 78.7632 7.23173 78.7632 7.75307V15.2411C78.7632 15.7624 78.6886 16.2358 78.5406 16.6606C78.3921 17.086 78.1547 17.4528 77.8283 17.7614C77.5009 18.0701 77.0782 18.3099 76.5601 18.4816C76.0416 18.6532 75.4123 18.7385 74.6718 18.7385H66.0646Z" fill="white"/>
<path fill-rule="evenodd" clip-rule="evenodd" d="M98.9755 18.7385L85.0748 7.46521V18.7385H82.9271V4.25561H85.0556L98.0321 15.015V4.25561H100.179V18.7385H98.9755Z" fill="white"/>
<path fill-rule="evenodd" clip-rule="evenodd" d="M118.67 7.73228C118.67 6.84099 118.127 6.39534 117.041 6.39534H108.433C107.347 6.39534 106.805 6.84099 106.805 7.73228V15.2619C106.805 16.1531 107.347 16.5988 108.433 16.5988H117.041C118.127 16.5988 118.67 16.1531 118.67 15.2619V7.73228ZM108.433 18.7385C107.693 18.7385 107.064 18.6532 106.546 18.4816C106.028 18.3099 105.605 18.0701 105.278 17.7614C104.951 17.4528 104.713 17.086 104.565 16.6606C104.417 16.2358 104.343 15.7624 104.343 15.2411V7.75307C104.343 7.23173 104.417 6.75836 104.565 6.33351C104.713 5.90865 104.951 5.54137 105.278 5.23272C105.605 4.92408 106.028 4.6842 106.546 4.51255C107.064 4.34143 107.693 4.25561 108.433 4.25561H117.041C117.781 4.25561 118.411 4.34143 118.929 4.51255C119.448 4.6842 119.87 4.92408 120.197 5.23272C120.524 5.54137 120.761 5.90865 120.909 6.33351C121.057 6.75836 121.132 7.23173 121.132 7.75307V15.2411C121.132 15.7624 121.057 16.2358 120.909 16.6606C120.761 17.086 120.524 17.4528 120.197 17.7614C119.87 18.0701 119.448 18.3099 118.929 18.4816C118.411 18.6532 117.781 18.7385 117.041 18.7385H108.433Z" fill="white"/>
<path fill-rule="evenodd" clip-rule="evenodd" d="M142.863 18.7385V8.59638L136.236 18.7385H134.219L127.573 8.61717V18.7385H125.297V4.25561H127.592L135.329 16.0844L143.029 4.25561H145.139V18.7385H142.863Z" fill="white"/>
<path fill-rule="evenodd" clip-rule="evenodd" d="M156.56 18.7385V12.8545L148.193 4.25561H151.34L157.782 10.88L164.224 4.25561H167.333L159.022 12.8545V18.7385H156.56Z" fill="white"/>
</svg>
