<svg width="165" height="45" viewBox="0 0 165 45" fill="none" xmlns="http://www.w3.org/2000/svg">
<path d="M44.6956 18.9294V31.0696H40.1953V1.24231H45.3235C47.8353 1.24231 49.7191 1.3993 50.975 1.7656C52.2832 2.1319 53.3821 2.75984 54.3764 3.75408C56.1032 5.4286 56.9405 7.52175 56.9405 10.0858C56.9405 12.8069 56.0509 15.0047 54.2194 16.5746C52.3879 18.1968 49.9284 18.9817 46.7887 18.9817H44.6956V18.9294ZM44.6956 14.7954H46.4224C50.5564 14.7954 52.6495 13.2256 52.6495 10.0335C52.6495 6.94613 50.5041 5.4286 46.2654 5.4286H44.8002V14.7954H44.6956Z" fill="white"/>
<path d="M61.5469 15.9989C61.5469 11.8126 63.0644 8.20195 66.1518 5.16689C69.2392 2.13183 72.9022 0.666626 77.1931 0.666626C81.4318 0.666626 85.0948 2.18416 88.1298 5.21922C91.1649 8.25428 92.7348 11.9173 92.7348 16.2082C92.7348 20.4992 91.2172 24.1622 88.1298 27.1449C85.0424 30.1277 81.3271 31.6452 76.9838 31.6452C73.1115 31.6452 69.6578 30.2846 66.6228 27.6159C63.2214 24.6855 61.5469 20.8132 61.5469 15.9989ZM66.0995 16.1036C66.0995 19.4003 67.1984 22.1214 69.4485 24.2668C71.6463 26.4123 74.2104 27.4589 77.0885 27.4589C80.2282 27.4589 82.8446 26.36 85.0424 24.2145C87.1879 22.0167 88.2868 19.348 88.2868 16.2082C88.2868 13.0162 87.2402 10.3474 85.0948 8.20195C83.0016 6.05648 80.3852 4.95758 77.2455 4.95758C74.1581 4.95758 71.4893 6.05648 69.3962 8.20195C67.146 10.2951 66.0995 12.9115 66.0995 16.1036Z" fill="white"/>
<path d="M103.407 1.24231V26.8834H112.198V31.122H98.9062V1.24231H103.407Z" fill="white"/>
<path d="M122.93 1.24231V26.8834H131.721V31.122H118.43V1.24231H122.93Z" fill="white"/>
<path d="M133.234 15.9989C133.234 11.8126 134.752 8.20195 137.839 5.16689C140.927 2.13183 144.59 0.666626 148.881 0.666626C153.119 0.666626 156.782 2.18416 159.817 5.21922C162.852 8.25428 164.422 11.9173 164.422 16.2082C164.422 20.4992 162.905 24.1622 159.817 27.1449C156.73 30.1277 153.015 31.6452 148.671 31.6452C144.799 31.6452 141.345 30.2846 138.31 27.6159C134.909 24.6855 133.234 20.8132 133.234 15.9989ZM137.787 16.1036C137.787 19.4003 138.886 22.1214 141.136 24.2668C143.334 26.4123 145.898 27.4589 148.776 27.4589C151.916 27.4589 154.532 26.36 156.73 24.2145C158.875 22.0167 159.974 19.348 159.974 16.2082C159.974 13.0162 158.928 10.3474 156.782 8.20195C154.689 6.05648 152.073 4.95758 148.933 4.95758C145.846 4.95758 143.177 6.05648 141.084 8.20195C138.834 10.2951 137.787 12.9115 137.787 16.1036Z" fill="white"/>
<path d="M5.66019 31.0696H0.375L16.0736 1.24231H19.5796L34.9119 31.0696H29.7314L17.6958 8.62065L5.66019 31.0696Z" fill="white"/>
<path d="M10.4219 31.1214L24.7076 31.0691L17.5909 44.0466L10.4219 31.1214Z" fill="white"/>
<path d="M17.6469 19.7143C19.0053 19.7143 20.1064 18.6132 20.1064 17.2549C20.1064 15.8965 19.0053 14.7954 17.6469 14.7954C16.2886 14.7954 15.1875 15.8965 15.1875 17.2549C15.1875 18.6132 16.2886 19.7143 17.6469 19.7143Z" fill="white"/>
</svg>
