<svg width="175" height="43" viewBox="0 0 175 43" fill="none"
  xmlns="http://www.w3.org/2000/svg">
  <path d="M50.875 9.72913H55.4456V29.3447H66.6816V33.725H50.875V9.72913Z" fill="white"/>
  <path d="M86.6562 9.72913H91.2269V33.725H86.6562V9.72913Z" fill="white"/>
  <path d="M113.109 9.72913H120.727C122.301 9.72913 123.8 10.0592 125.221 10.7194C126.644 11.3542 127.901 12.2176 128.992 13.3094C130.084 14.4013 130.948 15.6709 131.583 17.1183C132.217 18.5656 132.534 20.1019 132.534 21.727C132.534 23.3523 132.217 24.8885 131.583 26.3357C130.948 27.783 130.084 29.0527 128.992 30.1443C127.901 31.2365 126.644 32.1125 125.221 32.7728C123.8 33.4076 122.301 33.725 120.727 33.725H113.109V9.72913ZM120.727 29.3447C121.667 29.3447 122.568 29.1417 123.431 28.7353C124.32 28.3288 125.095 27.783 125.755 27.0973C126.44 26.4121 126.974 25.6119 127.354 24.6977C127.761 23.7582 127.964 22.7681 127.964 21.727C127.964 20.6859 127.761 19.7083 127.354 18.7942C126.974 17.8546 126.44 17.0421 125.755 16.3565C125.095 15.6709 124.32 15.125 123.431 14.7187C122.568 14.3124 121.667 14.1093 120.727 14.1093H117.68V29.3447H120.727Z" fill="white"/>
  <path d="M163.383 33.9153C161.808 33.9153 160.31 33.6106 158.888 33.0012C157.491 32.3663 156.26 31.5031 155.194 30.4114C154.152 29.2938 153.315 27.9987 152.68 26.526C152.07 25.0533 151.766 23.4535 151.766 21.727C151.766 20.0257 152.07 18.4387 152.68 16.9659C153.315 15.4678 154.152 14.1728 155.194 13.0809C156.26 11.9636 157.491 11.1003 158.888 10.4909C160.31 9.85612 161.808 9.5387 163.383 9.5387C164.957 9.5387 166.442 9.85612 167.839 10.4909C169.261 11.1003 170.493 11.9636 171.533 13.0809C172.6 14.1728 173.438 15.4678 174.047 16.9659C174.682 18.4387 175 20.0257 175 21.727C175 23.4535 174.682 25.0533 174.047 26.526C173.438 27.9987 172.6 29.2938 171.533 30.4114C170.493 31.5031 169.261 32.3663 167.839 33.0012C166.442 33.6106 164.957 33.9153 163.383 33.9153ZM163.383 29.5349C164.322 29.5349 165.224 29.3447 166.087 28.9637C166.95 28.5832 167.699 28.0496 168.334 27.3638C168.969 26.6532 169.477 25.8281 169.858 24.8885C170.238 23.9235 170.429 22.8697 170.429 21.727C170.429 20.5844 170.238 19.5433 169.858 18.6038C169.477 17.6388 168.969 16.8136 168.334 16.128C167.699 15.417 166.95 14.8711 166.087 14.4902C165.224 14.1093 164.322 13.9189 163.383 13.9189C162.418 13.9189 161.504 14.1093 160.64 14.4902C159.802 14.8711 159.066 15.417 158.431 16.128C157.796 16.8136 157.289 17.6388 156.908 18.6038C156.526 19.5433 156.336 20.5844 156.336 21.727C156.336 22.8697 156.526 23.9235 156.908 24.8885C157.289 25.8281 157.796 26.6532 158.431 27.3638C159.066 28.0496 159.802 28.5832 160.64 28.9637C161.504 29.3447 162.418 29.5349 163.383 29.5349Z" fill="white"/>
  <path fill-rule="evenodd" clip-rule="evenodd" d="M14.8509 0L25.3428 16.4229L14.8504 22.5375L4.35938 16.4227L14.8509 0ZM7.5711 15.6461L14.8509 4.25075L22.1308 15.6461L14.8504 19.889L7.5711 15.6461Z" fill="white"/>
  <path d="M14.8363 26.147L2.66574 19.0534L2.33337 19.5736C-1.41512 25.4412 -0.577992 33.1256 4.34614 38.0492C10.1406 43.8423 19.5353 43.8423 25.3299 38.0492C30.254 33.1256 31.0908 25.4412 27.3426 19.5736L27.0098 19.0532L14.8369 26.1476L14.8363 26.147Z" fill="white"/>
</svg>
