<svg width="72" height="72" viewBox="0 0 72 72" fill="none" xmlns="http://www.w3.org/2000/svg">
<path d="M13.3912 22.1108L24.4844 11.0551C30.585 4.9748 35.7096 0 35.8725 0C36.0353 0 41.1002 4.91528 47.1279 10.923L58.0883 21.846L53.8075 26.0799L49.5268 30.3137L42.563 23.3802L35.5991 16.446L28.6165 23.3819L21.6339 30.3171L17.5126 26.2142L13.3912 22.1108Z" fill="white"/>
<path d="M0 36.0295C0 35.7171 1.72245 33.7328 3.8281 31.6205C5.93376 29.5081 7.79799 27.7795 7.97166 27.7795C8.14532 27.7795 10.0671 29.5654 12.2428 31.7486L16.1984 35.7177L11.9569 39.9691L7.71543 44.2205L3.85771 40.409C1.73611 38.3125 0 36.3419 0 36.0295Z" fill="white"/>
<path d="M27.3303 36.0278L31.4448 31.9034C33.7076 29.6351 35.7005 27.7795 35.8736 27.7795C36.0461 27.7795 37.9679 29.5654 40.1436 31.7486L44.0992 35.7177L39.8571 39.9696L35.6157 44.2216L31.4732 40.1244L27.3303 36.0278Z" fill="white"/>
<path d="M55.2311 36.0278L59.3456 31.9034C61.6084 29.6351 63.6013 27.7795 63.7744 27.7795C63.9469 27.7795 65.8687 29.5654 68.0443 31.7486L72 35.7177L67.7579 39.9696L63.5165 44.2216L59.374 40.1244L55.2311 36.0278Z" fill="white"/>
<path d="M13.4009 49.8983L17.6504 45.6389L21.8993 41.3796L28.8859 48.3194L35.8725 55.2586L42.859 48.3194L49.8456 41.3796L53.9584 45.5023L58.0712 49.625L46.8244 60.8128L35.5769 72L24.4889 60.9494L13.4009 49.8983Z" fill="white"/>
</svg>
