<svg width="135" height="36" viewBox="0 0 135 36" fill="none" xmlns="http://www.w3.org/2000/svg">
<path fill-rule="evenodd" clip-rule="evenodd" d="M9.82803 4.29921L5.69735 8.59865L7.23199 10.1944L8.76663 11.79L11.3667 9.09294L13.9668 6.39568L16.5598 9.09228L19.1529 11.7887L20.7469 10.1422L22.3409 8.49568L18.2596 4.24784C16.0151 1.9115 14.1292 0 14.0685 0C14.0079 0 12.0997 1.93465 9.82803 4.29921ZM112.945 6.60998C112.461 6.71713 111.664 7.01676 111.175 7.27625C110.686 7.53553 109.883 8.13367 109.392 8.60526C108.899 9.07663 108.218 10.037 107.878 10.7392C107.324 11.881 107.258 12.2367 107.256 14.1102C107.254 15.9088 107.332 16.3776 107.805 17.4275C108.109 18.0999 108.654 19.0019 109.017 19.432C109.38 19.8619 110.277 20.5518 111.01 20.9652C112.285 21.6843 112.438 21.7165 114.569 21.7165C116.455 21.7165 116.944 21.64 117.771 21.2163C118.308 20.9409 119.119 20.3783 119.574 19.966L120.399 19.2159L119.362 18.1114L118.324 17.0068L117.559 17.629C117.139 17.9711 116.426 18.3726 115.975 18.5212C115.524 18.6698 114.686 18.7443 114.111 18.687C113.377 18.6136 112.835 18.39 112.281 17.9321C111.848 17.5743 111.273 16.8408 111.002 16.3022C110.587 15.4774 110.524 15.0852 110.604 13.815C110.679 12.6057 110.819 12.1297 111.308 11.4094C111.644 10.9158 112.282 10.3163 112.727 10.0774C113.245 9.79868 113.939 9.64677 114.662 9.65361C115.384 9.66022 116.083 9.82932 116.61 10.1239C117.061 10.3768 117.622 10.726 117.855 10.8995C118.249 11.1927 118.351 11.1279 119.29 9.996L120.301 8.77657L119.396 8.0296C118.898 7.61864 118.065 7.13074 117.544 6.94532C117.023 6.76013 115.973 6.56501 115.212 6.51187C114.45 6.45874 113.43 6.50305 112.945 6.60998ZM32.0907 14.1102V21.6063H36.1866C39.3212 21.6063 40.5505 21.5236 41.4232 21.2542C42.1051 21.0434 42.8374 20.6173 43.2449 20.1935C43.6215 19.802 44.037 19.057 44.174 18.5276C44.3621 17.8018 44.3629 17.3245 44.178 16.5566C44.0436 15.9992 43.726 15.3107 43.472 15.0263C43.2178 14.7419 42.7373 14.3618 42.4042 14.1817L41.7985 13.854L42.4451 13.1966C42.8009 12.835 43.2038 12.1866 43.3405 11.7556C43.4773 11.3248 43.5375 10.5708 43.4741 10.08C43.4109 9.58923 43.1764 8.93112 42.9529 8.61761C42.7297 8.30387 42.2422 7.8314 41.8695 7.56772C41.497 7.30403 40.714 6.98148 40.1294 6.85118C39.5449 6.72088 37.4971 6.61417 35.5787 6.61417H32.0907V14.1102ZM48.2046 14.1102V21.6063H49.7948H51.385V14.1102V6.61417H49.7948H48.2046V14.1102ZM56.0495 14.1102V21.6063H57.6355H59.2212L59.2787 17.0582L59.3359 12.5103L62.6329 17.0031L65.9299 21.4961L67.3505 21.5613L68.7711 21.6264V14.1204V6.61417H67.1851H65.5994L65.5419 11.1156L65.4847 15.6172L62.1983 11.1169L58.9119 6.6166L57.4807 6.61527L56.0495 6.61417V14.1102ZM75.2315 13.7151C73.6275 17.631 72.2688 21.0126 72.2122 21.2302C72.1185 21.5898 72.2589 21.62 73.7511 21.5609L75.393 21.4961L75.9806 19.9528L76.5681 18.4094H79.5752H82.5822L83.224 20.0079L83.8656 21.6063H85.5414C86.4631 21.6063 87.2168 21.5816 87.2164 21.5512C87.2158 21.5208 85.8535 18.1724 84.1889 14.1102L81.1622 6.72441L79.655 6.66003L78.1477 6.59587L75.2315 13.7151ZM90.5478 6.75219C90.4651 6.83795 90.3976 10.2151 90.3976 14.2573V21.6063H92.0896H93.7814L93.8388 17.0906L93.8961 12.5751L97.1824 17.0857L100.469 21.5964L101.903 21.6012L103.337 21.6063L103.281 14.1654L103.225 6.72441L101.692 6.65981L100.159 6.59499L100.102 11.1475L100.045 15.7001L96.7584 11.2121L93.472 6.72441L92.0849 6.66025C91.3219 6.62498 90.6302 6.66642 90.5478 6.75219ZM124.039 6.76123C123.961 6.84192 123.898 10.2151 123.898 14.2573V21.6063H129.304H134.711V20.063V18.5197H130.894H127.078V17.0866V15.6535H130.47H133.863V14.1102V12.5669H130.47H127.078V11.1339V9.70079H130.894H134.711V8.15748V6.61417H129.446C126.55 6.61417 124.117 6.68031 124.039 6.76123ZM39.8391 10.242C40.1254 10.5397 40.3597 10.9672 40.3597 11.1918C40.3597 11.4167 40.2348 11.7783 40.0821 11.9955C39.9295 12.2126 39.3807 12.4752 38.863 12.5793C38.345 12.6831 37.3252 12.7724 36.5962 12.7777L35.2711 12.7874V11.2441V9.70079H37.2948C39.1611 9.70079 39.3593 9.7429 39.8391 10.242ZM2.13638 12.2969C1.35231 13.1183 0.710938 13.89 0.710938 14.0115C0.710938 14.1329 1.3574 14.8993 2.14741 15.7146L3.58388 17.1968L5.16326 15.5435L6.74263 13.8902L5.26969 12.3467C4.45954 11.4976 3.74396 10.8031 3.67929 10.8031C3.61462 10.8031 2.92045 11.4754 2.13638 12.2969ZM12.4198 12.4069L10.8877 14.0108L12.4304 15.6039L13.9729 17.1973L15.5523 15.5437L17.1319 13.8902L15.6589 12.3467C14.8488 11.4976 14.1332 10.8031 14.069 10.8031C14.0045 10.8031 13.2624 11.5248 12.4198 12.4069ZM22.8091 12.4069L21.277 14.0108L22.8197 15.6039L24.3621 17.1973L25.9415 15.5437L27.5211 13.8902L26.0482 12.3467C25.238 11.4976 24.5224 10.8031 24.4582 10.8031C24.3937 10.8031 23.6517 11.5248 22.8091 12.4069ZM80.3809 12.7323C80.7482 13.6722 81.1111 14.6145 81.1875 14.8268C81.3124 15.1747 81.1544 15.2126 79.5844 15.2126C78.2751 15.2126 77.8695 15.1443 77.9503 14.937C78.0094 14.7855 78.3684 13.843 78.7481 12.8425C79.1279 11.842 79.5004 11.0236 79.5759 11.0236C79.6513 11.0236 80.0135 11.7924 80.3809 12.7323ZM40.5643 15.9772C40.8263 16.2239 40.9957 16.6591 40.9957 17.0866C40.9957 17.5141 40.8263 17.9493 40.5643 18.196C40.2134 18.5263 39.6784 18.6202 37.7019 18.6989L35.2711 18.7957V17.0866V15.3775L37.7019 15.4743C39.6784 15.553 40.2134 15.6469 40.5643 15.9772ZM7.2833 17.7485L5.70095 19.4049L9.82972 23.7026L13.9585 28L18.1466 23.6494L22.3345 19.2986L20.8031 17.6953L19.2716 16.0921L16.6701 18.7909L14.0685 21.4894L11.467 18.7909L8.86543 16.0921L7.2833 17.7485Z" fill="white"/>
<path d="M68.9925 35H62.0625V24.68H63.9225V33.44H68.9925V35Z" fill="white"/>
<path d="M81.0035 35H79.1735L78.2435 32.48H73.6235L72.6935 35H70.8485L74.7935 24.68H77.0585L81.0035 35ZM77.6735 30.95L75.9185 26.255L74.1785 30.95H77.6735Z" fill="white"/>
<path d="M83.8125 35V24.68H87.9375C90.0825 24.68 91.3425 25.64 91.3425 27.425C91.3425 28.565 90.5775 29.255 89.8575 29.54V29.555C90.5625 29.705 91.6425 30.53 91.6425 31.97C91.6425 33.965 90.2025 35 88.0425 35H83.8125ZM87.8625 28.925C88.8375 28.925 89.4975 28.475 89.4975 27.515C89.4975 26.66 88.9575 26.24 87.8925 26.24H85.6725V28.925H87.8625ZM88.0125 33.44C89.1525 33.44 89.7975 32.99 89.7975 31.865C89.7975 30.86 89.1375 30.395 88.0125 30.395H85.6725V33.44H88.0125Z" fill="white"/>
<path d="M94.2019 31.505L96.0919 31.235C96.2869 32.96 97.1869 33.755 98.8069 33.755C100.232 33.755 101.177 33.095 101.177 32.06C101.177 31.28 100.622 30.905 99.3019 30.62L97.8169 30.305C95.7019 29.84 94.5919 29.06 94.5919 27.455C94.5919 25.76 96.1519 24.5 98.5819 24.5C100.922 24.5 102.497 25.655 102.692 27.635L100.787 27.905C100.682 26.63 99.9169 25.925 98.5369 25.925C97.2769 25.925 96.4219 26.525 96.4219 27.35C96.4219 28.22 96.9469 28.445 98.2669 28.73L99.7519 29.045C102.032 29.525 103.022 30.32 103.022 31.925C103.022 33.995 101.042 35.18 98.7919 35.18C97.5169 35.18 96.4669 34.895 95.6419 34.31C94.8169 33.725 94.3369 32.78 94.2019 31.505Z" fill="white"/>
</svg>
