<svg width="64" height="64" viewBox="0 0 64 64" fill="none" xmlns="http://www.w3.org/2000/svg">
<path fill-rule="evenodd" clip-rule="evenodd" d="M29.7063 0.0769726C21.8451 0.678201 14.8527 3.89161 9.31757 9.44683C4.32021 14.4621 1.35068 20.3569 0.252921 27.441C-0.0459532 29.3694 -0.0899136 34.1983 0.174539 36.0434C0.86629 40.869 2.09096 44.337 4.72138 48.9182C5.77781 50.7583 6.12064 51.0828 6.89893 50.9791C7.38263 50.9146 7.66768 50.6835 9.35269 48.9886C11.1895 47.1408 11.259 47.0498 11.259 46.4961C11.259 46.0636 11.1166 45.6902 10.6835 44.987C8.00844 40.6425 6.6613 35.1011 7.08818 30.1972C7.40005 26.6143 8.07632 24.2069 9.67409 20.992C10.2403 19.8527 11.1239 18.3328 11.6379 17.6144C12.6945 16.1373 14.8378 13.8481 16.2124 12.7282C22.7122 7.43394 31.3043 5.76904 39.3844 8.2383C40.7925 8.66858 43.1259 9.64361 43.4325 9.92986C43.5653 10.0539 43.0102 10.6815 40.9399 12.7474L38.2763 15.4054L37.4513 15.1219C34.0969 13.969 29.8871 13.9812 26.3469 15.1538C23.692 16.0331 21.3712 17.4789 19.3311 19.5245C14.365 24.5036 12.8562 31.8971 15.4419 38.5831C16.025 40.0906 16.4259 40.5312 17.2148 40.5312C17.7917 40.5312 17.8565 40.4815 19.7809 38.5635C21.2777 37.0716 21.7673 36.4973 21.8055 36.1888C21.833 35.9651 21.7341 35.2816 21.5858 34.6698C21.2311 33.2083 21.2145 30.8894 21.5493 29.5533C22.1043 27.3379 23.6706 24.9095 25.3751 23.6218C26.3842 22.8593 28.1466 21.971 29.2429 21.6723C29.654 21.5602 30.6137 21.4304 31.3754 21.3839C33.6397 21.2455 35.5024 21.7304 37.8088 23.0594C38.631 23.533 39.0366 23.6846 39.482 23.6846H40.07L46.8134 16.9579C50.5224 13.2582 53.6553 10.024 53.7756 9.77092C54.2221 8.83097 53.9491 8.45951 51.4176 6.56442C48.4782 4.36387 45.2154 2.65491 41.8791 1.56831C38.1136 0.341963 33.5507 -0.217013 29.7063 0.0769726ZM54.5678 15.025C52.242 17.3483 52.239 17.3564 53.1592 18.9229C55.5822 23.0472 56.658 26.6034 56.8344 31.0723C57.1178 38.2449 54.4313 44.8893 49.2365 49.8639C45.6497 53.2985 41.793 55.3506 36.9716 56.3899C31.9724 57.4672 26.1957 56.8026 21.5143 54.6112L20.3376 54.0605L20.6713 53.6987C21.0287 53.3111 25.1442 49.209 25.5092 48.8766C25.7005 48.7023 25.825 48.7106 26.4995 48.9425C28.1913 49.5239 29.4849 49.707 31.9258 49.7105C34.4595 49.7142 35.5715 49.5491 37.6202 48.8651C42.9236 47.0943 47.1821 42.779 48.9102 37.4243C49.4736 35.6787 49.7234 34.0218 49.722 32.0389C49.7202 29.3454 49.2329 26.9827 48.2331 24.8197C47.8403 23.9698 47.6896 23.7817 47.2579 23.6015C46.9573 23.476 46.5991 23.4255 46.3868 23.4786C45.9265 23.5939 42.2416 27.2286 42.1285 27.6791C42.082 27.8638 42.1872 28.7505 42.3625 29.6492C42.8759 32.2833 42.6108 34.5061 41.5202 36.7103C39.2254 41.3484 33.9508 43.6721 28.9537 42.2462C28.5355 42.1269 27.4346 41.6301 26.5071 41.1421C24.7741 40.2306 24.454 40.1399 23.9334 40.414C23.7674 40.5015 20.5677 43.6264 16.8232 47.3582C10.1048 54.0537 10.0149 54.1507 10.0197 54.6904C10.0225 54.9913 10.1014 55.3755 10.1953 55.5442C10.4507 56.0034 13.8651 58.5183 15.7275 59.6193C18.7202 61.3882 22.1092 62.6891 25.5101 63.3744C30.2699 64.3336 35.5378 64.185 40.1511 62.9617C46.0133 61.407 51.5908 58.0331 55.6179 53.6056C64.2044 44.1652 66.4041 30.6254 61.2409 18.9934C60.3956 17.0888 58.4496 13.6644 58.0216 13.328C57.8008 13.1546 57.4609 13.052 57.1066 13.052C56.5658 13.052 56.4634 13.1317 54.5678 15.025Z" fill="white"/>
</svg>
