<svg width="168" height="43" viewBox="0 0 168 43" fill="none" xmlns="http://www.w3.org/2000/svg">
<path fill-rule="evenodd" clip-rule="evenodd" d="M20.7121 0.385262C15.4771 0.78579 10.8206 2.92651 7.13457 6.62729C3.80666 9.9684 1.82915 13.8954 1.09812 18.6147C0.899086 19.8993 0.869811 23.1163 1.04592 24.3454C1.50658 27.5602 2.32212 29.8705 4.07381 32.9224C4.77732 34.1482 5.00563 34.3644 5.52392 34.2953C5.84603 34.2524 6.03585 34.0984 7.15795 32.9693C8.38113 31.7384 8.42744 31.6777 8.42744 31.3089C8.42744 31.0208 8.33262 30.772 8.0442 30.3035C6.26278 27.4093 5.36567 23.7177 5.64994 20.4508C5.85763 18.0639 6.30798 16.4602 7.37199 14.3185C7.74906 13.5595 8.3375 12.547 8.67977 12.0684C9.38337 11.0843 10.8106 9.55931 11.7261 8.81327C16.0545 5.28635 21.7763 4.17721 27.1571 5.82219C28.0948 6.10884 29.6486 6.75838 29.8528 6.94908C29.9413 7.03169 29.5716 7.44978 28.1929 8.82606L26.4191 10.5968L25.8697 10.4079C23.6359 9.6399 20.8325 9.64799 18.475 10.4292C16.707 11.015 15.1615 11.9781 13.8029 13.3409C10.4958 16.6579 9.49108 21.5832 11.2129 26.0373C11.6012 27.0416 11.8682 27.3351 12.3936 27.3351C12.7777 27.3351 12.8209 27.302 14.1025 26.0243C15.0992 25.0304 15.4253 24.6478 15.4507 24.4423C15.469 24.2933 15.4032 23.8379 15.3044 23.4304C15.0682 22.4568 15.0571 20.912 15.2801 20.0219C15.6497 18.546 16.6927 16.9282 17.8278 16.0704C18.4998 15.5624 19.6735 14.9707 20.4035 14.7717C20.6773 14.697 21.3163 14.6105 21.8236 14.5795C23.3315 14.4873 24.5719 14.8104 26.1078 15.6957C26.6554 16.0113 26.9255 16.1123 27.2221 16.1123H27.6136L32.1043 11.631C34.5742 9.16633 36.6606 7.01182 36.7406 6.8432C37.038 6.21702 36.8562 5.96956 35.1704 4.70708C33.213 3.24112 31.0401 2.10264 28.8184 1.37876C26.3108 0.561794 23.2722 0.189414 20.7121 0.385262ZM37.2682 10.3434C35.7193 11.8911 35.7174 11.8965 36.3302 12.9401C37.9438 15.6876 38.6602 18.0567 38.7776 21.0338C38.9663 25.8121 37.1773 30.2385 33.7179 33.5524C31.3294 35.8405 28.761 37.2076 25.5503 37.8999C22.2212 38.6176 18.3743 38.1749 15.2568 36.715L14.4732 36.3481L14.6954 36.1071C14.9334 35.8489 17.6741 33.1161 17.9171 32.8947C18.0445 32.7786 18.1274 32.7841 18.5766 32.9386C19.7032 33.3259 20.5647 33.4479 22.1902 33.4502C23.8774 33.4527 24.6179 33.3427 25.9822 32.8871C29.514 31.7074 32.3498 28.8326 33.5006 25.2654C33.8758 24.1025 34.0421 22.9987 34.0412 21.6777C34.04 19.8833 33.7155 18.3094 33.0497 16.8684C32.7881 16.3022 32.6878 16.1769 32.4003 16.0569C32.2001 15.9733 31.9616 15.9396 31.8202 15.975C31.5137 16.0518 29.0597 18.4732 28.9844 18.7733C28.9535 18.8964 29.0236 19.487 29.1403 20.0857C29.4822 21.8405 29.3056 23.3213 28.5794 24.7898C27.0512 27.8795 23.5386 29.4276 20.2109 28.4777C19.9324 28.3982 19.1993 28.0672 18.5817 27.7421C17.4276 27.1349 17.2144 27.0744 16.8677 27.257C16.7572 27.3154 14.6264 29.3971 12.1328 31.8832C7.65884 36.3436 7.59891 36.4082 7.60213 36.7678C7.60397 36.9682 7.65654 37.2241 7.71905 37.3366C7.88917 37.6424 10.1629 39.3178 11.4031 40.0513C13.3961 41.2297 15.6529 42.0963 17.9177 42.5529C21.0874 43.1919 24.5955 43.0929 27.6676 42.2779C31.5715 41.2422 35.2857 38.9946 37.9675 36.0451C43.6855 29.7561 45.1504 20.7361 41.7121 12.9871C41.1491 11.7182 39.8532 9.43697 39.5682 9.21288C39.4212 9.09734 39.1948 9.02899 38.9589 9.02899C38.5987 9.02899 38.5305 9.08207 37.2682 10.3434ZM63.3863 9.89913C63.3103 9.91744 62.9375 9.98256 62.5578 10.044C60.5955 10.3614 58.2693 11.5132 56.792 12.899C54.8458 14.7248 53.6646 16.7891 53.1112 19.3319C52.8775 20.4061 52.8706 22.9251 53.0986 23.9831C54.111 28.6807 57.664 32.2564 62.2877 33.2305C63.6422 33.516 65.707 33.5158 67.0686 33.2302C69.0576 32.813 71.0573 31.7775 72.403 30.4678C72.8184 30.0634 72.8683 29.9728 72.8683 29.6227C72.8683 29.2479 72.8264 29.1888 71.9199 28.2828C71.0827 27.4464 70.9343 27.3352 70.6541 27.3356C70.4795 27.3359 70.2295 27.4084 70.0985 27.4966C68.5875 28.5146 68.1809 28.7603 67.6351 28.9852C65.6542 29.8014 63.4669 29.755 61.5687 28.8563C57.8295 27.0861 56.0749 22.6145 57.5858 18.7057C58.0336 17.5471 58.4855 16.8703 59.4738 15.8774C60.2371 15.1107 60.537 14.8796 61.2292 14.5249C62.5232 13.8617 63.287 13.6783 64.7211 13.6859C65.746 13.6914 66.0369 13.7282 66.7464 13.942C67.7575 14.2465 68.9092 14.8457 69.7146 15.486C70.5363 16.1394 70.762 16.1365 71.4529 15.4637C73.2525 13.7116 73.2816 13.3793 71.737 12.2222C69.5618 10.5926 67.7562 9.96674 65.0433 9.90216C64.2079 9.88229 63.4622 9.88092 63.3863 9.89913ZM120.278 9.99222C119.137 10.1849 118.166 10.4864 117.186 10.9532C113.781 12.5744 111.385 15.5896 110.602 19.24C110.307 20.6133 110.309 22.8415 110.607 24.1615C111.133 26.4981 112.162 28.3535 113.872 30.0524C115.561 31.7307 117.638 32.8274 119.985 33.2816C120.935 33.4653 123.05 33.4924 124.014 33.3333C126.164 32.9786 128.315 31.9433 129.762 30.5676C130.277 30.078 130.313 30.0169 130.313 29.6269C130.313 29.2194 130.291 29.1885 129.359 28.2725C128.204 27.1365 128.072 27.103 127.216 27.7305C125.379 29.0773 124.035 29.5632 122.166 29.5566C119.25 29.5463 116.641 27.8711 115.339 25.1734C114.733 23.9173 114.548 23.1044 114.542 21.6777C114.537 20.3645 114.652 19.7366 115.12 18.5282C115.99 16.2798 118.028 14.4788 120.416 13.8479C121.433 13.5792 123.12 13.6213 124.185 13.942C125.219 14.253 126.421 14.8694 127.168 15.471C128.108 16.2274 128.129 16.223 129.308 15.0329C130.289 14.0436 130.313 14.0092 130.313 13.6031C130.313 13.2158 130.277 13.1549 129.803 12.7212C128.285 11.335 126.114 10.3001 124.081 9.99388C123.003 9.83161 121.235 9.83087 120.278 9.99222ZM78.7958 10.223C78.6889 10.2662 78.5128 10.4141 78.4045 10.5516L78.2077 10.8016V21.6972V32.5928L78.4768 32.8617L78.7459 33.1306H80.1324H81.5189L81.8195 32.8621L82.1202 32.5937L82.1474 21.8922C82.1669 14.3021 82.1453 11.0892 82.0734 10.8414C81.9005 10.2456 81.5972 10.1326 80.187 10.139C79.5287 10.1421 78.9027 10.1799 78.7958 10.223ZM89.8428 10.2193C89.7359 10.2646 89.5598 10.4141 89.4515 10.5516L89.2547 10.8016V21.6972V32.5928L89.5238 32.8617L89.7929 33.1306H91.1879H92.583L92.8521 32.8617L93.1212 32.5928V28.4921V24.3914H95.2843H97.4475L99.5614 28.6152C100.862 31.2134 101.755 32.8951 101.883 32.9848C102.054 33.1038 102.376 33.1306 103.64 33.1306C105.377 33.1306 105.552 33.0797 105.736 32.5231C105.869 32.1214 105.871 32.1255 103.399 27.5246C102.354 25.5797 101.498 23.9763 101.498 23.9615C101.498 23.9467 101.716 23.8254 101.982 23.692C103.706 22.8268 105.071 21.2786 105.704 19.4699C105.943 18.787 105.961 18.6314 105.962 17.3082C105.963 16.0574 105.937 15.8032 105.748 15.2384C105.09 13.2671 103.826 11.8088 102.005 10.9205C100.494 10.1837 100.615 10.1968 95.0084 10.1653C92.2263 10.1495 89.9516 10.1734 89.8428 10.2193ZM136.24 10.223C136.133 10.2662 135.957 10.4141 135.849 10.5516L135.652 10.8016V21.6027C135.652 33.2289 135.634 32.7829 136.107 33.0358C136.224 33.098 138.33 33.1306 142.234 33.1306C146.139 33.1306 148.245 33.098 148.361 33.0358C148.718 32.8449 148.816 32.4674 148.816 31.2861V30.1685L148.503 29.8557L148.19 29.5429H143.901H139.611V20.2578C139.611 14.4486 139.577 10.8844 139.521 10.7369C139.337 10.2541 138.954 10.133 137.631 10.139C136.973 10.1421 136.347 10.1799 136.24 10.223ZM153.634 10.267C153.473 10.3367 153.297 10.4773 153.243 10.5793C153.173 10.7089 153.143 14.0563 153.143 21.7094V32.6542L153.426 32.8924L153.71 33.1306H160.41H167.111L167.354 32.8881C167.593 32.6492 167.596 32.6261 167.596 31.3631V30.0807L167.327 29.8118L167.058 29.5429H162.034H157.01V26.4152V23.2875H161.277H165.544L165.782 23.0676C166.085 22.7863 166.148 22.4321 166.109 21.2187C166.078 20.2416 166.076 20.235 165.777 19.9682L165.476 19.6999H161.243H157.01V16.7585V13.8171L162.081 13.7918L167.152 13.7665L167.374 13.5084C167.585 13.2631 167.596 13.1885 167.596 12.0075C167.596 11.324 167.554 10.6851 167.502 10.5878C167.255 10.1274 167.337 10.1326 160.397 10.1365C155.105 10.1394 153.873 10.1632 153.634 10.267ZM100.026 14.234C101.083 14.7347 101.8 15.6345 102.055 16.7823C102.376 18.2258 101.432 20.0166 99.9999 20.6774L99.4272 20.9418L96.3202 20.9683L93.2132 20.9948V17.445V13.8954L96.3202 13.923L99.4272 13.9505L100.026 14.234Z" fill="white"/>
</svg>
