<svg width="124" height="125" viewBox="0 0 124 125" fill="none" xmlns="http://www.w3.org/2000/svg">
<path fill-rule="evenodd" clip-rule="evenodd" d="M58.9745 0.82497C58.6424 1.68532 59.264 2.40508 61.4213 3.65678C63.6111 4.92702 65.2978 6.70402 65.1231 7.55633C65.0316 8.00364 64.5871 8.11346 62.994 8.08128C61.3868 8.04911 60.6863 7.83717 59.5243 7.03208C56.6509 5.04173 56.2131 4.80286 55.4316 4.80111C54.9955 4.80006 54.6391 4.64513 54.6391 4.45662C54.6391 3.17904 47.9607 1.75772 46.2433 2.67052C44.3857 3.65748 45.8615 4.60246 49.8574 4.98472C52.5082 5.23793 53.2302 5.42364 53.2302 5.85172C53.2302 6.28854 51.1486 6.89778 49.6556 6.89778C48.7483 6.89778 48.0547 7.14049 47.5609 7.63082L46.823 8.36352L45.8478 7.43602C44.6051 6.25356 41.8018 5.37083 40.8678 5.86711C39.5684 6.55749 40.1947 7.65391 42.1354 8.08583C43.974 8.49467 45.1292 9.06509 45.1292 9.56311C45.1292 10.1472 43.4876 10.2063 42.0745 9.67258C41.5317 9.46763 40.2158 9.19204 39.1504 9.05984C37.596 8.86679 37.1885 8.68178 37.0857 8.1208C36.8018 6.57008 33.903 4.61505 33.0877 5.42469C32.5329 5.97553 32.9915 6.83867 34.2021 7.52276C34.7854 7.85221 35.2637 8.23971 35.2651 8.38415C35.2689 8.83951 32.4597 8.66814 31.6446 8.16347C30.3992 7.3923 29.1016 7.21884 28.3986 7.7291C27.4487 8.41878 27.9728 9.2522 29.6363 9.69706C30.4379 9.9111 31.0265 10.2626 30.9525 10.4829C30.7486 11.0901 28.9865 11.4391 27.2905 11.2083C26.0377 11.0376 25.7288 11.111 25.5295 11.6273C25.085 12.7768 26.6784 13.6407 28.9058 13.4571C30.6049 13.3172 30.9638 13.1437 31.9859 11.97L33.1426 10.6413L35.7856 10.8631C39.8185 11.2016 41.2549 11.4919 41.2549 11.9679C41.2549 12.4355 39.436 12.8331 37.2692 12.8394C35.723 12.844 34.5628 13.357 34.5628 14.0369C34.5628 16.2168 41.6208 15.5415 43.0793 13.222C43.6105 12.3778 45.5579 12.261 47.5947 12.9503C49.7088 13.6662 49.1734 14.3895 46.362 14.6147C43.433 14.8497 42.6637 15.1424 42.6637 16.0217C42.6637 17.1415 44.9369 17.3115 48.9156 16.4896C49.8151 16.3039 50.0603 16.3686 50.0603 16.7925C50.0603 17.308 48.9194 17.8361 45.721 18.8024C44.1878 19.2655 43.6813 20.0881 44.5438 20.7141C45.2638 21.2369 45.2754 21.4915 44.6087 22.1536C44.3227 22.4376 43.8595 22.9944 43.5802 23.3906C42.6169 24.756 42.209 23.8176 42.4707 20.8393C42.6757 18.5051 42.6274 18.0536 42.1551 17.8735C41.4697 17.6123 40.5994 18.2918 40.1059 19.4739C39.8041 20.1972 39.7079 20.2486 39.5885 19.7506C39.4987 19.3746 39.1106 19.1385 38.5822 19.1385C37.4939 19.1385 36.6366 20.4878 35.4155 24.1222C34.6195 26.4917 34.3993 26.8327 33.6657 26.8327C32.5498 26.8327 30.3362 24.8756 30.3362 23.889C30.3362 23.464 30.8321 22.6541 31.4382 22.0892C33.2321 20.4172 34.5628 18.4023 34.5628 17.358C34.5628 15.1529 32.6935 16.0014 31.0043 18.9734C30.0075 20.7274 29.2795 21.3926 29.2795 20.5497C29.2795 20.364 28.8276 19.695 28.2753 19.0633C27.6664 18.3667 27.1761 17.3094 27.0303 16.3774C26.6217 13.7708 24.6373 11.7941 22.4289 11.7941C21.0796 11.7941 21.2648 12.9727 22.7579 13.889C24.0266 14.6675 25.4051 16.1742 25.4051 16.7824C25.4051 16.9918 24.8437 17.0405 23.9899 16.9048C21.9562 16.582 20.7626 16.9485 20.8954 17.8553C21.0155 18.6744 22.0129 19.0507 24.2058 19.1035C25.7404 19.1406 26.3526 19.6047 27.2504 21.4118C28.2232 23.3696 28.2937 24.3143 27.5237 25.0788C26.5745 26.0213 25.9933 25.9671 25.0018 24.8434C24.5457 24.3261 23.5155 23.243 22.7124 22.4362C21.6952 21.4139 21.0803 20.3811 20.6844 19.028C20.0384 16.8222 18.5908 14.8759 17.8159 15.1711C17.0481 15.4638 17.1967 16.853 18.2087 18.8356C19.5196 21.4048 19.3368 21.5867 15.4455 21.5867C11.9307 21.5867 10.6557 22.0326 11.0742 23.115C11.612 24.5073 14.776 24.6549 18.4749 23.4609C20.1226 22.929 20.199 22.9356 21 23.683C21.4547 24.1069 22.021 24.9207 22.2591 25.4915C22.9636 27.18 22.1478 27.6721 18.2981 27.8819C15.7703 28.0197 15.0067 28.1848 14.7069 28.6594C14.4068 29.134 14.4741 29.3732 15.0225 29.7852C16.2338 30.6945 18.0276 30.8344 20.4403 30.2076C21.6808 29.8852 22.711 29.6631 22.7297 29.7135C22.7484 29.7642 23.4468 31.1019 24.2819 32.6862C25.4442 34.8917 25.7746 35.8758 25.6908 36.883L25.5812 38.1991L23.2196 38.3023C20.5773 38.4173 20.4565 38.3453 18.4566 35.4656C17.8311 34.565 16.4838 33.2773 15.4628 32.604C14.4413 31.9304 13.2096 31.0641 12.7253 30.6787C11.6469 29.8201 8.29412 29.0804 6.97366 29.4095C5.7719 29.7089 5.35628 30.628 6.15863 31.2107C6.48408 31.4471 7.57982 31.7479 8.59315 31.8794C12.3957 32.3718 12.8293 32.7719 10.8931 34.0023C9.38528 34.9606 8.86612 35.844 9.5554 36.2801C10.4595 36.8526 11.2478 36.6638 12.4954 35.5761C13.1572 34.999 13.8577 34.5269 14.0518 34.5269C14.6266 34.5269 16.9519 37.2734 16.9519 37.9525C16.9519 38.4555 16.3828 38.6933 14.0462 39.1651C12.4478 39.4879 10.7043 39.8537 10.1718 39.9782C9.27152 40.188 9.20319 40.1261 9.20319 39.1004C9.20319 36.6676 6.7817 33.832 4.70151 33.8288C3.12676 33.826 3.39726 34.8378 5.48837 36.7701C7.1702 38.3247 7.47944 38.7923 7.38223 39.6372L7.266 40.6473L4.44827 40.6756C0.744717 40.713 0.75 40.712 0.75 41.5125C0.75 42.6663 2.64598 43.3853 5.13016 43.1737C6.3048 43.0737 7.54319 42.8803 7.88238 42.7439C8.61569 42.4487 8.70304 43.1419 8.09829 44.4597C7.77143 45.1721 7.51889 45.2966 6.72112 45.1382C4.72652 44.742 0.75 46.7781 0.75 48.1952C0.75 49.3672 1.78411 49.377 4.13163 48.2274L6.36996 47.1313L6.15476 48.6912C5.97583 49.988 6.04557 50.2916 6.56967 50.4913C7.37871 50.7997 8.39485 49.5973 8.70269 47.9669C8.82737 47.3073 9.04047 46.7676 9.17642 46.7676C9.31238 46.7676 9.88931 47.2538 10.4581 47.848C12.3266 49.7998 14.3153 50.4384 15.2057 49.3731C15.797 48.6653 15.2102 48.0637 12.7091 46.8162C10.3465 45.6373 9.94143 45.0291 10.7265 43.8393C11.6715 42.4071 14.5706 41.7129 19.6443 41.7042C23.432 41.6972 24.0104 41.7765 24.6996 42.3956C25.3495 42.9789 25.4516 43.3668 25.3181 44.7444C25.2304 45.652 24.9568 46.6361 24.7106 46.9309C24.097 47.665 21.9404 47.6059 20.6418 46.8194C18.1037 45.2826 15.8953 45.1095 15.8953 46.4473C15.8953 47.2632 17.0256 48.0151 19.2692 48.6908C22.8114 49.7582 22.7072 50.4591 18.9395 50.9095C16.2658 51.2292 15.1218 51.9626 15.8805 52.8705C16.4148 53.5098 19.5407 53.6147 21.0521 53.044C21.5889 52.8415 23.2513 51.4513 24.7461 49.9548C27.5484 47.1499 27.7407 46.7613 27.9562 43.4637L28.0468 42.0836L30.4228 41.6499C31.9655 41.3684 33.5117 40.7795 34.8326 39.9702C36.7782 38.7776 38.0803 38.4754 39.2888 38.936C40.0316 39.2189 39.9911 39.868 39.1257 41.5527C38.199 43.356 37.6344 43.541 35.9399 42.5953C34.2595 41.6573 33.0211 41.7451 32.8679 42.8128C32.7879 43.3703 33.0479 43.7284 33.8189 44.1243C34.4025 44.424 35.1256 44.6692 35.4257 44.6692C35.7261 44.6692 35.9716 44.8815 35.9716 45.1407C35.9716 45.6792 34.2278 46.4822 31.3509 47.2688C28.8966 47.9396 28.1091 48.7087 29.1168 49.4504C29.9688 50.0775 32.2765 49.8128 34.5402 48.8279C36.265 48.0777 40.8171 43.7267 41.7487 41.9378C42.0681 41.3243 42.3774 40.8221 42.4358 40.8221C43.2058 40.8221 49.4664 43.9435 50.3082 44.7472C52.4409 46.783 52.0348 49.2224 49.5654 49.2105C48.009 49.2028 47.6648 48.8779 47.0559 46.8407C46.4007 44.6507 45.1363 43.0583 44.3043 43.3755C43.4231 43.7113 43.5999 45.0434 44.7693 46.8739C46.0672 48.9063 45.5526 49.0017 43.75 47.0635C42.3126 45.5177 41.2549 45.4019 41.2549 46.79C41.2549 48.4638 43.6968 50.6147 45.597 50.6147C46.0672 50.6147 47.021 50.8508 47.7166 51.1393C50.061 52.1119 51.2469 51.857 53.4063 49.9152C55.4879 48.0435 56.0874 47.8812 57.9964 48.6733C59.3887 49.2511 59.5349 49.8719 58.4979 50.8036C57.6586 51.5576 57.7139 52.8296 58.5934 52.9961C59.4105 53.1506 60.9776 51.5429 60.9842 50.543C60.993 49.2438 61.5372 48.7233 62.8482 48.7601C65.4859 48.8346 66.1995 50.0898 64.8519 52.2844C64.4652 52.9142 64.1489 53.5042 64.1489 53.5959C64.1489 53.6875 66.7486 53.7623 69.9256 53.7623H75.7023L76.4398 52.5211C77.2785 51.1099 78.9737 50.2639 80.956 50.2674C81.6886 50.2685 83.487 50.0884 84.9522 49.867L87.6164 49.4644L89.4655 50.7273C90.4823 51.4219 91.8986 52.0815 92.6129 52.1931C93.3268 52.3046 94.3867 52.619 94.9678 52.8922C96.7539 53.7312 97.8222 53.8407 99.958 53.4035C102.615 52.8597 103.949 52.1661 103.949 51.3289C103.949 50.3454 102.917 50.1852 100.389 50.7766C97.7359 51.3978 95.8484 51.4646 95.8484 50.9375C95.8484 50.7305 96.3239 50.0887 96.905 49.5116C98.0842 48.3407 98.2128 47.7598 97.4351 47.1188C96.7448 46.5497 95.3813 47.3957 94.6138 48.8692C94.2637 49.5414 93.7971 49.9152 93.3075 49.9152C92.4942 49.9152 90.3246 48.5988 90.072 47.9522C89.9882 47.7381 90.3334 46.5186 90.8384 45.2417L91.757 42.9205H93.2789C94.6765 42.9205 94.9682 43.0919 96.8494 45.0189C98.969 47.1898 99.672 47.4961 100.436 46.5823C101.082 45.809 100.375 44.4716 98.845 43.5752C97.3569 42.7033 97.2924 42.1413 98.578 41.2401C100.196 40.1059 103.882 38.374 104.678 38.374C105.091 38.374 105.909 38.8853 106.498 39.5106C108.291 41.4142 108.592 42.0504 108.338 43.3962C108.153 44.3751 107.905 44.6727 107.132 44.8413C105.882 45.1137 104.582 46.3137 104.726 47.0618C104.88 47.8651 106.276 47.9875 107.346 47.2912C107.836 46.9726 108.268 46.7638 108.305 46.8271C108.343 46.8907 108.645 47.5374 108.978 48.2648C109.311 48.9919 109.824 49.6785 110.117 49.7904C110.914 50.094 111.779 49.2095 111.599 48.2753C111.476 47.636 111.599 47.4681 112.187 47.4723C113.651 47.4828 113.987 48.0176 113.987 50.3318C113.987 52.2172 114.082 52.54 114.669 52.6554C115.516 52.8219 116.277 51.8384 116.277 50.5748C116.277 49.6271 116.286 49.6236 117.347 50.1489C118.193 50.5682 118.524 50.5902 118.932 50.2541C119.659 49.655 119.59 49.412 118.347 48.1778C116.756 46.598 113.913 45.2599 112.138 45.2557C110.677 45.2522 110.641 45.2242 110.641 44.0862C110.641 43.0027 110.722 42.9212 111.786 42.9282C112.416 42.9324 113.64 43.2552 114.507 43.6459C115.38 44.039 116.431 44.2691 116.863 44.1614C117.292 44.0547 117.741 44.125 117.861 44.3181C118.284 44.9976 119.772 44.6856 120.36 43.7949C121.598 41.9185 122.022 43.0447 121.476 46.7624C121.156 48.9433 121.159 49.6571 121.493 49.988C121.828 50.3209 122.085 50.2492 122.683 49.655C123.313 49.029 123.473 48.3799 123.604 45.9104C123.697 44.1397 123.614 42.7443 123.4 42.4844C122.918 41.9004 122.159 39.1574 122.119 37.8581C122.094 37.0145 121.888 36.7596 121.032 36.512C118.037 35.6464 117.381 34.7154 119.09 33.7564C119.674 33.4287 120.151 32.9275 120.151 32.6432C120.151 31.7286 118.814 31.6283 117.486 32.4432C116.584 32.9968 115.938 33.1479 115.147 32.9908C112.565 32.4781 112.476 31.2261 114.868 29.0388C116.746 27.3213 116.949 26.8323 116.084 26.1192C115.137 25.3393 113.293 26.5165 112.059 28.6873C110.982 30.5819 110.724 30.7823 107.766 32.0231C106.862 32.4022 105.94 33.0517 105.717 33.4661C105.043 34.7154 103.947 34.2114 102.319 31.9039C101.505 30.7497 100.897 29.7481 100.967 29.6781C101.037 29.6079 101.787 29.8834 102.633 30.2902C104.623 31.2464 106.739 31.2523 107.952 30.3045C109.763 28.8909 109.034 28.2446 105.684 28.2935C103.842 28.3208 101.132 27.4633 101.132 26.8537C101.132 26.7169 101.533 26.2301 102.024 25.7723C102.843 25.0088 103.011 24.9774 104.049 25.3935C107.693 26.854 110.276 26.7376 112.241 25.0242C113.484 23.9404 113.866 22.5159 113.002 22.1865C112.75 22.0906 111.68 22.3823 110.624 22.8345C108.514 23.7382 105.086 23.9747 104.372 23.2654C104.14 23.0346 103.949 22.2508 103.949 21.5237C103.949 20.3315 104.089 20.1314 105.372 19.4813C107.045 18.6339 107.811 17.3437 107.128 16.526C106.451 15.7164 105.777 15.8755 104.638 17.1139C104.01 17.7966 103.488 18.1051 103.306 17.9008C103.141 17.7158 102.258 16.5799 101.342 15.3761C99.3779 12.794 97.8127 11.7923 97.0012 12.5981C96.1678 13.4252 96.7465 14.4045 99.5699 16.9436C101.393 18.5831 102.188 19.5449 102.188 20.1101C102.188 22.1092 100.009 24.4388 97.5055 25.1169C95.6913 25.6083 88.9685 25.6272 87.7139 25.1445C86.1652 24.5486 85.6341 23.7606 85.6341 22.0595C85.6341 20.784 85.8303 20.2888 86.6636 19.4613C88.2887 17.8476 90.4337 18.1617 93.8826 20.5179C96.3732 22.2197 97.8732 21.6853 96.7359 19.5019C96.0713 18.2257 93.6822 17.0828 90.6525 16.5921C87.8414 16.1367 88.033 16.2203 88.2866 15.5639C88.5297 14.935 89.3214 14.5566 92.8626 13.3763C96.4348 12.1854 97.322 11.5814 97.1875 10.4305C97.0963 9.64915 96.8892 9.50506 95.7195 9.40993C94.6286 9.3211 93.8217 9.60753 91.669 10.8473C88.0218 12.9475 87.5568 13.0675 86.9137 12.0739C86.4037 11.2863 86.1793 9.96461 86.2853 8.37541C86.3185 7.88263 86.6654 7.45666 87.1976 7.25556C88.4754 6.77327 89.0256 5.56878 88.2979 4.84658C87.7664 4.31883 87.6424 4.32163 86.6502 4.88715C85.2308 5.69609 85.1854 5.68804 83.3612 4.30554C81.5498 2.93248 80.0022 2.48726 78.9628 3.03985C77.5268 3.80262 78.4013 5.08195 80.8792 5.84332C83.6131 6.68339 83.873 7.0027 83.873 9.51939C83.873 11.1366 84.0942 12.2277 84.6546 13.3728C85.4936 15.0875 85.2984 16.0448 84.0604 16.2864C83.406 16.4141 81.4198 14.6822 79.5341 12.3397C78.4855 11.0372 78.4295 10.8173 78.5091 8.3177C78.5796 6.11262 78.4609 5.44358 77.7952 4.287C76.4321 1.92069 72.4799 0.000294119 71.0862 1.02712C70.1496 1.7168 70.6438 2.52259 72.7218 3.69525C75.1719 5.0774 76.144 6.19831 76.3747 7.90642C76.6191 9.7142 76.2144 9.89221 73.4742 9.18365C72.3319 8.88812 70.7304 8.64646 69.9154 8.64646C67.8525 8.64646 67.3196 8.36981 67.3157 7.29753C67.3097 5.6842 65.3637 2.82511 63.3582 1.48422C61.3277 0.126549 59.3591 -0.169677 58.9745 0.82497ZM56.5474 7.4598C56.8538 7.57661 57.1046 7.798 57.1046 7.95153C57.1046 8.30301 55.7517 7.97007 55.4932 7.55493C55.2713 7.1982 55.7478 7.15518 56.5474 7.4598ZM53.9346 8.80908C53.9346 9.46414 55.0255 10.0454 56.2554 10.0454C57.1616 10.0454 57.1821 10.0804 56.6309 10.6851C56.3103 11.0369 56.0479 11.4398 56.0479 11.5807C56.0479 11.722 57.1574 12.8982 58.5135 14.195C60.5338 16.1266 60.979 16.7498 60.979 17.6455C60.979 18.7349 60.2249 19.838 59.4803 19.838C59.2647 19.838 58.325 19.0514 57.392 18.0904C55.7764 16.426 55.6957 16.2497 55.6957 14.3832C55.6957 12.6208 55.5753 12.304 54.4982 11.2345C52.405 9.15602 51.0088 10.0674 52.6607 12.4344C53.5454 13.7022 53.8727 14.9476 53.3183 14.9364C52.7917 14.9256 52.2606 14.3954 51.7125 13.3322C51.0979 12.1407 49.9275 11.2502 48.5119 10.8977C48.0075 10.7718 47.5947 10.5417 47.5947 10.3857C47.5947 10.2301 47.507 9.87613 47.4 9.59914C47.2429 9.19204 47.5299 9.12419 48.8969 9.2452C49.9039 9.33438 51.1588 9.18295 51.9975 8.87064C53.8047 8.19774 53.9346 8.19355 53.9346 8.80908ZM61.9722 10.6232C63.6537 10.9411 65.1513 11.3062 65.3003 11.4345C65.4496 11.5629 65.3306 12.3456 65.0361 13.1738C63.8879 16.406 64.7216 20.919 66.514 21.1722C67.5798 21.3226 67.8493 20.0947 67.3622 17.3073C66.9621 15.0172 67.1498 12.6541 67.7958 11.8423C68.0754 11.4909 68.6876 11.4234 70.1246 11.5849C75.4698 12.1865 81.5248 17.5679 81.0014 21.2523C80.9109 21.8874 80.6312 22.1396 79.9278 22.2204C78.5468 22.3785 73.0103 21.3684 72.371 20.8417C71.823 20.3902 71.8526 17.977 72.4489 14.5458C72.8465 12.2557 71.0059 12.29 69.9605 14.5923C69.4628 15.6877 69.3867 16.3962 69.5952 17.9942C70.1067 21.9193 70.0852 22.041 68.8077 22.4092C67.3541 22.8282 65.3109 22.2627 64.0341 21.0879C63.225 20.3434 63.1116 19.9719 63.1373 18.1565C63.1817 15.0225 61.9204 12.9832 58.5103 10.6756C57.3381 9.88277 58.001 9.87263 61.9722 10.6232ZM54.314 18.4121C54.8803 18.9745 55.3435 19.6002 55.3435 19.803C55.3435 20.3675 53.9477 21.1044 51.9975 21.5692C50.3163 21.97 49.0036 22.7646 49.0036 23.3815C49.0036 23.5396 49.3717 23.9086 49.8218 24.2013C50.547 24.6731 50.8362 24.6755 52.3754 24.2202C53.3299 23.9379 54.6363 23.2297 55.2783 22.646L56.4459 21.5846L59.2496 22.5649C62.7555 23.7904 63.4445 24.3517 63.4445 25.9818C63.4445 26.9019 63.1701 27.5087 62.4149 28.2586C61.4745 29.1924 61.1737 29.2808 58.9358 29.2808C57.1976 29.2808 56.3604 29.4319 56.0518 29.8009C55.4189 30.5581 55.8662 31.3394 57.2645 31.9196C58.8202 32.5652 60.3182 32.5659 61.8708 31.9217C63.012 31.4482 63.0923 31.458 63.0923 32.071C63.0923 33.022 64.6336 34.0817 67.1297 34.8472C70.2275 35.7971 71.8977 36.5333 71.8977 36.9481C71.8977 37.5227 69.9274 38.374 68.5978 38.374C67.5327 38.374 67.0836 38.0557 65.0957 35.8929C62.615 33.1944 61.6003 32.8541 61.3925 34.6517C61.3005 35.4474 61.5929 35.9451 62.8605 37.1509C64.2299 38.4541 64.3525 38.6807 63.7678 38.8325C62.8299 39.0762 62.9235 39.9967 63.9552 40.6679C64.6973 41.1509 65.239 41.1782 67.8285 40.8637C69.4843 40.6626 71.146 40.3349 71.5215 40.1356C71.8966 39.9359 72.8441 39.7729 73.6267 39.7729C74.8461 39.7729 75.1264 39.9205 75.5868 40.8046C76.4113 42.3875 76.2768 44.1999 75.2596 45.2096C74.1504 46.3112 72.719 46.3161 70.5511 45.2249C69.6294 44.7615 67.9486 44.2121 66.8162 44.004C64.4032 43.5612 63.9224 43.2353 63.6125 41.8343C63.486 41.2635 62.8038 40.2377 62.0958 39.5554C61.3882 38.8727 60.3319 37.4227 59.7494 36.3333C58.6381 34.2558 56.7323 32.8891 55.5661 33.3336C54.5848 33.7075 54.9233 34.5381 56.7524 36.2434C57.721 37.1464 58.5135 38.1729 58.5135 38.5251C58.5135 39.0766 58.3307 39.1297 57.1926 38.9115C56.4664 38.772 55.4344 38.5761 54.9001 38.4757C53.9681 38.3012 52.878 38.8307 52.878 39.4578C52.878 40.2398 54.8212 40.9487 57.1504 41.0159C59.8413 41.0939 61.0931 41.7804 60.9064 43.0762C60.8205 43.6732 60.5049 43.8141 59.0418 43.9082C56.6206 44.0638 54.8955 43.4777 53.6592 42.0794C52.6381 40.9249 52.6138 40.8088 52.6096 37.1002C52.6075 35.0116 52.773 32.988 52.9773 32.6033C53.182 32.2186 54.2735 30.8375 55.403 29.5341C56.6562 28.0882 57.4568 26.8418 57.4568 26.3364C57.4568 24.1723 54.8825 25.5117 52.7959 28.7615C50.5706 32.2274 49.8856 31.9042 49.614 27.2594C49.5263 25.7611 49.2896 24.8717 48.8694 24.4615C48.2865 23.8921 48.2175 23.904 47.5719 24.6857C46.1042 26.4634 46.9301 30.6987 49.1456 32.7516C49.9063 33.4567 50.0603 33.9092 50.0603 35.4393C50.0603 37.5958 49.638 38.8912 48.8349 39.1972C48.1174 39.4704 45.9309 38.5866 44.8651 37.5923C44.0736 36.854 44.0662 36.7669 44.2906 31.0516C44.416 27.8655 44.6319 25.0452 44.771 24.7843C44.9098 24.523 45.8002 23.8935 46.7494 23.3854C48.0738 22.6761 48.501 22.2407 48.5852 21.5143C48.6584 20.8854 49.0896 20.3255 49.8697 19.8467C50.5157 19.4505 51.3018 18.7356 51.6171 18.2579C52.3662 17.1226 53.0552 17.1622 54.314 18.4121ZM41.0735 24.9934L42.0625 25.8381L41.8293 29.2207C41.5229 33.6658 41.3105 34.5167 40.4057 34.9259C39.2504 35.4488 37.7933 34.7584 37.5598 33.5774C37.4541 33.0416 37.03 31.5447 36.6172 30.2507L35.867 27.898L37.4442 25.1795C38.3121 23.6844 39.1539 22.1462 39.3156 21.7615C39.5547 21.1925 39.6537 21.3495 39.8471 22.6054C40.0122 23.6774 40.3866 24.4069 41.0735 24.9934ZM73.2364 26.7453C74.2152 29.5701 74.2279 29.4113 73.0417 29.1759C72.4475 29.0577 71.233 28.4516 70.343 27.8284C68.5572 26.5788 67.7549 26.7729 68.1557 28.3575C68.4498 29.5222 70.0559 30.6119 72.2358 31.1261C73.7965 31.4943 74.011 31.6531 74.011 32.4414C74.011 33.4368 73.4337 34.1771 72.657 34.1771C72.377 34.1771 70.592 33.4689 68.6904 32.6033C66.7888 31.7377 64.9889 31.0295 64.6906 31.0295C63.9975 31.0295 64.007 30.9285 64.8533 29.2808C65.2408 28.5268 65.5578 27.6081 65.5578 27.2391C65.5578 26.2042 66.2781 25.8342 68.5639 25.6943C69.7196 25.6237 71.1411 25.5362 71.7233 25.4999C72.6532 25.4418 72.837 25.5932 73.2364 26.7453ZM78.2435 26.1619C82.2063 26.9953 82.8164 27.741 82.8164 31.7517C82.8164 33.9879 82.7583 34.1771 82.0714 34.1771C81.6615 34.1771 80.9546 33.7445 80.5002 33.2154C80.0458 32.6862 79.2069 31.7045 78.6359 31.0334C77.6258 29.846 77.5793 29.8303 76.8963 30.4444C76.013 31.238 75.6195 30.7228 75.9147 29.1602C76.0594 28.3943 75.9087 27.6098 75.4424 26.7019L74.7577 25.3684L75.5354 25.5621C75.9629 25.6688 77.1816 25.9388 78.2435 26.1619ZM31.3062 28.7898C33.8009 30.2416 34.9164 33.556 33.6977 35.8961C33.1018 37.0408 31.2347 38.0242 29.6578 38.0242C28.4441 38.0242 27.8706 37.1205 27.8706 35.2075C27.8706 32.7593 25.6848 28.9311 24.2872 28.9311C23.6384 28.9311 23.4454 28.5454 23.879 28.1152C24.0079 27.9868 25.3808 27.8819 26.9299 27.8819C29.326 27.8819 29.9787 28.0173 31.3062 28.7898ZM98.1924 28.5216C97.8718 28.8734 97.6101 29.3847 97.6108 29.6582C97.6133 30.5819 98.9063 32.2463 100.714 33.6525C101.703 34.422 102.519 35.1442 102.526 35.2575C102.539 35.4463 100.959 36.2756 100.587 36.2756C100.499 36.2756 100.427 35.9723 100.427 35.6016C100.427 35.2309 99.4762 33.9977 98.3139 32.8614C97.0223 31.5989 96.2006 30.5011 96.2006 30.038C96.2006 29.1424 97.365 27.8819 98.1924 27.8819C98.7348 27.8819 98.7348 27.9263 98.1924 28.5216ZM94.0873 30.1692C94.0873 32.844 96.0903 35.7419 98.49 36.5396L99.5466 36.8907L97.7856 37.6874C96.7507 38.1557 95.0661 38.5488 93.7009 38.6405C91.4809 38.7898 91.3196 38.7457 90.0703 37.6567C89.351 37.0296 88.4423 35.8933 88.051 35.1316C87.3293 33.7274 87.0165 30.5221 87.5216 29.7103C87.9559 29.0126 88.7787 29.2193 88.9432 30.0678C89.6902 33.9162 89.9952 34.9522 90.6113 35.7296C91.4907 36.8397 92.8873 36.9254 93.2184 35.8895C93.3709 35.4124 93.0775 34.3377 92.3829 32.8293C91.794 31.551 91.2062 30.0723 91.0765 29.5431C90.8455 28.5992 90.8712 28.5814 92.4643 28.5814H94.0873V30.1692ZM77.6589 34.2649C78.9152 35.9685 80.4403 36.7522 81.9524 36.4704C82.9763 36.2798 83.2235 36.3934 84.0118 37.4202C85.8761 39.8471 86.5315 42.7352 85.4252 43.6473C85.1163 43.9015 84.2988 44.1096 83.6085 44.1096C82.5916 44.1096 82.1324 43.8557 81.1902 42.7736C80.5506 42.0392 79.7718 40.6745 79.4597 39.7418C78.9293 38.1557 77.7177 36.5616 76.4265 35.751C76.0098 35.4894 75.9115 35.0186 76.0366 33.8844C76.1288 33.0503 76.3138 32.4995 76.4476 32.6603C76.5818 32.8212 77.1267 33.5434 77.6589 34.2649ZM113.553 35.1095C115.062 35.51 116.114 36.0517 116.918 36.8425C117.561 37.4752 118.395 38.0896 118.771 38.2082C119.862 38.552 121.123 41.5216 120.178 41.5216C119.999 41.5216 119.383 41.9143 118.809 42.3942L117.764 43.2668L117.195 42.4033C116.634 41.5541 114.676 40.819 111.627 40.3133C110.682 40.1566 109.978 39.6977 109.073 38.6478C107.55 36.8816 107.465 35.7919 108.792 35.0767C110.053 34.3975 110.89 34.4034 113.553 35.1095ZM9.10915 57.2905C7.10574 57.7591 6.13116 58.5551 5.47639 60.2576C4.4768 62.8565 5.27386 65.3403 7.54918 66.7179C8.77348 67.459 12.6683 67.6766 14.1994 67.0894C15.0546 66.7613 16.817 65.3634 16.568 65.2102C16.4888 65.1613 16.0799 64.8346 15.6597 64.4845C14.9179 63.8662 14.8749 63.8686 14.1627 64.5758C13.576 65.1585 12.9888 65.3036 11.2189 65.3036C8.13386 65.3036 7.44211 64.7654 7.44211 62.3651C7.44211 59.775 8.16274 59.1745 11.2298 59.2095C13.1758 59.2315 13.6344 59.3577 14.1754 60.0212C14.8027 60.7903 14.8344 60.7934 15.6966 60.1698C16.1813 59.8194 16.5825 59.4263 16.5888 59.2962C16.6149 58.7345 14.672 57.6318 13.0459 57.2856C11.0551 56.8617 10.9421 56.8617 9.10915 57.2905ZM21.6755 57.2964C18.9617 57.9217 17.4461 60.5003 18.0058 63.5402C18.495 66.1968 20.3903 67.402 24.0783 67.402C26.7661 67.402 28.4275 66.6221 29.3404 64.9322C30.6289 62.5463 29.8216 59.1056 27.6945 57.9172C26.342 57.1618 23.5225 56.8708 21.6755 57.2964ZM31.745 62.113V67.402H32.9778H34.2105V65.4785V63.5549H35.5923C36.8314 63.5549 37.1441 63.7532 38.6287 65.4785C40.1073 67.1971 40.4293 67.402 41.6497 67.402C42.4013 67.402 43.0159 67.2894 43.0159 67.1516C43.0159 67.0142 42.2728 66.1521 41.364 65.2361C40.4557 64.3205 39.7819 63.528 39.8671 63.4755C39.9524 63.4231 40.4927 63.1408 41.0675 62.8481C43.1096 61.8097 43.0476 58.5897 40.9667 57.601C40.4448 57.3531 38.1701 57.0789 35.8836 56.9879L31.745 56.8236V62.113ZM59.5701 62.156V67.402H64.6772H69.7844V66.3528V65.3036H65.7339H61.6834V61.1068V56.91H60.6267H59.5701V62.156ZM78.2376 62.156V67.402H81.771C86.7781 67.402 88.5244 66.5203 89.1703 63.6658C89.5782 61.8633 89.0703 59.8474 87.9041 58.6383C86.7541 57.4464 84.5676 56.91 80.8619 56.91H78.2376V62.156ZM91.2696 62.156V67.402H96.3767H101.484V66.3528V65.3036H97.4333H93.3829V64.268V63.2325L96.4647 63.1314C99.4903 63.0321 99.5466 63.0142 99.5466 62.156C99.5466 61.2977 99.4903 61.2799 96.4647 61.1806L93.3829 61.0795V60.0439V59.0084H97.4333H101.484V57.9592V56.91H96.3767H91.2696V62.156ZM103.245 62.156V67.402H104.302H105.358V65.3036V63.2052H108.528H111.698V62.156V61.1068H108.528H105.358V60.0576V59.0084H109.409H113.459V57.9592V56.91H108.352H103.245V62.156ZM115.572 62.156V67.402H116.629H117.686V62.156V56.91H116.629H115.572V62.156ZM49.7591 59.6204C48.9952 60.919 47.6377 63.2104 46.7427 64.7132L45.1155 67.445L46.4434 67.3363C47.569 67.2436 47.8779 67.0282 48.4753 65.9167C49.1734 64.6178 49.1991 64.6059 51.374 64.6052L53.568 64.6041L54.2869 66.0031C54.9223 67.2397 55.1512 67.402 56.2607 67.402C56.9507 67.402 57.4628 67.2772 57.398 67.1243C56.9552 66.0772 51.5956 57.2754 51.3966 57.2684C51.2599 57.2635 50.5231 58.3218 49.7591 59.6204ZM25.8215 59.37C26.8566 59.6554 27.1997 59.9726 27.5219 60.9431C28.0313 62.4742 27.6864 64.0981 26.7076 64.7786C25.5249 65.6012 21.7167 65.4883 20.8263 64.6041C19.9655 63.7494 19.8694 61.2705 20.6541 60.1583C21.3892 59.1161 23.6507 58.7712 25.8215 59.37ZM39.7886 59.3154C40.0478 59.4788 40.2063 59.9876 40.1408 60.4468C40.0274 61.2449 39.8868 61.2862 36.9402 61.3827L33.8583 61.4838V60.2461V59.0084L36.588 59.0136C38.0891 59.0168 39.5297 59.1525 39.7886 59.3154ZM86.3406 59.8845C87.3254 60.7693 87.324 63.6256 86.3385 64.6041C85.7595 65.1791 85.1646 65.3036 82.9925 65.3036H80.3509V62.1098V58.9164L82.9946 59.085C84.8687 59.2042 85.8426 59.4371 86.3406 59.8845ZM51.8213 61.9811C51.8213 62.2696 51.5836 62.5057 51.293 62.5057C50.7429 62.5057 50.5942 62.092 50.9996 61.6898C51.4047 61.2872 51.8213 61.4348 51.8213 61.9811ZM64.1489 71.0658C64.1489 71.1575 64.4652 71.7475 64.8519 72.3774C66.1995 74.5719 65.4859 75.8271 62.8482 75.9016C61.5372 75.9384 60.993 75.418 60.9842 74.1187C60.9776 73.1188 59.4105 71.5111 58.5934 71.6656C57.7139 71.8321 57.6586 73.1041 58.4979 73.8581C59.5349 74.7898 59.3887 75.4106 57.9964 75.9884C56.0874 76.7805 55.4879 76.6182 53.4063 74.7465C51.2469 72.8047 50.061 72.5498 47.7166 73.5224C47.021 73.8109 46.0672 74.047 45.597 74.047C43.6968 74.047 41.2549 76.1979 41.2549 77.8717C41.2549 79.2598 42.3126 79.144 43.75 77.5982C45.5526 75.66 46.0672 75.7554 44.7693 77.7878C43.5999 79.6183 43.4231 80.9504 44.3043 81.2862C45.1363 81.6034 46.4007 80.011 47.0559 77.821C47.6648 75.7838 48.009 75.4589 49.5654 75.4512C52.0348 75.4393 52.4409 77.8787 50.3082 79.9145C49.4664 80.7182 43.2058 83.8396 42.4358 83.8396C42.3774 83.8396 42.0681 83.3374 41.7487 82.7239C40.8171 80.935 36.265 76.584 34.5402 75.8338C32.2765 74.8489 29.9688 74.5842 29.1168 75.2113C28.1091 75.953 28.8966 76.7221 31.3509 77.3929C34.2278 78.1795 35.9716 78.9825 35.9716 79.521C35.9716 79.7802 35.7261 79.9925 35.4257 79.9925C35.1256 79.9925 34.4025 80.2377 33.8189 80.5374C33.0479 80.9333 32.7879 81.2914 32.8679 81.8489C33.0211 82.9166 34.2595 83.0044 35.9399 82.0664C37.6344 81.1207 38.199 81.3057 39.1257 83.109C39.9911 84.7937 40.0316 85.4428 39.2888 85.7257C38.0803 86.1863 36.7782 85.8841 34.8326 84.6915C33.5117 83.8823 31.9655 83.2933 30.4228 83.0118L28.0468 82.5781L27.9562 81.198C27.7407 77.9004 27.5484 77.5118 24.7461 74.7069C23.2513 73.2104 21.5889 71.8202 21.0521 71.6177C19.5407 71.047 16.4148 71.1519 15.8805 71.7912C15.1218 72.6991 16.2658 73.4325 18.9395 73.7522C22.7072 74.2026 22.8114 74.9035 19.2692 75.9709C17.0256 76.6466 15.8953 77.3985 15.8953 78.2144C15.8953 79.5522 18.1037 79.3791 20.6418 77.8423C21.9404 77.0558 24.097 76.9967 24.7106 77.7308C24.9568 78.0256 25.2304 79.0097 25.3181 79.9173C25.4516 81.2949 25.3495 81.6828 24.6996 82.2661C24.0104 82.8852 23.432 82.9645 19.6443 82.9576C14.5706 82.9488 11.6715 82.2546 10.7265 80.8224C9.94143 79.6326 10.3465 79.0244 12.7091 77.8455C15.2102 76.598 15.797 75.9964 15.2057 75.2886C14.3153 74.2233 12.3266 74.8619 10.4581 76.8138C9.88931 77.408 9.31238 77.8941 9.17642 77.8941C9.04047 77.8941 8.82737 77.3544 8.70269 76.6948C8.39485 75.0644 7.37871 73.862 6.56967 74.1704C6.04557 74.3701 5.97583 74.6737 6.15476 75.9705L6.36996 77.5304L4.13163 76.4343C1.78411 75.2847 0.75 75.2945 0.75 76.4665C0.75 77.8836 4.72652 79.9197 6.72112 79.5235C7.51889 79.3651 7.77143 79.4896 8.09829 80.202C8.70304 81.5198 8.61569 82.213 7.88238 81.9178C7.54355 81.7814 6.3048 81.588 5.13016 81.488C2.64598 81.2764 0.75 81.9954 0.75 83.1492C0.75 83.9498 0.744717 83.9487 4.44827 83.9861L7.266 84.0145L7.38223 85.0245C7.47944 85.8695 7.1702 86.337 5.48837 87.8916C3.39726 89.8239 3.12676 90.8357 4.70151 90.8329C6.7817 90.8298 9.20319 87.9941 9.20319 85.5613C9.20319 84.5356 9.27152 84.4737 10.1718 84.6835C10.7047 84.808 12.4482 85.1738 14.0462 85.4966C16.1105 85.9135 16.9519 86.2335 16.9519 86.6011C16.9519 87.3555 15.498 89.3413 14.5935 89.8218C13.9148 90.1824 13.6524 90.0943 12.5531 89.136C11.251 88.0007 10.4683 87.8038 9.5554 88.3816C8.86612 88.8177 9.38528 89.7012 10.8931 90.6594C12.8293 91.8898 12.3957 92.2899 8.59315 92.7823C7.57982 92.9138 6.48408 93.2146 6.15863 93.451C5.35628 94.0337 5.7719 94.9528 6.97366 95.2522C8.29412 95.5813 11.6469 94.8416 12.7253 93.983C13.2096 93.5976 14.4413 92.7313 15.4628 92.0577C16.4838 91.3844 17.8311 90.0967 18.4566 89.1961C20.4565 86.3164 20.5773 86.2444 23.2196 86.3594L25.5812 86.4626L25.6908 87.7787C25.7746 88.7859 25.4442 89.7701 24.2819 91.9755C23.4468 93.5598 22.7484 94.8975 22.7297 94.9482C22.711 94.9986 21.6808 94.7765 20.4403 94.4541C18.0276 93.8273 16.2338 93.9672 15.0225 94.8765C14.4741 95.2885 14.4068 95.5278 14.7069 96.0023C15.0067 96.4769 15.7703 96.642 18.2981 96.7798C22.1478 96.9896 22.9636 97.4817 22.2591 99.1702C22.021 99.741 21.4547 100.555 21 100.979C20.199 101.726 20.1226 101.733 18.4749 101.201C14.776 100.007 11.612 100.154 11.0742 101.547C10.6557 102.629 11.9307 103.075 15.4455 103.075C19.3368 103.075 19.5196 103.257 18.2087 105.826C17.1967 107.809 17.0481 109.198 17.8159 109.491C18.5869 109.784 20.0374 107.843 20.6756 105.663C21.0912 104.243 21.6808 103.309 22.9681 102.031C23.9209 101.085 24.7007 100.172 24.7007 100.003C24.7007 99.3469 26.3438 98.7908 27.0982 99.1919C28.2141 99.7847 28.3394 100.789 27.5258 102.615C26.4639 104.999 25.8785 105.518 24.2058 105.558C22.0129 105.611 21.0155 105.987 20.8954 106.806C20.7626 107.713 21.9562 108.08 23.9899 107.757C24.8437 107.621 25.4051 107.67 25.4051 107.879C25.4051 108.488 24.0266 109.994 22.7579 110.773C21.2648 111.689 21.0796 112.868 22.4289 112.868C24.6373 112.868 26.6217 110.891 27.0303 108.284C27.1761 107.352 27.6664 106.295 28.2753 105.598C28.8276 104.967 29.2795 104.298 29.2795 104.112C29.2795 103.269 30.0075 103.934 31.0043 105.688C32.6935 108.66 34.5628 109.509 34.5628 107.304C34.5628 106.259 33.2321 104.245 31.4382 102.572C30.8321 102.008 30.3362 101.198 30.3362 100.773C30.3362 99.7861 32.5498 97.829 33.6657 97.829C34.3993 97.829 34.6195 98.17 35.4155 100.539C36.6366 104.174 37.4939 105.523 38.5822 105.523C39.1106 105.523 39.4987 105.287 39.5885 104.911C39.7079 104.413 39.8041 104.465 40.1059 105.188C40.5994 106.37 41.4697 107.049 42.1551 106.788C42.6274 106.608 42.6757 106.157 42.4707 103.822C42.209 100.844 42.6169 99.9057 43.5802 101.271C43.8595 101.667 44.3227 102.224 44.6087 102.508C45.2754 103.17 45.2638 103.425 44.5438 103.948C43.6813 104.574 44.1878 105.396 45.721 105.859C48.9194 106.826 50.0603 107.354 50.0603 107.869C50.0603 108.293 49.8151 108.358 48.9156 108.172C44.9369 107.35 42.6637 107.52 42.6637 108.64C42.6637 109.519 43.433 109.812 46.362 110.047C49.1734 110.272 49.7088 110.996 47.5947 111.711C45.5579 112.401 43.6105 112.284 43.0793 111.44C41.6208 109.12 34.5628 108.445 34.5628 110.625C34.5628 111.305 35.723 111.818 37.2692 111.822C39.436 111.829 41.2549 112.226 41.2549 112.694C41.2549 113.17 39.8185 113.46 35.7856 113.799L33.1426 114.02L31.9859 112.692C30.9638 111.518 30.6049 111.345 28.9058 111.205C26.6784 111.021 25.085 111.885 25.5295 113.034C25.7288 113.551 26.0377 113.624 27.2905 113.453C28.966 113.225 30.7479 113.57 30.9462 114.16C31.0163 114.369 30.3939 114.754 29.563 115.015C27.8854 115.543 27.4254 116.453 28.5377 117.045C29.0742 117.33 29.6169 117.282 30.7602 116.85C32.5283 116.182 35.2682 115.812 35.2651 116.242C35.2637 116.406 34.7854 116.81 34.2021 117.139C32.9915 117.823 32.5329 118.686 33.0877 119.237C33.903 120.047 36.8018 118.092 37.0857 116.541C37.1885 115.98 37.596 115.795 39.1504 115.602C40.2158 115.47 41.5317 115.194 42.0745 114.989C43.4876 114.455 45.1292 114.515 45.1292 115.099C45.1292 115.597 43.974 116.167 42.1354 116.576C40.1947 117.008 39.5684 118.104 40.8678 118.795C41.8018 119.291 44.6051 118.408 45.8478 117.226L46.823 116.298L47.5609 117.031C48.0547 117.521 48.7483 117.764 49.6556 117.764C51.1486 117.764 53.2302 118.373 53.2302 118.81C53.2302 119.238 52.5082 119.424 49.8574 119.677C45.8615 120.059 44.3857 121.004 46.2433 121.991C47.9607 122.904 54.6391 121.483 54.6391 120.205C54.6391 120.017 54.9955 119.862 55.4316 119.861C56.211 119.859 56.6636 119.612 59.4852 117.655C61.2674 116.419 64.7029 115.919 65.0604 116.844C65.493 117.963 64.313 119.168 60.2745 121.731C58.5589 122.82 58.5325 124.186 60.2238 124.346C62.8024 124.591 67.3055 120.158 67.3157 117.364C67.3196 116.292 67.8525 116.015 69.9154 116.015C70.7304 116.015 72.3319 115.774 73.4742 115.478C76.2144 114.769 76.6191 114.948 76.3747 116.755C76.144 118.463 75.1719 119.584 72.7218 120.966C70.6438 122.139 70.1496 122.945 71.0862 123.635C72.4799 124.661 76.4321 122.741 77.7952 120.375C78.4616 119.217 78.5796 118.549 78.5088 116.337C78.4246 113.692 78.4277 113.682 79.8828 111.965C82.9872 108.304 84.1477 107.66 85.0572 109.094C85.3474 109.551 85.253 110.066 84.6546 111.289C84.0942 112.434 83.873 113.525 83.873 115.142C83.873 117.659 83.6131 117.978 80.8792 118.818C78.4013 119.58 77.5268 120.859 78.9628 121.622C80.0022 122.174 81.5498 121.729 83.3612 120.356C85.1854 118.974 85.2308 118.966 86.6502 119.775C87.6424 120.34 87.7664 120.343 88.2979 119.815C89.0256 119.093 88.4754 117.888 87.1976 117.406C85.3312 116.701 86.3192 111.435 88.2074 112.025C88.6325 112.158 90.19 112.963 91.669 113.814C93.8217 115.054 94.6286 115.341 95.7195 115.252C96.8892 115.157 97.0963 115.013 97.1875 114.231C97.322 113.08 96.4348 112.476 92.8626 111.285C89.3214 110.105 88.5297 109.727 88.2866 109.098C88.033 108.441 87.8414 108.525 90.6525 108.07C93.6822 107.579 96.0713 106.436 96.7359 105.16C97.8732 102.976 96.3732 102.442 93.8826 104.144C90.4337 106.5 88.2887 106.814 86.6636 105.2C85.8303 104.373 85.6341 103.878 85.6341 102.602C85.6341 100.901 86.1652 100.113 87.7139 99.5172C88.9685 99.0345 95.6913 99.0534 97.5055 99.5448C99.2166 100.008 100.932 101.327 101.673 102.749C102.638 104.604 102.368 105.244 99.5688 107.742C96.7465 110.26 96.1671 111.236 97.0012 112.064C98.0039 113.06 99.7499 111.626 103.049 107.097C103.547 106.413 103.581 106.422 104.614 107.534C105.778 108.786 106.45 108.947 107.128 108.136C107.811 107.318 107.045 106.028 105.372 105.18C104.089 104.53 103.949 104.33 103.949 103.138C103.949 102.411 104.14 101.627 104.372 101.396C105.086 100.687 108.514 100.923 110.624 101.827C111.68 102.279 112.75 102.571 113.002 102.475C113.866 102.146 113.484 100.721 112.241 99.6375C110.276 97.9241 107.693 97.8077 104.049 99.2682C103.011 99.6844 102.843 99.6529 102.024 98.8894C101.533 98.4316 101.132 97.9448 101.132 97.808C101.132 97.1984 103.842 96.3409 105.684 96.3682C109.034 96.4171 109.763 95.7708 107.952 94.3572C106.739 93.4094 104.623 93.4154 102.633 94.3715C101.787 94.7783 101.037 95.0539 100.967 94.9836C100.897 94.9136 101.505 93.912 102.319 92.7578C103.947 90.4503 105.043 89.9463 105.717 91.1956C105.94 91.61 106.862 92.2595 107.766 92.6386C110.724 93.8794 110.982 94.0798 112.059 95.9744C113.293 98.1452 115.137 99.3224 116.084 98.5425C116.949 97.8294 116.746 97.3404 114.868 95.6229C112.476 93.4356 112.565 92.1836 115.147 91.6709C115.938 91.5138 116.584 91.6649 117.486 92.2186C118.814 93.0334 120.151 92.9331 120.151 92.0185C120.151 91.7342 119.674 91.233 119.09 90.9053C117.381 89.9463 118.037 89.0153 121.032 88.1497C121.888 87.9021 122.094 87.6472 122.119 86.8036C122.159 85.5043 122.918 82.7614 123.4 82.1773C123.614 81.9174 123.697 80.522 123.604 78.7513C123.473 76.2818 123.313 75.6327 122.683 75.0067C122.085 74.4125 121.828 74.3408 121.493 74.6737C121.159 75.0046 121.156 75.7184 121.476 77.8993C122.022 81.617 121.598 82.7432 120.36 80.8668C119.772 79.9761 118.284 79.6641 117.861 80.3436C117.741 80.5367 117.292 80.607 116.863 80.5003C116.431 80.3926 115.38 80.6227 114.507 81.0158C113.64 81.4065 112.416 81.7293 111.786 81.7335C110.722 81.7405 110.641 81.659 110.641 80.5755C110.641 79.4375 110.677 79.4095 112.138 79.406C113.913 79.4018 116.756 78.0637 118.347 76.4839C119.59 75.2497 119.659 75.0067 118.932 74.4076C118.524 74.0715 118.193 74.0935 117.347 74.5128C116.286 75.0381 116.277 75.0346 116.277 74.0869C116.277 72.8233 115.516 71.8398 114.669 72.0063C114.082 72.1217 113.987 72.4445 113.987 74.3299C113.987 76.6441 113.651 77.1789 112.187 77.1894C111.599 77.1936 111.476 77.0257 111.599 76.3864C111.779 75.4522 110.914 74.5677 110.117 74.8713C109.824 74.9832 109.311 75.6698 108.978 76.3969C108.645 77.1243 108.343 77.771 108.305 77.8346C108.268 77.8979 107.836 77.6891 107.346 77.3705C106.276 76.6742 104.88 76.7966 104.726 77.6C104.582 78.348 105.882 79.548 107.132 79.8204C107.905 79.989 108.153 80.2866 108.338 81.2655C108.592 82.6113 108.291 83.2475 106.498 85.1511C105.909 85.7761 105.091 86.2877 104.678 86.2877C103.882 86.2877 100.196 84.5558 98.578 83.4216C97.2924 82.5204 97.3569 81.9584 98.845 81.0865C100.375 80.1901 101.082 78.8527 100.436 78.0794C99.6361 77.1226 98.7467 77.5073 96.9085 79.606C95.581 81.1218 94.8047 81.7118 93.9784 81.8342C92.2776 82.0864 91.3706 81.5981 91.0836 80.2758C90.9455 79.6389 90.6151 78.6953 90.3492 78.1784C89.7416 76.9981 89.929 76.5203 91.3851 75.5334C92.9944 74.4425 93.9506 74.5191 94.6138 75.7925C95.3813 77.266 96.7448 78.112 97.4351 77.5429C98.2128 76.9019 98.0842 76.321 96.905 75.1501C96.3239 74.573 95.8484 73.9312 95.8484 73.7242C95.8484 73.1971 97.7359 73.2639 100.389 73.8851C102.917 74.4765 103.949 74.3163 103.949 73.3328C103.949 72.4956 102.615 71.802 99.958 71.2582C97.8222 70.821 96.7539 70.9305 94.9678 71.7695C94.3867 72.0427 93.3268 72.3571 92.6129 72.4686C91.8986 72.5802 90.4823 73.2398 89.4655 73.9344L87.6164 75.1973L84.9522 74.7947C83.487 74.5733 81.6886 74.3932 80.956 74.3943C78.9737 74.3978 77.2785 73.5518 76.4398 72.1406L75.7023 70.8994H69.9256C66.7486 70.8994 64.1489 70.9742 64.1489 71.0658ZM75.2596 79.4522C76.2768 80.4618 76.4113 82.2742 75.5868 83.8571C75.1264 84.7412 74.8461 84.8888 73.6267 84.8888C72.8441 84.8888 71.8966 84.7258 71.5215 84.5261C71.146 84.3268 69.4843 83.9991 67.8285 83.798C65.239 83.4836 64.6973 83.5108 63.9552 83.9938C62.9235 84.665 62.8299 85.5855 63.7678 85.8292C64.3525 85.981 64.2299 86.2076 62.8605 87.5108C61.5929 88.7166 61.3005 89.2143 61.3925 90.01C61.6003 91.8076 62.615 91.4673 65.0957 88.7688C67.0836 86.606 67.5327 86.2877 68.5978 86.2877C69.9217 86.2877 71.8977 87.1383 71.8977 87.708C71.8977 88.1284 69.6681 89.1146 66.9342 89.9036C64.6508 90.5626 63.0923 91.6527 63.0923 92.5907C63.0923 93.2038 63.012 93.2136 61.8708 92.74C59.7117 91.8443 56.7524 92.3249 56.0159 93.6913C55.3646 94.9 56.1952 95.3809 58.9358 95.3809C61.1737 95.3809 61.4745 95.4693 62.4149 96.4031C63.1701 97.153 63.4445 97.7598 63.4445 98.6799C63.4445 100.31 62.7555 100.871 59.2496 102.097L56.4459 103.077L55.2783 102.016C54.6363 101.432 53.3299 100.724 52.3754 100.442C50.8362 99.9862 50.547 99.9886 49.8218 100.46C49.3717 100.753 49.0036 101.122 49.0036 101.28C49.0036 101.915 50.3456 102.692 52.3187 103.201C53.4637 103.496 54.6373 103.972 54.9265 104.26C55.3928 104.723 55.384 104.885 54.8508 105.693C54.52 106.194 53.8452 106.787 53.3507 107.011C52.5409 107.377 52.3588 107.31 51.5198 106.333C51.0077 105.737 50.1621 104.984 49.6408 104.66C49.0737 104.308 48.6493 103.695 48.5841 103.136C48.5014 102.423 48.0646 101.981 46.7494 101.276C45.8002 100.768 44.9098 100.139 44.771 99.8774C44.6319 99.6165 44.416 96.7962 44.2906 93.6102C44.0662 87.8948 44.0736 87.8077 44.8651 87.0694C45.9309 86.0751 48.1174 85.1913 48.8349 85.4645C49.638 85.7705 50.0603 87.0659 50.0603 89.2224C50.0603 90.7525 49.9063 91.205 49.1456 91.9101C46.9301 93.963 46.1042 98.1983 47.5719 99.976C48.2175 100.758 48.2865 100.77 48.8694 100.2C49.2896 99.79 49.5263 98.9006 49.614 97.4023C49.8856 92.7575 50.5706 92.4343 52.7959 95.9002C54.8772 99.1416 57.4568 100.49 57.4568 98.3361C57.4568 97.8444 56.6365 96.5714 55.3967 95.1385C54.2636 93.8291 53.1721 92.4431 52.9713 92.0584C52.7702 91.6737 52.6075 89.6557 52.6096 87.5741C52.6135 84.0197 52.6691 83.7242 53.5218 82.7176C54.6789 81.3523 56.2815 80.6906 58.4141 80.6972C60.5619 80.7042 61.1396 81.0585 60.8525 82.1934C60.5926 83.222 58.972 83.913 57.5043 83.6217C56.2948 83.3814 53.8128 84.0169 53.2281 84.7164C52.8798 85.1333 52.8861 85.3515 53.2605 85.7995C53.73 86.3612 53.9621 86.357 57.3687 85.7222C59.1031 85.3991 58.8625 86.4511 56.7524 88.4183C54.9233 90.1236 54.5848 90.9543 55.5661 91.3281C56.7323 91.7726 58.6381 90.4059 59.7494 88.3284C60.3319 87.239 61.3882 85.789 62.0958 85.1063C62.8038 84.424 63.486 83.3982 63.6125 82.8275C63.9224 81.4261 64.4032 81.1005 66.8184 80.6573C67.9521 80.4492 69.5984 79.9072 70.4768 79.4525C72.5982 78.3547 74.1547 78.3547 75.2596 79.4522ZM85.5439 81.1127C86.5354 81.9293 85.7841 84.9346 84.0118 87.2415C83.2235 88.2683 82.9763 88.382 81.9524 88.1913C80.3579 87.8941 78.8085 88.7562 77.4236 90.7112L76.3004 92.2969L76.0711 90.7787C75.8907 89.585 75.9636 89.1856 76.4124 88.9108C77.6733 88.1382 78.9071 86.5465 79.4333 85.0129C80.0916 83.0943 81.534 81.1151 82.5892 80.6818C83.4239 80.3391 84.8592 80.5482 85.5439 81.1127ZM120.178 83.1401C121.123 83.1401 119.862 86.1097 118.771 86.4535C118.395 86.5721 117.561 87.1866 116.918 87.8192C115.792 88.9275 112.512 90.1348 110.629 90.1348C109.327 90.1348 107.824 89.1328 107.824 88.2651C107.824 86.9522 110.107 84.6003 111.627 84.3484C114.676 83.8427 116.634 83.1076 117.195 82.2584L117.764 81.3949L118.809 82.2675C119.383 82.7474 119.999 83.1401 120.178 83.1401ZM97.7856 86.9743L99.5466 87.771L98.49 88.1221C96.0903 88.9198 94.0873 91.8178 94.0873 94.4925V96.0803H92.4643C90.8712 96.0803 90.8455 96.0625 91.0765 95.1186C91.2062 94.5898 91.794 93.1107 92.3829 91.8325C93.0775 90.324 93.3709 89.2493 93.2184 88.7723C92.8873 87.7363 91.4907 87.822 90.6113 88.9321C89.9952 89.7095 89.6902 90.7455 88.9432 94.594C88.7787 95.4424 87.9559 95.6491 87.5216 94.9514C87.0165 94.1397 87.3293 90.9343 88.051 89.5301C88.4423 88.7684 89.351 87.6321 90.0703 87.005C91.3196 85.916 91.4809 85.8719 93.7009 86.0212C95.0661 86.1129 96.7507 86.506 97.7856 86.9743ZM31.9715 87.2093C35.2274 88.7432 34.7839 93.848 31.2149 95.925C29.8667 96.7095 29.3679 96.7976 26.7862 96.7071C24.849 96.6392 23.8283 96.4587 23.731 96.1678C23.6486 95.9202 23.8769 95.7306 24.2576 95.7306C24.6274 95.7306 25.2815 95.3592 25.7112 94.9052C26.6629 93.8994 27.8706 90.8507 27.8706 89.4542C27.8706 88.8919 28.0253 88.028 28.2141 87.5345C28.629 86.4514 30.0938 86.3245 31.9715 87.2093ZM101.643 88.7922C102.137 89.0153 102.534 89.2906 102.526 89.4042C102.519 89.5175 101.703 90.2398 100.714 91.0092C98.9063 92.4155 97.6133 94.0798 97.6108 95.0035C97.6101 95.277 97.8718 95.7883 98.1924 96.1401C98.7348 96.7354 98.7348 96.7798 98.1924 96.7798C97.365 96.7798 96.2006 95.5194 96.2006 94.6237C96.2006 94.1606 97.0223 93.0628 98.3139 91.8003C99.4762 90.664 100.427 89.4308 100.427 89.0601C100.427 88.2697 100.469 88.2606 101.643 88.7922ZM40.6448 89.8725C41.3098 90.373 41.9526 93.8074 41.9565 96.884C41.9589 98.6177 41.8304 99.0234 41.0699 99.6819C40.5092 100.168 40.0732 101.033 39.8893 102.026C39.6516 103.309 39.5445 103.471 39.3099 102.9C39.1514 102.515 38.3121 100.977 37.4442 99.4822L35.867 96.7637L36.6172 94.411C37.03 93.117 37.4544 91.6188 37.5605 91.0816C37.8327 89.7057 39.5353 89.0381 40.6448 89.8725ZM73.5883 90.9043C73.8208 91.1351 74.011 91.7646 74.011 92.3032C74.011 93.0943 73.8539 93.2824 73.1935 93.2824C71.7349 93.2824 68.5844 95.1109 68.2188 96.1695C67.9863 96.8431 68.0124 97.2586 68.3054 97.5496C68.6294 97.8713 69.0916 97.7091 70.343 96.8333C71.233 96.2101 72.4475 95.604 73.0417 95.4858C74.2283 95.2504 74.2156 95.0899 73.2347 97.9224L72.7782 99.2398L69.6083 99.0125C66.2478 98.7712 65.5578 98.5005 65.5578 97.4226C65.5578 97.0536 65.2408 96.1349 64.8533 95.3809C63.9953 93.7109 63.9915 93.6357 64.7653 93.6182C65.1045 93.6101 66.8874 92.9047 68.7277 92.05C72.2992 90.3919 72.9237 90.2443 73.5883 90.9043ZM82.8164 92.91C82.8164 96.9207 82.2063 97.6664 78.2435 98.4998C77.1816 98.7229 75.9629 98.9929 75.5354 99.0996L74.7577 99.2934L75.4424 97.9598C75.9087 97.0519 76.0594 96.2674 75.9147 95.5015C75.6195 93.9389 76.013 93.4237 76.8963 94.2173C77.5793 94.8314 77.6258 94.8157 78.6359 93.6283C79.2069 92.9572 80.0458 91.9751 80.5002 91.4463C80.9546 90.9175 81.6615 90.4846 82.0714 90.4846C82.7583 90.4846 82.8164 90.6738 82.8164 92.91ZM69.8893 102.69C70.1503 102.949 70.1376 103.591 69.8467 104.842C69.2779 107.29 69.3268 108.777 70.0239 110.229C71.065 112.397 72.8307 112.314 72.4489 110.116C71.8526 106.685 71.823 104.271 72.371 103.82C73.0103 103.293 78.5468 102.283 79.9278 102.441C81.063 102.571 81.3268 103.594 80.7334 105.561C80.1924 107.354 76.9041 110.518 74.2431 111.807C71.7075 113.035 68.3829 113.557 67.7958 112.819C67.1498 112.008 66.9621 109.644 67.3622 107.354C67.8493 104.567 67.5798 103.339 66.514 103.489C64.7216 103.743 63.8879 108.256 65.0361 111.488C65.3306 112.316 65.4496 113.102 65.3003 113.233C64.9164 113.573 58.1954 114.767 57.9636 114.537C57.8583 114.432 58.324 114.008 58.9985 113.594C60.4813 112.684 62.3029 110.68 62.7946 109.419C62.9926 108.911 63.144 107.594 63.1317 106.491C63.1063 104.295 63.6445 103.471 65.7339 102.505C66.8722 101.979 69.2814 102.086 69.8893 102.69ZM60.4256 105.373C60.7299 105.676 60.979 106.415 60.979 107.016C60.979 107.912 60.5338 108.535 58.5135 110.467C57.1574 111.764 56.0479 112.94 56.0479 113.081C56.0479 113.222 56.3103 113.625 56.6309 113.977C57.1821 114.581 57.1616 114.616 56.2554 114.616C55.0255 114.616 53.9346 115.198 53.9346 115.853C53.9346 116.482 54.0023 116.484 52.1299 115.813C51.1268 115.454 49.993 115.327 48.8828 115.45C47.4422 115.611 47.2094 115.556 47.3859 115.1C47.5007 114.802 47.5947 114.432 47.5947 114.276C47.5947 114.12 48.0075 113.89 48.5119 113.764C49.9275 113.411 51.0979 112.521 51.7125 111.329C52.2606 110.266 52.7917 109.736 53.3183 109.725C53.8727 109.714 53.5454 110.959 52.6607 112.227C51.0088 114.594 52.405 115.506 54.4982 113.427C55.5753 112.358 55.6957 112.041 55.6957 110.279C55.6957 108.412 55.7764 108.236 57.392 106.571C59.2302 104.678 59.5842 104.538 60.4256 105.373ZM56.7422 117.078C56.1751 117.434 55.3435 117.523 55.3435 117.228C55.3435 116.968 56.8915 116.413 57.0944 116.6C57.1856 116.684 57.0271 116.899 56.7422 117.078Z" fill="white"/>
</svg>
