<svg width="71" height="71" viewBox="0 0 71 71" fill="none" xmlns="http://www.w3.org/2000/svg">
<path fill-rule="evenodd" clip-rule="evenodd" d="M33.7825 0.334053C33.594 0.822298 33.9468 1.23076 35.171 1.9411C36.4137 2.66195 37.3709 3.6704 37.2718 4.15408C37.2198 4.40793 36.9676 4.47025 36.0635 4.45199C35.1514 4.43373 34.7539 4.31345 34.0945 3.85657C32.4638 2.72705 32.2154 2.59149 31.7718 2.5905C31.5244 2.58991 31.3221 2.50198 31.3221 2.395C31.3221 1.66998 27.5322 0.863382 26.5575 1.3814C25.5034 1.94149 26.3409 2.47777 28.6085 2.6947C30.1128 2.8384 30.5226 2.94378 30.5226 3.18672C30.5226 3.43461 29.3413 3.78035 28.494 3.78035C27.9791 3.78035 27.5855 3.91809 27.3053 4.19635L26.8865 4.61216L26.3331 4.0858C25.6279 3.41476 24.037 2.91382 23.5069 3.19545C22.7696 3.58724 23.125 4.20945 24.2263 4.45457C25.2697 4.68658 25.9253 5.01029 25.9253 5.29292C25.9253 5.62437 24.9937 5.65791 24.1917 5.35504C23.8837 5.23874 23.137 5.08234 22.5323 5.00732C21.6502 4.89776 21.419 4.79277 21.3606 4.47441C21.1995 3.59438 19.5545 2.48491 19.0918 2.94438C18.7769 3.25698 19.0372 3.74681 19.7242 4.13502C20.0552 4.32199 20.3266 4.5419 20.3274 4.62387C20.3296 4.88228 18.7354 4.78503 18.2728 4.49863C17.5661 4.06099 16.8297 3.96255 16.4307 4.25212C15.8917 4.64351 16.1891 5.11648 17.1331 5.36894C17.5881 5.4904 17.9221 5.68987 17.8801 5.81491C17.7643 6.15946 16.7643 6.35753 15.8019 6.22654C15.0909 6.12969 14.9156 6.17137 14.8025 6.46431C14.5502 7.1167 15.4545 7.60693 16.7186 7.50273C17.6828 7.42334 17.8865 7.32489 18.4665 6.65882L19.1229 5.90482L20.6229 6.03065C22.9115 6.22277 23.7266 6.3875 23.7266 6.65763C23.7266 6.92299 22.6944 7.14865 21.4648 7.15222C20.5873 7.1548 19.9289 7.44596 19.9289 7.8318C19.9289 9.06888 23.9343 8.68563 24.762 7.36935C25.0634 6.89024 26.1686 6.82395 27.3245 7.21514C28.5242 7.62142 28.2203 8.03186 26.6249 8.15968C24.9627 8.29305 24.5261 8.45917 24.5261 8.95814C24.5261 9.59365 25.8162 9.69011 28.074 9.22369C28.5845 9.1183 28.7236 9.15502 28.7236 9.39557C28.7236 9.68812 28.0762 9.98782 26.2611 10.5362C25.391 10.799 25.1036 11.2658 25.5931 11.6211C26.0017 11.9178 26.0083 12.0623 25.6299 12.438C25.4676 12.5991 25.2047 12.9151 25.0462 13.14C24.4996 13.9148 24.2681 13.3823 24.4166 11.6921C24.5329 10.3675 24.5056 10.1113 24.2375 10.0091C23.8485 9.8608 23.3546 10.2464 23.0746 10.9173C22.9033 11.3277 22.8487 11.3569 22.781 11.0743C22.73 10.8609 22.5097 10.7269 22.2099 10.7269C21.5923 10.7269 21.1058 11.4926 20.4128 13.5552C19.961 14.8998 19.8361 15.0934 19.4198 15.0934C18.7865 15.0934 17.5303 13.9827 17.5303 13.4228C17.5303 13.1817 17.8117 12.722 18.1557 12.4015C19.1737 11.4526 19.9289 10.3091 19.9289 9.71651C19.9289 8.46513 18.8681 8.94662 17.9095 10.6333C17.3438 11.6286 16.9306 12.0061 16.9306 11.5278C16.9306 11.4224 16.6742 11.0427 16.3608 10.6843C16.0152 10.2889 15.7369 9.68892 15.6542 9.15998C15.4223 7.68076 14.2962 6.55899 13.0429 6.55899C12.2772 6.55899 12.3823 7.22784 13.2296 7.74784C13.9496 8.18965 14.7319 9.04467 14.7319 9.38982C14.7319 9.5087 14.4133 9.53629 13.9288 9.45928C12.7747 9.27609 12.0973 9.48409 12.1727 9.99873C12.2408 10.4636 12.8069 10.6771 14.0513 10.7071C14.9222 10.7281 15.2696 10.9915 15.7791 12.017C16.3312 13.1281 16.3712 13.6641 15.9342 14.098C15.3955 14.6329 15.0657 14.6021 14.5031 13.9644C14.2442 13.6709 13.6596 13.0562 13.2038 12.5983C12.6266 12.0182 12.2776 11.4321 12.0529 10.6642C11.6863 9.41244 10.8648 8.30794 10.4251 8.47545C9.98935 8.64157 10.0737 9.42991 10.648 10.5551C11.3919 12.013 11.2882 12.1163 9.07989 12.1163C7.08527 12.1163 6.3617 12.3693 6.59916 12.9836C6.90438 13.7737 8.69992 13.8575 10.7991 13.1799C11.7341 12.878 11.7775 12.8818 12.232 13.3059C12.4901 13.5465 12.8115 14.0083 12.9466 14.3322C13.3464 15.2904 12.8834 15.5697 10.6987 15.6888C9.26418 15.767 8.83084 15.8607 8.66074 16.13C8.49044 16.3993 8.52862 16.5351 8.83983 16.7689C9.52723 17.2849 10.5452 17.3643 11.9144 17.0086C12.6184 16.8256 13.203 16.6996 13.2136 16.7282C13.2242 16.757 13.6206 17.5161 14.0945 18.4152C14.7541 19.6668 14.9416 20.2253 14.894 20.7969L14.8319 21.5438L13.4917 21.6023C11.9922 21.6676 11.9236 21.6267 10.7887 19.9925C10.4337 19.4814 9.66914 18.7506 9.08969 18.3686C8.51003 17.9863 7.81104 17.4947 7.53621 17.276C6.92417 16.7887 5.0215 16.3689 4.27214 16.5557C3.59015 16.7256 3.35429 17.2472 3.80962 17.5779C3.99431 17.712 4.61614 17.8827 5.1912 17.9573C7.34912 18.2368 7.59517 18.4638 6.49642 19.1621C5.64073 19.7059 5.34611 20.2072 5.73727 20.4547C6.25037 20.7796 6.6977 20.6725 7.40568 20.0552C7.78126 19.7277 8.17883 19.4598 8.28896 19.4598C8.61517 19.4598 9.93478 21.0184 9.93478 21.4038C9.93478 21.6892 9.61178 21.8242 8.28576 22.0919C7.3787 22.2751 6.38929 22.4827 6.08707 22.5534C5.57617 22.6725 5.53739 22.6373 5.53739 22.0552C5.53739 20.6746 4.16321 19.0654 2.98271 19.0636C2.08904 19.062 2.24254 19.6362 3.42924 20.7328C4.38368 21.615 4.55917 21.8804 4.504 22.3599L4.43804 22.9331L2.83899 22.9491C0.737236 22.9704 0.740234 22.9698 0.740234 23.4241C0.740234 24.0789 1.8162 24.4869 3.22596 24.3668C3.89257 24.3101 4.59535 24.2003 4.78784 24.1229C5.20399 23.9554 5.25356 24.3488 4.91036 25.0966C4.72487 25.5009 4.58156 25.5716 4.12883 25.4817C2.9969 25.2568 0.740234 26.4123 0.740234 27.2165C0.740234 27.8816 1.32709 27.8872 2.6593 27.2348L3.92954 26.6128L3.80742 27.498C3.70588 28.2339 3.74545 28.4062 4.04288 28.5195C4.50201 28.6946 5.07866 28.0122 5.25336 27.0869C5.32412 26.7126 5.44505 26.4064 5.5222 26.4064C5.59936 26.4064 5.92676 26.6822 6.24957 27.0195C7.30994 28.1271 8.43847 28.4895 8.94377 27.885C9.27937 27.4833 8.94637 27.1419 7.52701 26.434C6.18621 25.7649 5.95634 25.4198 6.40188 24.7445C6.93816 23.9318 8.58339 23.5378 11.4627 23.5329C13.6122 23.5289 13.9404 23.5739 14.3316 23.9252C14.7004 24.2563 14.7583 24.4764 14.6826 25.2582C14.6328 25.7732 14.4775 26.3317 14.3378 26.4991C13.9896 26.9156 12.7657 26.8821 12.0287 26.4357C10.5884 25.5636 9.33514 25.4654 9.33514 26.2246C9.33514 26.6876 9.97656 27.1143 11.2498 27.4978C13.26 28.1035 13.2008 28.5013 11.0627 28.7569C9.54542 28.9383 8.8962 29.3545 9.32675 29.8697C9.62997 30.2325 11.4039 30.2921 12.2616 29.9682C12.5662 29.8533 13.5097 29.0643 14.358 28.2151C15.9482 26.6233 16.0574 26.4028 16.1797 24.5314L16.2311 23.7482L17.5795 23.5021C18.4549 23.3423 19.3324 23.0081 20.082 22.5488C21.1861 21.872 21.9251 21.7006 22.6109 21.9619C23.0324 22.1225 23.0094 22.4909 22.5183 23.4469C21.9924 24.4703 21.672 24.5752 20.7104 24.0386C19.7568 23.5063 19.054 23.5561 18.967 24.162C18.9217 24.4784 19.0692 24.6816 19.5067 24.9063C19.8379 25.0764 20.2483 25.2155 20.4186 25.2155C20.5891 25.2155 20.7284 25.336 20.7284 25.4831C20.7284 25.7887 19.7388 26.2444 18.1061 26.6908C16.7134 27.0714 16.2664 27.5079 16.8383 27.9289C17.3218 28.2847 18.6314 28.1345 19.9161 27.5756C20.8949 27.1498 23.4782 24.6806 24.0068 23.6654C24.1881 23.3173 24.3636 23.0323 24.3968 23.0323C24.8338 23.0323 28.3867 24.8037 28.8644 25.2598C30.0746 26.4151 29.8442 27.7995 28.4428 27.7927C27.5595 27.7883 27.3643 27.604 27.0187 26.4478C26.6469 25.205 25.9293 24.3014 25.4572 24.4814C24.9571 24.6719 25.0574 25.4279 25.721 26.4667C26.4576 27.62 26.1656 27.6742 25.1426 26.5743C24.3269 25.697 23.7266 25.6313 23.7266 26.4191C23.7266 27.369 25.1124 28.5896 26.1908 28.5896C26.4576 28.5896 26.9989 28.7235 27.3936 28.8873C28.724 29.4392 29.3971 29.2946 30.6225 28.1926C31.8038 27.1304 32.144 27.0383 33.2274 27.4878C34.0175 27.8157 34.1005 28.168 33.512 28.6968C33.0357 29.1247 33.0671 29.8465 33.5662 29.941C34.0299 30.0287 34.9192 29.1163 34.923 28.5489C34.928 27.8116 35.2368 27.5162 35.9808 27.5371C37.4777 27.5793 37.8826 28.2917 37.1179 29.5371C36.8984 29.8945 36.7189 30.2294 36.7189 30.2814C36.7189 30.3334 38.1942 30.3758 39.9972 30.3758H43.2754L43.694 29.6715C44.1699 28.8706 45.1319 28.3905 46.2569 28.3925C46.6726 28.3931 47.6932 28.2909 48.5247 28.1652L50.0366 27.9368L51.086 28.6535C51.6631 29.0477 52.4668 29.422 52.8721 29.4853C53.2773 29.5486 53.8787 29.727 54.2085 29.882C55.2221 30.3582 55.8284 30.4203 57.0405 30.1722C58.5482 29.8636 59.3055 29.47 59.3055 28.9949C59.3055 28.4368 58.7197 28.3458 57.2853 28.6815C55.7794 29.034 54.7083 29.0719 54.7083 28.7728C54.7083 28.6553 54.9781 28.2911 55.3079 27.9636C55.9771 27.2991 56.0501 26.9694 55.6087 26.6056C55.2169 26.2827 54.4432 26.7628 54.0077 27.599C53.809 27.9805 53.5441 28.1926 53.2663 28.1926C52.8048 28.1926 51.5735 27.4456 51.4302 27.0786C51.3826 26.9571 51.5785 26.265 51.8651 25.5404L52.3864 24.2232H53.2501C54.0432 24.2232 54.2087 24.3204 55.2763 25.414C56.4792 26.6459 56.8782 26.8198 57.3117 26.3012C57.6785 25.8623 57.2771 25.1034 56.4088 24.5947C55.5643 24.0999 55.5278 23.781 56.2573 23.2695C57.1754 22.6258 59.2675 21.643 59.7193 21.643C59.9531 21.643 60.4179 21.9332 60.7521 22.288C61.7695 23.3683 61.9404 23.7294 61.7961 24.4931C61.6911 25.0486 61.5502 25.2175 61.1115 25.3132C60.4025 25.4678 59.6647 26.1487 59.7461 26.5733C59.8336 27.0292 60.6259 27.0986 61.2334 26.7035C61.5114 26.5227 61.7561 26.4042 61.7773 26.4401C61.7986 26.4762 61.9705 26.8432 62.1594 27.256C62.3485 27.6687 62.6391 28.0583 62.8056 28.1218C63.2578 28.2941 63.7489 27.7921 63.6468 27.262C63.577 26.8992 63.6468 26.8039 63.9806 26.8063C64.8111 26.8122 65.0022 27.1157 65.0022 28.429C65.0022 29.499 65.0559 29.6822 65.3887 29.7477C65.8698 29.8421 66.3014 29.284 66.3014 28.5669C66.3014 28.0291 66.3066 28.0271 66.9084 28.3252C67.3887 28.5632 67.5764 28.5757 67.8079 28.3849C68.2204 28.045 68.1817 27.907 67.4763 27.2066C66.5734 26.3101 64.96 25.5507 63.9528 25.5484C63.1237 25.5464 63.1033 25.5305 63.1033 24.8847C63.1033 24.2698 63.149 24.2236 63.7529 24.2275C64.1103 24.2299 64.8051 24.4131 65.297 24.6348C65.7923 24.8579 66.3889 24.9885 66.634 24.9273C66.8772 24.8668 67.1323 24.9067 67.2004 25.0163C67.4403 25.4019 68.2848 25.2248 68.6184 24.7193C69.321 23.6545 69.5614 24.2936 69.2518 26.4034C69.0701 27.6411 69.0721 28.0462 69.2612 28.2339C69.4515 28.4229 69.5972 28.3822 69.9368 28.045C70.2946 27.6897 70.3852 27.3213 70.4593 25.9199C70.5125 24.915 70.4653 24.1231 70.3436 23.9757C70.0699 23.6442 69.6392 22.0876 69.617 21.3502C69.6028 20.8715 69.4859 20.7268 68.9998 20.5863C67.3004 20.0951 66.928 19.5668 67.8976 19.0225C68.229 18.8366 68.5001 18.5522 68.5001 18.3908C68.5001 17.8718 67.7409 17.8148 66.9874 18.2773C66.4755 18.5915 66.1089 18.6772 65.6602 18.5881C64.1948 18.2971 64.1447 17.5866 65.5019 16.3453C66.5674 15.3706 66.683 15.0932 66.1918 14.6885C65.6548 14.2459 64.608 14.9139 63.9076 16.1459C63.2966 17.221 63.1502 17.3347 61.4714 18.0389C60.9585 18.2541 60.4353 18.6226 60.3085 18.8578C59.9264 19.5668 59.3043 19.2808 58.3805 17.9712C57.9183 17.3163 57.5732 16.7478 57.6129 16.7081C57.6529 16.6682 58.0785 16.8246 58.5588 17.0555C59.6877 17.5981 60.8888 17.6015 61.5772 17.0636C62.6046 16.2614 62.1908 15.8946 60.2899 15.9224C59.2448 15.9379 57.7065 15.4512 57.7065 15.1053C57.7065 15.0277 57.9343 14.7514 58.213 14.4916C58.6775 14.0583 58.7728 14.0405 59.3623 14.2766C61.4303 15.1055 62.896 15.0394 64.0111 14.067C64.7165 13.452 64.9332 12.6436 64.4427 12.4566C64.2998 12.4023 63.6925 12.5678 63.0935 12.8244C61.8962 13.3373 59.9507 13.4714 59.5454 13.0689C59.4135 12.9379 59.3055 12.4932 59.3055 12.0805C59.3055 11.4039 59.3847 11.2904 60.113 10.9214C61.0623 10.4405 61.4972 9.70837 61.1095 9.24434C60.7253 8.78487 60.3427 8.87517 59.6963 9.57797C59.3397 9.96539 59.0435 10.1404 58.9403 10.0245C58.847 9.91954 58.3455 9.2749 57.826 8.59175C56.7113 7.12642 55.823 6.55799 55.3625 7.01528C54.8895 7.48467 55.218 8.04039 56.8202 9.48131C57.8548 10.4118 58.3061 10.9576 58.3061 11.2783C58.3061 12.4128 57.0694 13.7348 55.6487 14.1196C54.6191 14.3985 50.804 14.4092 50.092 14.1353C49.2131 13.7971 48.9117 13.35 48.9117 12.3846C48.9117 11.6608 49.023 11.3797 49.4959 10.9101C50.4182 9.99437 51.6355 10.1726 53.5927 11.5097C55.0061 12.4755 55.8574 12.1722 55.2119 10.9331C54.8348 10.2089 53.479 9.56031 51.7596 9.28185C50.1643 9.02343 50.2731 9.07087 50.417 8.69833C50.5549 8.34148 51.0042 8.12673 53.0139 7.45688C55.0411 6.78108 55.5446 6.43831 55.4682 5.78514C55.4164 5.34175 55.2989 5.25997 54.6351 5.20599C54.0161 5.15558 53.5581 5.31813 52.3365 6.02172C50.2667 7.21355 50.0028 7.28163 49.6379 6.71776C49.3484 6.2708 49.2211 5.52077 49.2813 4.6189C49.3001 4.33925 49.4969 4.09751 49.799 3.98339C50.5241 3.7097 50.8363 3.02615 50.4234 2.6163C50.1218 2.31681 50.0514 2.31839 49.4883 2.63933C48.6828 3.0984 48.657 3.09383 47.6218 2.30926C46.5939 1.53006 45.7156 1.2774 45.1257 1.59099C44.3108 2.02386 44.8071 2.74988 46.2133 3.18195C47.7648 3.65869 47.9123 3.83989 47.9123 5.26811C47.9123 6.18585 48.0378 6.80509 48.3558 7.4549C48.8319 8.42801 48.7212 8.97124 48.0186 9.10838C47.6472 9.18082 46.5201 8.19798 45.4499 6.8686C44.8549 6.12949 44.8231 6.00465 44.8683 4.58616C44.9083 3.33478 44.8409 2.9551 44.4631 2.29874C43.6896 0.955871 41.4467 -0.133949 40.6558 0.448771C40.1243 0.840161 40.4047 1.29744 41.584 1.96293C42.9744 2.7473 43.5261 3.3834 43.657 4.35275C43.7957 5.37866 43.5661 5.47968 42.011 5.07758C41.3628 4.90987 40.4539 4.77272 39.9914 4.77272C38.8207 4.77272 38.5182 4.61573 38.516 4.00721C38.5126 3.09165 37.4083 1.46912 36.2702 0.708176C35.1179 -0.0622995 34.0007 -0.230407 33.7825 0.334053ZM32.4051 4.0993C32.579 4.16559 32.7213 4.29122 32.7213 4.37835C32.7213 4.57782 31.9535 4.38887 31.8068 4.15328C31.6809 3.95084 31.9513 3.92643 32.4051 4.0993ZM30.9223 4.86501C30.9223 5.23675 31.5414 5.56662 32.2394 5.56662C32.7537 5.56662 32.7653 5.58646 32.4524 5.92962C32.2705 6.12929 32.1216 6.35793 32.1216 6.43792C32.1216 6.5181 32.7513 7.18557 33.5208 7.92151C34.6673 9.01768 34.92 9.37136 34.92 9.87965C34.92 10.4979 34.492 11.1239 34.0695 11.1239C33.9472 11.1239 33.4139 10.6775 32.8844 10.1321C31.9675 9.18757 31.9218 9.08754 31.9218 8.02829C31.9218 7.02818 31.8534 6.84836 31.2422 6.24143C30.0543 5.0619 29.2619 5.57912 30.1994 6.92239C30.7015 7.64186 30.8872 8.34862 30.5726 8.34227C30.2737 8.33612 29.9723 8.03523 29.6613 7.43187C29.3125 6.75567 28.6483 6.25036 27.845 6.0503C27.5587 5.97885 27.3245 5.84825 27.3245 5.75973C27.3245 5.67141 27.2747 5.47056 27.2139 5.31336C27.1248 5.08234 27.2877 5.04384 28.0634 5.11251C28.6349 5.16312 29.3471 5.07718 29.823 4.89994C30.8486 4.51808 30.9223 4.5157 30.9223 4.86501ZM35.4836 5.89449C36.4379 6.07491 37.2878 6.28211 37.3723 6.35495C37.4571 6.42779 37.3895 6.87198 37.2224 7.34196C36.5708 9.17626 37.0439 11.7374 38.0611 11.8811C38.666 11.9664 38.8189 11.2696 38.5424 9.68773C38.3154 8.38812 38.4219 7.04703 38.7885 6.58637C38.9472 6.38691 39.2946 6.3486 40.1101 6.4403C43.1435 6.78167 46.5797 9.83559 46.2826 11.9265C46.2313 12.2869 46.0726 12.43 45.6734 12.4759C44.8897 12.5656 41.7477 11.9924 41.3849 11.6935C41.0739 11.4373 41.0907 10.0678 41.4291 8.12058C41.6548 6.82097 40.6102 6.84042 40.017 8.14697C39.7345 8.76859 39.6914 9.1707 39.8097 10.0775C40.0999 12.305 40.0877 12.3741 39.3627 12.5831C38.5378 12.8208 37.3783 12.4999 36.6538 11.8332C36.1946 11.4107 36.1303 11.1999 36.1449 10.1696C36.17 8.3911 35.4543 7.2338 33.519 5.92427C32.8538 5.47433 33.23 5.46857 35.4836 5.89449ZM31.1376 10.3147C31.459 10.6339 31.7219 10.9889 31.7219 11.104C31.7219 11.4244 30.9297 11.8426 29.823 12.1063C28.869 12.3338 28.124 12.7847 28.124 13.1348C28.124 13.2245 28.3329 13.4339 28.5883 13.6C28.9999 13.8678 29.164 13.8692 30.0375 13.6108C30.5791 13.4506 31.3205 13.0487 31.6849 12.7174L32.3475 12.1151L33.9386 12.6714C35.9282 13.3668 36.3191 13.6854 36.3191 14.6105C36.3191 15.1327 36.1634 15.477 35.7349 15.9025C35.2012 16.4325 35.0305 16.4827 33.7605 16.4827C32.7741 16.4827 32.2989 16.5684 32.1238 16.7778C31.7646 17.2075 32.0185 17.6509 32.812 17.9802C33.6949 18.3465 34.545 18.3469 35.4261 17.9813C36.0737 17.7126 36.1193 17.7182 36.1193 18.0661C36.1193 18.6057 36.9939 19.2071 38.4105 19.6416C40.1685 20.1806 41.1163 20.5984 41.1163 20.8338C41.1163 21.1599 39.9982 21.643 39.2436 21.643C38.6392 21.643 38.3843 21.4624 37.2562 20.235C35.8484 18.7036 35.2726 18.5105 35.1546 19.5306C35.1025 19.9822 35.2684 20.2646 35.9877 20.9489C36.7649 21.6884 36.8344 21.8171 36.5026 21.9032C35.9704 22.0415 36.0235 22.5639 36.609 22.9448C37.0301 23.2189 37.3375 23.2344 38.8071 23.0559C39.7467 22.9418 40.6898 22.7558 40.9028 22.6427C41.1157 22.5294 41.6534 22.4369 42.0975 22.4369C42.7895 22.4369 42.9486 22.5206 43.2099 23.0224C43.6778 23.9207 43.6014 24.9492 43.0242 25.5222C42.3948 26.1474 41.5824 26.1501 40.3522 25.5309C39.8291 25.2679 38.8752 24.9561 38.2326 24.838C36.8632 24.5868 36.5904 24.4018 36.4145 23.6067C36.3427 23.2828 35.9556 22.7007 35.5538 22.3134C35.1522 21.926 34.5528 21.1031 34.2222 20.4849C33.5916 19.306 32.51 18.5303 31.8482 18.7826C31.2913 18.9948 31.4834 19.4661 32.5214 20.4339C33.0711 20.9464 33.5208 21.5289 33.5208 21.7287C33.5208 22.0417 33.4171 22.0719 32.7713 21.948C32.3591 21.8689 31.7734 21.7577 31.4702 21.7008C30.9413 21.6017 30.3227 21.9022 30.3227 22.2581C30.3227 22.7019 31.4254 23.1042 32.7473 23.1423C34.2744 23.1865 34.9847 23.5761 34.8788 24.3115C34.83 24.6503 34.6509 24.7303 33.8206 24.7836C32.4466 24.872 31.4676 24.5393 30.766 23.7458C30.1866 23.0907 30.1728 23.0248 30.1704 20.9202C30.1692 19.7349 30.2631 18.5865 30.3791 18.3682C30.4952 18.1499 31.1146 17.3661 31.7557 16.6264C32.4668 15.8059 32.9212 15.0985 32.9212 14.8117C32.9212 13.5836 31.4602 14.3437 30.2761 16.1879C29.0133 18.1548 28.6245 17.9714 28.4704 15.3355C28.4206 14.4852 28.2863 13.9805 28.0479 13.7477C27.717 13.4246 27.6779 13.4313 27.3115 13.8749C26.4786 14.8838 26.9473 17.2873 28.2046 18.4523C28.6363 18.8525 28.7236 19.1093 28.7236 19.9776C28.7236 21.2014 28.484 21.9365 28.0283 22.1102C27.6211 22.2652 26.3802 21.7637 25.7754 21.1994C25.3263 20.7804 25.3221 20.731 25.4494 17.4875C25.5205 15.6795 25.6431 14.079 25.722 13.9309C25.8008 13.7826 26.3061 13.4254 26.8448 13.137C27.5963 12.7345 27.8388 12.4874 27.8865 12.0752C27.9281 11.7183 28.1728 11.4006 28.6155 11.1288C28.9821 10.904 29.4282 10.4983 29.6071 10.2272C30.0323 9.58293 30.4232 9.60536 31.1376 10.3147ZM23.6237 14.0496L24.1849 14.5289L24.0526 16.4485C23.8787 18.9711 23.7582 19.454 23.2447 19.6862C22.5891 19.983 21.7622 19.5912 21.6297 18.9209C21.5697 18.6169 21.329 17.7674 21.0948 17.033L20.669 15.6979L21.5641 14.1552C22.0566 13.3067 22.5343 12.4338 22.6261 12.2155C22.7618 11.8926 22.8179 11.9817 22.9277 12.6944C23.0214 13.3027 23.2339 13.7167 23.6237 14.0496ZM41.8761 15.0437C42.4315 16.6468 42.4387 16.5567 41.7655 16.4231C41.4283 16.356 40.7391 16.0121 40.234 15.6584C39.2206 14.9493 38.7653 15.0594 38.9928 15.9587C39.1597 16.6196 40.0711 17.2381 41.3082 17.5298C42.1939 17.7388 42.3156 17.8289 42.3156 18.2763C42.3156 18.8411 41.988 19.2613 41.5473 19.2613C41.3883 19.2613 40.3753 18.8594 39.2962 18.3682C38.217 17.877 37.1956 17.475 37.0263 17.475C36.633 17.475 36.6384 17.4177 37.1187 16.4827C37.3385 16.0548 37.5184 15.5334 37.5184 15.324C37.5184 14.7367 37.9272 14.5267 39.2244 14.4473C39.8802 14.4072 40.687 14.3576 41.0174 14.337C41.5451 14.304 41.6494 14.39 41.8761 15.0437ZM44.7176 14.7127C46.9664 15.1856 47.3126 15.6088 47.3126 17.8849C47.3126 19.1539 47.2797 19.2613 46.8899 19.2613C46.6572 19.2613 46.2561 19.0158 45.9982 18.7155C45.7404 18.4152 45.2643 17.8581 44.9402 17.4772C44.367 16.8034 44.3406 16.7945 43.953 17.143C43.4517 17.5933 43.2285 17.301 43.396 16.4142C43.4781 15.9795 43.3926 15.5344 43.1279 15.0191L42.7393 14.2623L43.1807 14.3723C43.4233 14.4328 44.1149 14.5861 44.7176 14.7127ZM18.0808 16.204C19.4965 17.0279 20.1295 18.9088 19.438 20.2368C19.0998 20.8864 18.0402 21.4445 17.1453 21.4445C16.4565 21.4445 16.1311 20.9317 16.1311 19.846C16.1311 18.4567 14.8906 16.2842 14.0975 16.2842C13.7293 16.2842 13.6198 16.0653 13.8659 15.8212C13.939 15.7483 14.7181 15.6888 15.5972 15.6888C16.957 15.6888 17.3274 15.7656 18.0808 16.204ZM56.0385 16.0518C55.8566 16.2515 55.7081 16.5416 55.7085 16.6968C55.7099 17.221 56.4436 18.1655 57.4694 18.9636C58.0307 19.4002 58.4936 19.8101 58.498 19.8744C58.5054 19.9816 57.6085 20.4522 57.3973 20.4522C57.3475 20.4522 57.3067 20.2801 57.3067 20.0697C57.3067 19.8593 56.767 19.1595 56.1074 18.5146C55.3745 17.7982 54.9081 17.1751 54.9081 16.9124C54.9081 16.4041 55.5689 15.6888 56.0385 15.6888C56.3463 15.6888 56.3463 15.714 56.0385 16.0518ZM53.7088 16.9868C53.7088 18.5047 54.8456 20.1493 56.2074 20.602L56.807 20.8013L55.8076 21.2534C55.2203 21.5191 54.2643 21.7422 53.4896 21.7942C52.2297 21.879 52.1382 21.854 51.4292 21.2359C51.021 20.8801 50.5053 20.2352 50.2833 19.8029C49.8737 19.0061 49.6962 17.1871 49.9829 16.7264C50.2293 16.3304 50.6962 16.4477 50.7896 16.9292C51.2135 19.1132 51.3866 19.7011 51.7362 20.1423C52.2353 20.7723 53.0278 20.8209 53.2157 20.233C53.3023 19.9623 53.1358 19.3524 52.7416 18.4964C52.4074 17.771 52.0738 16.9318 52.0003 16.6315C51.8691 16.0958 51.8837 16.0857 52.7878 16.0857H53.7088V16.9868ZM44.3858 19.3111C45.0987 20.2779 45.9642 20.7227 46.8223 20.5627C47.4034 20.4545 47.5437 20.519 47.991 21.1018C49.049 22.479 49.421 24.118 48.7932 24.6356C48.6179 24.7799 48.1539 24.898 47.7622 24.898C47.1851 24.898 46.9245 24.7539 46.3898 24.1398C46.0268 23.723 45.5849 22.9486 45.4078 22.4192C45.1067 21.5191 44.4192 20.6145 43.6864 20.1544C43.4499 20.006 43.3942 19.7388 43.4651 19.0952C43.5175 18.6218 43.6224 18.3092 43.6984 18.4005C43.7745 18.4918 44.0837 18.9017 44.3858 19.3111ZM64.7553 19.7904C65.612 20.0177 66.209 20.3251 66.6652 20.7739C67.0301 21.1329 67.5035 21.4816 67.7167 21.5489C68.336 21.744 69.0518 23.4293 68.5155 23.4293C68.4139 23.4293 68.0641 23.6521 67.7381 23.9244L67.1455 24.4196L66.8223 23.9296C66.5043 23.4477 65.3927 23.0305 63.6623 22.7435C63.1261 22.6546 62.7267 22.3942 62.2132 21.7984C61.3491 20.7961 61.3005 20.1777 62.0539 19.7718C62.7695 19.3863 63.2446 19.3897 64.7553 19.7904ZM36.7189 40.1955C36.7189 40.2475 36.8984 40.5824 37.1179 40.9398C37.8826 42.1852 37.4777 42.8976 35.9808 42.9398C35.2368 42.9607 34.928 42.6653 34.923 41.928C34.9192 41.3606 34.0299 40.4482 33.5662 40.5359C33.0671 40.6304 33.0357 41.3522 33.512 41.7801C34.1005 42.3089 34.0175 42.6612 33.2274 42.989C32.144 43.4386 31.8038 43.3465 30.6225 42.2843C29.3971 41.1823 28.724 41.0377 27.3936 41.5896C26.9989 41.7533 26.4576 41.8873 26.1908 41.8873C25.1124 41.8873 23.7266 43.1079 23.7266 44.0578C23.7266 44.8456 24.3269 44.7799 25.1426 43.9026C26.1656 42.8027 26.4576 42.8569 25.721 44.0102C25.0574 45.049 24.9571 45.805 25.4572 45.9955C25.9293 46.1755 26.6469 45.2719 27.0187 44.0291C27.3643 42.8729 27.5595 42.6886 28.4428 42.6842C29.8442 42.6774 30.0746 44.0618 28.8644 45.2171C28.3867 45.6732 24.8338 47.4446 24.3968 47.4446C24.3636 47.4446 24.1881 47.1596 24.0068 46.8115C23.4782 45.7963 20.8949 43.327 19.9161 42.9013C18.6314 42.3424 17.3218 42.1922 16.8383 42.548C16.2664 42.969 16.7134 43.4054 18.1061 43.7861C19.7388 44.2325 20.7284 44.6882 20.7284 44.9938C20.7284 45.1409 20.5891 45.2614 20.4186 45.2614C20.2483 45.2614 19.8379 45.4005 19.5067 45.5706C19.0692 45.7953 18.9217 45.9985 18.967 46.3149C19.054 46.9208 19.7568 46.9706 20.7104 46.4383C21.672 45.9016 21.9924 46.0066 22.5183 47.03C23.0094 47.986 23.0324 48.3544 22.6109 48.515C21.9251 48.7763 21.1861 48.6049 20.082 47.9281C19.3324 47.4688 18.4549 47.1346 17.5795 46.9748L16.2311 46.7287L16.1797 45.9455C16.0574 44.0741 15.9482 43.8536 14.358 42.2618C13.5097 41.4126 12.5662 40.6236 12.2616 40.5087C11.4039 40.1848 9.62997 40.2444 9.32675 40.6072C8.8962 41.1224 9.54542 41.5386 11.0627 41.72C13.2008 41.9756 13.26 42.3734 11.2498 42.9791C9.97656 43.3626 9.33514 43.7893 9.33514 44.2523C9.33514 45.0115 10.5884 44.9132 12.0287 44.0412C12.7657 43.5948 13.9896 43.5612 14.3378 43.9778C14.4775 44.1452 14.6328 44.7037 14.6826 45.2187C14.7583 46.0005 14.7004 46.2206 14.3316 46.5517C13.9404 46.903 13.6122 46.948 11.4627 46.944C8.58339 46.9391 6.93816 46.5451 6.40188 45.7324C5.95634 45.0571 6.18621 44.712 7.52701 44.0429C8.94637 43.335 9.27937 42.9936 8.94377 42.5919C8.43847 41.9874 7.30994 42.3498 6.24957 43.4574C5.92676 43.7947 5.59936 44.0705 5.5222 44.0705C5.44505 44.0705 5.32412 43.7643 5.25336 43.39C5.07866 42.4647 4.50201 41.7823 4.04288 41.9574C3.74545 42.0707 3.70588 42.243 3.80742 42.9789L3.92954 43.8641L2.6593 43.2421C1.32709 42.5897 0.740234 42.5953 0.740234 43.2604C0.740234 44.0646 2.9969 45.2201 4.12883 44.9952C4.58156 44.9053 4.72487 44.976 4.91036 45.3803C5.25356 46.1281 5.20399 46.5215 4.78784 46.354C4.59555 46.2766 3.89257 46.1668 3.22596 46.1101C1.8162 45.99 0.740234 46.398 0.740234 47.0528C0.740234 47.5071 0.737236 47.5065 2.83899 47.5277L4.43804 47.5438L4.504 48.117C4.55917 48.5965 4.38368 48.8619 3.42924 49.7441C2.24254 50.8407 2.08904 51.4149 2.98271 51.4133C4.16321 51.4115 5.53739 49.8023 5.53739 48.4217C5.53739 47.8396 5.57617 47.8044 6.08707 47.9235C6.38949 47.9942 7.3789 48.2018 8.28576 48.385C9.45727 48.6215 9.93478 48.8031 9.93478 49.0117C9.93478 49.4398 9.10967 50.5668 8.59638 50.8395C8.21121 51.0441 8.0623 50.9941 7.43847 50.4503C6.6995 49.806 6.25537 49.6943 5.73727 50.0222C5.34611 50.2697 5.64073 50.771 6.49642 51.3148C7.59517 52.0131 7.34912 52.2401 5.1912 52.5196C4.61614 52.5942 3.99431 52.7649 3.80962 52.899C3.35429 53.2297 3.59015 53.7513 4.27214 53.9212C5.0215 54.1079 6.92417 53.6882 7.53621 53.2009C7.81104 52.9822 8.51003 52.4906 9.08969 52.1083C9.66914 51.7263 10.4337 50.9955 10.7887 50.4844C11.9236 48.8502 11.9922 48.8093 13.4917 48.8746L14.8319 48.9331L14.894 49.68C14.9416 50.2516 14.7541 50.8101 14.0945 52.0617C13.6206 52.9608 13.2242 53.7199 13.2136 53.7487C13.203 53.7773 12.6184 53.6513 11.9144 53.4683C10.5452 53.1126 9.52723 53.192 8.83983 53.708C8.52862 53.9418 8.49044 54.0776 8.66074 54.3469C8.83084 54.6162 9.26418 54.7099 10.6987 54.7881C12.8834 54.9072 13.3464 55.1865 12.9466 56.1447C12.8115 56.4686 12.4901 56.9305 12.232 57.171C11.7775 57.5951 11.7341 57.5989 10.7991 57.297C8.69992 56.6194 6.90438 56.7032 6.59916 57.4933C6.3617 58.1076 7.08527 58.3606 9.07989 58.3606C11.2882 58.3606 11.3919 58.4639 10.648 59.9218C10.0737 61.047 9.98935 61.8353 10.4251 62.0014C10.8626 62.1682 11.6857 61.0666 12.0479 59.8296C12.2838 59.0236 12.6184 58.4934 13.349 57.7682C13.8896 57.2311 14.3322 56.7133 14.3322 56.6175C14.3322 56.2449 15.2646 55.9293 15.6928 56.157C16.326 56.4934 16.3972 57.0634 15.9354 58.0999C15.3328 59.4523 15.0006 59.7468 14.0513 59.7698C12.8069 59.7998 12.2408 60.0133 12.1727 60.4782C12.0973 60.9928 12.7747 61.2008 13.9288 61.0176C14.4133 60.9406 14.7319 60.9682 14.7319 61.0871C14.7319 61.4322 13.9496 62.2873 13.2296 62.7291C12.3823 63.2491 12.2772 63.9179 13.0429 63.9179C14.2962 63.9179 15.4223 62.7961 15.6542 61.3169C15.7369 60.788 16.0152 60.188 16.3608 59.7926C16.6742 59.4342 16.9306 59.0545 16.9306 58.9491C16.9306 58.4708 17.3438 58.8483 17.9095 59.8436C18.8681 61.5303 19.9289 62.0118 19.9289 60.7604C19.9289 60.1678 19.1737 59.0243 18.1557 58.0754C17.8117 57.7549 17.5303 57.2952 17.5303 57.0541C17.5303 56.4942 18.7865 55.3835 19.4198 55.3835C19.8361 55.3835 19.961 55.5771 20.4128 56.9217C21.1058 58.9843 21.5923 59.75 22.2099 59.75C22.5097 59.75 22.73 59.616 22.781 59.4026C22.8487 59.12 22.9033 59.1492 23.0746 59.5596C23.3546 60.2305 23.8485 60.6161 24.2375 60.4678C24.5056 60.3656 24.5329 60.1094 24.4166 58.7848C24.2681 57.0946 24.4996 56.5621 25.0462 57.3369C25.2047 57.5618 25.4676 57.8778 25.6299 58.0389C26.0083 58.4146 26.0017 58.5591 25.5931 58.8558C25.1036 59.2111 25.391 59.6779 26.2611 59.9407C28.0762 60.4891 28.7236 60.7888 28.7236 61.0813C28.7236 61.3219 28.5845 61.3586 28.074 61.2532C25.8162 60.7868 24.5261 60.8832 24.5261 61.5188C24.5261 62.0177 24.9627 62.1838 26.6249 62.3172C28.2203 62.445 28.5242 62.8555 27.3245 63.2618C26.1686 63.653 25.0634 63.5867 24.762 63.1075C23.9343 61.7913 19.9289 61.408 19.9289 62.6451C19.9289 63.0309 20.5873 63.3221 21.4648 63.3247C22.6944 63.3282 23.7266 63.5539 23.7266 63.8193C23.7266 64.0894 22.9115 64.2541 20.6229 64.4463L19.1229 64.5721L18.4665 63.8181C17.8865 63.152 17.6828 63.0536 16.7186 62.9742C15.4545 62.87 14.5502 63.3602 14.8025 64.0126C14.9156 64.3055 15.0909 64.3472 15.8019 64.2504C16.7527 64.121 17.7639 64.3165 17.8765 64.6513C17.9163 64.7698 17.5631 64.9883 17.0915 65.1365C16.1395 65.4364 15.8785 65.9529 16.5097 66.2883C16.8141 66.45 17.1221 66.423 17.7709 66.1779C18.7743 65.7989 20.3292 65.5891 20.3274 65.833C20.3266 65.9259 20.0552 66.1549 19.7242 66.3419C19.0372 66.7301 18.7769 67.2199 19.0918 67.5325C19.5545 67.992 21.1995 66.8825 21.3606 66.0025C21.419 65.6841 21.6502 65.5791 22.5323 65.4696C23.137 65.3946 23.8837 65.2382 24.1917 65.1219C24.9937 64.819 25.9253 64.8525 25.9253 65.184C25.9253 65.4666 25.2697 65.7903 24.2263 66.0223C23.125 66.2674 22.7696 66.8897 23.5069 67.2814C24.037 67.5631 25.6279 67.0621 26.3331 66.3911L26.8865 65.8647L27.3053 66.2805C27.5855 66.5588 27.9791 66.6965 28.494 66.6965C29.3413 66.6965 30.5226 67.0423 30.5226 67.2902C30.5226 67.5331 30.1128 67.6385 28.6085 67.7822C26.3409 67.9991 25.5034 68.5354 26.5575 69.0955C27.5322 69.6135 31.3221 68.8069 31.3221 68.0819C31.3221 67.9749 31.5244 67.887 31.7718 67.8864C32.2142 67.8854 32.471 67.7455 34.0723 66.6348C35.0837 65.9332 37.0333 65.6496 37.2362 66.1746C37.4817 66.8097 36.8121 67.4934 34.5202 68.9478C33.5466 69.5657 33.5316 70.3409 34.4914 70.432C35.9548 70.5712 38.5103 68.0551 38.516 66.4697C38.5182 65.8612 38.8207 65.7042 39.9914 65.7042C40.4539 65.7042 41.3628 65.567 42.011 65.3993C43.5661 64.9972 43.7957 65.0982 43.657 66.1241C43.5261 67.0935 42.9744 67.7296 41.584 68.514C40.4047 69.1795 40.1243 69.6367 40.6558 70.0281C41.4467 70.6109 43.6896 69.521 44.4631 68.1782C44.8413 67.5214 44.9083 67.1423 44.8681 65.8866C44.8203 64.3855 44.8221 64.38 45.6478 63.4057C47.4096 61.328 48.0682 60.9624 48.5843 61.7762C48.749 62.0358 48.6954 62.3281 48.3558 63.022C48.0378 63.6718 47.9123 64.291 47.9123 65.2088C47.9123 66.637 47.7648 66.8182 46.2133 67.295C44.8071 67.727 44.3108 68.453 45.1257 68.8859C45.7156 69.1995 46.5939 68.9468 47.6218 68.1676C48.657 67.3831 48.6828 67.3785 49.4883 67.8376C50.0514 68.1585 50.1218 68.1601 50.4234 67.8606C50.8363 67.4507 50.5241 66.7672 49.799 66.4935C48.7398 66.0936 49.3005 63.1052 50.372 63.4396C50.6133 63.515 51.4972 63.9719 52.3365 64.4552C53.5581 65.1588 54.0161 65.3213 54.6351 65.2709C55.2989 65.2169 55.4164 65.1352 55.4682 64.6918C55.5446 64.0386 55.0411 63.6958 53.0139 63.02C51.0042 62.3502 50.5549 62.1354 50.417 61.7786C50.2731 61.406 50.1643 61.4535 51.7596 61.1951C53.479 60.9166 54.8348 60.268 55.2119 59.5438C55.8574 58.3047 55.0061 58.0014 53.5927 58.9672C51.6355 60.3043 50.4182 60.4825 49.4959 59.5668C49.023 59.0972 48.9117 58.8162 48.9117 58.0923C48.9117 57.1269 49.2131 56.6798 50.092 56.3416C50.804 56.0677 54.6191 56.0784 55.6487 56.3573C56.6197 56.6202 57.5931 57.3689 58.0135 58.1759C58.5616 59.2284 58.4083 59.5918 56.8196 61.0093C55.2179 62.4383 54.8891 62.9918 55.3625 63.4616C55.9315 64.0269 56.9223 63.2131 58.7944 60.6431C59.0773 60.2547 59.0964 60.26 59.6829 60.8912C60.3431 61.6015 60.7247 61.6928 61.1095 61.2326C61.4972 60.7685 61.0623 60.0364 60.113 59.5555C59.3847 59.1865 59.3055 59.073 59.3055 58.3964C59.3055 57.9837 59.4135 57.539 59.5454 57.408C59.9507 57.0055 61.8962 57.1396 63.0935 57.6525C63.6925 57.9091 64.2998 58.0746 64.4427 58.0203C64.9332 57.8333 64.7165 57.0249 64.0111 56.4099C62.896 55.4375 61.4303 55.3714 59.3623 56.2003C58.7728 56.4364 58.6775 56.4186 58.213 55.9853C57.9343 55.7255 57.7065 55.4492 57.7065 55.3716C57.7065 55.0257 59.2448 54.539 60.2899 54.5545C62.1908 54.5823 62.6046 54.2155 61.5772 53.4133C60.8888 52.8754 59.6877 52.8788 58.5588 53.4214C58.0785 53.6523 57.6529 53.8087 57.6129 53.7688C57.5732 53.7291 57.9183 53.1606 58.3805 52.5057C59.3043 51.1961 59.9264 50.9101 60.3085 51.6191C60.4353 51.8543 60.9585 52.2228 61.4714 52.438C63.1502 53.1422 63.2966 53.2559 63.9076 54.331C64.608 55.563 65.6548 56.231 66.1918 55.7884C66.683 55.3837 66.5674 55.1063 65.5019 54.1316C64.1447 52.8903 64.1948 52.1798 65.6602 51.8888C66.1089 51.7997 66.4755 51.8854 66.9874 52.1996C67.7409 52.6621 68.5001 52.6051 68.5001 52.0861C68.5001 51.9247 68.229 51.6403 67.8976 51.4544C66.928 50.9101 67.3004 50.3818 68.9998 49.8906C69.4859 49.7501 69.6028 49.6054 69.617 49.1267C69.6392 48.3893 70.0699 46.8327 70.3436 46.5012C70.4653 46.3538 70.5125 45.5619 70.4593 44.557C70.3852 43.1556 70.2946 42.7872 69.9368 42.4319C69.5972 42.0947 69.4515 42.054 69.2612 42.243C69.0721 42.4307 69.0701 42.8358 69.2518 44.0735C69.5614 46.1833 69.321 46.8224 68.6184 45.7576C68.2848 45.252 67.4403 45.075 67.2004 45.4606C67.1323 45.5702 66.8772 45.6101 66.634 45.5496C66.3889 45.4884 65.7923 45.619 65.297 45.8421C64.8051 46.0638 64.1103 46.247 63.7529 46.2494C63.149 46.2533 63.1033 46.2071 63.1033 45.5922C63.1033 44.9464 63.1237 44.9305 63.9528 44.9285C64.96 44.9262 66.5734 44.1668 67.4763 43.2703C68.1817 42.5699 68.2204 42.4319 67.8079 42.0919C67.5764 41.9012 67.3887 41.9137 66.9084 42.1517C66.3066 42.4498 66.3014 42.4478 66.3014 41.9099C66.3014 41.1929 65.8698 40.6348 65.3887 40.7292C65.0559 40.7947 65.0022 40.9779 65.0022 42.0479C65.0022 43.3612 64.8111 43.6647 63.9806 43.6706C63.6468 43.673 63.577 43.5777 63.6468 43.2149C63.7489 42.6848 63.2578 42.1828 62.8056 42.3551C62.6391 42.4186 62.3485 42.8082 62.1594 43.2209C61.9705 43.6337 61.7986 44.0007 61.7773 44.0368C61.7561 44.0727 61.5114 43.9542 61.2334 43.7734C60.6259 43.3783 59.8336 43.4477 59.7461 43.9036C59.6647 44.3281 60.4025 45.0091 61.1115 45.1637C61.5502 45.2594 61.6911 45.4283 61.7961 45.9838C61.9404 46.7475 61.7695 47.1086 60.7521 48.1889C60.4179 48.5435 59.9531 48.8339 59.7193 48.8339C59.2675 48.8339 57.1754 47.8511 56.2573 47.2074C55.5278 46.6959 55.5643 46.377 56.4088 45.8822C57.2771 45.3735 57.6785 44.6145 57.3117 44.1757C56.8578 43.6327 56.3531 43.851 55.3099 45.0421C54.5565 45.9022 54.116 46.2371 53.6471 46.3065C52.6819 46.4496 52.1672 46.1726 52.0042 45.4221C51.9259 45.0607 51.7384 44.5252 51.5875 44.2319C51.2427 43.562 51.349 43.2909 52.1754 42.7308C53.0886 42.1118 53.6313 42.1553 54.0077 42.8779C54.4432 43.7141 55.2169 44.1942 55.6087 43.8713C56.0501 43.5075 55.9771 43.1778 55.3079 42.5133C54.9781 42.1858 54.7083 41.8216 54.7083 41.7041C54.7083 41.405 55.7794 41.4429 57.2853 41.7954C58.7197 42.1311 59.3055 42.0401 59.3055 41.482C59.3055 41.0069 58.5482 40.6133 57.0405 40.3047C55.8284 40.0566 55.2221 40.1187 54.2085 40.5949C53.8787 40.7499 53.2773 40.9283 52.8721 40.9916C52.4668 41.0549 51.6631 41.4292 51.086 41.8234L50.0366 42.5401L48.5247 42.3117C47.6932 42.186 46.6726 42.0838 46.2569 42.0844C45.1319 42.0864 44.1699 41.6063 43.694 40.8054L43.2754 40.1011H39.9972C38.1942 40.1011 36.7189 40.1435 36.7189 40.1955ZM43.0242 44.9547C43.6014 45.5277 43.6778 46.5562 43.2099 47.4545C42.9486 47.9563 42.7895 48.04 42.0975 48.04C41.6534 48.04 41.1157 47.9475 40.9028 47.8342C40.6898 47.7211 39.7467 47.5351 38.8071 47.421C37.3375 47.2425 37.0301 47.258 36.609 47.5321C36.0235 47.913 35.9704 48.4354 36.5026 48.5737C36.8344 48.6598 36.7649 48.7884 35.9877 49.528C35.2684 50.2123 35.1025 50.4947 35.1546 50.9463C35.2726 51.9664 35.8484 51.7733 37.2562 50.2419C38.3843 49.0145 38.6392 48.8339 39.2436 48.8339C39.995 48.8339 41.1163 49.3166 41.1163 49.6399C41.1163 49.8785 39.8511 50.4382 38.2996 50.8859C37.0037 51.2598 36.1193 51.8785 36.1193 52.4108C36.1193 52.7587 36.0737 52.7643 35.4261 52.4956C34.2008 51.9873 32.5214 52.26 32.1034 53.0354C31.7339 53.7213 32.2052 53.9942 33.7605 53.9942C35.0305 53.9942 35.2012 54.0444 35.7349 54.5744C36.1634 54.9999 36.3191 55.3442 36.3191 55.8664C36.3191 56.7915 35.9282 57.1101 33.9386 57.8055L32.3475 58.3618L31.6849 57.7595C31.3205 57.4282 30.5791 57.0263 30.0375 56.8661C29.164 56.6077 28.9999 56.6091 28.5883 56.8769C28.3329 57.043 28.124 57.2524 28.124 57.3421C28.124 57.7023 28.8856 58.1435 30.0053 58.4321C30.6551 58.5996 31.3211 58.8699 31.4852 59.0329C31.7499 59.2957 31.7449 59.3878 31.4422 59.8464C31.2545 60.1308 30.8716 60.4673 30.5909 60.5943C30.1314 60.8023 30.0281 60.764 29.552 60.2096C29.2613 59.871 28.7814 59.4437 28.4856 59.2599C28.1638 59.0601 27.9229 58.7127 27.8859 58.3952C27.839 57.9907 27.5911 57.7396 26.8448 57.3399C26.3061 57.0515 25.8008 56.6943 25.722 56.546C25.6431 56.3979 25.5205 54.7975 25.4494 52.9894C25.3221 49.7459 25.3263 49.6965 25.7754 49.2775C26.3802 48.7132 27.6211 48.2117 28.0283 48.3667C28.484 48.5404 28.7236 49.2755 28.7236 50.4993C28.7236 51.3676 28.6363 51.6244 28.2046 52.0246C26.9473 53.1896 26.4786 55.5931 27.3115 56.602C27.6779 57.0456 27.717 57.0523 28.0479 56.7292C28.2863 56.4964 28.4206 55.9917 28.4704 55.1414C28.6245 52.5055 29.0133 52.3221 30.2761 54.289C31.4572 56.1284 32.9212 56.8935 32.9212 55.6713C32.9212 55.3923 32.4556 54.6698 31.7521 53.8567C31.109 53.1136 30.4896 52.327 30.3757 52.1087C30.2615 51.8904 30.1692 50.7452 30.1704 49.5639C30.1726 47.5468 30.2042 47.3791 30.6881 46.8079C31.3447 46.033 32.2542 45.6575 33.4644 45.6613C34.6833 45.6653 35.0111 45.8663 34.8482 46.5104C34.7007 47.0941 33.7811 47.4863 32.9481 47.3209C32.2618 47.1846 30.8532 47.5452 30.5214 47.9422C30.3237 48.1787 30.3273 48.3026 30.5398 48.5568C30.8062 48.8756 30.9379 48.8732 32.8712 48.513C33.8554 48.3296 33.7189 48.9266 32.5214 50.043C31.4834 51.0108 31.2913 51.4821 31.8482 51.6943C32.51 51.9466 33.5916 51.1709 34.2222 49.992C34.5528 49.3738 35.1522 48.5509 35.5538 48.1635C35.9556 47.7762 36.3427 47.1941 36.4145 46.8702C36.5904 46.0749 36.8632 45.8901 38.2338 45.6387C38.8772 45.5206 39.8115 45.2129 40.31 44.9549C41.5139 44.3319 42.3972 44.3319 43.0242 44.9547ZM48.8605 45.8971C49.4232 46.3605 48.9968 48.066 47.991 49.3751C47.5437 49.9579 47.4034 50.0224 46.8223 49.9142C45.9175 49.7455 45.0382 50.2347 44.2522 51.3442L43.6148 52.2441L43.4847 51.3825C43.3824 50.7051 43.4237 50.4785 43.6784 50.3225C44.394 49.884 45.0941 48.9808 45.3928 48.1105C45.7663 47.0216 46.5849 45.8985 47.1837 45.6526C47.6574 45.4581 48.4719 45.5768 48.8605 45.8971ZM68.5155 47.0476C69.0518 47.0476 68.336 48.7329 67.7167 48.928C67.5035 48.9953 67.0301 49.344 66.6652 49.703C66.0259 50.332 64.165 51.0171 63.0963 51.0171C62.3575 51.0171 61.5042 50.4485 61.5042 49.9561C61.5042 49.211 62.8001 47.8763 63.6623 47.7334C65.3927 47.4464 66.5043 47.0292 66.8223 46.5473L67.1455 46.0573L67.7381 46.5524C68.0641 46.8248 68.4139 47.0476 68.5155 47.0476ZM55.8076 49.2235L56.807 49.6756L56.2074 49.8749C54.8456 50.3276 53.7088 51.9722 53.7088 53.4901V54.3912H52.7878C51.8837 54.3912 51.8691 54.3811 52.0003 53.8454C52.0738 53.5453 52.4074 52.7059 52.7416 51.9805C53.1358 51.1245 53.3023 50.5146 53.2157 50.2439C53.0278 49.656 52.2353 49.7046 51.7362 50.3346C51.3866 50.7758 51.2135 51.3637 50.7896 53.5477C50.6962 54.0292 50.2293 54.1465 49.9829 53.7505C49.6962 53.2898 49.8737 51.4708 50.2833 50.674C50.5053 50.2417 51.021 49.5968 51.4292 49.241C52.1382 48.6229 52.2297 48.5979 53.4896 48.6827C54.2643 48.7347 55.2203 48.9578 55.8076 49.2235ZM18.4583 49.3569C20.306 50.2274 20.0544 53.1243 18.029 54.3031C17.2638 54.7482 16.9808 54.7982 15.5157 54.7468C14.4163 54.7083 13.8371 54.6059 13.7819 54.4408C13.7351 54.3003 13.8647 54.1927 14.0807 54.1927C14.2906 54.1927 14.6618 53.9819 14.9056 53.7243C15.4457 53.1535 16.1311 51.4234 16.1311 50.6309C16.1311 50.3117 16.2189 49.8215 16.326 49.5415C16.5615 48.9268 17.3928 48.8547 18.4583 49.3569ZM57.9969 50.2552C58.2769 50.3818 58.5024 50.538 58.498 50.6025C58.4936 50.6668 58.0307 51.0767 57.4694 51.5133C56.4436 52.3114 55.7099 53.2559 55.7085 53.7801C55.7081 53.9353 55.8566 54.2254 56.0385 54.4251C56.3463 54.7629 56.3463 54.7881 56.0385 54.7881C55.5689 54.7881 54.9081 54.0728 54.9081 53.5645C54.9081 53.3018 55.3745 52.6787 56.1074 51.9622C56.767 51.3174 57.3067 50.6176 57.3067 50.4072C57.3067 49.9587 57.3303 49.9535 57.9969 50.2552ZM23.3804 50.8683C23.7578 51.1523 24.1226 53.1013 24.1248 54.8473C24.1262 55.8311 24.0532 56.0613 23.6217 56.4351C23.3035 56.7107 23.056 57.202 22.9517 57.7652C22.8168 58.4934 22.756 58.5851 22.6229 58.2614C22.5329 58.0431 22.0566 57.1702 21.5641 56.3217L20.669 54.779L21.0948 53.4439C21.329 52.7095 21.5699 51.8592 21.6301 51.5544C21.7846 50.7736 22.7508 50.3947 23.3804 50.8683ZM42.0757 51.4538C42.2077 51.5848 42.3156 51.942 42.3156 52.2477C42.3156 52.6966 42.2264 52.8034 41.8517 52.8034C41.024 52.8034 39.236 53.841 39.0285 54.4418C38.8966 54.824 38.9114 55.0598 39.0777 55.225C39.2616 55.4076 39.5238 55.3155 40.234 54.8185C40.7391 54.4648 41.4283 54.1208 41.7655 54.0538C42.4389 53.9202 42.4317 53.8291 41.8751 55.4365L41.616 56.1842L39.8171 56.0552C37.91 55.9182 37.5184 55.7646 37.5184 55.1529C37.5184 54.9435 37.3385 54.4221 37.1187 53.9942C36.6318 53.0465 36.6296 53.0038 37.0687 52.9939C37.2612 52.9893 38.273 52.589 39.3174 52.104C41.3442 51.163 41.6986 51.0792 42.0757 51.4538ZM47.3126 52.592C47.3126 54.8681 46.9664 55.2913 44.7176 55.7642C44.1149 55.8908 43.4233 56.0441 43.1807 56.1046L42.7393 56.2146L43.1279 55.4578C43.3926 54.9425 43.4781 54.4974 43.396 54.0627C43.2285 53.1759 43.4517 52.8836 43.953 53.3339C44.3406 53.6824 44.367 53.6735 44.9402 52.9997C45.2643 52.6188 45.7404 52.0615 45.9982 51.7614C46.2561 51.4613 46.6572 51.2156 46.8899 51.2156C47.2797 51.2156 47.3126 51.323 47.3126 52.592ZM39.9766 58.1419C40.1247 58.289 40.1175 58.6532 39.9524 59.3635C39.6296 60.7527 39.6574 61.5966 40.0529 62.4206C40.6438 63.6506 41.6458 63.6037 41.4291 62.3563C41.0907 60.4091 41.0739 59.0396 41.3849 58.7834C41.7477 58.4845 44.8897 57.9113 45.6734 58.001C46.3176 58.0748 46.4673 58.655 46.1305 59.7714C45.8235 60.7892 43.9574 62.5848 42.4473 63.3159C41.0084 64.0128 39.1217 64.3091 38.7885 63.8905C38.4219 63.4299 38.3154 62.0888 38.5424 60.7892C38.8189 59.2073 38.666 58.5105 38.0611 58.5958C37.0439 58.7395 36.5708 61.3006 37.2224 63.1349C37.3895 63.6049 37.4571 64.0507 37.3723 64.1255C37.1545 64.3182 33.3403 64.9958 33.2088 64.8652C33.149 64.8057 33.4133 64.5649 33.796 64.3299C34.6375 63.8135 35.6713 62.6767 35.9504 61.9608C36.0627 61.6728 36.1486 60.9249 36.1417 60.2991C36.1273 59.0531 36.4327 58.5855 37.6184 58.0373C38.2644 57.7386 39.6316 57.7994 39.9766 58.1419ZM34.606 59.6648C34.7787 59.8365 34.92 60.2559 34.92 60.5973C34.92 61.1055 34.6673 61.4592 33.5208 62.5554C32.7513 63.2913 32.1216 63.9588 32.1216 64.039C32.1216 64.119 32.2705 64.3476 32.4524 64.5473C32.7653 64.8904 32.7537 64.9103 32.2394 64.9103C31.5414 64.9103 30.9223 65.2402 30.9223 65.6119C30.9223 65.9691 30.9607 65.9699 29.8982 65.5895C29.3289 65.3854 28.6855 65.3136 28.0554 65.3836C27.2379 65.4745 27.1058 65.4436 27.2059 65.1846C27.2711 65.0159 27.3245 64.8055 27.3245 64.7172C27.3245 64.6286 27.5587 64.4981 27.845 64.4266C28.6483 64.2265 29.3125 63.7212 29.6613 63.045C29.9723 62.4417 30.2737 62.1408 30.5726 62.1346C30.8872 62.1283 30.7015 62.835 30.1994 63.5545C29.2619 64.8978 30.0543 65.415 31.2422 64.2355C31.8534 63.6285 31.9218 63.4487 31.9218 62.4486C31.9218 61.3894 31.9675 61.2893 32.8844 60.3448C33.9276 59.2701 34.1284 59.1909 34.606 59.6648ZM32.5156 66.3073C32.1938 66.5094 31.7219 66.56 31.7219 66.3925C31.7219 66.245 32.6003 65.9296 32.7155 66.0358C32.7673 66.0837 32.6773 66.2057 32.5156 66.3073Z" fill="white"/>
</svg>
