<svg width="190" height="17" viewBox="0 0 190 17" fill="none" xmlns="http://www.w3.org/2000/svg">
<path fill-rule="evenodd" clip-rule="evenodd" d="M182.686 4.87547C182.042 5.08196 181.36 5.5244 180.93 6.01444C180.313 6.71663 180.226 6.98069 180.226 8.15025C180.226 9.26474 180.326 9.60314 180.829 10.2018C181.161 10.5961 181.697 11.0202 182.019 11.1442C182.342 11.2682 183.391 11.5089 184.352 11.6789C185.311 11.8489 186.357 12.1583 186.675 12.3666C187.095 12.6415 187.251 12.9394 187.245 13.4557C187.241 13.8464 187.114 14.3281 186.962 14.526C186.81 14.7236 186.463 15.0042 186.191 15.1493C185.918 15.2941 185.225 15.4129 184.65 15.4129C184.074 15.4129 183.295 15.2531 182.917 15.0579C182.537 14.8617 182.087 14.361 181.911 13.9385C181.611 13.2195 181.541 13.1819 180.739 13.3054C180.27 13.3779 179.863 13.4539 179.836 13.4745C179.808 13.4949 179.883 13.8675 180.003 14.3025C180.123 14.7372 180.554 15.4063 180.961 15.7892C181.367 16.1722 182.046 16.601 182.47 16.7425C182.894 16.8839 183.914 16.9972 184.736 16.9945C185.7 16.9914 186.562 16.8399 187.157 16.5698C187.666 16.3388 188.3 15.8717 188.568 15.5317C188.835 15.1917 189.119 14.567 189.198 14.1434C189.278 13.7195 189.276 13.0155 189.194 12.5787C189.112 12.142 188.82 11.5724 188.545 11.3128C188.271 11.0535 187.751 10.6868 187.391 10.498C187.03 10.3094 185.877 10.0159 184.827 9.84612C183.35 9.607 182.822 9.42023 182.487 9.01859C182.249 8.73322 182.054 8.29577 182.054 8.04644C182.054 7.79712 182.178 7.43129 182.33 7.23341C182.482 7.03576 182.829 6.75516 183.101 6.6101C183.374 6.46526 184.099 6.34649 184.714 6.34649C185.501 6.34649 186.008 6.48521 186.429 6.81636C186.757 7.07452 187.026 7.48251 187.026 7.723C187.026 8.08951 187.19 8.15977 188.046 8.15977C188.956 8.15977 189.066 8.10424 189.066 7.64367C189.066 7.35966 188.892 6.87506 188.679 6.56703C188.465 6.25877 188.18 5.89227 188.044 5.75264C187.908 5.61279 187.454 5.32131 187.035 5.10439C186.615 4.88771 185.702 4.67147 185.006 4.62387C184.266 4.57356 183.302 4.67805 182.686 4.87547ZM100.784 4.982C100.729 5.07244 100.89 5.69688 101.142 6.36961C101.395 7.04256 102.003 8.71509 102.493 10.0864C102.984 11.4577 103.727 13.4976 104.145 14.6196L104.904 16.6595L106.023 16.7264L107.143 16.793L107.625 15.3664C107.89 14.5817 108.511 12.8176 109.005 11.4463C109.498 10.0751 110.18 8.1881 110.52 7.25313C110.859 6.31816 111.153 5.40019 111.172 5.21319C111.198 4.96885 110.969 4.8664 110.359 4.84918C109.892 4.83603 109.418 4.93803 109.306 5.07584C109.194 5.21365 108.998 5.68351 108.872 6.11983C108.745 6.55615 108.072 8.54214 107.375 10.5334C106.678 12.5243 106.104 14.2073 106.099 14.2732C106.094 14.339 105.959 14.0869 105.799 13.7129C105.638 13.339 104.915 11.299 104.191 9.17974C103.467 7.06047 102.787 5.23042 102.68 5.11301C102.573 4.99537 102.125 4.88091 101.685 4.85847C101.246 4.83626 100.84 4.89179 100.784 4.982ZM113.059 4.91105C112.976 4.99401 112.908 7.69693 112.908 10.9175V16.7729H116.988H121.068V15.9795V15.1862H118.008H114.948V13.38V11.5737L117.725 11.51L120.501 11.4463L120.571 10.5964L120.642 9.74639H117.795H114.948V8.15977V6.57315H118.008H121.068V5.66651V4.75987H117.139C114.978 4.75987 113.142 4.82787 113.059 4.91105ZM123.561 10.7664V16.7729H124.463H125.365L125.426 12.2387L125.488 7.70441L128.208 12.2329L130.928 16.7611L132.004 16.767L133.081 16.7729V10.7478V4.72293L132.231 4.84623C131.763 4.914 131.358 4.97316 131.329 4.97792C131.301 4.98268 131.25 6.95009 131.216 9.34974L131.154 13.7129L130.701 12.8893C130.452 12.4362 129.231 10.4216 127.988 8.41272L125.728 4.75987H124.645H123.561V10.7664ZM135.177 4.92307C135.022 4.9786 134.894 5.37276 134.894 5.79866V6.57315H136.816H138.739L138.8 11.6163L138.861 16.6595L139.824 16.7291L140.787 16.7989V11.6859V6.57315H142.727H144.668L144.597 5.72318L144.527 4.8732L139.994 4.84736C137.501 4.83331 135.333 4.86731 135.177 4.92307ZM146.333 4.95639C146.275 5.01441 146.227 7.03803 146.227 9.45332C146.227 13.3149 146.279 13.9457 146.656 14.6853C146.892 15.1477 147.279 15.7008 147.515 15.9143C147.75 16.1276 148.319 16.4592 148.778 16.6509C149.237 16.8427 150.215 16.9995 150.952 16.9995C151.689 16.9995 152.649 16.8501 153.085 16.6679C153.522 16.4854 154.144 16.0217 154.467 15.6377C154.79 15.2536 155.165 14.5613 155.299 14.0994C155.448 13.5901 155.517 11.6093 155.475 9.06641L155.407 4.8732H154.509H153.611L153.675 8.83975C153.727 12.0474 153.67 12.9681 153.382 13.6517C153.185 14.1169 152.795 14.6454 152.516 14.8265C152.236 15.0074 151.74 15.2211 151.414 15.3011C151.088 15.3812 150.408 15.3354 149.902 15.1994C149.143 14.9949 148.902 14.7828 148.512 13.9777C148.088 13.1012 148.04 12.5928 148.04 8.92679V4.85053H147.24C146.799 4.85053 146.391 4.89813 146.333 4.95639ZM158.591 4.9378C158.523 5.00602 158.467 7.69693 158.467 10.9175V16.7729H159.509H160.551L160.455 14.5063C160.403 13.2596 160.403 12.2397 160.456 12.2397C160.509 12.2397 161.648 13.2596 162.989 14.5063L165.426 16.7729H166.707C167.411 16.7729 167.986 16.7291 167.986 16.6756C167.986 16.6221 167.4 16.0244 166.683 15.3476C165.966 14.6706 164.841 13.6436 164.182 13.0649C163.026 12.0495 163.007 12.013 163.616 12.0116C163.963 12.011 164.653 11.8976 165.151 11.7596C165.666 11.6166 166.383 11.1608 166.817 10.7C167.553 9.91933 167.577 9.83864 167.493 8.35674C167.423 7.10897 167.302 6.70983 166.846 6.22274C166.539 5.89317 165.981 5.45571 165.607 5.25081C165.079 4.96205 164.229 4.87093 161.821 4.84577C160.113 4.82787 158.66 4.86935 158.591 4.9378ZM170.169 4.91899C170.091 4.99764 170.026 7.69693 170.026 10.9175V16.7729H174.106H178.186V15.9795V15.1862H175.126H172.066V13.5996C172.066 12.727 172.066 11.9366 172.065 11.843C172.064 11.7494 173.314 11.622 174.842 11.5597L177.62 11.4463V10.653V9.85972L174.843 9.79603L172.066 9.73234V8.15274V6.57315H175.14H178.214L178.143 5.72318L178.073 4.8732L174.193 4.82447C172.059 4.79772 170.248 4.84033 170.169 4.91899ZM164.797 6.90476C165.15 7.08722 165.502 7.40137 165.579 7.60332C165.656 7.80505 165.72 8.21122 165.72 8.50566C165.72 8.80009 165.474 9.3273 165.173 9.67704C164.658 10.2763 164.504 10.3176 162.51 10.3897L160.393 10.4663L160.38 8.51971L160.367 6.57315H162.261C163.481 6.57315 164.384 6.69124 164.797 6.90476Z" fill="#FEFAFB"/>
<path fill-rule="evenodd" clip-rule="evenodd" d="M45.875 8.37514V16.7503H47.2041H48.5333V15.9861V15.2218L48.9687 15.6498C49.2081 15.8851 49.5761 16.1856 49.7864 16.3175C49.9968 16.4493 50.4299 16.6487 50.7489 16.7603C51.1792 16.911 51.5538 16.9648 52.1998 16.9688C52.6787 16.9718 53.2975 16.9193 53.5747 16.8521C53.852 16.7849 54.3676 16.5902 54.7205 16.4195C55.0734 16.2487 55.5602 15.9412 55.8021 15.7362C56.0441 15.5313 56.4072 15.1626 56.6091 14.917C56.811 14.6714 57.1153 14.1773 57.2854 13.819C57.4555 13.4607 57.6653 12.8954 57.7517 12.5627C57.8528 12.1735 57.9101 11.5931 57.9124 10.9342C57.9147 10.2649 57.8625 9.7013 57.7615 9.30571C57.6765 8.97303 57.4405 8.35579 57.2368 7.93405C57.0176 7.48002 56.6609 6.94169 56.3623 6.61422C56.0848 6.31002 55.6341 5.91034 55.3607 5.72608C55.0873 5.54183 54.6045 5.29216 54.2879 5.17128C53.9713 5.0504 53.3947 4.90271 53.0066 4.84306C52.4876 4.76332 52.112 4.76117 51.5858 4.83488C51.1244 4.89964 50.6356 5.04826 50.2079 5.25382C49.8435 5.42914 49.3442 5.7634 49.0985 5.99669C48.8528 6.23008 48.6251 6.42094 48.5925 6.42094C48.5599 6.42094 48.5333 4.97623 48.5333 3.21047V0H47.2041H45.875V8.37514ZM28.7798 0.317976C28.6286 0.386559 28.3938 0.562903 28.2582 0.70984C28.1225 0.85687 27.9616 1.16712 27.9006 1.39949C27.8392 1.63352 27.8173 1.97114 27.8515 2.15679C27.8856 2.34104 28.0053 2.62868 28.1175 2.79599C28.2297 2.9634 28.4353 3.1859 28.5746 3.29059C28.7474 3.42059 29.0114 3.49281 29.4071 3.5184C29.8646 3.54799 30.0654 3.51505 30.3608 3.36197C30.5667 3.25542 30.8195 3.0479 30.9226 2.90087C31.0258 2.75384 31.1495 2.45541 31.1977 2.23774C31.2599 1.95708 31.2512 1.70844 31.1679 1.38246C31.1033 1.12971 30.9574 0.822346 30.8435 0.699324C30.7298 0.576396 30.5013 0.410568 30.336 0.330911C30.1707 0.251254 29.8148 0.187789 29.5451 0.189743C29.2754 0.191791 28.9311 0.249486 28.7798 0.317976ZM6.09315 4.81003C5.9167 4.83208 5.50935 4.911 5.18789 4.98544C4.86652 5.05998 4.28326 5.29002 3.89195 5.4967C3.50055 5.70347 2.93453 6.09831 2.63415 6.37432C2.33377 6.65033 1.91872 7.14009 1.71174 7.46272C1.50476 7.78544 1.23463 8.32163 1.11144 8.65431C0.988333 8.98699 0.837913 9.59205 0.777232 9.99899C0.71041 10.447 0.69226 11.0159 0.731217 11.4414C0.766508 11.8277 0.893278 12.458 1.0129 12.8419C1.13243 13.2257 1.38597 13.806 1.57617 14.1316C1.76646 14.457 2.21121 15.0014 2.56457 15.3413C2.91785 15.6811 3.45563 16.093 3.75959 16.2565C4.06345 16.42 4.64066 16.6473 5.04223 16.7614C5.58653 16.9163 6.01726 16.9692 6.7348 16.9689C7.33849 16.9686 7.91936 16.9102 8.29307 16.8119C8.62077 16.7258 9.17762 16.5117 9.53053 16.3361C9.88343 16.1605 10.4062 15.8045 10.6922 15.5449C10.9783 15.2854 11.3644 14.8626 11.5505 14.6053C11.7365 14.3481 12.0035 13.8566 12.1438 13.513C12.2843 13.1694 12.4273 12.7523 12.4616 12.586L12.5242 12.2835L11.119 12.2839L9.71385 12.2842L9.54373 12.7043C9.45014 12.9353 9.1911 13.3149 8.96808 13.5479C8.74506 13.7808 8.32671 14.0836 8.03825 14.2208C7.60532 14.4267 7.38616 14.47 6.78063 14.4689C6.31076 14.4681 5.87289 14.4065 5.56187 14.2972C5.24673 14.1867 4.88961 13.9514 4.54441 13.6269C4.18124 13.2855 3.92825 12.9416 3.74666 12.5424C3.50202 12.0046 3.48075 11.8722 3.48075 10.8877C3.48075 9.87866 3.49716 9.783 3.76839 9.21266C3.9266 8.87998 4.17721 8.47713 4.32524 8.31745C4.47328 8.15776 4.75634 7.9186 4.95424 7.786C5.15214 7.65339 5.58149 7.47546 5.90845 7.39069C6.3159 7.28498 6.67375 7.25464 7.04636 7.29419C7.34527 7.32592 7.8057 7.4522 8.0696 7.57485C8.3335 7.6975 8.71711 7.96811 8.92225 8.17637C9.1273 8.38454 9.40036 8.7657 9.52897 9.02338L9.7628 9.49183H11.1362C12.3085 9.49183 12.5096 9.47098 12.5096 9.34926C12.5096 9.27091 12.4237 8.948 12.3187 8.6317C12.2138 8.31531 12.0238 7.87608 11.8964 7.65553C11.7691 7.43499 11.5135 7.06853 11.3284 6.84109C11.1433 6.61366 10.7613 6.2459 10.4795 6.02377C10.1977 5.80155 9.72183 5.50805 9.42191 5.37144C9.12208 5.23484 8.63195 5.06231 8.33285 4.98805C8.03366 4.91379 7.47956 4.83432 7.10145 4.81152C6.72334 4.78872 6.26961 4.78807 6.09315 4.81003ZM18.6726 4.848C18.3568 4.89639 17.8312 5.03458 17.5047 5.1549C17.1782 5.27522 16.6776 5.51503 16.3924 5.68793C16.1072 5.86074 15.6222 6.25772 15.3146 6.56993C15.007 6.88223 14.6184 7.37068 14.4509 7.65553C14.2835 7.94029 14.0397 8.48039 13.9092 8.85578C13.7263 9.38146 13.6621 9.77695 13.6294 10.5761C13.5982 11.3433 13.6278 11.7993 13.7428 12.3244C13.8284 12.7151 14.0582 13.3588 14.2534 13.7547C14.4486 14.1505 14.8376 14.7317 15.1179 15.0461C15.3981 15.3605 15.8849 15.7808 16.1996 15.9801C16.5144 16.1796 16.9782 16.4301 17.2302 16.5369C17.4823 16.6437 17.9361 16.7854 18.2385 16.8516C18.541 16.9179 19.201 16.9693 19.7052 16.966C20.2513 16.9624 20.8626 16.8962 21.2176 16.8024C21.5453 16.7158 22.1228 16.4934 22.5009 16.3082C23.0311 16.0486 23.3669 15.7893 23.9689 15.1745C24.5224 14.6091 24.8361 14.1972 25.0475 13.7578C25.2115 13.417 25.4274 12.8136 25.5273 12.4168C25.6377 11.9789 25.7091 11.3885 25.7091 10.9144C25.7091 10.4848 25.6422 9.83204 25.5605 9.46363C25.4787 9.09531 25.2993 8.54264 25.1616 8.23556C25.024 7.92847 24.7177 7.41749 24.4808 7.10007C24.244 6.78275 23.7951 6.32826 23.4831 6.09022C23.1713 5.85218 22.7232 5.55821 22.4874 5.43696C22.2517 5.31561 21.772 5.13573 21.4214 5.03709C21.0708 4.93845 20.4381 4.83571 20.0153 4.80882C19.5927 4.78193 18.9884 4.79951 18.6726 4.848ZM38.4961 4.84604C38.1936 4.89173 37.6537 5.07534 37.2962 5.25401C36.8895 5.45733 36.4864 5.75242 36.2191 6.04248L35.7921 6.506V5.76554V5.02508H34.4629H33.1338V10.8877V16.7503H34.4629H35.7921V13.3169C35.7921 10.1407 35.8058 9.83828 35.9763 9.27798C36.1067 8.84983 36.2809 8.5365 36.5711 8.20875C36.797 7.95378 37.1689 7.65581 37.3977 7.54665C37.6265 7.4375 38.0527 7.32276 38.3446 7.29177C38.7075 7.25324 39.0355 7.28265 39.3812 7.38473C39.6976 7.47807 40.0424 7.67284 40.3017 7.90455C40.544 8.1211 40.8073 8.47955 40.9354 8.7671C41.1529 9.25583 41.1545 9.28496 41.183 13.0047L41.2115 16.7503H42.535H43.8584V13.0867C43.8584 10.2011 43.8284 9.24764 43.7168 8.59671C43.6389 8.14213 43.4742 7.54591 43.3507 7.27167C43.2272 6.99743 42.9819 6.57355 42.8056 6.32975C42.6293 6.08584 42.2645 5.73213 41.995 5.54369C41.7255 5.35525 41.2611 5.12484 40.9631 5.0316C40.665 4.93836 40.1117 4.83972 39.7336 4.81245C39.3555 4.78518 38.7986 4.80035 38.4961 4.84604ZM63.6403 4.84018C63.3031 4.88159 62.7874 4.98572 62.4945 5.07143C62.2016 5.15723 61.7522 5.34846 61.4958 5.49651C61.2394 5.64457 60.8212 5.98944 60.5664 6.26293C60.3115 6.53652 60.0206 6.92475 59.9198 7.12566C59.8189 7.32667 59.67 7.71853 59.5888 7.99658C59.5076 8.27455 59.4412 8.55716 59.4412 8.62472C59.4412 8.72057 59.7293 8.74737 60.7589 8.74737H62.0765L62.1272 8.49146C62.155 8.35067 62.2748 8.08974 62.3932 7.91153C62.5199 7.72104 62.8209 7.47733 63.124 7.31997C63.5446 7.10156 63.7633 7.05066 64.3131 7.04284C64.6837 7.03754 65.1883 7.09095 65.4345 7.16149C65.6962 7.2364 66.0052 7.41451 66.1783 7.5902C66.341 7.75547 66.4958 8.00487 66.5221 8.14445C66.5484 8.28404 66.5308 8.54181 66.4831 8.71722C66.4282 8.91897 66.2889 9.10359 66.1041 9.21945C65.9433 9.32023 65.6055 9.46335 65.3535 9.53743C65.1014 9.6115 64.3138 9.75713 63.6034 9.86108C62.893 9.96502 62.0877 10.1283 61.8139 10.2239C61.5402 10.3196 61.1074 10.5052 60.8521 10.6365C60.5968 10.7679 60.1962 11.0728 59.9619 11.3141C59.6953 11.5886 59.4635 11.9478 59.3425 12.274C59.1817 12.7074 59.1553 12.9445 59.1862 13.6794C59.217 14.4132 59.2657 14.647 59.4729 15.0552C59.6101 15.3257 59.8897 15.7118 60.0942 15.9131C60.2986 16.1145 60.6787 16.3807 60.9389 16.5046C61.1991 16.6285 61.6414 16.7812 61.9218 16.844C62.2329 16.9137 62.8225 16.9418 63.4342 16.9162C64.1738 16.8853 64.5728 16.8205 64.955 16.6694C65.2399 16.5567 65.6594 16.3202 65.887 16.1437C66.1146 15.9673 66.4345 15.6135 66.5979 15.3574L66.895 14.8919L67.0514 15.3608C67.1374 15.6187 67.3268 15.9584 67.4723 16.1156C67.6177 16.2729 67.9017 16.4791 68.1034 16.5738C68.3935 16.7102 68.6949 16.7467 69.5471 16.7482L70.6241 16.7503V15.5405V14.3308H69.9366H69.2492L69.247 11.2832C69.2457 9.60694 69.2039 8.05586 69.1539 7.83625C69.1041 7.61654 68.9762 7.24887 68.8698 7.01921C68.7634 6.78945 68.4985 6.40056 68.281 6.15508C68.0636 5.9095 67.6417 5.57663 67.3435 5.41518C67.0452 5.25382 66.5373 5.06194 66.2148 4.9887C65.8924 4.91556 65.3191 4.83516 64.941 4.81022C64.5629 4.78518 63.9776 4.79868 63.6403 4.84018ZM75.6656 4.83851C75.3379 4.87908 74.8842 4.96264 74.6573 5.02434C74.4304 5.08594 74.0182 5.24479 73.7412 5.3774C73.4643 5.50991 73.0373 5.80863 72.7925 6.04108C72.5478 6.27354 72.2438 6.67136 72.1172 6.92503C71.9905 7.1788 71.8572 7.6091 71.8208 7.88138C71.7844 8.15367 71.7884 8.6277 71.8298 8.93488C71.8712 9.24197 72.0055 9.6945 72.1282 9.94046C72.251 10.1864 72.525 10.5469 72.7371 10.7414C72.9493 10.936 73.334 11.1933 73.5922 11.3132C73.8503 11.4331 74.309 11.595 74.6115 11.6731C74.914 11.7512 75.7373 11.9004 76.4411 12.0048C77.1449 12.1092 77.8818 12.2437 78.0787 12.3036C78.2757 12.3636 78.5531 12.5306 78.6952 12.6748C78.8372 12.8191 78.9676 13.0518 78.9848 13.192C79.002 13.3321 78.9853 13.5677 78.9477 13.7155C78.9101 13.8633 78.8059 14.0683 78.7161 14.171C78.6264 14.2738 78.3816 14.4357 78.1721 14.5309C77.9627 14.6261 77.4883 14.7298 77.118 14.7616C76.715 14.7961 76.2239 14.7737 75.8948 14.7061C75.5923 14.6438 75.17 14.4906 74.9563 14.3655C74.7427 14.2405 74.4643 13.9833 74.3376 13.7941C74.211 13.6049 74.1073 13.376 74.1073 13.2856C74.1073 13.1359 73.9881 13.1211 72.7782 13.1211C72.0472 13.1211 71.4495 13.1525 71.4502 13.1908C71.4507 13.2292 71.5065 13.47 71.5738 13.7259C71.6413 13.9818 71.8013 14.4007 71.9295 14.6567C72.0576 14.9127 72.3865 15.3373 72.6604 15.6003C72.9342 15.8632 73.3389 16.1718 73.5596 16.2862C73.7804 16.4005 74.179 16.5702 74.4454 16.6633C74.7117 16.7563 75.3373 16.8806 75.8354 16.9393C76.5049 17.0183 76.958 17.0194 77.5724 16.9436C78.0296 16.8872 78.6703 16.7574 78.9962 16.6552C79.3221 16.553 79.8354 16.3021 80.1369 16.0978C80.4642 15.8759 80.8178 15.5294 81.0143 15.2378C81.199 14.964 81.4098 14.4851 81.4942 14.1471C81.6015 13.7178 81.6274 13.3702 81.584 12.9374C81.5507 12.6034 81.4264 12.1145 81.3078 11.851C81.1894 11.5876 80.9247 11.2017 80.7195 10.9934C80.5145 10.7852 80.1476 10.5125 79.9042 10.3872C79.6609 10.2621 79.2367 10.0936 78.9615 10.0129C78.6864 9.93236 77.7951 9.76244 76.9809 9.63551C76.1666 9.50858 75.3307 9.33568 75.123 9.25137C74.9154 9.16696 74.6638 8.99248 74.5639 8.8636C74.447 8.71275 74.3823 8.48709 74.3823 8.23016C74.3823 7.9093 74.4371 7.77548 74.6622 7.54703C74.816 7.39078 75.1151 7.21146 75.3267 7.14846C75.5383 7.08546 76.0414 7.03279 76.4447 7.0314C76.848 7.03 77.3381 7.08556 77.5338 7.15488C77.7294 7.22421 78.0443 7.42289 78.2334 7.59635C78.4226 7.7699 78.6284 8.03706 78.6908 8.19005L78.8044 8.4682H80.0765C80.7806 8.4682 81.3487 8.43032 81.3487 8.38342C81.3487 8.3368 81.2705 8.04377 81.175 7.73221C81.0795 7.42065 80.8679 6.95462 80.7049 6.69667C80.5418 6.43862 80.2384 6.08612 80.0306 5.91331C79.8229 5.74051 79.4467 5.49437 79.1946 5.36633C78.9426 5.23837 78.4888 5.07115 78.1863 4.99475C77.8838 4.91835 77.327 4.83534 76.9489 4.81031C76.5708 4.78518 75.9933 4.79793 75.6656 4.83851ZM87.9059 4.8466C87.6052 4.89266 87.1515 4.99931 86.8976 5.08362C86.6437 5.16793 86.2498 5.33152 86.0222 5.44719C85.7946 5.56286 85.3615 5.84715 85.0597 6.07914C84.7579 6.31104 84.3327 6.73492 84.1147 7.02107C83.8967 7.30722 83.5822 7.84406 83.4158 8.21415C83.2494 8.58415 83.0569 9.11727 82.9879 9.39877C82.9182 9.68399 82.8647 10.3638 82.8672 10.9342C82.8701 11.5852 82.9279 12.1709 83.026 12.5432C83.1107 12.8651 83.2865 13.3568 83.4165 13.6359C83.5466 13.915 83.8438 14.4011 84.0769 14.7159C84.31 15.0307 84.7505 15.4765 85.0559 15.7066C85.3612 15.9367 85.8586 16.2433 86.161 16.3879C86.4635 16.5326 86.9791 16.7224 87.3068 16.8097C87.6917 16.9123 88.2434 16.9675 88.8651 16.9657C89.3945 16.9641 90.0338 16.914 90.2859 16.8542C90.538 16.7946 90.9711 16.6563 91.2484 16.547C91.5256 16.4376 92.0316 16.1628 92.3728 15.9362C92.7139 15.7096 93.1842 15.2871 93.4179 14.9973C93.6517 14.7075 93.9567 14.2191 94.0958 13.912C94.2349 13.605 94.3758 13.2595 94.4088 13.1443L94.4689 12.9349H93.0419C91.8839 12.9349 91.615 12.9593 91.615 13.0645C91.615 13.1357 91.4306 13.4022 91.2052 13.6567C90.9523 13.9423 90.6159 14.1978 90.3264 14.3243C90.0684 14.4369 89.5826 14.5525 89.2466 14.581C88.8276 14.6166 88.449 14.5843 88.0401 14.4782C87.7124 14.3931 87.2824 14.215 87.0845 14.0824C86.8867 13.9498 86.6036 13.7107 86.4556 13.551C86.3075 13.3913 86.0707 13.0094 85.9292 12.7023C85.7878 12.3952 85.6448 12.0078 85.6113 11.8415L85.5507 11.5391H90.0495H94.5482L94.545 10.8179C94.5433 10.4212 94.4831 9.76169 94.4112 9.35233C94.327 8.87207 94.1442 8.32731 93.8962 7.81689C93.6113 7.23063 93.3524 6.86603 92.8957 6.40847C92.4792 5.9912 92.0606 5.68253 91.6035 5.45566C91.2318 5.27103 90.68 5.05998 90.3775 4.98656C90.0751 4.91304 89.5182 4.83274 89.1401 4.80798C88.762 4.78323 88.2066 4.80063 87.9059 4.8466ZM26.5341 6.23483V7.44457H27.359H28.184V12.0974V16.7503H29.5131H30.8422V10.8877V5.02508H28.6882H26.5341V6.23483ZM90.2619 7.47509C90.5455 7.61598 90.91 7.88445 91.072 8.07168C91.234 8.25901 91.4386 8.58182 91.5267 8.78915C91.6149 8.99648 91.7149 9.26039 91.7488 9.37551L91.8107 9.58488H88.7796C86.764 9.58488 85.7486 9.55278 85.7486 9.48913C85.7486 9.43655 85.8702 9.14882 86.0189 8.84992C86.1701 8.54571 86.4772 8.13822 86.7161 7.92475C86.9509 7.7149 87.3552 7.45797 87.6145 7.35384C87.9918 7.20216 88.2516 7.16987 88.9161 7.19164C89.6014 7.21416 89.8361 7.26367 90.2619 7.47509ZM21.0367 7.59272C21.416 7.76552 21.7454 8.0151 22.0835 8.38594C22.394 8.72643 22.6477 9.11895 22.7677 9.44446C22.8726 9.72894 22.9841 10.2435 23.0157 10.5879C23.0558 11.026 23.029 11.3888 22.9264 11.7953C22.8457 12.1148 22.6936 12.5479 22.5881 12.7576C22.4828 12.9672 22.2231 13.315 22.0109 13.5303C21.7988 13.7457 21.4303 14.0176 21.1921 14.1346C20.9539 14.2518 20.4906 14.3943 20.1626 14.4513C19.7151 14.5291 19.4373 14.5276 19.0506 14.4453C18.767 14.3849 18.3621 14.2505 18.1507 14.1465C17.9394 14.0427 17.5953 13.809 17.3863 13.6274C17.1444 13.4172 16.8803 13.0385 16.6599 12.5858C16.3251 11.8981 16.3136 11.8417 16.3136 10.8877C16.3136 9.93366 16.3251 9.87727 16.6599 9.18958C16.8814 8.73481 17.1457 8.35616 17.3932 8.13961C17.6061 7.95331 17.8929 7.74105 18.0305 7.66781C18.1681 7.59467 18.4981 7.47267 18.7638 7.39683C19.0663 7.31047 19.4779 7.27418 19.865 7.29977C20.2691 7.32648 20.6749 7.42791 21.0367 7.59272ZM53.2411 7.5662C53.5123 7.69229 53.9022 7.9495 54.1076 8.13785C54.3129 8.32619 54.586 8.66222 54.7143 8.88454C54.8427 9.10694 55.01 9.53175 55.0862 9.82869C55.1623 10.1255 55.2247 10.6332 55.2247 10.9567C55.2247 11.3051 55.1474 11.7778 55.0352 12.1159C54.931 12.4299 54.7257 12.8641 54.5789 13.0807C54.4321 13.2973 54.1494 13.6052 53.9506 13.765C53.7519 13.9248 53.4015 14.1398 53.172 14.243C52.9424 14.3461 52.4956 14.4549 52.1792 14.485C51.7868 14.5221 51.4141 14.4907 51.008 14.3861C50.676 14.3006 50.2023 14.0866 49.9377 13.9027C49.6767 13.7214 49.3169 13.3561 49.1382 13.0911C48.9595 12.8261 48.7524 12.4322 48.6781 12.2158C48.6037 11.9994 48.5156 11.5778 48.4823 11.2789C48.4468 10.9608 48.4676 10.5064 48.5325 10.1834C48.5934 9.87978 48.7451 9.42203 48.8695 9.16613C48.9939 8.91022 49.2475 8.54041 49.4331 8.34425C49.6188 8.14808 49.9534 7.87803 50.1767 7.74403C50.4 7.61003 50.7712 7.44606 51.0017 7.37971C51.2468 7.30917 51.6961 7.27521 52.0843 7.29801C52.5289 7.32415 52.9107 7.41265 53.2411 7.5662ZM66.5935 12.5306C66.5366 12.7944 66.3636 13.204 66.2092 13.4407C66.0547 13.6775 65.7478 13.9973 65.5273 14.1513C65.3067 14.3054 64.9712 14.4866 64.7816 14.5539C64.5919 14.6214 64.2512 14.7044 64.0244 14.7384C63.7975 14.7724 63.386 14.7567 63.1098 14.7036C62.8337 14.6504 62.4541 14.5034 62.2661 14.3771C62.027 14.2166 61.8912 14.0352 61.814 13.7739C61.7286 13.4842 61.7283 13.3172 61.8129 13.0304C61.8792 12.8055 62.04 12.5693 62.2233 12.4274C62.3889 12.2991 62.6989 12.1317 62.9121 12.0553C63.1253 11.979 63.7618 11.8478 64.3267 11.7639C64.8914 11.68 65.5644 11.5315 65.8222 11.4337C66.0801 11.3359 66.3688 11.1684 66.4639 11.0613C66.6355 10.8681 66.6369 10.871 66.6668 11.4588C66.6834 11.7845 66.6503 12.2668 66.5935 12.5306Z" fill="#FEFAFB"/>
</svg>
