<svg width="160" height="62" viewBox="0 0 160 62" fill="none" xmlns="http://www.w3.org/2000/svg">
<path d="M59.2252 37.46L59.1471 37.5421C59.1106 37.5798 59.0737 37.6172 59.0363 37.6544L37.6254 59.0309C33.8956 62.7547 27.8484 62.7547 24.1186 59.0309L18.206 53.1281C17.7868 52.7112 17.786 52.0333 18.2032 51.6146C18.326 51.4914 18.4769 51.4 18.6429 51.3481C24.9803 49.3918 30.1297 47.1336 34.0909 44.5736C43.5247 38.4766 51.9028 36.1054 59.2252 37.46ZM54.7364 19.8755C62.6415 22.3665 61.7189 28.1818 61.8237 30.4744C53.1665 25.9348 42.7516 27.5987 30.579 35.4657C21.5062 41.3294 13.9062 43.747 7.77924 42.7184C1.65227 41.6898 0.273964 34.2071 0 32.2187C6.73248 35.6227 15.7549 33.669 27.067 26.358C37.6082 19.5454 46.8313 17.3845 54.7364 19.8755ZM37.6254 2.79289L43.1811 8.33884C43.5995 8.75633 43.6001 9.43421 43.1827 9.85279C43.0337 10.0021 42.844 10.1041 42.6373 10.1457C34.5946 11.7659 28.1625 14.1341 23.341 17.2503C15.0788 22.59 8.03805 25.072 2.21874 24.6961L2.21935 24.6945L24.1186 2.79289C27.8484 -0.930962 33.8956 -0.930962 37.6254 2.79289Z" fill="white"/>
<path d="M91.8708 24.9186C91.7607 23.8888 91.2969 23.087 90.4794 22.5133C89.6699 21.9394 88.6164 21.6525 87.3195 21.6525C86.4076 21.6525 85.6255 21.7901 84.9731 22.0652C84.3207 22.3403 83.8216 22.7137 83.4756 23.1853C83.1298 23.6569 82.9529 24.1954 82.945 24.8006C82.945 25.3037 83.0591 25.74 83.287 26.1095C83.5228 26.4788 83.8412 26.7933 84.2421 27.0527C84.643 27.3042 85.087 27.5165 85.5745 27.6894C86.0618 27.8624 86.5531 28.0078 87.0483 28.1256L89.3121 28.6916C90.224 28.9039 91.1004 29.1908 91.9415 29.5523C92.7905 29.9139 93.549 30.3699 94.2172 30.9201C94.8931 31.4703 95.4277 32.1346 95.8207 32.9127C96.2137 33.691 96.4102 34.6028 96.4102 35.6483C96.4102 37.0632 96.0486 38.3091 95.3255 39.3859C94.6023 40.455 93.5569 41.2922 92.1891 41.8974C90.8292 42.4948 89.1824 42.7935 87.2488 42.7935C85.3701 42.7935 83.739 42.5027 82.3555 41.9211C80.9799 41.3393 79.9031 40.4904 79.1248 39.3742C78.3546 38.258 77.9379 36.8981 77.875 35.2945H82.1786C82.2416 36.1356 82.501 36.8352 82.9569 37.3933C83.4128 37.9514 84.0062 38.368 84.7373 38.6432C85.4762 38.9183 86.3016 39.0558 87.2134 39.0558C88.1645 39.0558 88.9977 38.9144 89.713 38.6313C90.4362 38.3405 91.0022 37.9396 91.4109 37.4287C91.8196 36.9098 92.028 36.3047 92.0359 35.6129C92.028 34.9841 91.8433 34.4652 91.4817 34.0565C91.1201 33.6398 90.6131 33.294 89.9607 33.0189C89.3161 32.7359 88.5614 32.4843 87.6968 32.2643L84.9496 31.5569C82.9608 31.0459 81.3886 30.2717 80.2331 29.234C79.0855 28.1886 78.5117 26.8012 78.5117 25.0718C78.5117 23.6491 78.8969 22.4032 79.6672 21.3341C80.4454 20.2651 81.5027 19.4358 82.839 18.8463C84.1753 18.2489 85.6884 17.9502 87.3784 17.9502C89.092 17.9502 90.5935 18.2489 91.8826 18.8463C93.1795 19.4358 94.1975 20.2572 94.9364 21.3106C95.6753 22.356 96.0565 23.5587 96.0801 24.9186H91.8708ZM103.859 42.428L98.742 24.3172H103.093L106.276 37.0514H106.441L109.696 24.3172H113.999L117.253 36.9806H117.43L120.567 24.3172H124.929L119.8 42.428H115.355L111.959 30.1891H111.712L108.317 42.428H103.859ZM135.409 42.7818C133.593 42.7818 132.024 42.4044 130.704 41.6498C129.391 40.8874 128.381 39.8105 127.673 38.4192C126.967 37.0199 126.613 35.3731 126.613 33.4787C126.613 31.6158 126.967 29.9807 127.673 28.5737C128.389 27.1588 129.387 26.0583 130.669 25.2723C131.95 24.4784 133.456 24.0814 135.184 24.0814C136.301 24.0814 137.354 24.2622 138.345 24.6238C139.342 24.9775 140.224 25.5277 140.986 26.2746C141.756 27.0213 142.361 27.9724 142.802 29.1279C143.242 30.2755 143.461 31.6433 143.461 33.2311V34.5399H128.617V31.6629H139.37C139.363 30.8454 139.186 30.1183 138.839 29.4817C138.494 28.8371 138.01 28.33 137.389 27.9607C136.776 27.5912 136.061 27.4064 135.244 27.4064C134.371 27.4064 133.605 27.6187 132.944 28.0431C132.283 28.4597 131.77 29.01 131.4 29.6939C131.039 30.3699 130.853 31.1127 130.846 31.9224V34.4338C130.846 35.4872 131.039 36.3911 131.423 37.1457C131.808 37.8925 132.347 38.4663 133.039 38.8672C133.731 39.2602 134.539 39.4567 135.468 39.4567C136.089 39.4567 136.651 39.3703 137.154 39.1973C137.657 39.0166 138.093 38.7531 138.462 38.4073C138.832 38.0614 139.111 37.633 139.3 37.1221L143.284 37.5701C143.034 38.6234 142.554 39.5432 141.847 40.3293C141.147 41.1074 140.25 41.7127 139.158 42.1451C138.066 42.5695 136.816 42.7818 135.409 42.7818ZM151.341 18.2803V42.428H147.073V18.2803H151.341ZM159.999 18.2803V42.428H155.73V18.2803H159.999Z" fill="white"/>
</svg>
