<svg width="70" height="70" viewBox="0 0 70 70" fill="none" xmlns="http://www.w3.org/2000/svg">
<path d="M66.1981 42.4141L66.1108 42.507C66.07 42.5497 66.0287 42.5921 65.987 42.6342L42.0553 66.8378C37.8864 71.0541 31.1272 71.0541 26.9583 66.8378L20.3495 60.1543C19.8809 59.6822 19.88 58.9147 20.3464 58.4406C20.4836 58.3012 20.6523 58.1977 20.8378 58.139C27.9214 55.9239 33.6771 53.367 38.1046 50.4685C48.6492 43.5651 58.0136 40.8804 66.1981 42.4141ZM61.1808 22.504C70.0166 25.3245 68.9854 31.9089 69.1026 34.5046C59.426 29.3647 47.785 31.2487 34.1792 40.1561C24.0382 46.7953 15.5435 49.5325 8.69513 48.3679C1.8468 47.2033 0.306219 38.731 0 36.4796C7.52513 40.3339 17.6098 38.1217 30.2538 29.8439C42.036 22.1303 52.3451 19.6836 61.1808 22.504ZM42.0553 3.16225L48.265 9.44165C48.7328 9.91436 48.7334 10.6819 48.2668 11.1558C48.1003 11.3249 47.8882 11.4404 47.6572 11.4874C38.6676 13.322 31.4783 16.0034 26.0891 19.5317C16.8541 25.5776 8.98442 28.3877 2.47997 27.9621L2.48065 27.9603L26.9583 3.16225C31.1272 -1.05408 37.8864 -1.05408 42.0553 3.16225Z" fill="white"/>
</svg>
