<svg width="175" height="25" viewBox="0 0 175 25" fill="none" xmlns="http://www.w3.org/2000/svg">
<path fill-rule="evenodd" clip-rule="evenodd" d="M79.2048 19.1909C82.4411 19.1909 84.8 16.6532 84.8 12.3466C84.8 8.04003 82.4375 5.50861 79.2048 5.50861H78.9558C75.7195 5.50861 73.3543 8.04637 73.3543 12.3529C73.3543 16.6595 75.7195 19.1973 78.9558 19.1973L79.2048 19.1909ZM70.8736 12.3466C70.8736 6.64299 74.359 3.22083 79.0803 3.22083C83.8019 3.22083 87.2872 6.6468 87.2872 12.3466C87.2872 18.0464 83.8019 21.4724 79.0803 21.4724C74.359 21.4724 70.8736 18.0464 70.8736 12.3466ZM63.1149 21.2186V5.75603H56.8984V3.47459H71.8183V5.75603H65.6018V21.2186H63.1149ZM94.8715 12.6004L100.666 21.2186H103.774L96.6627 10.725L103.65 3.47459H100.417L91.8381 12.2705V3.47459H89.3509V21.2186H91.8381V15.7434L94.8715 12.6004ZM105.863 3.47459H118.546V5.75603H108.35V10.9521H117.055V13.2335H108.35V18.9371H118.795V21.2186H105.863V3.47459ZM140.306 3.47459H136.203L131.104 18.8356L125.907 3.47459H121.779V21.2186H124.266V5.70529L129.514 21.2186H132.697L137.819 5.62916V21.2186H140.306V3.47459ZM153.635 14.3743L150.352 5.80679L147.07 14.3743H153.635ZM156.246 21.2186L154.504 16.6506H146.197L144.455 21.2186H141.918L148.811 3.4784H151.994L158.833 21.2224L156.246 21.2186ZM163.06 12.2705L171.639 3.47459H174.873L167.885 10.725L174.997 21.2186H171.888L166.094 12.6004L163.06 15.7434V21.2186H160.573V3.47459H163.06V12.2705Z" fill="white"/>
<path fill-rule="evenodd" clip-rule="evenodd" d="M11.3013 0H13.5615V11.2242H42.9448V13.469H31.6435V24.6933H29.3833V13.469H0V11.2242H11.3013V0Z" fill="white"/>
</svg>
