<svg width="174" height="38" viewBox="0 0 174 38" fill="none" xmlns="http://www.w3.org/2000/svg">
<path fill-rule="evenodd" clip-rule="evenodd" d="M16.6163 0.520574C16.9408 0.481524 17.2254 0.443132 17.2486 0.435222C17.2718 0.427356 18.0685 0.425348 19.0191 0.430826C20.4284 0.438948 20.8447 0.454814 21.2743 0.516803C21.8641 0.601943 22.7146 0.760118 23.1292 0.861871C23.2799 0.898868 23.479 0.94266 23.5718 0.959184C23.726 0.986642 24.0213 1.07408 24.5203 1.23988C24.6246 1.27457 24.7953 1.32765 24.8996 1.35783C25.0738 1.40827 25.2074 1.45678 25.8662 1.70884C25.9921 1.75702 26.1145 1.81566 26.1381 1.83915C26.1618 1.86267 26.2065 1.88188 26.2374 1.88188C26.2912 1.88188 26.9485 2.17471 27.2603 2.33753C27.9872 2.71713 28.3756 2.93659 28.3914 2.97652C28.3992 2.99602 28.4419 3.01201 28.4863 3.01201C28.5308 3.01201 28.5671 3.02788 28.5671 3.0473C28.5671 3.06668 28.6525 3.12616 28.7568 3.17943C28.8611 3.23272 28.9465 3.2922 28.9465 3.31158C28.9465 3.331 28.9637 3.34687 28.9847 3.34687C29.0209 3.34687 29.6604 3.75798 29.7053 3.81005C29.7169 3.82349 29.8449 3.91385 29.9898 4.0108C30.1347 4.10778 30.2533 4.20527 30.2533 4.2274C30.2533 4.2496 30.2734 4.26771 30.298 4.26771C30.3415 4.26771 30.9089 4.71977 31.2406 5.01867C31.4732 5.2282 32.6467 6.39283 32.8265 6.59244C33.1817 6.98702 33.5835 7.48377 33.5835 7.52853C33.5835 7.55519 33.6101 7.58717 33.6427 7.5996C33.6753 7.61203 33.7729 7.72914 33.8595 7.8599C33.946 7.99062 34.044 8.12586 34.0772 8.16039C34.1646 8.25143 34.5109 8.78925 34.5109 8.83399C34.5109 8.84645 34.5166 8.85757 34.5253 8.86449C34.5312 8.86918 34.5385 8.87196 34.5464 8.87196C34.5659 8.87196 34.6328 8.96141 34.6952 9.07078C34.819 9.28805 34.8759 9.38215 34.9796 9.5415C35.0433 9.63924 35.3239 10.1544 35.5498 10.5881C35.6037 10.6917 35.7036 10.8989 35.7716 11.0485C35.8397 11.1981 35.9633 11.4689 36.0462 11.6502C36.1292 11.8315 36.1971 11.9982 36.1971 12.0206C36.1971 12.043 36.2245 12.1207 36.2581 12.1933C36.3765 12.4493 36.6128 13.1554 36.8414 13.9366C37.0559 14.67 37.2264 15.5407 37.3863 16.7201C37.4707 17.3422 37.4828 17.6079 37.4828 18.8339C37.4828 20.0599 37.4707 20.3255 37.3863 20.9476C37.2264 22.1271 37.0559 22.9977 36.8414 23.7311C36.6128 24.5123 36.3765 25.2185 36.2581 25.4745C36.2245 25.547 36.1971 25.6248 36.1971 25.6471C36.1971 25.6696 36.1292 25.8363 36.0462 26.0175C36.0019 26.1144 35.946 26.2367 35.8932 26.3525C35.8471 26.4535 35.8033 26.5495 35.7716 26.6192C35.7036 26.7689 35.6037 26.9761 35.5498 27.0796C35.3239 27.5134 35.0433 28.0285 34.9796 28.1262C34.8759 28.2856 34.819 28.3797 34.6952 28.597C34.6328 28.7063 34.5659 28.7958 34.5464 28.7958C34.5268 28.7958 34.5109 28.8128 34.5109 28.8338C34.5109 28.8785 34.1646 29.4163 34.0772 29.5074C34.044 29.5419 33.9451 29.6784 33.8575 29.8108C33.7698 29.9432 33.6811 30.0515 33.6605 30.0515C33.6399 30.0515 33.611 30.0844 33.5964 30.1247C33.5709 30.195 33.1389 30.7283 32.8265 31.0753C32.6467 31.2749 31.4732 32.4395 31.2406 32.6491C30.9089 32.948 30.3415 33.4 30.298 33.4C30.2846 33.4 30.2725 33.4054 30.2643 33.4139C30.2574 33.421 30.2533 33.4303 30.2533 33.4403C30.2533 33.4625 30.1347 33.56 29.9898 33.6569C29.8449 33.7539 29.7169 33.8443 29.7053 33.8577C29.6604 33.9098 29.0209 34.3209 28.9847 34.3209C28.9637 34.3209 28.9465 34.3367 28.9465 34.3562C28.9465 34.3755 28.8611 34.435 28.7568 34.4883C28.6525 34.5416 28.5671 34.6011 28.5671 34.6204C28.5671 34.6399 28.5308 34.6557 28.4863 34.6557C28.4419 34.6557 28.3992 34.6717 28.3914 34.6912C28.3756 34.7312 27.9872 34.9506 27.2603 35.3302C26.9485 35.493 26.2912 35.7859 26.2374 35.7859C26.2065 35.7859 26.1618 35.8051 26.1381 35.8286C26.1145 35.8521 25.9921 35.9107 25.8662 35.9589C25.2074 36.211 25.0738 36.2595 24.8996 36.3099C24.8801 36.3156 24.8581 36.3221 24.8347 36.3291C24.7335 36.3594 24.605 36.3997 24.5203 36.4279C24.0213 36.5937 23.726 36.6811 23.5718 36.7086C23.479 36.7251 23.2799 36.7689 23.1292 36.8059C22.6738 36.9176 21.8348 37.071 21.2322 37.1527C20.3985 37.2658 17.4288 37.2658 16.5952 37.1527C16.0257 37.0755 15.2133 36.9266 14.6982 36.8049C14.5475 36.7693 14.3423 36.7236 14.2422 36.7033C14.0662 36.6675 13.6992 36.5591 13.3071 36.4269C13.2028 36.3918 13.0605 36.3479 12.991 36.3293C12.7991 36.2782 12.3804 36.1261 12.1799 36.0347C12.0816 35.99 11.9773 35.9532 11.9481 35.9531C11.9188 35.953 11.8328 35.9154 11.7569 35.8694C11.681 35.8234 11.6019 35.7859 11.5812 35.7859C11.5018 35.7859 10.6415 35.3724 10.0823 35.0655C9.96636 35.0019 9.82409 34.9269 9.76613 34.899C9.70817 34.871 9.60408 34.8096 9.53487 34.7624C9.4108 34.6779 9.30474 34.6166 9.08554 34.5027C9.02425 34.4708 8.95077 34.4169 8.92232 34.3828C8.89387 34.3488 8.8558 34.3209 8.83779 34.3209C8.78017 34.3209 7.81673 33.6565 7.7919 33.5996C7.78414 33.5819 7.75772 33.5674 7.7331 33.5674C7.70847 33.5674 7.64841 33.5284 7.59959 33.4806C7.55077 33.4329 7.36382 33.2805 7.18416 33.142C7.00445 33.0035 6.85746 32.8731 6.85746 32.8521C6.85746 32.8312 6.83828 32.814 6.81489 32.814C6.75886 32.814 6.50913 32.5844 5.78711 31.8689C5.08034 31.1684 4.83403 30.9044 4.83403 30.8472C4.83403 30.8239 4.81675 30.8049 4.79568 30.8049C4.77455 30.8049 4.6432 30.659 4.50371 30.4805C4.36427 30.3021 4.21078 30.1165 4.16268 30.068C4.11459 30.0195 4.07525 29.968 4.07525 29.9534C4.07525 29.9388 4.0476 29.8937 4.01383 29.8531C3.79092 29.5856 3.06611 28.5079 2.99302 28.3354C2.97839 28.3008 2.94277 28.2443 2.91385 28.2098C2.84889 28.1322 2.63326 27.7499 2.29982 27.1215C2.17062 26.8779 1.84105 26.1546 1.84105 26.1146C1.84105 26.094 1.8032 26.0154 1.75691 25.9401C1.71062 25.8647 1.67269 25.7793 1.6726 25.7502C1.67253 25.7212 1.63551 25.6176 1.59041 25.52C1.49838 25.321 1.34519 24.9052 1.29372 24.7147C1.27504 24.6457 1.23036 24.5044 1.19444 24.4008C1.07005 24.0424 0.875665 23.3406 0.78866 22.9358C0.425885 21.248 0.386719 20.8484 0.386719 18.8339C0.386719 16.8193 0.425885 16.4198 0.78866 14.7319C0.875665 14.3271 1.07005 13.6254 1.19444 13.2669C1.23036 13.1633 1.27504 13.0221 1.29372 12.953C1.34519 12.7625 1.49838 12.3467 1.59041 12.1477C1.63551 12.0501 1.67253 11.9465 1.6726 11.9175C1.67269 11.8885 1.71062 11.8031 1.75691 11.7277C1.8032 11.6523 1.84105 11.5738 1.84105 11.5532C1.84105 11.5131 2.17062 10.7898 2.29982 10.5462C2.63326 9.9178 2.84889 9.53555 2.91385 9.45795C2.94277 9.42342 2.97839 9.36691 2.99302 9.33238C3.01965 9.26943 3.06657 9.19383 3.3797 8.70901C3.55077 8.44414 3.9017 7.94914 4.01383 7.81462C4.0476 7.77405 4.07525 7.72893 4.07525 7.71437C4.07525 7.69975 4.11459 7.64819 4.16268 7.59972C4.21078 7.55125 4.36427 7.36565 4.50371 7.18723C4.6432 7.00883 4.77455 6.86283 4.79568 6.86283C4.81675 6.86283 4.83403 6.84379 4.83403 6.82056C4.83403 6.76333 5.08034 6.49931 5.78711 5.79888C6.50913 5.08338 6.75886 4.85371 6.81489 4.85371C6.83828 4.85371 6.85746 4.83655 6.85746 4.81562C6.85746 4.79464 7.00449 4.66423 7.18416 4.52572C7.36386 4.38725 7.55077 4.23486 7.59959 4.18709C7.64841 4.13934 7.70847 4.10029 7.7331 4.10029C7.75772 4.10029 7.78414 4.08581 7.7919 4.0681C7.81673 4.01121 8.78017 3.34687 8.83779 3.34687C8.8558 3.34687 8.89387 3.31899 8.92232 3.28496C8.95077 3.25089 9.02425 3.19697 9.08554 3.16509C9.30474 3.05119 9.4108 2.98983 9.53487 2.90531C9.60408 2.85814 9.70817 2.7967 9.76613 2.76874C9.82409 2.74082 9.96636 2.66589 10.0823 2.60228C10.6415 2.29534 11.5018 1.88188 11.5812 1.88188C11.6019 1.88188 11.681 1.84429 11.7569 1.79834C11.8328 1.75238 11.9188 1.7147 11.9481 1.71462C11.9773 1.71453 12.0816 1.67778 12.1799 1.633C12.3804 1.54162 12.7991 1.38952 12.991 1.33842C13.0298 1.32807 13.0912 1.30983 13.156 1.28963C13.2075 1.2736 13.261 1.25634 13.3071 1.2408C13.6992 1.10861 14.0662 1.00021 14.2422 0.964461C14.3423 0.944166 14.5475 0.898411 14.6982 0.862831C15.2707 0.727639 16.0475 0.589012 16.6163 0.520574ZM19.9446 23.7044C19.8529 23.563 19.6358 23.2382 19.4621 22.9823C19.2884 22.7266 19.1272 22.5178 19.1038 22.5186C19.0556 22.5201 18.9137 22.7008 18.9137 22.7607C18.9137 22.7823 18.8833 22.8251 18.8461 22.8557C18.8089 22.8864 18.7614 22.9499 18.7405 22.9969C18.7197 23.0439 18.6363 23.1671 18.5552 23.2707C18.4741 23.3743 18.3945 23.4873 18.3782 23.5218C18.3188 23.6477 18.0947 23.9622 18.0413 23.9948C18.011 24.0132 17.9863 24.0452 17.9863 24.066C17.9863 24.101 17.7455 24.4795 17.6934 24.5264C17.6868 24.5323 17.6758 24.5461 17.6635 24.5633C17.6519 24.5795 17.6392 24.5987 17.628 24.6174C17.5605 24.7295 16.8317 25.8009 16.8071 25.824C16.7509 25.8768 16.5109 26.2492 16.5109 26.2835C16.5109 26.3047 16.4872 26.3371 16.4582 26.3555C16.3951 26.3956 16.1315 26.7741 16.1315 26.8246C16.1315 26.8441 16.101 26.8852 16.0639 26.9158C16.0267 26.9465 15.9792 27.01 15.9583 27.057C15.9374 27.104 15.8541 27.2272 15.773 27.3308C15.6919 27.4344 15.6123 27.5474 15.596 27.5819C15.5428 27.6947 15.3343 27.9871 15.2684 28.0414C15.245 28.0607 15.2244 28.0846 15.2131 28.104C15.2074 28.1139 15.2041 28.1226 15.2041 28.1291C15.2041 28.1632 14.9579 28.5457 14.9097 28.5865C14.8961 28.598 14.8109 28.7204 14.7203 28.8586C14.6297 28.9967 14.5403 29.116 14.5215 29.1236C14.5028 29.1313 14.4874 29.1534 14.4874 29.1726C14.4874 29.1919 14.3926 29.3443 14.2767 29.5114C14.1608 29.6785 14.0659 29.8307 14.0659 29.8497C14.0659 29.8686 16.3328 29.8841 19.1034 29.8841C23.354 29.8841 24.1409 29.8751 24.1409 29.8264C24.1409 29.7947 24.115 29.7474 24.0834 29.7213C24.0518 29.6953 23.9534 29.5564 23.8649 29.4128C23.7764 29.2691 23.6929 29.1421 23.6794 29.1306C23.6659 29.1191 23.5793 28.9967 23.4869 28.8586C23.3945 28.7204 23.3094 28.598 23.2978 28.5865C23.2862 28.575 23.2009 28.4526 23.1083 28.3144C23.0157 28.1763 22.9208 28.0419 22.8975 28.0158C22.8616 27.9755 22.6993 27.7299 22.4865 27.3936C22.4574 27.3475 22.4222 27.3004 22.4083 27.2889C22.3862 27.2707 22.2267 27.0382 22.0955 26.833C22.0521 26.7651 21.8548 26.4738 21.738 26.3053C21.7033 26.2551 21.6198 26.131 21.5526 26.0295C21.4854 25.9279 21.419 25.8355 21.4051 25.824C21.4003 25.82 21.3936 25.8126 21.3859 25.803C21.3712 25.7846 21.3528 25.758 21.3376 25.7325C21.2743 25.6267 20.5416 24.5505 20.5164 24.5264C20.4592 24.4717 20.2205 24.1008 20.2205 24.0668C20.2205 24.0456 20.1959 24.0132 20.1659 23.9948C20.1358 23.9764 20.0363 23.8457 19.9446 23.7044ZM8.69518 19.3823L19.0496 6.81485L29.5421 19.3823H8.69518Z" fill="white"/>
<path d="M51.2885 4.20472C51.5319 4.1652 51.75 4.12703 51.7732 4.11987C51.7964 4.11276 52.2896 4.10536 52.8693 4.10347C53.765 4.10054 53.999 4.1133 54.429 4.18848C55.3689 4.35289 56.1902 4.63467 57.0215 5.07794C57.1954 5.17069 57.3629 5.27131 57.3936 5.30154C57.4244 5.33179 57.4908 5.37792 57.5412 5.40404C57.7012 5.48709 58.3852 6.0537 58.604 6.28458C59.0526 6.75773 59.4625 7.30433 59.615 7.63241C59.6483 7.70412 59.6919 7.79101 59.7119 7.82554C59.8467 8.05822 60.0854 8.65756 60.1285 8.87196C60.1401 8.92951 60.1865 9.09903 60.2316 9.24867C60.2767 9.39831 60.325 9.66674 60.3389 9.84513L60.3642 10.1695L58.3072 10.1692L58.2307 9.80315C58.1887 9.60177 58.1394 9.3711 58.1213 9.29053C58.0422 8.93935 57.5674 8.03218 57.4137 7.93855C57.3835 7.92013 57.3587 7.88443 57.3587 7.85919C57.3587 7.83395 57.1643 7.62538 56.9266 7.39576C56.4536 6.93864 56.3985 6.89008 56.3049 6.84802C56.2701 6.83241 56.1563 6.76451 56.0519 6.69712C55.7085 6.47532 55.0233 6.16797 54.6044 6.04784C54.2049 5.93323 53.3636 5.81754 52.9257 5.81696C52.471 5.81633 51.5344 5.94328 51.2515 6.04382C51.1501 6.0799 51.0351 6.10941 50.9959 6.10941C50.9569 6.10941 50.8265 6.1565 50.7064 6.21406C50.5862 6.27161 50.4706 6.3187 50.4493 6.3187C50.3983 6.3187 49.8262 6.63835 49.6655 6.75669C49.5959 6.80792 49.5155 6.85743 49.4866 6.86677C49.3925 6.89728 48.826 7.42087 48.5472 7.73509C48.3091 8.00335 48.0351 8.37705 47.8336 8.70826C47.72 8.89502 47.3259 9.70687 47.3259 9.75421C47.3259 9.77999 47.2976 9.86045 47.263 9.93298C47.2036 10.0573 47.1738 10.1522 47.0178 10.7137C46.62 12.1455 46.5598 14.139 46.868 15.6737C46.955 16.1072 47.1081 16.6497 47.2463 17.0139C47.2901 17.1295 47.3259 17.2367 47.3259 17.2521C47.3259 17.3087 47.7917 18.2442 47.8322 18.2691C47.8552 18.2832 47.8739 18.3312 47.8739 18.3759C47.8739 18.4206 47.8894 18.4572 47.9083 18.4572C47.9273 18.4572 47.9874 18.5372 48.042 18.635C48.0967 18.7329 48.1666 18.828 48.1974 18.8464C48.2282 18.8648 48.2533 18.8989 48.2533 18.9221C48.2533 19.0503 49.1595 19.9906 49.4583 20.1725C49.5143 20.2066 49.5601 20.249 49.5601 20.2667C49.5601 20.2844 49.5826 20.2988 49.6101 20.2988C49.6376 20.2988 49.6992 20.3349 49.7471 20.3788C49.8638 20.4862 50.4805 20.7965 50.8458 20.9317C51.5444 21.1903 51.8663 21.2397 52.8271 21.2359C53.5811 21.2329 53.7623 21.2194 54.0496 21.1451C54.2351 21.097 54.4431 21.0457 54.5118 21.031C54.5806 21.0163 54.7171 20.968 54.8151 20.9236C54.9132 20.8793 55.0092 20.843 55.0285 20.843C55.0859 20.843 55.7887 20.4698 55.8964 20.3822C55.924 20.3598 56.0509 20.2633 56.1784 20.1678C56.3059 20.0723 56.483 19.9262 56.5718 19.8431C56.7598 19.6672 57.2725 19.0377 57.3766 18.8548C57.416 18.7857 57.504 18.635 57.5723 18.5199C57.6406 18.4048 57.7068 18.2824 57.7195 18.2479C57.7322 18.2133 57.777 18.1097 57.8191 18.0177C57.9362 17.7616 58.1175 17.2689 58.1175 17.2069C58.1175 17.1765 58.1531 17.0263 58.1965 16.8731C58.2973 16.5183 58.4115 15.7953 58.4429 15.3145L58.4672 14.9412H53.2697V13.2251H60.3939V22.3917H58.6784L58.6511 21.9208C58.6361 21.6618 58.6237 20.9084 58.6236 20.2465C58.6235 19.4723 58.6083 19.0432 58.5812 19.0432C58.558 19.0432 58.5391 19.0684 58.5391 19.0992C58.5391 19.156 58.3327 19.6042 58.218 19.7966C58.1837 19.8541 58.1357 19.953 58.1114 20.0163C58.087 20.0796 58.0513 20.1314 58.0319 20.1314C58.0125 20.1314 57.9852 20.1675 57.9711 20.2115C57.9571 20.2555 57.8893 20.3638 57.8205 20.4521C57.7517 20.5405 57.6531 20.6693 57.6014 20.7383C57.4292 20.9683 56.9619 21.4359 56.6632 21.677C56.4022 21.8876 56.2912 21.9641 55.9471 22.1706C55.8052 22.2557 55.253 22.5173 55.2151 22.5173C55.1956 22.5173 55.1212 22.5462 55.0496 22.5816C54.9186 22.6466 54.742 22.6993 54.2393 22.8235C53.234 23.072 51.5979 23.0628 50.6561 22.8034C50.4822 22.7556 50.2724 22.7005 50.1897 22.6811C50.107 22.6618 49.9837 22.6171 49.9157 22.5818C49.8477 22.5466 49.769 22.5177 49.7409 22.5175C49.6698 22.5172 49.061 22.2271 49.0313 22.1795C49.018 22.1581 48.9703 22.1406 48.9253 22.1406C48.8803 22.1406 48.8435 22.1252 48.8435 22.1064C48.8435 22.0877 48.7753 22.0401 48.6919 22.0006C48.6086 21.9611 48.4711 21.8762 48.3863 21.8118C48.3016 21.7475 48.1196 21.6115 47.982 21.5096C47.587 21.2172 46.9417 20.5555 46.5813 20.0733C46.1644 19.5155 46.0689 19.363 45.758 18.7589C45.5183 18.293 45.4746 18.1948 45.3217 17.777C45.2859 17.6792 45.2304 17.5426 45.1985 17.4735C45.1665 17.4045 45.1274 17.2914 45.1114 17.2224C45.0955 17.1533 45.0475 16.9838 45.0049 16.8457C44.8533 16.3551 44.6781 15.4088 44.5864 14.5854C44.4686 13.5286 44.5816 11.8517 44.8429 10.7764C44.8876 10.5923 44.924 10.4118 44.9237 10.3754C44.9229 10.2844 45.285 9.18723 45.3922 8.95567C45.7404 8.20409 46.2627 7.28136 46.3597 7.24654C46.381 7.23883 46.3985 7.21447 46.3985 7.19237C46.3985 7.13533 46.7749 6.68733 47.1297 6.32208C47.5393 5.90037 48.4539 5.18856 48.5861 5.18856C48.6079 5.18856 48.632 5.17262 48.6398 5.15316C48.6556 5.11326 49.4484 4.72572 49.7077 4.63111C50.0499 4.50625 50.1367 4.47813 50.4875 4.37843C50.6846 4.32237 51.045 4.24423 51.2885 4.20472Z" fill="white"/>
<path d="M78.2674 22.3917V4.477H80.2065V22.3917H78.2674Z" fill="white"/>
<path fill-rule="evenodd" clip-rule="evenodd" d="M93.0426 12.074L93.0642 4.477H95.0028V22.3917H93.1059V20.987C93.1059 20.0612 93.0915 19.5912 93.0637 19.6082C93.0405 19.6225 93.0216 19.6708 93.0216 19.7156C93.0216 19.7857 92.9381 19.9752 92.7554 20.3198C92.7309 20.3658 92.6828 20.46 92.6482 20.5291C92.6138 20.5981 92.5727 20.6641 92.5569 20.6756C92.5412 20.6871 92.477 20.7778 92.4144 20.8771C92.3517 20.9765 92.2492 21.1118 92.1867 21.1779C92.1242 21.2439 92.0162 21.3647 91.9466 21.4463C91.8771 21.5279 91.801 21.595 91.7776 21.5955C91.7542 21.596 91.7113 21.6341 91.6824 21.6801C91.6534 21.7262 91.6015 21.7638 91.5669 21.7638C91.5323 21.7638 91.504 21.78 91.504 21.7997C91.504 21.8516 91.0803 22.1167 90.7528 22.2698C90.5064 22.3849 90.4016 22.4339 90.2929 22.4721C90.2125 22.5004 90.13 22.5228 89.9864 22.5619C89.2005 22.7754 87.7741 22.7759 86.9934 22.5629C86.4401 22.4118 86.2087 22.323 85.8291 22.1159C85.5183 21.9464 85.4307 21.8884 85.1018 21.634C84.7254 21.3431 84.0848 20.6697 84.0848 20.565C84.0848 20.5482 84.0494 20.4956 84.0063 20.448C83.9631 20.4005 83.8559 20.2298 83.7681 20.0687L83.5741 19.7129C83.4917 19.5618 83.3681 19.2748 83.3679 19.2341C83.3677 19.2097 83.3383 19.1338 83.3024 19.0655C83.1921 18.8554 83.0413 18.2759 82.899 17.5154C82.815 17.066 82.8051 16.8788 82.8052 15.7365C82.8053 14.5867 82.8147 14.4099 82.9006 13.9576C83.1164 12.8209 83.4619 11.8783 83.907 11.2122C83.9468 11.1525 84.0315 11.0259 84.0951 10.9307C84.352 10.5468 85.3691 9.62538 85.5361 9.62538C85.5687 9.62538 85.6016 9.60973 85.6094 9.59064C85.6544 9.47913 86.487 9.15403 87.058 9.02495C87.9897 8.81432 88.6318 8.82173 89.6752 9.05525C90.7635 9.29878 91.8877 10.1119 92.5176 11.1113C92.6966 11.3952 92.7199 11.4366 92.8837 11.7601L93.0426 12.074ZM90.3649 10.8388C90.2735 10.7925 90.0073 10.7171 89.7733 10.6713C89.3272 10.584 88.5829 10.5655 88.2159 10.6326C88.1116 10.6517 87.9219 10.6858 87.7944 10.7084C87.5772 10.7469 87.1052 10.9234 86.867 11.0552C85.4599 11.8334 84.7607 13.4154 84.7609 15.8202C84.7611 17.3495 85.0524 18.495 85.6816 19.4405C85.9097 19.7833 86.3862 20.2763 86.6562 20.4489C86.7605 20.5156 86.8554 20.5818 86.867 20.596C86.8786 20.6102 86.9829 20.6648 87.0988 20.7173C87.9366 21.0969 88.698 21.2075 89.5685 21.0761C90.4245 20.9469 91.2557 20.5003 91.8159 19.8687C92.0354 19.6211 92.2628 19.3159 92.2628 19.2687C92.2628 19.2567 92.3102 19.1851 92.3682 19.1097C92.4261 19.0342 92.474 18.946 92.4745 18.9137C92.475 18.8813 92.5125 18.8077 92.5579 18.7502C92.6032 18.6926 92.6407 18.6207 92.6412 18.5905C92.6417 18.5602 92.6781 18.4472 92.722 18.3393C93.1511 17.2847 93.2355 15.36 92.9086 14.0831C92.7008 13.2714 92.5493 12.8968 92.2061 12.3461C92.1248 12.2157 92.0779 12.1399 92.0244 12.0692C91.9458 11.9656 91.8527 11.8728 91.6155 11.6345C91.3323 11.3501 90.7106 10.9229 90.5797 10.9229C90.553 10.9229 90.4563 10.8851 90.3649 10.8388Z" fill="white"/>
<path d="M124.764 6.40241V4.64442H138.591V6.40241H132.731V22.3917H130.666V6.40241H124.764Z" fill="white"/>
<path fill-rule="evenodd" clip-rule="evenodd" d="M67.1175 9.1922C67.4812 9.08865 68.2619 8.93198 68.5719 8.90038C68.9029 8.86665 69.7135 8.87464 70.0484 8.91499C70.7279 8.99677 71.65 9.2215 71.9727 9.3839C72.7216 9.76078 72.9204 9.87175 73.1413 10.0362C73.3789 10.213 73.5946 10.3969 73.8159 10.6111C73.9819 10.7718 74.4314 11.3212 74.4314 11.3634C74.4314 11.3793 74.4741 11.4444 74.5262 11.5081C74.7127 11.736 75.1901 12.6843 75.1901 12.8269C75.1901 12.8556 75.2259 12.971 75.2696 13.0835C75.5681 13.8511 75.7506 15.4343 75.6574 16.448C75.5565 17.5459 75.5258 17.7114 75.2656 18.5618C75.1212 19.0336 74.6471 20.0332 74.5212 20.1314C74.5064 20.1429 74.4225 20.2616 74.3346 20.395C74.2468 20.5285 74.1472 20.6482 74.1134 20.6611C74.0796 20.674 74.052 20.7035 74.052 20.7267C74.052 20.7916 73.4185 21.3971 73.185 21.5553C73.0706 21.6328 72.9707 21.7114 72.963 21.73C72.9552 21.7486 72.9283 21.7638 72.903 21.7638C72.8778 21.7638 72.8272 21.7899 72.7907 21.8218C72.754 21.8537 72.5818 21.9499 72.4079 22.0356C72.234 22.1213 72.0576 22.209 72.0159 22.2304C71.8449 22.3183 71.3462 22.4762 70.8904 22.5868C70.4197 22.7009 70.3725 22.7043 69.2674 22.7038C68.2183 22.7033 68.0962 22.6955 67.7077 22.6042C66.8194 22.3955 66.1189 22.1008 65.4737 21.6645C65.0727 21.3933 64.3779 20.7318 64.1679 20.4213C64.099 20.3194 64.0031 20.1872 63.9548 20.1275C63.8453 19.992 63.3394 18.9696 63.2422 18.6874C63.0977 18.2677 62.933 17.5449 62.8654 17.034C62.7326 16.0304 62.7984 14.6041 63.016 13.7692C63.0611 13.5965 63.1136 13.3893 63.1328 13.3088C63.253 12.8039 63.7052 11.8272 63.9665 11.5081C64.0186 11.4444 64.0613 11.381 64.0613 11.3673C64.0613 11.3394 64.0846 11.3098 64.4199 10.9114C64.6229 10.6702 64.8967 10.416 65.3201 10.0753C65.3703 10.035 65.427 10.0021 65.4463 10.0021C65.4657 10.0021 65.5152 9.96514 65.5563 9.91997C65.6757 9.78904 66.7023 9.31045 67.1175 9.1922ZM70.5742 10.7099C70.4815 10.6926 70.2538 10.6493 70.0684 10.6138C69.7624 10.5551 68.9317 10.53 68.7194 10.573C68.673 10.5824 68.4739 10.6196 68.2768 10.6556C67.9138 10.7221 67.5598 10.8417 67.1386 11.0401C66.4117 11.3827 65.7961 12.034 65.3697 12.9118C65.2529 13.1523 65.1573 13.376 65.1573 13.4089C65.1573 13.4418 65.1215 13.5693 65.0776 13.6922C65.0337 13.8151 64.9531 14.1511 64.8984 14.4389C64.8128 14.8898 64.7995 15.0836 64.8026 15.8411C64.8057 16.6161 64.8194 16.787 64.9187 17.2852C65.1703 18.5471 65.5672 19.3444 66.2886 20.0379C66.676 20.4103 67.2293 20.7123 67.9362 20.9372C68.3365 21.0646 68.3481 21.0657 69.2674 21.0657C70.1879 21.0657 70.1978 21.0647 70.5953 20.937C70.8155 20.8662 71.0906 20.7666 71.2065 20.7157C71.4786 20.5962 71.9508 20.2866 72.1715 20.0829C72.2668 19.9951 72.359 19.9229 72.3763 19.9226C72.3937 19.9224 72.4079 19.8933 72.4079 19.8581C72.4079 19.8228 72.4346 19.7838 72.4671 19.7714C72.5309 19.7471 72.8022 19.3783 72.9567 19.1059C73.2996 18.5013 73.419 18.1643 73.5902 17.3177C73.7043 16.7532 73.7147 16.6283 73.7147 15.8318C73.7146 14.9974 73.6923 14.7632 73.5457 14.0622C73.3254 13.0086 72.8183 12.0923 72.1319 11.5076C71.7277 11.1632 70.9966 10.7889 70.5742 10.7099Z" fill="white"/>
<path fill-rule="evenodd" clip-rule="evenodd" d="M100.989 9.38177C101.374 9.20635 102.349 8.96769 102.97 8.89645C103.051 8.88715 103.431 8.88656 103.813 8.89511C104.706 8.91507 105.545 9.07555 106.111 9.33405C106.203 9.3765 106.346 9.44104 106.427 9.47755C106.577 9.54497 106.614 9.56619 106.912 9.75016C107.17 9.90929 107.219 9.95183 107.649 10.3809C108.086 10.8168 108.209 10.9527 108.254 11.0485C108.27 11.083 108.338 11.1961 108.406 11.2997C108.605 11.6028 108.852 12.1309 109.033 12.6391C109.305 13.4018 109.542 14.8621 109.545 15.7888L109.546 16.2806H99.4708L99.4955 16.7096C99.5821 18.2092 100.119 19.4965 100.969 20.2423C101.117 20.3716 101.274 20.4984 101.318 20.5241C101.867 20.8421 102.242 20.9892 102.78 21.0982C103.335 21.2105 104.054 21.2193 104.509 21.1195C104.896 21.0344 105.385 20.8612 105.548 20.7512C105.61 20.7096 105.677 20.6756 105.698 20.6756C105.742 20.6756 105.833 20.6083 106.199 20.3067C106.347 20.1844 106.469 20.0714 106.469 20.0556C106.469 20.0397 106.531 19.9587 106.606 19.8756C106.767 19.6972 106.81 19.6353 106.962 19.3571C107.121 19.0648 107.275 18.7086 107.3 18.5723L107.322 18.4572H109.335V18.5772C109.335 18.7852 108.849 19.9347 108.676 20.1347C108.644 20.1711 108.619 20.2151 108.619 20.2325C108.619 20.2683 108.369 20.6321 108.3 20.6965C108.275 20.7195 108.154 20.8572 108.03 21.0023C107.829 21.2385 107.233 21.7638 107.166 21.7638C107.152 21.7638 107.099 21.802 107.048 21.8487C106.941 21.9478 106.214 22.3056 105.879 22.4246C105.751 22.4698 105.467 22.5516 105.246 22.6062C104.873 22.6988 104.768 22.7055 103.708 22.704C102.68 22.7026 102.527 22.6931 102.127 22.6063C101.33 22.433 100.519 22.1282 100.167 21.8698C100.097 21.8187 100.019 21.7692 99.992 21.7599C99.9655 21.7506 99.8001 21.6255 99.6247 21.482C99.0951 21.0489 98.5994 20.4034 98.3063 19.765C98.2245 19.5867 98.1403 19.4085 98.1193 19.369C98.0983 19.3295 98.063 19.2259 98.0408 19.1388C98.0186 19.0517 97.9628 18.8674 97.9169 18.7292C97.571 17.6891 97.4187 15.6384 97.5904 14.3343C97.7085 13.4372 97.9686 12.5287 98.2613 11.9903C98.2863 11.9442 98.3507 11.8218 98.4044 11.7182C98.7107 11.1269 99.369 10.3575 99.8459 10.0335C99.9528 9.96086 100.065 9.87698 100.096 9.84714C100.127 9.81725 100.179 9.7928 100.212 9.7928C100.245 9.7928 100.272 9.77866 100.272 9.76142C100.273 9.73128 100.589 9.56377 100.989 9.38177ZM105.727 11.0786C105.017 10.6972 104.636 10.5653 104.129 10.5267C103.944 10.5126 103.735 10.495 103.666 10.4877C103.596 10.4804 103.349 10.4908 103.118 10.5108C102.002 10.6074 101.065 11.1274 100.415 12.0112C99.9642 12.6238 99.6105 13.68 99.5283 14.6587L99.501 14.983H107.533L107.503 14.5331C107.437 13.5504 107.087 12.56 106.566 11.8797C106.375 11.6292 105.889 11.1657 105.727 11.0786Z" fill="white"/>
<path d="M116.481 9.19894C116.767 9.10175 117.127 9.01754 117.619 8.93261C118.052 8.85781 119.184 8.88322 119.6 8.97706C119.762 9.01364 119.981 9.05952 120.085 9.07898C120.665 9.18714 121.432 9.59646 121.885 10.0398C122.393 10.5363 122.777 11.3024 122.978 12.2205C123.051 12.5536 123.057 12.8889 123.068 17.484L123.08 22.3917H121.139L121.138 18.07C121.137 14.5265 121.126 13.654 121.075 13.2251C120.996 12.561 120.839 12.0954 120.527 11.5974C120.451 11.4762 120.108 11.1556 119.936 11.0462C119.678 10.8816 119.342 10.7525 118.926 10.6583C118.364 10.5312 117.227 10.5338 116.68 10.6636C116.325 10.7477 116.035 10.8512 115.806 10.9756C115.76 11.0009 115.684 11.0417 115.637 11.0664C115.122 11.3387 114.576 11.931 114.303 12.5135C114.024 13.1114 113.972 13.2313 113.972 13.2905C113.972 13.3254 113.937 13.471 113.893 13.6139C113.85 13.7569 113.771 14.1281 113.718 14.4389C113.623 14.9917 113.621 15.0841 113.603 18.6978L113.584 22.3917H111.654V9.24867H113.508L113.519 10.7241C113.526 11.6286 113.544 12.1672 113.567 12.1159C113.588 12.0698 113.67 11.8815 113.75 11.6973C113.909 11.3297 114.397 10.5703 114.498 10.5315C114.534 10.518 114.563 10.4782 114.563 10.4429C114.563 10.4076 114.577 10.3784 114.594 10.3779C114.612 10.3774 114.74 10.2711 114.878 10.1418C115.017 10.0124 115.207 9.85932 115.3 9.80155C115.393 9.74383 115.478 9.68448 115.49 9.66966C115.532 9.61608 116.234 9.28262 116.481 9.19894Z" fill="white"/>
<path d="M144.735 9.01783C144.872 8.98292 145.096 8.93813 145.234 8.91829C145.371 8.89841 145.763 8.87987 146.105 8.87707L146.727 8.87196V10.8708L146.073 10.849C145.352 10.825 144.809 10.8777 144.366 11.0149C144.059 11.11 143.64 11.2856 143.481 11.386C143.168 11.5829 142.948 11.7475 142.79 11.9016C142.568 12.1176 142.174 12.5893 142.174 12.6382C142.174 12.6585 142.149 12.6998 142.119 12.7303C142.089 12.7607 142.002 12.9174 141.926 13.0786C141.851 13.2397 141.774 13.3999 141.755 13.4346C141.693 13.5542 141.463 14.4186 141.411 14.7319C141.373 14.9584 141.354 16.0687 141.343 18.7188L141.326 22.3917H139.434V9.24867H141.246L141.247 10.6195C141.248 11.9815 141.249 11.9896 141.33 11.8857C141.374 11.8281 141.422 11.7339 141.437 11.6764C141.451 11.6188 141.506 11.5055 141.559 11.4247C141.612 11.3438 141.669 11.2355 141.686 11.184C141.702 11.1325 141.732 11.0904 141.752 11.0904C141.772 11.0904 141.8 11.0543 141.814 11.0103C141.856 10.8791 142.312 10.319 142.53 10.1304C142.598 10.0714 142.693 9.98505 142.741 9.93864C142.821 9.86062 142.971 9.75786 143.291 9.56117C143.607 9.367 144.274 9.08124 144.41 9.08124C144.452 9.08124 144.598 9.05269 144.735 9.01783Z" fill="white"/>
<path fill-rule="evenodd" clip-rule="evenodd" d="M151.119 9.37608C151.534 9.19672 152.486 8.96554 153.092 8.89657C153.173 8.88737 153.543 8.88556 153.914 8.89259C154.437 8.90247 154.707 8.92967 155.115 9.01335C155.683 9.12971 156.14 9.2619 156.275 9.34904C156.321 9.37893 156.43 9.42656 156.517 9.45485C156.604 9.48315 156.675 9.52241 156.675 9.54208C156.675 9.56176 156.716 9.59085 156.767 9.60671C156.984 9.67535 157.359 9.96312 157.771 10.3776C158.015 10.6227 158.233 10.8503 158.256 10.8835C158.279 10.9167 158.353 11.0286 158.421 11.1322C158.488 11.2358 158.574 11.3677 158.612 11.4252C158.691 11.5445 158.849 11.874 159.004 12.2414C159.355 13.0757 159.619 14.4343 159.658 15.6004L159.68 16.2806H149.59L149.615 16.7306C149.637 17.13 149.744 17.7872 149.845 18.1432C150.002 18.6978 150.35 19.4037 150.655 19.7849C150.849 20.0274 151.275 20.4218 151.469 20.5377C151.78 20.7238 152 20.843 152.032 20.843C152.053 20.843 152.155 20.8804 152.259 20.9263C152.802 21.1645 153.984 21.261 154.631 21.1199C155.099 21.0176 155.77 20.7524 155.975 20.5883C156.317 20.3147 156.509 20.1392 156.646 19.9743C156.737 19.8651 156.823 19.7662 156.838 19.7547C156.895 19.7104 157.265 19.055 157.265 18.9982C157.265 18.9751 157.303 18.8823 157.35 18.792C157.396 18.7018 157.434 18.5895 157.434 18.5425C157.434 18.459 157.455 18.4572 158.446 18.4572H159.457L159.456 18.5723C159.456 18.6355 159.418 18.7695 159.372 18.8698C159.326 18.9702 159.289 19.0786 159.289 19.1108C159.289 19.1663 158.882 20.0169 158.772 20.1934C158.589 20.484 158.216 20.9482 157.962 21.2002C157.262 21.8956 156.428 22.3479 155.368 22.6075C154.997 22.6984 154.884 22.7055 153.83 22.704C152.802 22.7026 152.648 22.6931 152.249 22.6063C151.452 22.433 150.641 22.1282 150.289 21.8698C150.219 21.8187 150.14 21.7692 150.114 21.7599C150.087 21.7506 149.922 21.6255 149.747 21.482C149.217 21.0492 148.744 20.4332 148.436 19.7756C148.349 19.5915 148.262 19.4085 148.241 19.369C148.22 19.3295 148.185 19.2259 148.162 19.1388C148.139 19.0517 148.084 18.8674 148.038 18.7292C147.583 17.349 147.507 14.9383 147.87 13.4343C147.962 13.0526 148.177 12.3916 148.264 12.2205C148.294 12.163 148.349 12.0499 148.387 11.9694C148.425 11.8888 148.503 11.7475 148.559 11.6554C148.616 11.5634 148.675 11.4597 148.692 11.4252C148.827 11.1465 149.512 10.3757 149.845 10.1277C149.922 10.0701 150.052 9.97121 150.132 9.90791C150.213 9.84463 150.305 9.7928 150.337 9.7928C150.368 9.7928 150.394 9.77866 150.394 9.76142C150.395 9.72809 150.789 9.5181 151.119 9.37608ZM155.842 11.0768C155.207 10.7218 154.753 10.5649 154.251 10.5267C154.066 10.5126 153.857 10.495 153.787 10.4877C153.718 10.4804 153.471 10.4908 153.239 10.5108C151.872 10.6292 150.748 11.4087 150.171 12.6391C150.01 12.9823 149.841 13.4699 149.801 13.7064C149.781 13.8215 149.737 14.0664 149.702 14.2506C149.667 14.4347 149.638 14.6749 149.637 14.7842L149.635 14.983H157.656L157.626 14.554C157.596 14.122 157.454 13.4243 157.316 13.0367C157.185 12.6667 156.895 12.1431 156.656 11.846C156.428 11.5631 156.018 11.1748 155.842 11.0768Z" fill="white"/>
<path fill-rule="evenodd" clip-rule="evenodd" d="M165.113 9.16856C165.309 9.09865 166.108 8.94069 166.476 8.89887C167.245 8.81155 168.521 8.95345 169.298 9.21275C169.588 9.30978 170.275 9.63978 170.377 9.73165C170.415 9.76531 170.459 9.7928 170.476 9.7928C170.493 9.7928 170.666 9.92445 170.859 10.0853C171.197 10.3653 171.724 10.9505 171.724 11.0452C171.724 11.0701 171.74 11.0904 171.759 11.0904C171.778 11.0904 171.838 11.1704 171.893 11.2683C171.947 11.3661 172.004 11.4556 172.018 11.4671C172.045 11.4887 172.175 11.7617 172.368 12.1996C172.582 12.6893 172.791 13.4409 172.884 14.0622C173.013 14.9254 173.029 15.0953 173.03 15.6841L173.031 16.2806H162.998V16.6768C162.998 17.099 163.166 17.9931 163.336 18.4781C163.443 18.7825 163.683 19.2778 163.823 19.4827C163.879 19.5653 163.926 19.644 163.926 19.6576C163.926 19.6712 163.968 19.7238 164.021 19.7745C164.073 19.8252 164.215 19.9686 164.338 20.0932C164.599 20.3599 164.667 20.4198 164.824 20.5207C165.496 20.9533 166.374 21.1953 167.256 21.1904C168.322 21.1845 169.319 20.7625 169.975 20.039C170.365 19.6093 170.629 19.1338 170.814 18.5304C170.835 18.4633 170.921 18.4572 171.854 18.4572H172.872L172.844 18.6054C172.828 18.6869 172.779 18.8391 172.734 18.9437C172.689 19.0483 172.652 19.1515 172.652 19.1732C172.652 19.2219 172.278 19.9808 172.17 20.1524C172.004 20.414 171.926 20.5407 171.835 20.6565C171.731 20.7882 171.608 20.9058 171.319 21.192C170.786 21.7192 170.737 21.7638 170.696 21.7638C170.679 21.7638 170.604 21.8063 170.531 21.8581C170.165 22.1151 169.618 22.3683 169.174 22.4857C169.081 22.5103 168.882 22.5662 168.731 22.6098C168.175 22.7711 166.236 22.753 165.504 22.5798C165.083 22.4803 164.519 22.3073 164.347 22.2254L164.186 22.1485C164.12 22.1169 164.048 22.0828 163.989 22.0545C163.873 21.9993 163.709 21.9066 163.625 21.8485C163.541 21.7904 163.43 21.7147 163.378 21.6801C163.048 21.4602 162.282 20.6792 162.282 20.5624C162.282 20.5397 162.245 20.4885 162.201 20.4486C162.071 20.3316 161.621 19.3912 161.488 18.9594C161.289 18.3102 161.18 17.8317 161.14 17.4317C161.119 17.2245 161.083 16.8854 161.06 16.6783C160.903 15.2616 161.139 13.3767 161.605 12.3251C161.79 11.9084 162.091 11.3425 162.15 11.2999C162.166 11.2883 162.267 11.1563 162.374 11.0067C162.587 10.7089 163.157 10.1495 163.429 9.96949C163.524 9.90683 163.651 9.82336 163.711 9.78393C163.882 9.67193 164.767 9.24867 164.831 9.24867C164.862 9.24867 164.989 9.21263 165.113 9.16856ZM169.192 11.0531C168.657 10.7392 168.124 10.5633 167.592 10.5257C167.372 10.5101 167.164 10.4924 167.129 10.4863C167.095 10.4802 166.867 10.4918 166.624 10.5121C165.42 10.6126 164.372 11.2439 163.776 12.2285C163.661 12.4185 163.561 12.5932 163.554 12.6169C163.546 12.6406 163.506 12.7353 163.465 12.8274C163.359 13.065 163.221 13.528 163.148 13.8948C163.086 14.2074 162.998 14.8096 162.998 14.9233C162.998 14.9746 163.564 14.983 167.019 14.983H171.039L171.02 14.5959C170.994 14.0439 170.758 13.1026 170.537 12.66C170.308 12.2035 170.208 12.047 169.943 11.7287C169.784 11.5387 169.641 11.3833 169.625 11.3832C169.609 11.3831 169.527 11.3218 169.443 11.2471C169.36 11.1724 169.247 11.0851 169.192 11.0531Z" fill="white"/>
<path d="M54.4377 29.0768C54.518 29.0599 54.6052 29.0417 54.6819 29.0259C55.1007 28.9398 56.0013 28.9696 56.4806 29.0856C56.8051 29.1641 57.3014 29.3532 57.3587 29.4202C57.3667 29.4295 57.4128 29.464 57.4737 29.5068C57.5012 29.5261 57.5317 29.5472 57.5631 29.5683C57.7863 29.7187 58.0691 30.0797 58.1941 30.3739C58.2538 30.5142 58.2964 30.7264 58.3138 30.9704L58.3409 31.349H57.5033L57.4266 30.9724C57.3844 30.7653 57.314 30.5504 57.27 30.4949C57.2261 30.4394 57.1901 30.3811 57.1901 30.3651C57.1901 30.3205 56.9495 30.1077 56.7847 30.0066C56.7034 29.9567 56.4635 29.871 56.2517 29.8163C55.2866 29.5666 54.1056 29.7929 53.7631 30.2932C53.5243 30.6421 53.4863 30.9501 53.6315 31.3586C53.6989 31.5483 53.7389 31.6001 53.9805 31.8095C54.1838 31.9856 55.1671 32.2717 55.56 32.269C55.7594 32.2675 56.8312 32.4724 57.169 32.5765C57.7418 32.753 58.1554 33.0764 58.3582 33.5063C58.4687 33.7407 58.4758 33.7899 58.4758 34.3209C58.4758 34.8515 58.4687 34.9008 58.3593 35.129C58.2952 35.2627 58.2193 35.3998 58.1907 35.4336C58.0644 35.5826 57.6743 35.9533 57.6437 35.9533C57.6251 35.9533 57.5392 35.9969 57.4527 36.0502C57.0534 36.2964 56.4116 36.4299 55.6515 36.4249C55.087 36.4212 54.2924 36.3176 54.1099 36.2238C54.0443 36.1902 53.9555 36.1626 53.9128 36.1626C53.807 36.1626 53.2337 35.8085 53.0915 35.6555C52.9464 35.4992 52.7217 35.1765 52.7217 35.1244C52.7217 35.1027 52.6858 35.0025 52.6419 34.9017C52.5979 34.801 52.5489 34.5725 52.5329 34.3941L52.5037 34.0697H53.3816L53.4332 34.3477C53.5021 34.7189 53.792 35.2417 53.9289 35.2417C53.9582 35.2417 53.9973 35.2681 54.0159 35.3004C54.0344 35.3327 54.1539 35.4063 54.2814 35.464C55.1217 35.8442 56.3774 35.8033 57.0204 35.3746C57.3321 35.1669 57.5512 34.8492 57.5888 34.5508C57.6635 33.9571 57.4683 33.5594 56.9922 33.3346C56.7446 33.2178 55.875 33.0279 55.5741 33.0249C55.1621 33.0209 53.8378 32.6802 53.4956 32.4902C53.2498 32.3539 52.9862 32.0816 52.8576 31.8315C52.7608 31.6432 52.7476 31.5608 52.7316 31.0471L52.7137 30.4731L52.8504 30.1786C52.9256 30.0166 53.0039 29.8841 53.0243 29.8841C53.0448 29.8841 53.0737 29.8527 53.0885 29.8143C53.1238 29.7232 53.3601 29.5101 53.4278 29.5086C53.4568 29.5079 53.4805 29.4909 53.4805 29.4708C53.4805 29.4196 54.0146 29.1682 54.2182 29.1236C54.2671 29.1129 54.3482 29.0957 54.4377 29.0768Z" fill="white"/>
<path d="M59.9512 29.6947C60.3225 29.3246 60.6698 29.1731 61.532 29.0049C62.0718 28.8996 63.4036 29.0514 63.7581 29.2585C63.8348 29.3032 63.9167 29.3399 63.9402 29.3399C63.9637 29.3399 64.0717 29.4002 64.1802 29.474C64.7306 29.848 64.9993 30.328 65.0953 31.1084L65.1249 31.349H64.2299V31.2251C64.2299 31.0648 64.0467 30.4915 63.9716 30.4166C63.9398 30.3849 63.8567 30.2945 63.7868 30.2157C63.6436 30.054 63.4002 29.9249 63.0285 29.8134C62.8344 29.7552 62.6334 29.7376 62.1644 29.7376C61.6376 29.7376 61.5094 29.7513 61.237 29.837C61.0631 29.8918 60.8909 29.9624 60.8542 29.994C60.8176 30.0256 60.7741 30.0515 60.7576 30.0515C60.7122 30.0515 60.546 30.2218 60.436 30.3812C60.267 30.6259 60.2759 31.35 60.45 31.5251C60.4797 31.5548 60.5165 31.6122 60.5319 31.6525C60.5473 31.6928 60.5889 31.7258 60.6244 31.7258C60.6599 31.7258 60.6889 31.7453 60.6889 31.7692C60.6889 31.8194 61.264 32.1025 61.366 32.1025C61.4036 32.1025 61.5826 32.1401 61.7639 32.1862C61.9452 32.2322 62.1711 32.2698 62.266 32.2697C62.493 32.2695 63.5398 32.4635 63.9138 32.5751C64.0761 32.6236 64.2592 32.6972 64.3207 32.7386C64.3823 32.7801 64.4518 32.814 64.4752 32.814C64.5501 32.814 64.949 33.2175 65.0397 33.3849C65.3069 33.8784 65.3046 34.7586 65.0347 35.2685C64.918 35.4887 64.5815 35.8386 64.3948 35.9337C64.3157 35.9739 64.2401 36.0235 64.2268 36.0439C64.1845 36.1087 63.6312 36.2942 63.2815 36.3608C62.8452 36.444 62.0162 36.4412 61.4477 36.3546C61.0013 36.2866 60.4858 36.1318 60.3578 36.0272C60.3197 35.9961 60.2338 35.9434 60.1671 35.9101C60.017 35.8353 59.5929 35.4194 59.5929 35.3469C59.5929 35.3177 59.5656 35.2713 59.5323 35.2439C59.4405 35.1682 59.2135 34.3728 59.2135 34.1268C59.2135 34.0821 59.3138 34.0697 59.6772 34.0697H60.1409V34.2399C60.1409 34.4621 60.3785 34.9729 60.5692 35.1608C60.9194 35.5058 61.6112 35.723 62.3541 35.7211C63.1157 35.7191 63.6609 35.5328 64.0216 35.1512C64.3481 34.806 64.4398 34.3354 64.2676 33.8887C64.1038 33.4636 63.7782 33.2709 62.9734 33.1227C62.6791 33.0685 62.3665 33.024 62.2787 33.0237C62.0835 33.0232 61.2386 32.8472 60.8365 32.7234C60.6742 32.6734 60.4403 32.5789 60.3167 32.5135C59.8317 32.2568 59.6713 32.0689 59.5112 31.5695C59.4305 31.3176 59.4172 31.2015 59.4322 30.8789C59.4492 30.5133 59.4662 30.4488 59.6499 30.0515C59.6765 29.9939 59.8121 29.8334 59.9512 29.6947Z" fill="white"/>
<path d="M114.204 29.5249C114.66 29.2565 115.196 29.0725 115.764 28.9894C116.286 28.9131 117.379 29.0602 117.774 29.2599C117.861 29.3039 117.951 29.3399 117.974 29.3399C118.096 29.3399 118.76 29.8394 118.909 30.0435C118.965 30.1197 119.033 30.2074 119.062 30.2385C119.227 30.418 119.453 31.0257 119.453 31.2896C119.453 31.3905 119.451 31.3909 118.998 31.3909H118.544L118.489 31.1502C118.458 31.0178 118.368 30.8123 118.29 30.6934C118.124 30.4441 117.696 30.0529 117.587 30.0521C117.547 30.0517 117.513 30.0373 117.513 30.0198C117.513 29.9787 117.35 29.9109 116.993 29.8034C116.572 29.6771 115.954 29.6829 115.508 29.8173C115.145 29.9267 114.772 30.1085 114.719 30.202C114.7 30.2344 114.666 30.2608 114.644 30.2608C114.595 30.2608 114.183 30.6826 114.183 30.7331C114.183 30.7527 114.136 30.8303 114.078 30.9058C114.02 30.9813 113.972 31.0637 113.972 31.089C113.972 31.1143 113.937 31.1973 113.894 31.2734C113.851 31.3495 113.773 31.593 113.721 31.8144C113.638 32.1668 113.628 32.2946 113.647 32.8399C113.667 33.4624 113.725 33.7436 113.91 34.1388C113.945 34.2114 113.972 34.2881 113.972 34.3093C113.972 34.3305 114.084 34.4991 114.22 34.6838C114.454 35.0013 114.91 35.408 115.034 35.4101C115.064 35.4106 115.137 35.4478 115.195 35.4929C115.253 35.5379 115.338 35.5753 115.385 35.5761C115.431 35.5769 115.562 35.6055 115.676 35.6398C116.079 35.7614 116.986 35.6683 117.283 35.4748C117.339 35.4387 117.406 35.4092 117.432 35.4092C117.481 35.4092 117.779 35.1938 117.893 35.0762C118.046 34.9175 118.272 34.6165 118.272 34.5714C118.272 34.5443 118.307 34.4721 118.351 34.411C118.394 34.3499 118.439 34.2528 118.451 34.1953C118.463 34.1378 118.504 33.9784 118.541 33.8412C118.579 33.704 118.609 33.5203 118.609 33.4331V33.2745H116.417V32.5629H119.495V36.2044H118.696L118.684 35.587C118.675 35.0826 118.664 34.9891 118.624 35.076C118.598 35.1345 118.546 35.2074 118.508 35.2381C118.471 35.2688 118.441 35.3156 118.441 35.3422C118.441 35.4011 117.943 35.8967 117.803 35.9768C117.444 36.1826 117.077 36.3212 116.755 36.3725C115.945 36.5012 115.146 36.3992 114.55 36.0912C114.486 36.0577 114.39 36.0083 114.338 35.9814C114.207 35.9133 114.134 35.8521 113.756 35.4929C113.574 35.3202 113.425 35.1577 113.425 35.1317C113.425 35.1058 113.396 35.0614 113.362 35.0332C113.328 35.0049 113.274 34.9319 113.242 34.8711L113.119 34.6348C112.987 34.3819 112.909 34.1696 112.81 33.7885C112.721 33.4502 112.708 33.3049 112.708 32.6834C112.708 31.9341 112.78 31.476 112.96 31.077C113.001 30.9849 113.059 30.8484 113.087 30.7735C113.116 30.6987 113.155 30.6375 113.174 30.6375C113.193 30.6375 113.221 30.5967 113.237 30.5469C113.315 30.3015 113.857 29.7295 114.204 29.5249Z" fill="white"/>
<path fill-rule="evenodd" clip-rule="evenodd" d="M47.8091 29.8213L48.0836 29.2143H49.0982L49.144 29.3294C49.2043 29.4814 49.3861 29.9037 49.4829 30.117C49.5254 30.2106 49.5601 30.3045 49.5601 30.3256C49.5601 30.3468 49.6058 30.4585 49.6617 30.574C49.8494 30.962 49.9395 31.1696 49.9395 31.2142C49.9395 31.2386 49.9672 31.3119 50.001 31.377C50.0348 31.4422 50.1219 31.6368 50.1945 31.8095C50.2671 31.9821 50.3516 32.1799 50.3822 32.249C50.4128 32.318 50.4985 32.5158 50.5726 32.6885C50.6467 32.8611 50.7433 33.0798 50.7872 33.1744C50.831 33.269 50.8669 33.3611 50.8669 33.3791C50.8669 33.3971 50.9028 33.4892 50.9467 33.5838C50.9905 33.6784 51.0867 33.8971 51.1604 34.0697C51.2341 34.2424 51.3215 34.4336 51.3546 34.4947C51.3878 34.5559 51.4149 34.6293 51.4149 34.658C51.4149 34.6867 51.4607 34.8062 51.5166 34.9236C51.5726 35.041 51.6684 35.2595 51.7296 35.4092C51.7907 35.5588 51.8611 35.7176 51.8859 35.7621C51.9107 35.8065 51.9457 35.8913 51.9637 35.9504C51.9816 36.0095 52.0098 36.0909 52.0263 36.1312C52.0538 36.1985 52.0157 36.2044 51.5543 36.2044H51.0523L50.9596 36.0149C50.9086 35.9108 50.8669 35.8045 50.8669 35.7789C50.8669 35.7532 50.8314 35.6549 50.7879 35.5602C50.7445 35.4656 50.657 35.2658 50.5935 35.1161C50.5299 34.9665 50.4424 34.764 50.399 34.6662L50.32 34.4883H46.7985L46.7399 34.6243C46.7077 34.6992 46.6158 34.9111 46.5357 35.0952C46.4556 35.2794 46.351 35.5243 46.3032 35.6394C46.2554 35.7545 46.1798 35.9287 46.1351 36.0265L46.0538 36.2044H45.5727C45.1906 36.2044 45.0917 36.1925 45.0917 36.1463C45.0917 36.1144 45.1505 35.959 45.2223 35.801C45.2517 35.7365 45.2828 35.6673 45.3113 35.6033C45.3526 35.5107 45.3885 35.4291 45.4057 35.3882C45.4348 35.3192 45.5088 35.1588 45.5702 35.0318C45.6316 34.9048 45.6819 34.7869 45.6819 34.7697C45.6819 34.7525 45.7174 34.6587 45.7608 34.5611C45.8041 34.4635 45.8911 34.2612 45.954 34.1116C46.0169 33.962 46.1022 33.7642 46.1435 33.6721C46.3795 33.1466 46.5284 32.8025 46.8589 32.0187C46.9317 31.8461 47.0177 31.6483 47.05 31.5793C47.0823 31.5102 47.1597 31.3313 47.222 31.1816C47.2843 31.032 47.3785 30.8154 47.4314 30.7003C47.4843 30.5852 47.5696 30.3874 47.621 30.2608C47.6724 30.1341 47.757 29.9364 47.8091 29.8213ZM48.7445 30.6679C48.683 30.5351 48.6327 30.3985 48.6327 30.3645C48.6327 30.2618 48.5498 30.2949 48.4994 30.4177C48.4734 30.4811 48.4074 30.6289 48.3528 30.7463C48.298 30.8637 48.2533 30.9746 48.2533 30.9928C48.2533 31.0272 48.1499 31.2614 47.9755 31.6218C47.9196 31.7373 47.8739 31.8482 47.8739 31.8683C47.8739 31.8884 47.8383 31.9823 47.7947 32.0769C47.7511 32.1716 47.6723 32.3526 47.6197 32.4792C47.5281 32.6996 47.438 32.9056 47.2533 33.3163C47.2067 33.4199 47.1551 33.5659 47.1385 33.6407L47.1084 33.7767H48.5662C49.3678 33.7767 50.0235 33.7626 50.0232 33.7453C50.0221 33.6921 49.9209 33.4285 49.8439 33.2785C49.8038 33.2001 49.7709 33.1189 49.7709 33.098C49.7709 33.077 49.7258 32.9622 49.6708 32.8428C49.6157 32.7234 49.5284 32.5221 49.4766 32.3955C49.4249 32.2688 49.3372 32.0692 49.2816 31.9518C49.2261 31.8344 49.1807 31.7083 49.1807 31.6717C49.1807 31.6351 49.1631 31.5943 49.1416 31.5811C49.1201 31.5679 49.0809 31.4868 49.0543 31.4008C49.0058 31.2436 48.9511 31.1141 48.7445 30.6679Z" fill="white"/>
<path d="M66.4641 36.2044V29.2143H71.8599V29.9259H67.3494V32.1443H71.5227V32.8977H67.3494V35.451H72.0285V36.2044H66.4641Z" fill="white"/>
<path d="M72.4079 29.9259V29.2143H78.3517V29.9259H75.8225V36.2044H74.9372V29.9259H72.4079Z" fill="white"/>
<path d="M83.1574 36.2044V29.2143L84.4852 29.2145L84.5801 29.4269C84.6322 29.5438 84.6756 29.6615 84.6764 29.6885C84.6772 29.7155 84.7144 29.8129 84.7592 29.905C84.8041 29.9971 84.8413 30.0969 84.8421 30.1267C84.8429 30.1566 84.8815 30.2591 84.9279 30.3544C84.9742 30.4497 85.0122 30.5519 85.0122 30.5816C85.0122 30.6113 85.0576 30.7349 85.1131 30.8563C85.2612 31.1801 85.3916 31.5298 85.3916 31.6031C85.3916 31.6383 85.408 31.6851 85.4282 31.7069C85.4483 31.7288 85.498 31.8409 85.5387 31.956C85.5794 32.0711 85.6483 32.2451 85.6918 32.3427C85.7353 32.4403 85.771 32.541 85.771 32.5666C85.771 32.5921 85.7986 32.6724 85.8323 32.7449C85.8661 32.8175 85.9206 32.9521 85.9537 33.0442C85.9867 33.1363 86.0647 33.3435 86.1271 33.5047C86.1895 33.6658 86.2764 33.9025 86.3204 34.0306C86.3642 34.1587 86.4292 34.3188 86.4647 34.3863C86.5002 34.4539 86.5293 34.533 86.5295 34.562C86.53 34.6628 86.7102 34.9955 86.7454 34.9606C86.7649 34.9413 86.8175 34.8224 86.8624 34.6964C86.9073 34.5704 86.9942 34.3355 87.0557 34.1744C87.1644 33.889 87.2133 33.7588 87.4263 33.1861C87.4829 33.034 87.5439 32.8858 87.5619 32.8568C87.58 32.8278 87.6097 32.7452 87.628 32.6731C87.6462 32.6009 87.7208 32.3913 87.7937 32.2071C87.8666 32.0229 87.961 31.7781 88.0034 31.663C88.0459 31.5479 88.1281 31.3313 88.186 31.1816C88.4334 30.5428 88.5174 30.3187 88.5388 30.2398C88.5514 30.1938 88.5977 30.0763 88.6417 29.9787C88.6857 29.8811 88.7218 29.7819 88.7218 29.7582C88.7218 29.7344 88.7724 29.6024 88.8343 29.4647L88.9468 29.2143H90.2394V36.2044H89.3547L89.333 30.7421L89.2406 30.9334C89.1531 31.1145 89.1037 31.2375 88.9517 31.6525C88.916 31.7503 88.8605 31.8869 88.8285 31.956C88.7746 32.0724 88.7333 32.1788 88.5929 32.5629C88.5634 32.6435 88.5154 32.7659 88.4862 32.835C88.4367 32.9521 88.4059 33.0324 88.2208 33.5256C88.1819 33.6292 88.1175 33.7781 88.0776 33.8564C88.0378 33.9348 88.0052 34.025 88.0052 34.0569C88.0052 34.0888 87.9647 34.1937 87.9152 34.2899C87.8657 34.3862 87.8106 34.5126 87.7926 34.5709C87.7746 34.629 87.7088 34.8085 87.6463 34.9697C87.5839 35.1308 87.5048 35.338 87.4706 35.4301C87.4365 35.5222 87.3821 35.654 87.3499 35.7231C87.3176 35.7921 87.2668 35.924 87.2371 36.0161L87.1829 36.1835L86.7085 36.1954C86.2488 36.2068 86.2329 36.2042 86.1949 36.1116C86.1213 35.9326 85.7629 35.0123 85.6768 34.7813C85.6296 34.6547 85.5561 34.4757 85.5136 34.3837C85.471 34.2916 85.4092 34.1409 85.3761 34.0488C85.3431 33.9567 85.2748 33.7778 85.2242 33.6512C85.0609 33.2421 84.9206 32.8808 84.8584 32.7094C84.825 32.6173 84.77 32.4826 84.7363 32.4101C84.7025 32.3375 84.6749 32.261 84.6749 32.24C84.6749 32.219 84.6275 32.1042 84.5696 31.9849C84.5116 31.8656 84.4642 31.7542 84.4642 31.7372C84.4642 31.6898 84.2956 31.2707 84.1734 31.0142L84.0637 30.784L84.042 36.2044H83.1574Z" fill="white"/>
<path fill-rule="evenodd" clip-rule="evenodd" d="M93.6419 30.1771C93.7791 29.8674 93.9397 29.4953 93.9986 29.3504L94.0538 29.2143H95.0727L95.1681 29.4341C95.2205 29.555 95.2969 29.7292 95.3378 29.8213C95.3787 29.9134 95.4509 30.0829 95.4981 30.198C95.5454 30.3131 95.6456 30.5485 95.7206 30.7212C95.7957 30.8939 95.8847 31.101 95.9183 31.1816C96.0754 31.5578 96.2007 31.844 96.2729 31.9913C96.3163 32.0798 96.3518 32.1695 96.3518 32.1906C96.3518 32.2117 96.3913 32.3182 96.4395 32.4273C96.4878 32.5364 96.5758 32.7387 96.6351 32.8768C96.6944 33.0149 96.7756 33.2033 96.8155 33.2954C96.8554 33.3875 96.9365 33.5758 96.9958 33.714C97.0551 33.8521 97.1431 34.0544 97.1914 34.1635C97.2397 34.2726 97.2791 34.3762 97.2791 34.3937C97.279 34.4112 97.315 34.5009 97.3592 34.5929C97.4034 34.685 97.492 34.8828 97.5561 35.0324C97.6203 35.1821 97.7075 35.3811 97.75 35.4747C97.7924 35.5683 97.8272 35.6652 97.8272 35.6902C97.8272 35.7151 97.8744 35.8174 97.9321 35.9176C98.0036 36.0419 98.0452 36.1131 98.0248 36.1529C97.9972 36.2067 97.8559 36.2029 97.5216 36.1953L97.0052 36.1835L96.9403 35.9952C96.9047 35.8915 96.8458 35.7409 96.8095 35.6603C96.7732 35.5797 96.7041 35.4196 96.6559 35.3045C96.6077 35.1894 96.5195 34.9846 96.46 34.8495C96.4005 34.7143 96.3518 34.5778 96.3518 34.546C96.3518 34.4979 96.0556 34.4883 94.5654 34.4883H92.779L92.687 34.708C92.6364 34.8289 92.5697 34.9843 92.5389 35.0534C92.5081 35.1224 92.4314 35.3014 92.3687 35.451C92.3059 35.6006 92.2204 35.7984 92.1787 35.8905C92.137 35.9826 92.0921 36.0909 92.0788 36.1312C92.0577 36.1953 91.9942 36.2044 91.5685 36.2044C91.2886 36.2044 91.0824 36.1875 91.0824 36.1645C91.0824 36.1067 91.1812 35.869 91.4167 35.3595C91.4879 35.2055 91.5461 35.0663 91.5461 35.0501C91.5461 35.0339 91.5818 34.9433 91.6254 34.8487C91.669 34.7541 91.7474 34.5731 91.7995 34.4464C91.8516 34.3198 91.9373 34.122 91.9897 34.0069C92.0421 33.8918 92.1271 33.6941 92.1785 33.5674C92.2299 33.4408 92.3151 33.2431 92.368 33.128C92.4209 33.0128 92.5152 32.7962 92.5775 32.6466C92.7562 32.2173 92.7911 32.138 92.9099 31.8925C92.9713 31.7655 93.0216 31.6476 93.0216 31.6305C93.0216 31.6133 93.0611 31.51 93.1093 31.4009C93.1576 31.2918 93.2459 31.0895 93.3054 30.9514C93.5254 30.4414 93.5601 30.3615 93.6419 30.1771ZM94.7769 30.7463C94.7223 30.6289 94.6563 30.4811 94.6303 30.4177C94.5809 30.2972 94.497 30.2612 94.497 30.3603C94.497 30.4126 94.4224 30.5946 94.2032 31.077C94.1614 31.1691 94.0759 31.3668 94.0132 31.5165C93.9506 31.6661 93.8631 31.8684 93.8188 31.966C93.7744 32.0636 93.7382 32.1578 93.7383 32.1753C93.7384 32.1928 93.7004 32.2872 93.654 32.385L93.4851 32.7408C93.4387 32.8386 93.4007 32.9375 93.4006 32.9605C93.4005 32.9835 93.3705 33.0589 93.3338 33.128C93.2972 33.197 93.2334 33.3383 93.1919 33.4419C93.1506 33.5455 93.1027 33.6632 93.0857 33.7035C93.0565 33.7724 93.1416 33.7767 94.5374 33.7767H96.0202L95.9924 33.6826C95.9771 33.6308 95.9284 33.5172 95.8842 33.4301C95.8399 33.3431 95.8038 33.2524 95.8038 33.2287C95.8038 33.205 95.7595 33.0879 95.7054 32.9684C95.6059 32.7486 95.5102 32.5209 95.3414 32.1025C95.2903 31.9759 95.2043 31.7781 95.1502 31.663C95.0962 31.5479 95.0383 31.4066 95.0217 31.349C95.0051 31.2915 94.9656 31.2072 94.9339 31.1618C94.9022 31.1164 94.8764 31.0524 94.8764 31.0195C94.8764 30.9866 94.8316 30.8637 94.7769 30.7463Z" fill="white"/>
<path d="M98.8389 36.2044V29.2143H99.8392L99.9596 29.3922C100.076 29.5638 100.22 29.7574 100.323 29.88C100.35 29.9123 100.438 30.0347 100.518 30.1521C100.598 30.2694 100.691 30.3937 100.723 30.4282C100.756 30.4627 100.89 30.6417 101.021 30.8258C101.152 31.01 101.283 31.1758 101.313 31.1942C101.344 31.2126 101.368 31.2457 101.368 31.2678C101.368 31.2899 101.491 31.4684 101.642 31.6645C101.793 31.8607 101.916 32.0394 101.916 32.0618C101.916 32.0842 101.93 32.1029 101.948 32.1034C101.965 32.1039 102.036 32.1886 102.106 32.2917C102.175 32.3947 102.247 32.479 102.264 32.4791C102.281 32.4791 102.296 32.4975 102.296 32.5199C102.296 32.5422 102.419 32.721 102.57 32.9171C102.72 33.1132 102.844 33.2918 102.844 33.3138C102.844 33.3359 102.869 33.369 102.899 33.3875C102.93 33.4059 103.019 33.5151 103.097 33.6302C103.175 33.7453 103.32 33.9431 103.419 34.0697C103.739 34.4788 103.77 34.5207 103.796 34.5887C103.811 34.6256 103.849 34.6557 103.881 34.6557C103.93 34.6557 103.94 34.2326 103.94 31.935V29.2143H104.783V36.2044H104.361C104.164 36.2044 104.059 36.2139 103.972 36.18C103.843 36.1301 103.752 35.9856 103.45 35.5766C103.255 35.3118 103.039 35.0259 102.97 34.9411C102.9 34.8563 102.844 34.771 102.844 34.7515C102.844 34.7321 102.81 34.6862 102.77 34.6497C102.729 34.613 102.621 34.477 102.529 34.3473C102.437 34.2177 102.347 34.1116 102.328 34.1116C102.31 34.1116 102.296 34.0863 102.296 34.0553C102.296 34.0243 102.258 33.9649 102.211 33.9232C102.165 33.8816 102.127 33.8237 102.127 33.7946C102.127 33.7656 102.113 33.7356 102.095 33.7279C102.051 33.7085 101.748 33.3297 101.748 33.2942C101.748 33.2783 101.71 33.225 101.664 33.1757C101.618 33.1264 101.399 32.8412 101.178 32.542C100.956 32.2427 100.742 31.9565 100.703 31.906C100.663 31.8556 100.598 31.7708 100.559 31.7177C100.52 31.6646 100.392 31.4931 100.275 31.3367C100.157 31.1802 100.061 31.0342 100.061 31.0123C100.061 30.9903 100.045 30.9723 100.025 30.9723C100.005 30.9723 99.9381 30.897 99.8767 30.8049C99.8153 30.7128 99.7464 30.6375 99.7236 30.6375C99.6967 30.6375 99.682 31.6199 99.682 33.4209V36.2044H98.8389Z" fill="white"/>
<path fill-rule="evenodd" clip-rule="evenodd" d="M108.45 29.4483C108.45 29.4331 108.481 29.3743 108.518 29.3175C108.584 29.2175 108.602 29.2143 109.083 29.2143H109.579L109.647 29.3567C109.684 29.435 109.715 29.5114 109.715 29.5264C109.715 29.5415 109.751 29.6328 109.794 29.7294C109.838 29.826 109.934 30.0462 110.007 30.2189C110.081 30.3916 110.158 30.5705 110.178 30.6166C110.327 30.953 110.417 31.1649 110.542 31.4746C110.622 31.6703 110.714 31.8869 110.748 31.956C110.781 32.025 110.867 32.2228 110.939 32.3955C111.01 32.5681 111.094 32.7659 111.125 32.835C111.156 32.904 111.232 33.083 111.295 33.2326C111.358 33.3822 111.445 33.58 111.49 33.6721C111.534 33.7642 111.57 33.8548 111.57 33.8735C111.57 33.8922 111.614 34.0052 111.668 34.1247C111.722 34.2441 111.809 34.4454 111.861 34.572C111.914 34.6986 111.99 34.8776 112.031 34.9697C112.071 35.0617 112.157 35.2595 112.221 35.4092C112.285 35.5588 112.374 35.7618 112.417 35.8602C112.568 36.2 112.563 36.2044 112.019 36.2044H111.54L111.467 36.0265C111.426 35.9287 111.347 35.7526 111.292 35.6352C111.236 35.5178 111.19 35.4036 111.19 35.3814C111.19 35.3593 111.152 35.2632 111.106 35.1679C111.06 35.0726 111.022 34.9755 111.022 34.952C111.022 34.9286 110.984 34.8423 110.937 34.7604C110.891 34.6784 110.853 34.5837 110.853 34.5498C110.853 34.4967 110.61 34.4883 109.069 34.4883H107.284L107.186 34.708C106.966 35.2044 106.933 35.2844 106.933 35.321C106.933 35.3421 106.897 35.4318 106.854 35.5203C106.81 35.6088 106.722 35.799 106.656 35.9428L106.538 36.2044H106.058C105.778 36.2044 105.647 36.2136 105.613 36.1606C105.579 36.1092 105.637 35.9991 105.739 35.7649L105.921 35.3464C105.961 35.2543 106.038 35.0753 106.091 34.9487C106.144 34.8221 106.22 34.6432 106.261 34.5511C106.301 34.459 106.385 34.2612 106.447 34.1116C106.51 33.962 106.606 33.7435 106.662 33.626C106.718 33.5086 106.764 33.3977 106.764 33.3795C106.764 33.3613 106.8 33.269 106.843 33.1744C106.887 33.0798 107.012 32.7952 107.121 32.542C107.23 32.2887 107.345 32.025 107.376 31.956C107.407 31.8869 107.501 31.6703 107.585 31.4746C107.668 31.2789 107.762 31.0623 107.792 30.9933C107.823 30.9242 107.901 30.7453 107.965 30.5956C108.03 30.446 108.116 30.2482 108.156 30.1561C108.345 29.7261 108.45 29.4736 108.45 29.4483ZM109.256 30.7092C109.213 30.6321 109.164 30.5091 109.147 30.4358C109.12 30.3128 108.998 30.2424 108.998 30.3497C108.998 30.3938 108.879 30.6921 108.706 31.077C108.61 31.2929 108.443 31.6849 108.323 31.9769C108.271 32.1035 108.186 32.3013 108.133 32.4164C108.081 32.5315 107.995 32.7293 107.943 32.8559C107.821 33.1539 107.799 33.2054 107.672 33.4994C107.613 33.6346 107.565 33.7524 107.565 33.761C107.565 33.7697 108.23 33.7767 109.043 33.7767H110.521L110.496 33.6826C110.469 33.5875 110.32 33.2276 110.178 32.9187C110.135 32.8266 110.087 32.7041 110.071 32.6466C110.054 32.5891 110.015 32.5048 109.983 32.4594C109.951 32.414 109.926 32.35 109.926 32.3171C109.926 32.2842 109.88 32.1613 109.825 32.0439C109.769 31.9264 109.681 31.7268 109.63 31.6002C109.578 31.4736 109.491 31.2723 109.436 31.1529C109.38 31.0334 109.335 30.9163 109.335 30.8925C109.335 30.8687 109.3 30.7862 109.256 30.7092Z" fill="white"/>
<path d="M120.97 36.2044V29.2143H126.324V29.9259H121.855V32.1443H126.029V32.8977H121.855V35.451H126.492V36.2044H120.97Z" fill="white"/>
<path d="M127.715 36.2044V29.2143L129.085 29.2146L129.159 29.3928C129.199 29.4908 129.232 29.5908 129.232 29.615C129.232 29.6392 129.27 29.737 129.317 29.8323C129.363 29.9276 129.401 30.0272 129.401 30.0536C129.401 30.08 129.429 30.161 129.462 30.2335C129.496 30.3061 129.552 30.4407 129.585 30.5328C129.619 30.6249 129.698 30.8321 129.76 30.9933C129.823 31.1544 129.908 31.3804 129.951 31.4955C129.993 31.6107 130.088 31.8555 130.16 32.0397C130.233 32.2239 130.303 32.4122 130.315 32.4582C130.327 32.5043 130.362 32.5985 130.393 32.6675C130.423 32.7366 130.476 32.8684 130.51 32.9605C130.544 33.0526 130.622 33.2598 130.685 33.4209C130.747 33.5821 130.832 33.8081 130.874 33.9232C130.916 34.0383 131.002 34.2644 131.065 34.4255C131.129 34.5867 131.201 34.7892 131.227 34.8755C131.252 34.9618 131.284 35.0324 131.296 35.0324C131.322 35.0324 131.401 34.8581 131.447 34.6976C131.464 34.64 131.511 34.5176 131.552 34.4255C131.593 34.3334 131.637 34.2204 131.65 34.1744C131.662 34.1283 131.721 33.9636 131.781 33.8084C131.939 33.3979 132.093 32.9905 132.181 32.7513C132.224 32.6361 132.306 32.4195 132.364 32.2699C132.421 32.1202 132.493 31.9319 132.523 31.8513C132.834 31.0118 132.936 30.741 133.027 30.5119C133.068 30.4083 133.154 30.1823 133.218 30.0096C133.283 29.837 133.37 29.6132 133.413 29.5125C133.455 29.4117 133.49 29.3034 133.49 29.2718C133.49 29.2256 133.618 29.2143 134.143 29.2143H134.797V36.2044H133.954L133.943 33.4314C133.938 31.9063 133.917 30.6961 133.898 30.7421C133.845 30.8671 133.679 31.2946 133.573 31.5793C133.521 31.7174 133.444 31.9057 133.401 31.9978C133.359 32.0899 133.297 32.2406 133.264 32.3327C133.096 32.7988 133.013 33.0061 132.979 33.0421C132.959 33.064 132.942 33.1164 132.942 33.1586C132.942 33.2009 132.895 33.3283 132.837 33.4419C132.779 33.5554 132.731 33.6725 132.73 33.7021C132.729 33.7317 132.692 33.8312 132.647 33.9232C132.602 34.0153 132.565 34.1148 132.564 34.1444C132.563 34.1739 132.515 34.291 132.457 34.4046C132.399 34.5181 132.351 34.6352 132.35 34.6648C132.35 34.6944 132.312 34.7939 132.268 34.8859C132.223 34.978 132.185 35.0764 132.185 35.1046C132.184 35.1327 132.147 35.2363 132.104 35.3348C131.917 35.7554 131.806 36.0222 131.782 36.1102C131.757 36.2005 131.737 36.2044 131.3 36.2044C130.809 36.2044 130.779 36.1924 130.726 35.974C130.71 35.905 130.658 35.7738 130.612 35.6824C130.566 35.591 130.512 35.4686 130.494 35.4103C130.43 35.2163 130.121 34.4132 130.026 34.1953C129.991 34.1147 129.919 33.9358 129.867 33.7977C129.733 33.4459 129.53 32.9346 129.484 32.835C129.463 32.7889 129.418 32.6759 129.385 32.5838C129.304 32.3591 129.136 31.9241 129.022 31.642C128.971 31.5154 128.901 31.3365 128.868 31.2444C128.834 31.1523 128.775 31.011 128.735 30.9305C128.667 30.7906 128.663 30.9066 128.652 33.4942L128.642 36.2044H127.715Z" fill="white"/>
<path d="M136.483 36.2044V29.2143H141.879V29.9259H137.41V32.1443H141.584V32.8977H137.41V35.451H142.047V36.2044H136.483Z" fill="white"/>
<path d="M143.27 36.2044V29.2143H144.235L144.363 29.3713C144.433 29.4577 144.563 29.626 144.65 29.7454C144.911 30.102 144.942 30.1442 145.164 30.4406C145.282 30.597 145.378 30.743 145.378 30.765C145.378 30.7869 145.393 30.8049 145.413 30.8049C145.432 30.8049 145.521 30.9132 145.611 31.0456C145.701 31.178 145.8 31.3145 145.83 31.349C145.897 31.4254 146.078 31.6684 146.221 31.8746C146.279 31.9584 146.359 32.0575 146.4 32.0949C146.44 32.1323 146.474 32.1774 146.474 32.195C146.474 32.2126 146.501 32.2603 146.534 32.3008C146.729 32.5405 147.022 32.9499 147.022 32.9837C147.022 33.0055 147.036 33.0234 147.053 33.0234C147.071 33.0234 147.142 33.1078 147.211 33.2108C147.281 33.3139 147.352 33.3986 147.369 33.3991C147.387 33.3996 147.401 33.426 147.401 33.4577C147.401 33.4894 147.431 33.5404 147.469 33.5711C147.535 33.6255 147.837 34.0376 147.935 34.2059C147.962 34.2524 148 34.3019 148.021 34.3161C148.042 34.3302 148.102 34.403 148.154 34.4778C148.207 34.5527 148.268 34.6139 148.289 34.6139C148.313 34.6139 148.328 33.5545 148.328 31.9141V29.2143H149.214V36.2044H148.343L148.2 36.0056C148.122 35.8963 148.038 35.7851 148.014 35.7585C147.99 35.732 147.894 35.6019 147.802 35.4694C147.709 35.3369 147.581 35.1678 147.517 35.0935C147.453 35.0193 147.401 34.947 147.401 34.9327C147.401 34.9185 147.368 34.871 147.327 34.8271C147.287 34.7833 147.187 34.6561 147.106 34.5446C147.025 34.433 146.935 34.3267 146.906 34.3083C146.877 34.2899 146.853 34.2568 146.853 34.2347C146.853 34.2126 146.73 34.0341 146.579 33.838C146.428 33.6418 146.305 33.4631 146.305 33.4407C146.305 33.4183 146.29 33.4 146.272 33.4C146.254 33.4 146.164 33.2938 146.072 33.164C145.98 33.0342 145.871 32.8929 145.831 32.85C145.79 32.8072 145.757 32.7633 145.757 32.7525C145.757 32.7417 145.638 32.5792 145.494 32.3915C145.349 32.2038 145.211 32.0211 145.188 31.9855C145.165 31.9499 145.123 31.891 145.095 31.8546C145.067 31.8183 144.987 31.7132 144.917 31.6211C144.847 31.529 144.761 31.416 144.726 31.37C144.69 31.3239 144.554 31.1403 144.422 30.9619C144.291 30.7834 144.168 30.6375 144.148 30.6375C144.129 30.6375 144.113 31.89 144.113 33.4209V36.2044H143.27Z" fill="white"/>
<path d="M150.015 29.9259V29.2143H155.958V29.9259H153.471V36.2044H152.586V29.9259H150.015Z" fill="white"/>
<path d="M161.101 36.2044V29.2143H162.029V35.451H166.244V36.2044H161.101Z" fill="white"/>
<path fill-rule="evenodd" clip-rule="evenodd" d="M167.129 36.2044V29.2143H168.923C170.838 29.2143 171.067 29.2339 171.514 29.4364C172.379 29.8283 172.843 30.7693 172.692 31.8231C172.662 32.0343 172.597 32.293 172.549 32.3978C172.321 32.8887 171.919 33.2505 171.363 33.467L171.071 33.5804L168.057 33.6186V36.2044H167.129ZM170.925 30.0427C170.843 30.0219 170.709 29.9876 170.628 29.9664C170.547 29.9453 169.935 29.9275 169.269 29.9269L168.057 29.9259V32.8977L169.29 32.8963C170.783 32.8945 171.09 32.8445 171.395 32.5524C171.437 32.5122 171.49 32.4792 171.514 32.4792C171.537 32.4792 171.556 32.4569 171.556 32.4295C171.556 32.4022 171.591 32.341 171.635 32.2935C171.776 32.1394 171.905 31.7269 171.905 31.4327C171.905 31.1248 171.779 30.7448 171.602 30.5201C171.455 30.3338 171.108 30.089 170.925 30.0427Z" fill="white"/>
</svg>
