<svg width="69" height="69" viewBox="0 0 69 69" fill="none" xmlns="http://www.w3.org/2000/svg">
<path fill-rule="evenodd" clip-rule="evenodd" d="M30.1875 0.174028C30.7912 0.100829 31.3205 0.0288631 31.3636 0.014035C31.4068 -0.000709414 32.8887 -0.00447395 34.6568 0.00579487C37.2782 0.0210203 38.0525 0.0507602 38.8517 0.166959C39.9487 0.326554 41.5306 0.623053 42.3017 0.81379C42.582 0.883141 42.9525 0.965229 43.125 0.996203C43.4118 1.04767 43.9612 1.21158 44.8892 1.52236C45.0833 1.5874 45.4008 1.68689 45.5949 1.74346C45.9189 1.83802 46.1673 1.92895 47.3927 2.40144C47.6269 2.49175 47.8545 2.60167 47.8985 2.6457C47.9425 2.68978 48.0257 2.7258 48.0832 2.7258C48.1832 2.7258 49.4059 3.27471 49.9858 3.57991C51.3378 4.29147 52.0603 4.70285 52.0897 4.7777C52.1042 4.81426 52.1835 4.84423 52.2662 4.84423C52.3489 4.84423 52.4165 4.87397 52.4165 4.91038C52.4165 4.94671 52.5753 5.0582 52.7693 5.15807C52.9634 5.25795 53.1222 5.36944 53.1222 5.40577C53.1222 5.44218 53.1542 5.47192 53.1932 5.47192C53.2605 5.47192 54.4501 6.24255 54.5335 6.34015C54.5551 6.36535 54.7933 6.53474 55.0628 6.71646C55.3324 6.89824 55.5528 7.08099 55.5528 7.12249C55.5528 7.16408 55.5903 7.19805 55.636 7.19805C55.7169 7.19805 56.7723 8.04542 57.3893 8.60571C57.8218 8.99848 60.0047 11.1816 60.339 11.5558C60.9999 12.2954 61.7472 13.2266 61.7472 13.3104C61.7472 13.3604 61.7967 13.4204 61.8573 13.4437C61.9179 13.467 62.0994 13.6865 62.2604 13.9316C62.4215 14.1766 62.6038 14.4301 62.6655 14.4949C62.8281 14.6655 63.4722 15.6737 63.4722 15.7575C63.4722 15.7809 63.4827 15.8017 63.4989 15.8147C63.5099 15.8235 63.5235 15.8287 63.5381 15.8287C63.5744 15.8287 63.6989 15.9964 63.8149 16.2014C64.0452 16.6087 64.151 16.7851 64.344 17.0838C64.4624 17.267 64.9844 18.2326 65.4045 19.0456C65.5048 19.2398 65.6905 19.6282 65.8171 19.9087C65.9438 20.1892 66.1736 20.6967 66.3279 21.0365C66.4823 21.3763 66.6085 21.6888 66.6085 21.7308C66.6085 21.7728 66.6596 21.9185 66.722 22.0545C66.9423 22.5344 67.3817 23.858 67.8069 25.3224C68.206 26.6972 68.5231 28.3292 68.8205 30.5401C68.9774 31.7062 69 32.2042 69 34.5023C69 36.8004 68.9774 37.2984 68.8205 38.4646C68.5231 40.6755 68.206 42.3074 67.8069 43.6822C67.3817 45.1466 66.9423 46.4702 66.722 46.9502C66.6596 47.0862 66.6085 47.2318 66.6085 47.2738C66.6085 47.3159 66.4823 47.6283 66.3279 47.9681C66.2455 48.1496 66.1415 48.3789 66.0433 48.596C65.9575 48.7853 65.8761 48.9653 65.8171 49.096C65.6905 49.3765 65.5048 49.7649 65.4045 49.959C64.9844 50.7721 64.4624 51.7377 64.344 51.9209C64.151 52.2196 64.0452 52.396 63.8149 52.8032C63.6989 53.0082 63.5744 53.1759 63.5381 53.1759C63.5018 53.1759 63.4722 53.2079 63.4722 53.2471C63.4722 53.331 62.8281 54.3391 62.6655 54.5098C62.6038 54.5745 62.4198 54.8304 62.2567 55.0786C62.0937 55.3268 61.9288 55.5298 61.8904 55.5298C61.8521 55.5298 61.7984 55.5915 61.7712 55.667C61.7237 55.7988 60.9203 56.7984 60.339 57.4489C60.0047 57.8231 57.8218 60.0062 57.3893 60.3989C56.7723 60.9592 55.7169 61.8066 55.636 61.8066C55.611 61.8066 55.5886 61.8167 55.5733 61.8326C55.5606 61.8459 55.5528 61.8633 55.5528 61.8822C55.5528 61.9237 55.3324 62.1064 55.0628 62.2882C54.7933 62.4699 54.5551 62.6393 54.5335 62.6645C54.4501 62.7621 53.2605 63.5327 53.1932 63.5327C53.1542 63.5327 53.1222 63.5625 53.1222 63.5989C53.1222 63.6352 52.9634 63.7467 52.7693 63.8466C52.5753 63.9464 52.4165 64.0579 52.4165 64.0943C52.4165 64.1307 52.3489 64.1604 52.2662 64.1604C52.1835 64.1604 52.1042 64.1904 52.0897 64.2269C52.0603 64.3018 51.3378 64.7132 49.9858 65.4247C49.4059 65.7299 48.1832 66.2789 48.0832 66.2789C48.0257 66.2789 47.9425 66.3149 47.8985 66.359C47.8545 66.403 47.6269 66.5129 47.3927 66.6032C46.1673 67.0757 45.9189 67.1666 45.5949 67.2612C45.5584 67.2718 45.5176 67.284 45.4741 67.2971C45.2859 67.3539 45.0468 67.4295 44.8892 67.4823C43.9612 67.7931 43.4118 67.957 43.125 68.0085C42.9525 68.0394 42.582 68.1215 42.3017 68.1909C41.4547 68.4003 39.8942 68.6879 38.7733 68.841C37.2227 69.053 31.6989 69.053 30.1483 68.841C29.0891 68.6964 27.578 68.4171 26.6199 68.1891C26.3396 68.1224 25.9579 68.0366 25.7717 67.9985C25.4442 67.9315 24.7617 67.7283 24.0324 67.4805C23.8383 67.4147 23.5737 67.3323 23.4443 67.2976C23.0875 67.2018 22.3086 66.9167 21.9358 66.7454C21.753 66.6614 21.5589 66.5925 21.5046 66.5924C21.4501 66.5922 21.2902 66.5216 21.149 66.4355C21.0078 66.3493 20.8607 66.2789 20.8221 66.2789C20.6744 66.2789 19.0743 65.5038 18.0341 64.9285C17.8185 64.8092 17.5538 64.6688 17.446 64.6164C17.3382 64.564 17.1446 64.4488 17.0159 64.3604C16.7851 64.202 16.5878 64.087 16.1801 63.8735C16.0661 63.8137 15.9294 63.7127 15.8765 63.6488C15.8236 63.585 15.7528 63.5327 15.7193 63.5327C15.6121 63.5327 13.8201 62.2874 13.7739 62.1808C13.7595 62.1476 13.7103 62.1204 13.6645 62.1204C13.6187 62.1204 13.507 62.0472 13.4162 61.9577C13.3254 61.8682 12.9776 61.5825 12.6435 61.323C12.3092 61.0633 12.0358 60.8189 12.0358 60.7795C12.0358 60.7403 12.0001 60.7081 11.9566 60.7081C11.8524 60.7081 11.3879 60.2776 10.0449 58.9364C8.73031 57.6235 8.27216 57.1285 8.27216 57.0213C8.27216 56.9777 8.24002 56.9421 8.20081 56.9421C8.16153 56.9421 7.91721 56.6685 7.65774 56.334C7.39837 55.9996 7.11289 55.6516 7.02342 55.5608C6.93396 55.4699 6.8608 55.3732 6.8608 55.3458C6.8608 55.3185 6.80937 55.234 6.74655 55.1579C6.33193 54.6565 4.98376 52.6363 4.8478 52.3129C4.82059 52.2481 4.75435 52.1422 4.70055 52.0775C4.57972 51.932 4.17865 51.2155 3.55844 50.0375C3.31811 49.581 2.70511 48.2251 2.70511 48.15C2.70511 48.1114 2.63471 47.9642 2.54861 47.8229C2.46251 47.6816 2.39196 47.5215 2.39179 47.467C2.39164 47.4127 2.32279 47.2185 2.2389 47.0355C2.06773 46.6624 1.78278 45.8831 1.68705 45.526C1.65232 45.3966 1.56921 45.1318 1.5024 44.9376C1.27101 44.2656 0.909458 42.9502 0.747624 42.1915C0.0728502 39.0275 0 38.2786 0 34.5023C0 30.7261 0.0728502 29.9771 0.747624 26.8132C0.909458 26.0545 1.27101 24.739 1.5024 24.0671C1.56921 23.8729 1.65232 23.6081 1.68705 23.4786C1.78278 23.1215 2.06773 22.3422 2.2389 21.9691C2.32279 21.7861 2.39164 21.5919 2.39179 21.5376C2.39196 21.4831 2.46251 21.3231 2.54861 21.1818C2.63471 21.0405 2.70511 20.8933 2.70511 20.8547C2.70511 20.7796 3.31811 19.4237 3.55844 18.9671C4.17865 17.7891 4.57972 17.0726 4.70055 16.9272C4.75435 16.8624 4.82059 16.7565 4.8478 16.6918C4.89735 16.5738 4.98462 16.4321 5.56705 15.5233C5.88524 15.0268 6.53799 14.0989 6.74655 13.8467C6.80937 13.7707 6.8608 13.6861 6.8608 13.6588C6.8608 13.6314 6.93396 13.5347 7.02342 13.4439C7.11289 13.353 7.39837 13.0051 7.65774 12.6707C7.91721 12.3363 8.16153 12.0626 8.20081 12.0626C8.24002 12.0626 8.27216 12.0269 8.27216 11.9834C8.27216 11.8761 8.73031 11.3812 10.0449 10.0682C11.3879 8.72701 11.8524 8.2965 11.9566 8.2965C12.0001 8.2965 12.0358 8.26433 12.0358 8.2251C12.0358 8.18578 12.3093 7.94131 12.6435 7.68169C12.9777 7.42212 13.3254 7.13646 13.4162 7.04692C13.507 6.95741 13.6187 6.88421 13.6645 6.88421C13.7103 6.88421 13.7595 6.85706 13.7739 6.82387C13.8201 6.71723 15.6121 5.47192 15.7193 5.47192C15.7528 5.47192 15.8236 5.41966 15.8765 5.35587C15.9294 5.292 16.0661 5.19094 16.1801 5.13117C16.5878 4.91768 16.7851 4.80265 17.0159 4.64423C17.1446 4.5558 17.3382 4.44063 17.446 4.38822C17.5538 4.33589 17.8185 4.19543 18.0341 4.07618C19.0743 3.50083 20.6744 2.7258 20.8221 2.7258C20.8607 2.7258 21.0078 2.65534 21.149 2.56919C21.2902 2.48305 21.4501 2.41242 21.5046 2.41228C21.5589 2.41211 21.753 2.34322 21.9358 2.25927C22.3086 2.08798 23.0875 1.80286 23.4443 1.70707C23.5165 1.68769 23.6308 1.65349 23.7514 1.61562C23.847 1.58558 23.9466 1.55323 24.0324 1.5241C24.7617 1.27631 25.4442 1.0731 25.7717 1.0061C25.9579 0.968052 26.3396 0.882284 26.6199 0.815589C27.6847 0.562173 29.1296 0.302315 30.1875 0.174028ZM36.3783 43.6321C36.2078 43.3672 35.8039 42.7582 35.4809 42.2786C35.1578 41.7992 34.8579 41.4079 34.8144 41.4093C34.7247 41.4121 34.4608 41.7508 34.4608 41.8632C34.4608 41.9037 34.4042 41.9838 34.335 42.0413C34.2659 42.0988 34.1775 42.2178 34.1387 42.3059C34.0999 42.394 33.9448 42.6249 33.794 42.8191C33.6432 43.0134 33.4951 43.2252 33.4648 43.2899C33.3543 43.5259 32.9375 44.1154 32.8381 44.1765C32.7818 44.211 32.7358 44.271 32.7358 44.3099C32.7358 44.3755 32.2879 45.0851 32.191 45.1729C32.1787 45.1841 32.1582 45.2098 32.1354 45.2421C32.1139 45.2724 32.0902 45.3085 32.0693 45.3435C31.9439 45.5537 30.5882 47.562 30.5425 47.6052C30.4379 47.7043 29.9915 48.4023 29.9915 48.4667C29.9915 48.5064 29.9474 48.5672 29.8935 48.6017C29.7761 48.6768 29.2858 49.3863 29.2858 49.481C29.2858 49.5175 29.2292 49.5945 29.16 49.6519C29.0909 49.7095 29.0025 49.8285 28.9637 49.9166C28.9249 50.0047 28.7698 50.2356 28.619 50.4298C28.4682 50.624 28.3201 50.8358 28.2898 50.9006C28.1909 51.1119 27.8031 51.6602 27.6805 51.7619C27.6369 51.7981 27.5986 51.8427 27.5776 51.8791C27.5669 51.8977 27.5608 51.9141 27.5608 51.9262C27.5608 51.9902 27.103 52.7071 27.0133 52.7836C26.988 52.8052 26.8295 53.0347 26.661 53.2936C26.4925 53.5526 26.3261 53.7762 26.2912 53.7905C26.2564 53.8049 26.2278 53.8462 26.2278 53.8823C26.2278 53.9185 26.0514 54.2042 25.8358 54.5174C25.6202 54.8307 25.4438 55.116 25.4438 55.1514C25.4438 55.1869 29.6602 55.2159 34.8136 55.2159C42.72 55.2159 44.1835 55.199 44.1835 55.1078C44.1835 55.0484 44.1354 54.9598 44.0766 54.9109C44.0178 54.8621 43.8349 54.6018 43.6703 54.3325C43.5056 54.0632 43.3503 53.8252 43.3253 53.8036C43.3002 53.7821 43.139 53.5526 42.9671 53.2936C42.7952 53.0347 42.6369 52.8052 42.6153 52.7836C42.5938 52.762 42.4352 52.5326 42.2629 52.2737C42.0906 52.0147 41.9142 51.7628 41.8709 51.7139C41.804 51.6384 41.5022 51.1779 41.1064 50.5475C41.0523 50.4612 40.9868 50.3729 40.9608 50.3514C40.9198 50.3171 40.6232 49.8814 40.3791 49.4967C40.2983 49.3694 39.9313 48.8234 39.7142 48.5075C39.6495 48.4134 39.4943 48.1808 39.3693 47.9905C39.2442 47.8001 39.1207 47.6268 39.0949 47.6052C39.086 47.5979 39.0735 47.584 39.0593 47.566C39.0318 47.5314 38.9977 47.4817 38.9693 47.4339C38.8516 47.2355 37.4887 45.2182 37.4418 45.1729C37.3356 45.0705 36.8915 44.3752 36.8915 44.3114C36.8915 44.2718 36.8458 44.211 36.7899 44.1765C36.734 44.142 36.5488 43.8971 36.3783 43.6321ZM15.454 35.5303L34.7136 11.9727L54.2299 35.5303H15.454Z" fill="white"/>
</svg>
