<svg width="80" height="47" viewBox="0 0 80 47" fill="none" xmlns="http://www.w3.org/2000/svg">
<path fill-rule="evenodd" clip-rule="evenodd" d="M11.3179 11.5894C5.09298 17.9635 0 23.2185 0 23.2673C0 23.316 5.10469 28.5843 11.3438 34.9747L22.6875 46.5934L22.6891 37.9065C22.69 33.1286 22.7249 29.169 22.7668 29.1072C22.8086 29.0455 24.4271 27.7809 26.3633 26.2969C28.2995 24.8129 29.9544 23.5395 30.0409 23.467C30.1274 23.3944 30.3439 23.2274 30.5218 23.0958C30.6998 22.9642 31.1194 22.6455 31.4542 22.3877C31.789 22.1299 32.5283 21.5623 33.0971 21.1264C33.6659 20.6905 34.2719 20.2219 34.4439 20.0849C34.6157 19.948 36.1317 18.7829 37.8125 17.4958C39.4933 16.2088 41.908 14.3591 43.1783 13.3853L45.488 11.6149L34.0886 11.588L22.6893 11.5609L22.6625 5.78047L22.6357 0L11.3179 11.5894ZM57.3715 8.08869C57.3886 12.5362 57.3741 16.4656 57.3392 16.8206L57.2757 17.466L45.8936 26.2062L34.5116 34.9464L45.8938 34.9733L57.276 35.0003L57.3389 35.4505C57.3736 35.6982 57.388 38.299 57.3711 41.2299C57.3542 44.161 57.3422 46.559 57.3422 46.559C57.3422 46.559 62.4478 41.3329 68.686 34.9455C74.924 28.558 80.0153 23.2965 80 23.2533C79.9846 23.21 74.8843 17.9609 68.6657 11.5884C62.4473 5.21595 57.3551 0.00222682 57.3499 0.00222682C57.3446 0.00222682 57.3543 3.64108 57.3715 8.08869Z" fill="white"/>
</svg>
