<svg width="162" height="31" viewBox="0 0 162 31" fill="none" xmlns="http://www.w3.org/2000/svg">
<path fill-rule="evenodd" clip-rule="evenodd" d="M66.1366 0.0318405C66.1193 0.0493305 65.8476 0.0879547 65.5328 0.117665C65.218 0.147376 64.7613 0.209822 64.5179 0.256462C64.2746 0.303102 63.951 0.375249 63.7989 0.416732C63.6468 0.458215 63.3606 0.535856 63.1629 0.589223C62.9651 0.642591 62.4922 0.800061 62.112 0.93914C61.7317 1.07828 61.0475 1.37947 60.5915 1.60858C60.1355 1.83763 59.5382 2.16793 59.2641 2.34249C58.99 2.51705 58.7409 2.68013 58.7105 2.70485C58.6801 2.72962 58.4305 2.91944 58.1558 3.12674C57.8812 3.33404 57.5701 3.57806 57.4645 3.66905C57.3588 3.75997 56.9349 4.1762 56.5223 4.594C56.1097 5.01174 55.6138 5.55533 55.4203 5.80199C55.2268 6.04864 54.8496 6.58758 54.5821 6.99961C54.3145 7.41164 53.9128 8.11796 53.6894 8.56923C53.4659 9.0205 53.238 9.51582 53.1828 9.66998C53.1277 9.82414 53.0506 10.0259 53.0115 10.1184C52.9725 10.2109 52.8885 10.4444 52.8249 10.6372C52.7614 10.83 52.7095 11.0331 52.7095 11.0885C52.7095 11.1439 52.6878 11.2131 52.6613 11.2424C52.6348 11.2717 52.5587 11.5479 52.4921 11.8562C52.4256 12.1646 52.3482 12.5205 52.3202 12.6472C52.2922 12.774 52.219 13.334 52.1575 13.8919C52.096 14.4498 52.0466 15.1533 52.0476 15.4553C52.0486 15.7574 52.0729 16.2568 52.1016 16.5651C52.1302 16.8734 52.1787 17.3401 52.2091 17.6022C52.2396 17.8642 52.2889 18.1922 52.3186 18.3309C52.3483 18.4697 52.4249 18.8228 52.4887 19.1157C52.5526 19.4086 52.6252 19.687 52.6501 19.7342C52.675 19.7815 52.7129 19.9076 52.7343 20.0145C52.7557 20.1214 52.8117 20.3224 52.8587 20.4611C52.9057 20.5999 52.9785 20.7929 53.0204 20.89C53.0623 20.9872 53.0966 21.0857 53.0966 21.1088C53.0966 21.132 53.1703 21.3091 53.2604 21.5023C53.3504 21.6955 53.4403 21.9186 53.4599 21.9982C53.4796 22.0778 53.518 22.1429 53.5451 22.1429C53.5722 22.1429 53.5944 22.1883 53.5944 22.2438C53.5944 22.2993 53.6164 22.3686 53.6433 22.3979C53.6703 22.4272 53.7974 22.653 53.9258 22.8996C54.0541 23.1463 54.3661 23.6634 54.619 24.0488C54.8719 24.4342 55.2489 24.9639 55.4566 25.2258C55.6644 25.4878 56.158 26.0333 56.5534 26.438C56.9489 26.8428 57.5224 27.3727 57.8279 27.6155C58.1333 27.8583 58.5938 28.1988 58.8511 28.3721C59.1084 28.5454 59.4558 28.7741 59.6231 28.8803C59.7904 28.9865 60.1886 29.2009 60.508 29.3567C60.8274 29.5126 61.1759 29.6803 61.2823 29.7295C61.3888 29.7787 61.6999 29.9047 61.9737 30.0096C62.2475 30.1145 62.683 30.2642 62.9416 30.3423C63.2002 30.4204 63.6606 30.5389 63.9648 30.6057C64.269 30.6726 64.6299 30.7503 64.7668 30.7786C64.9037 30.8069 65.4015 30.8682 65.873 30.9148C66.3445 30.9615 67.001 30.9997 67.3318 30.9998C67.6627 30.9999 68.3471 30.9616 68.8528 30.9147C69.3585 30.8677 69.8295 30.8046 69.8993 30.7745C69.9692 30.7444 70.0891 30.7197 70.1657 30.7197C70.2423 30.7197 70.5336 30.6671 70.813 30.6029C71.0923 30.5386 71.3707 30.4649 71.4315 30.439C71.4924 30.4132 71.7288 30.3382 71.957 30.2724C72.1851 30.2066 72.4502 30.1163 72.5461 30.0718C72.6419 30.0273 72.7445 29.991 72.774 29.991C72.8035 29.991 73.0113 29.9098 73.2358 29.8107C73.4602 29.7116 73.9741 29.461 74.3777 29.254C74.7813 29.0469 75.4159 28.6702 75.7881 28.4168C76.1602 28.1634 76.6513 27.8035 76.8795 27.6171C77.1076 27.4307 77.4057 27.176 77.5419 27.0509C77.6781 26.9259 77.987 26.6219 78.2283 26.3752C78.4696 26.1286 78.8529 25.6997 79.0801 25.4222C79.3073 25.1448 79.602 24.7632 79.735 24.5743C79.868 24.3853 79.976 24.2088 79.9751 24.1819C79.9741 24.1549 79.9181 24.093 79.8506 24.0442C79.7831 23.9954 78.9937 23.4545 78.0963 22.8422C77.1989 22.2299 76.2655 21.596 76.0222 21.4336C75.7788 21.2711 75.4553 21.0479 75.3032 20.9375C75.0374 20.7446 75.0234 20.7409 74.9437 20.8415C74.898 20.8991 74.8109 21.017 74.7501 21.1037C74.6892 21.1903 74.5118 21.4154 74.3558 21.6039C74.1998 21.7924 73.9136 22.0979 73.7198 22.2827C73.5259 22.4675 73.1662 22.7726 72.9203 22.9606C72.6744 23.1486 72.2552 23.4326 71.9887 23.5916C71.7222 23.7506 71.4962 23.8807 71.4866 23.8807C71.477 23.8807 71.283 23.9689 71.0557 24.0769C70.8283 24.1848 70.6143 24.2731 70.5799 24.2731C70.5456 24.2731 70.4742 24.2965 70.4214 24.3251C70.3686 24.3538 70.1511 24.4286 69.9382 24.4912C69.7253 24.5539 69.3644 24.6503 69.1362 24.7054C68.7977 24.7872 68.4771 24.8056 67.394 24.8056C66.3078 24.8056 65.9811 24.7867 65.5965 24.7017C65.3379 24.6446 64.8525 24.5099 64.5179 24.4023C64.1833 24.2947 63.6357 24.0723 63.3011 23.9081C62.9665 23.7439 62.4884 23.4692 62.2385 23.2979C61.9888 23.1265 61.7301 22.9416 61.6638 22.8869C61.5974 22.8323 61.35 22.6109 61.114 22.3951C60.878 22.1793 60.5249 21.8135 60.3294 21.5823C60.1339 21.351 59.8122 20.9096 59.6145 20.6013C59.4169 20.2929 59.1796 19.8767 59.0871 19.6763C58.9947 19.4759 58.8808 19.2236 58.8339 19.1157C58.7871 19.0078 58.6742 18.6925 58.5831 18.415C58.492 18.1375 58.3775 17.7337 58.3285 17.5176C58.2796 17.3015 58.2009 16.7339 58.1536 16.2563C58.1063 15.7787 58.0808 15.3122 58.097 15.2197C58.1131 15.1272 58.1532 14.7741 58.1862 14.4349C58.2191 14.0958 58.2957 13.6165 58.3563 13.3698C58.4169 13.1231 58.5045 12.7952 58.551 12.641C58.5974 12.4869 58.6611 12.2977 58.6926 12.2206C58.724 12.1435 58.7806 12.0048 58.8183 11.9123C58.8559 11.8198 58.9937 11.5236 59.1245 11.2541C59.2552 10.9845 59.4956 10.561 59.6585 10.3127C59.8215 10.0646 59.986 9.82229 60.0241 9.77442C60.0621 9.72649 60.2052 9.55775 60.3421 9.39939C60.479 9.24103 60.6917 9.01007 60.8148 8.88618C60.9378 8.76229 61.1992 8.52074 61.3955 8.34937C61.5918 8.178 61.8868 7.94206 62.051 7.82501C62.2151 7.70796 62.5262 7.50632 62.7423 7.37682C62.9584 7.24733 63.3468 7.04973 63.6053 6.93772C63.8639 6.82566 64.306 6.6567 64.5879 6.5623C64.8697 6.46784 65.1514 6.3906 65.2138 6.3906C65.2762 6.3906 65.3713 6.36666 65.4252 6.3374C65.4791 6.30819 65.7326 6.25628 65.9885 6.22209C66.2444 6.18789 66.7275 6.14602 67.0621 6.12898C67.4692 6.10829 67.9162 6.12875 68.4128 6.19086C68.8211 6.24193 69.1738 6.29541 69.1967 6.30976C69.2196 6.32406 69.3709 6.36066 69.533 6.39099C69.695 6.42137 69.8774 6.46751 69.9382 6.49358C69.999 6.51959 70.223 6.59829 70.436 6.66842C70.6489 6.73861 71.0673 6.91833 71.3657 7.06783C71.6642 7.21734 72.1495 7.50105 72.4443 7.69831C72.7391 7.89558 73.1827 8.23703 73.4302 8.45712C73.6777 8.6772 74.0386 9.04309 74.2322 9.27018C74.4258 9.49727 74.622 9.73058 74.6684 9.78865C74.7147 9.84673 74.8931 10.1086 75.0647 10.3707C75.2364 10.6328 75.5158 11.1416 75.6856 11.5014C75.8554 11.8613 76.0006 12.2145 76.0083 12.2863L76.0222 12.4168L70.5604 12.4311L65.0987 12.4454V15.5003V18.5552H73.8721H82.6455L82.6175 16.2428C82.5958 14.4564 82.5685 13.8028 82.4975 13.3698C82.4469 13.0615 82.3709 12.6453 82.3286 12.4448C82.2863 12.2444 82.236 11.9922 82.2169 11.8843C82.1978 11.7764 82.1608 11.625 82.1345 11.5479C82.1082 11.4708 82.033 11.2186 81.9671 10.9873C81.9014 10.7561 81.8071 10.4534 81.7577 10.3146C81.7084 10.1759 81.6361 9.99932 81.5971 9.92224C81.558 9.84516 81.526 9.7502 81.5258 9.71124C81.5256 9.67228 81.5028 9.5966 81.4752 9.54307C81.4475 9.48953 81.2565 9.09259 81.0508 8.66094C80.845 8.22929 80.5134 7.61126 80.3139 7.28752C80.1145 6.96379 79.8279 6.53495 79.6771 6.33454C79.5262 6.13413 79.2285 5.75764 79.0153 5.49787C78.8021 5.23816 78.3889 4.78409 78.0969 4.48883C77.805 4.19363 77.3183 3.75027 77.0154 3.50362C76.7125 3.25696 76.4564 3.03621 76.4462 3.01311C76.4361 2.99001 76.4039 2.97107 76.3747 2.97107C76.3455 2.97107 76.192 2.87229 76.0336 2.75154C75.8752 2.63079 75.4527 2.35331 75.0947 2.13491C74.7367 1.91651 74.4342 1.73779 74.4224 1.73779C74.4107 1.73779 74.1436 1.61592 73.8289 1.46698C73.5142 1.31803 73.1447 1.15132 73.0079 1.0965C72.871 1.04167 72.6967 0.971594 72.6207 0.940762C72.5446 0.909986 72.3704 0.848377 72.2335 0.803923C72.0966 0.759469 71.8602 0.685308 71.7081 0.639116C71.556 0.592924 71.2822 0.516966 71.0997 0.470326C70.9172 0.423686 70.5936 0.348793 70.3807 0.303891C70.1677 0.258988 69.7944 0.197433 69.551 0.167106C69.3077 0.136779 68.9401 0.0867789 68.7342 0.0560031C68.5283 0.0251713 67.8667 0 67.2639 0C66.6611 0 66.1539 0.0143504 66.1366 0.0318405ZM102.709 0.0580766C102.572 0.0837511 102.236 0.132408 101.962 0.166155C101.688 0.199958 101.29 0.263474 101.077 0.307367C100.864 0.351204 100.553 0.423797 100.386 0.468643C100.218 0.513489 99.8327 0.62555 99.5285 0.717653C99.2243 0.809756 98.7639 0.973106 98.5053 1.08068C98.2467 1.18826 97.8182 1.38087 97.5531 1.50874C97.2881 1.63661 96.8898 1.84503 96.6682 1.97189C96.4466 2.09875 96.0537 2.34199 95.7952 2.5124C95.5366 2.68287 95.1135 2.98783 94.8549 3.19008C94.5963 3.39228 94.3104 3.62128 94.2196 3.69887C94.1287 3.77645 93.7425 4.15529 93.3614 4.54069C92.9802 4.92608 92.6065 5.31709 92.531 5.40958C92.4555 5.50208 92.3072 5.69128 92.2015 5.83002C92.0958 5.96876 91.9934 6.09489 91.9739 6.11031C91.9543 6.12572 91.7763 6.37798 91.5783 6.67089C91.3803 6.96379 91.1072 7.3942 90.9713 7.6274C90.8355 7.86055 90.5996 8.30256 90.4471 8.60964C90.2946 8.91667 90.0759 9.40701 89.961 9.69924C89.8462 9.99147 89.6953 10.4071 89.6257 10.623C89.5561 10.8388 89.4673 11.1289 89.4284 11.2676C89.3895 11.4064 89.3514 11.5577 89.3439 11.604C89.3363 11.6502 89.2913 11.852 89.2438 12.0524C89.1964 12.2528 89.1038 12.6943 89.038 13.0335C88.9197 13.6439 88.9182 13.7355 88.8862 22.1336C88.8648 27.7636 88.8725 30.6297 88.9092 30.6544C88.9396 30.6749 90.3023 30.685 91.9373 30.6767L94.9102 30.6617L94.9126 22.6885C94.914 18.1689 94.9371 14.5452 94.966 14.3228C94.994 14.107 95.052 13.7664 95.0949 13.566C95.1379 13.3656 95.2151 13.0429 95.2666 12.8489C95.3181 12.6549 95.397 12.4026 95.4419 12.2883C95.4868 12.174 95.5445 12.03 95.57 11.9684C95.5956 11.9067 95.6974 11.6797 95.7963 11.4638C95.8951 11.248 96.0641 10.9201 96.1718 10.7351C96.2794 10.5501 96.5391 10.1655 96.7487 9.88042C96.9584 9.59537 97.3283 9.16059 97.5707 8.91427C97.813 8.66795 98.1794 8.32886 98.3847 8.16074C98.5899 7.99262 99.0184 7.69461 99.3368 7.49847C99.6552 7.30232 100.14 7.04496 100.413 6.92662C100.687 6.80823 100.99 6.67705 101.086 6.63506C101.181 6.59313 101.293 6.55877 101.333 6.55877C101.373 6.55877 101.506 6.52317 101.628 6.47967C101.751 6.43617 102.038 6.36167 102.266 6.31408C102.494 6.26654 102.83 6.20874 103.013 6.18576C103.195 6.16272 103.382 6.14007 103.428 6.13542C103.473 6.13071 103.642 6.12314 103.802 6.1186L104.092 6.11031L104.078 3.06917L104.064 0.0280289L103.511 0.0197352C103.207 0.0151385 102.846 0.032402 102.709 0.0580766ZM121.127 0.0568996C121.02 0.0817892 120.697 0.129715 120.408 0.163349C120.119 0.196984 119.708 0.260722 119.495 0.304952C119.282 0.349181 118.946 0.423797 118.748 0.470662C118.551 0.517582 118.165 0.630315 117.891 0.721129C117.617 0.811999 117.331 0.911222 117.255 0.941549C117.179 0.971932 117.005 1.04167 116.868 1.0965C116.731 1.15132 116.362 1.31803 116.047 1.46698C115.732 1.61592 115.467 1.73779 115.457 1.73779C115.447 1.73779 115.169 1.90451 114.84 2.10834C114.51 2.31211 114.079 2.58774 113.881 2.72088C113.683 2.85407 113.26 3.1763 112.941 3.43697C112.622 3.69769 112.122 4.14924 111.832 4.44046C111.541 4.73168 111.147 5.15374 110.956 5.37836C110.766 5.60298 110.443 6.01725 110.24 6.29889C110.037 6.58058 109.805 6.91193 109.724 7.03526C109.643 7.15859 109.48 7.42346 109.361 7.62387C109.242 7.82428 108.997 8.29068 108.816 8.66032C108.636 9.02997 108.486 9.3453 108.484 9.36105C108.481 9.3768 108.447 9.46537 108.408 9.55787C108.369 9.65036 108.257 9.95476 108.16 10.2343C108.062 10.5139 107.969 10.7661 107.952 10.7949C107.936 10.8237 107.904 10.9481 107.882 11.0714C107.861 11.1948 107.823 11.3209 107.799 11.3517C107.775 11.3826 107.738 11.5339 107.716 11.6881C107.694 11.8422 107.66 11.9936 107.64 12.0244C107.62 12.0552 107.573 12.2571 107.535 12.4729C107.498 12.6887 107.443 13.0419 107.415 13.2577C107.386 13.4735 107.336 13.88 107.304 14.1609C107.271 14.442 107.244 15.0457 107.244 15.5026C107.244 15.9595 107.27 16.562 107.302 16.8416C107.333 17.1212 107.383 17.5265 107.413 17.7423C107.443 17.9581 107.503 18.3113 107.546 18.5271C107.589 18.7429 107.662 19.0835 107.709 19.2839C107.755 19.4843 107.827 19.7618 107.869 19.9005C107.91 20.0393 107.959 20.1906 107.976 20.2369C107.993 20.2831 108.063 20.4849 108.132 20.6854C108.201 20.8858 108.304 21.1632 108.362 21.302C108.42 21.4407 108.487 21.6047 108.512 21.6664C108.537 21.728 108.699 22.0686 108.871 22.4231C109.044 22.7777 109.234 23.1435 109.293 23.236C109.352 23.3285 109.417 23.442 109.438 23.4882C109.459 23.5345 109.6 23.7615 109.752 23.9928C109.903 24.224 110.184 24.6203 110.376 24.8735C110.567 25.1267 110.793 25.4157 110.878 25.5157C110.963 25.6157 111.145 25.8225 111.282 25.9754C111.419 26.1282 111.73 26.4473 111.973 26.6845C112.216 26.9217 112.577 27.2522 112.775 27.419C112.973 27.5857 113.309 27.8513 113.522 28.0091C113.735 28.1669 114.183 28.4723 114.517 28.6877C114.852 28.9031 115.446 29.2359 115.838 29.4272C116.23 29.6185 116.616 29.8017 116.695 29.8343C116.775 29.8669 117.077 29.9799 117.366 30.0855C117.655 30.191 118.016 30.3115 118.168 30.3532C118.32 30.3949 118.693 30.4902 118.997 30.5651C119.301 30.64 119.704 30.7312 119.891 30.7678C120.079 30.8044 120.589 30.8711 121.025 30.916C121.636 30.979 122.702 30.998 125.676 30.9989L129.534 31V27.9194V24.8389L125.316 24.8187L121.099 24.7985L120.518 24.6526C120.199 24.5724 119.74 24.4376 119.498 24.3531C119.257 24.2685 118.809 24.0752 118.503 23.9235C118.197 23.7718 117.785 23.5432 117.587 23.4154C117.389 23.2876 117.053 23.0451 116.84 22.8765C116.627 22.708 116.228 22.3391 115.953 22.0568C115.678 21.7744 115.314 21.3566 115.146 21.1284C114.977 20.9001 114.698 20.4699 114.526 20.1724C114.354 19.8748 114.213 19.6169 114.213 19.5993C114.213 19.5817 114.152 19.4341 114.077 19.2714C114.002 19.1087 113.902 18.8621 113.854 18.7233C113.806 18.5846 113.73 18.3654 113.685 18.2363C113.64 18.1071 113.577 17.8801 113.547 17.7318C113.516 17.5834 113.457 17.2309 113.414 16.9484C113.372 16.6658 113.32 16.1816 113.298 15.8722C113.274 15.5293 113.285 15.0514 113.326 14.6481C113.363 14.2842 113.443 13.7594 113.505 13.4819C113.566 13.2044 113.654 12.8513 113.701 12.6971C113.748 12.5429 113.808 12.3929 113.834 12.3636C113.86 12.3343 113.881 12.2746 113.881 12.231C113.881 12.1873 113.968 11.9631 114.075 11.7327C114.181 11.5022 114.268 11.3005 114.268 11.2845C114.268 11.2684 114.397 11.0372 114.555 10.7709C114.713 10.5045 114.856 10.274 114.873 10.2586C114.89 10.2432 115.004 10.08 115.126 9.89612C115.247 9.71214 115.608 9.29226 115.928 8.96298C116.247 8.63369 116.67 8.23972 116.868 8.08747C117.066 7.93522 117.364 7.72023 117.532 7.6098C117.699 7.49937 118.11 7.27104 118.444 7.10242C118.779 6.9338 119.277 6.71926 119.55 6.62559C119.824 6.53198 120.135 6.43931 120.242 6.41969C120.348 6.40013 120.485 6.36151 120.546 6.33387C120.607 6.30623 120.985 6.24468 121.387 6.19697C121.789 6.14932 122.299 6.11053 122.521 6.11081C122.743 6.11104 123.223 6.14703 123.588 6.19075C123.953 6.23442 124.451 6.32545 124.694 6.39306C124.937 6.46061 125.236 6.5396 125.358 6.56858C125.479 6.59757 125.603 6.64504 125.632 6.67408C125.66 6.70318 125.719 6.72694 125.762 6.72694C125.804 6.72694 125.93 6.76815 126.041 6.81849C126.152 6.86877 126.355 6.96144 126.492 7.02433C126.629 7.08723 126.989 7.28993 127.293 7.47481C127.597 7.65969 127.993 7.92652 128.172 8.06773C128.351 8.209 128.7 8.5264 128.947 8.77306C129.194 9.01971 129.511 9.36026 129.651 9.52984C129.791 9.69941 130.048 10.0526 130.222 10.3146C130.396 10.5767 130.672 11.0686 130.835 11.4078C130.997 11.7469 131.195 12.2262 131.274 12.4729C131.352 12.7195 131.443 13.0057 131.476 13.1089C131.509 13.212 131.559 13.439 131.588 13.6134C131.617 13.7877 131.662 14.0691 131.689 14.2387C131.715 14.4083 131.739 18.1728 131.741 22.6044L131.746 30.6617L134.664 30.6767C136.268 30.685 137.625 30.6822 137.68 30.6707C137.774 30.6506 137.777 30.2612 137.762 22.1218C137.748 14.1519 137.74 13.561 137.647 13.0895C137.592 12.812 137.472 12.2628 137.38 11.8691C137.288 11.4754 137.15 10.9582 137.074 10.7199C136.998 10.4816 136.873 10.1226 136.796 9.92224C136.719 9.72184 136.595 9.41912 136.519 9.24955C136.444 9.07997 136.288 8.75203 136.173 8.5208C136.058 8.28956 135.91 8.01207 135.845 7.90416C135.78 7.79625 135.696 7.63861 135.66 7.5538C135.623 7.46898 135.574 7.39964 135.55 7.39964C135.526 7.39964 135.507 7.3636 135.507 7.31953C135.507 7.27553 135.476 7.20613 135.437 7.16538C135.399 7.12468 135.243 6.90543 135.091 6.67823C134.94 6.45108 134.644 6.04747 134.435 5.7813C134.226 5.5152 133.678 4.91908 133.218 4.4566C132.758 3.99412 132.126 3.42026 131.814 3.18128C131.502 2.94231 131.224 2.74684 131.197 2.74684C131.169 2.74684 131.139 2.72632 131.128 2.70121C131.118 2.67609 130.863 2.4994 130.562 2.30852C130.26 2.11764 129.663 1.78802 129.234 1.57601C128.806 1.36406 128.194 1.09699 127.874 0.98258C127.555 0.868166 127.244 0.752014 127.183 0.724489C127.122 0.696909 126.823 0.608791 126.519 0.528629C126.215 0.44841 125.78 0.346942 125.551 0.303049C125.323 0.259156 124.937 0.197436 124.694 0.16582C124.451 0.134259 124.113 0.084033 123.944 0.0542103C123.775 0.0243875 123.115 0.00263625 122.478 0.00577549C121.841 0.00897079 121.233 0.0319538 121.127 0.0568996ZM6.04251 9.32013C2.7191 12.6894 0 15.4672 0 15.4929C0 15.5187 2.72535 18.3035 6.05633 21.6813L12.1127 27.8229L12.1135 23.2311C12.114 20.7055 12.1326 18.6125 12.155 18.5799C12.1773 18.5473 13.0414 17.8788 14.0751 17.0943C15.1089 16.3099 15.9924 15.6368 16.0386 15.5985C16.0848 15.5601 16.2003 15.4719 16.2954 15.4023C16.3904 15.3327 16.6144 15.1643 16.7931 15.028C16.9719 14.8917 17.3666 14.5917 17.6703 14.3613C17.9739 14.1309 18.2975 13.8832 18.3893 13.8108C18.4811 13.7384 19.2904 13.1225 20.1878 12.4422C21.0852 11.7619 22.3743 10.7842 23.0525 10.2695L24.2857 9.33363L18.1996 9.31939L12.1136 9.3051L12.0993 6.24961L12.085 3.19412L6.04251 9.32013ZM30.6302 7.46971C30.6393 9.82061 30.6316 11.8977 30.6129 12.0853L30.579 12.4265L24.5022 17.0464L18.4255 21.6664L24.5023 21.6806L30.5792 21.6949L30.6127 21.9329C30.6313 22.0638 30.639 23.4385 30.6299 24.9878C30.6209 26.5371 30.614 27.8047 30.6145 27.8047C30.615 27.8047 33.3404 25.0422 36.6708 21.6659C40.0013 18.2895 42.7195 15.5084 42.7113 15.4855C42.7031 15.4627 39.9801 12.688 36.6601 9.31962C33.3401 5.95122 30.6214 3.1953 30.6186 3.1953C30.6158 3.1953 30.621 5.11876 30.6302 7.46971ZM147.08 18.4434L147.094 30.6645L154.517 30.6781C161.898 30.6916 161.939 30.6911 161.969 30.5796C161.985 30.5179 161.999 25.0123 161.999 18.3449L162 6.22242H154.533H147.066L147.08 18.4434Z" fill="white"/>
</svg>
