<svg width="69" height="71" viewBox="0 0 69 71" fill="none" xmlns="http://www.w3.org/2000/svg">
<path d="M69 45.9899C68.3819 48.0567 67.5596 50.0204 66.6315 51.7773C66.3234 52.3974 66.0134 52.9141 65.7053 53.5342C64.057 55.9112 61.1744 57.5647 58.0839 57.5647C55.3033 57.5647 52.7288 56.3247 51.0805 54.361C50.9784 54.2576 50.8745 54.1543 50.7724 54.051C49.022 52.0873 46.5496 50.8472 43.7691 50.8472C43.0489 50.8472 42.4308 50.9505 41.8127 51.0539V70.3799C39.7523 70.7934 37.4878 71 35.3235 71C15.7576 71 0 55.0844 0 35.5518C0 16.0189 15.6537 0 35.2214 0C38.9282 0 42.5329 0.620088 45.9315 1.65357L35.4274 12.1951L41.8127 18.6026L64.2631 41.1325L65.1893 42.0626L69 45.9899Z" fill="white"/>
</svg>
