<svg width="173" height="26" viewBox="0 0 173 26" fill="none" xmlns="http://www.w3.org/2000/svg">
<path d="M92.1994 16.8814C91.9756 17.6251 91.6778 18.3316 91.3416 18.9638C91.23 19.1869 91.1178 19.3728 91.0062 19.5959C90.4092 20.4512 89.3652 21.0461 88.2458 21.0461C87.2388 21.0461 86.3063 20.5999 85.7094 19.8934C85.6724 19.8562 85.6347 19.819 85.5978 19.7818C84.9638 19.0753 84.0684 18.6291 83.0613 18.6291C82.8005 18.6291 82.5766 18.6663 82.3527 18.7035V25.6571C81.6065 25.8058 80.7863 25.8802 80.0025 25.8802C72.9161 25.8802 67.209 20.1537 67.209 13.1257C67.209 6.09769 72.8784 0.333984 79.9655 0.333984C81.308 0.333984 82.6136 0.557096 83.8445 0.928947L80.0401 4.72184L82.3527 7.02731L90.4838 15.1337L90.8193 15.4684L92.1994 16.8814Z" fill="white"/>
<path d="M0.666016 16.6962L1.8596 16.1012C2.49369 17.5514 3.94837 18.3324 5.81335 18.3324C7.82749 18.3324 9.35677 17.2911 9.35677 15.5063C9.35677 13.5726 7.60369 13.2008 5.70145 12.7918C3.50078 12.3084 1.00171 11.6762 1.00171 8.77578C1.00171 6.50746 3.12778 4.75977 5.66415 4.75977C7.75294 4.75977 9.65519 5.76377 10.4385 7.66022L9.28221 8.25518C8.61082 6.84213 7.34263 6.06125 5.62685 6.06125C3.91107 6.06125 2.41909 7.17679 2.41909 8.70136C2.41909 10.635 4.20947 11.0069 6.14904 11.4159C8.34971 11.8993 10.8115 12.5315 10.8115 15.4691C10.7369 18.0349 8.57351 19.671 5.81335 19.671C3.50078 19.671 1.48661 18.6298 0.666016 16.6962Z" fill="white"/>
<path d="M13.2363 19.5218V4.98242H14.6164V11.6386H23.2699V4.98242H24.65V19.5218H23.2699V12.9028H14.6164V19.4846H13.2363V19.5218Z" fill="white"/>
<path d="M29.6105 4.98242V19.5218H28.2305V4.98242H29.6105Z" fill="white"/>
<path d="M32.1094 19.5224L34.1982 6.32162C34.3847 5.28043 35.1306 4.72266 36.0631 4.72266C36.8837 4.72266 37.6297 5.13169 37.8908 6.06132L41.024 17.1053C41.0986 17.44 41.1732 17.5515 41.3597 17.5515C41.5462 17.5515 41.6208 17.4028 41.6954 17.1053L44.8285 6.09851C45.0896 5.16888 45.8356 4.72266 46.6562 4.72266C47.5514 4.72266 48.2974 5.28043 48.4839 6.35881L50.3862 19.448H49.0061L47.2157 6.73066C47.1411 6.24725 47.0292 5.94977 46.6189 5.94977C46.3206 5.94977 46.0968 6.21007 45.9848 6.65629L42.7398 17.7375C42.5533 18.4068 41.9938 18.7787 41.3597 18.7787C40.7629 18.7787 40.1661 18.444 39.9796 17.7747L36.7345 6.6191C36.5853 6.17288 36.4361 5.94977 36.1378 5.94977C35.8393 5.94977 35.5782 6.21007 35.5037 6.73066L33.5268 19.4852H32.1094V19.5224Z" fill="white"/>
<path d="M55.5717 6.50746C55.9446 5.31754 56.8025 4.75977 57.9215 4.75977C59.0032 4.75977 59.8984 5.31754 60.2714 6.50746L64.3743 19.5223H62.9569L61.7261 15.4691L54.1916 15.5063L52.8861 19.5223H51.4688L55.5717 6.50746ZM54.5273 14.1676H61.2785L59.0405 6.9165C58.854 6.32154 58.481 6.02406 57.9215 6.02406C57.3247 6.02406 56.9891 6.32154 56.8025 6.9165L54.5273 14.1676Z" fill="white"/>
<path d="M95.0332 12.234C95.0332 8.06922 98.3159 4.75977 102.306 4.75977C104.768 4.75977 106.932 5.98687 108.088 7.99487L106.969 8.66418C105.999 7.06526 104.246 6.06124 102.306 6.06124C99.1361 6.06124 96.488 8.77577 96.488 12.234C96.488 15.7294 99.0991 18.4439 102.306 18.4439C104.246 18.4439 105.999 17.4771 106.969 15.8782L108.088 16.5475C106.932 18.5555 104.768 19.7826 102.306 19.7826C98.3159 19.7454 95.0332 16.4359 95.0332 12.234Z" fill="white"/>
<path d="M112.265 6.50746C112.638 5.31754 113.496 4.75977 114.615 4.75977C115.734 4.75977 116.592 5.31754 116.965 6.50746L121.068 19.5223H119.65L118.42 15.4691L110.885 15.5063L109.579 19.5223H108.162L112.265 6.50746ZM111.221 14.1676H117.972L115.734 6.9165C115.548 6.32154 115.175 6.02406 114.615 6.02406C114.018 6.02406 113.683 6.32154 113.496 6.9165L111.221 14.1676Z" fill="white"/>
<path d="M123.158 19.5219V4.98242H127.373C131.103 4.98242 133.64 6.61857 133.64 10.0024C133.64 13.4979 130.992 15.0596 127.41 15.0596H124.538V19.559H123.158V19.5219ZM124.538 6.28391V13.7209H127.373C130.059 13.7209 132.185 12.6426 132.185 9.96522C132.185 7.39944 130.208 6.24672 127.373 6.24672H124.538V6.28391Z" fill="white"/>
<path d="M136.958 4.98242V19.5218H135.578V4.98242H136.958Z" fill="white"/>
<path d="M149.043 6.28391H144.38V19.5218H143V6.28391H138.375V4.98242H149.043V6.28391Z" fill="white"/>
<path d="M152.215 6.50746C152.587 5.31754 153.445 4.75977 154.564 4.75977C155.683 4.75977 156.542 5.31754 156.914 6.50746L161.018 19.5222H159.563L158.332 15.4691L150.797 15.5063L149.529 19.5594H148.111L152.215 6.50746ZM151.17 14.1676H157.921L155.683 6.9165C155.497 6.32154 155.124 6.02406 154.564 6.02406C153.967 6.02406 153.632 6.32154 153.445 6.9165L151.17 14.1676Z" fill="white"/>
<path d="M164.485 18.2203H172.094V19.5218H164.485C163.441 19.5218 163.105 19.0012 163.105 18.146V4.98242H164.485V18.2203Z" fill="white"/>
</svg>
