<svg width="55" height="83" viewBox="0 0 55 83" fill="none" xmlns="http://www.w3.org/2000/svg">
<path fill-rule="evenodd" clip-rule="evenodd" d="M20.0681 9.34723C15.988 14.4839 12.6293 18.7459 12.6046 18.8185C12.5799 18.8911 15.439 23.4352 18.9584 28.9164C22.4777 34.3976 25.3572 38.9768 25.3572 39.0923C25.3572 39.2078 24.4917 41.6901 23.4339 44.6083C22.3761 47.5267 21.5106 49.9747 21.5106 50.0482C21.5106 50.1766 27.107 53.2436 27.511 53.3367C27.7574 53.3933 33.5996 50.2356 33.6007 50.0451C33.6011 49.9682 32.6961 47.457 31.5893 44.4648L29.5772 39.0243L36.0076 29.0913C39.5442 23.6281 42.443 19.0522 42.4494 18.9227C42.4606 18.6904 27.762 -0.0152964 27.5802 9.38773e-06C27.5287 0.00434376 24.1482 4.21059 20.0681 9.34723ZM17.2073 6.3901C12.2487 9.83674 8.1901 12.7024 8.18817 12.7582C8.18639 12.8141 8.26978 12.8598 8.3735 12.8598C8.47722 12.8598 9.35809 14.0767 10.3311 15.5639C11.3041 17.0512 12.1311 18.2685 12.1688 18.2689C12.229 18.2694 25.6703 1.233 26.1663 0.527313C26.2713 0.378048 26.3271 0.226074 26.2902 0.189638C26.2534 0.153338 22.1661 2.94359 17.2073 6.3901ZM28.8221 0.285672C28.8903 0.487085 42.8494 18.2664 42.9416 18.2691C42.9794 18.2704 43.7521 17.1327 44.6588 15.7412C45.5655 14.3498 46.4217 13.0957 46.5615 12.9542C46.7014 12.813 46.7632 12.6488 46.6989 12.5896C46.484 12.3915 28.9059 0.127603 28.8368 0.127603C28.7995 0.127603 28.7927 0.198713 28.8221 0.285672ZM7.98279 13.4129C7.4929 14.6884 2.1629 30.6711 2.21153 30.7191C2.29313 30.7995 1.6083 31.6438 7.07101 24.7284L11.7656 18.7855L11.528 18.43C11.3973 18.2346 10.615 17.0384 9.78959 15.772C8.0791 13.1474 8.08281 13.1524 7.98279 13.4129ZM46.4754 14.1661C46.1429 14.6769 45.4018 15.8068 44.8282 16.6769C44.2548 17.5472 43.7163 18.3868 43.6316 18.5429C43.4936 18.7973 43.9571 19.4401 48.1077 24.749C50.6543 28.0063 52.7592 30.6967 52.7853 30.7279C53.0989 31.1005 52.5592 29.3401 50.1126 22.0104C48.5301 17.2698 47.2005 13.3565 47.1576 13.3144C47.1147 13.2721 46.8077 13.6555 46.4754 14.1661ZM8.232 24.2714C6.2102 26.823 4.07424 29.5137 3.48544 30.2511C2.89677 30.9884 2.41499 31.635 2.41499 31.6881C2.41499 31.7411 4.71786 32.8658 7.53233 34.1873L12.6497 36.5901L18.2738 37.6603C21.367 38.249 24.015 38.7306 24.1581 38.7306C24.3013 38.7306 24.3979 38.6717 24.3726 38.5998C24.2709 38.3091 12.0932 19.6362 12.004 19.6343C11.9512 19.6332 10.2538 21.7198 8.232 24.2714ZM42.3076 20.6048C34.4178 32.7399 30.687 38.5093 30.6226 38.675C30.5606 38.834 30.616 38.862 30.8693 38.8003C31.0489 38.7565 33.7374 38.2459 36.8438 37.6656L42.4918 36.6106L47.4701 34.2505C50.2082 32.9525 52.4785 31.8173 52.5153 31.7278C52.5777 31.5762 43.3243 19.7518 43.0688 19.6567C43.0046 19.6327 42.6622 20.0594 42.3076 20.6048ZM1.7281 39.0783C1.7281 45.022 1.74197 45.3819 1.96851 45.3156C2.1008 45.2769 3.44533 45.0201 4.95649 44.7449C6.46765 44.4696 7.75955 44.1955 7.82742 44.1359C7.95559 44.0231 2.02099 32.7709 1.83333 32.7709C1.77549 32.7709 1.7281 35.6092 1.7281 39.0783ZM3.01245 33.3465C3.19626 33.6632 4.5357 36.1165 5.98889 38.7984C7.44207 41.4803 8.65773 43.7033 8.69016 43.7383C8.72271 43.7734 8.79607 43.7275 8.85322 43.6363C9.00228 43.3986 10.8423 36.5648 10.7751 36.4987C10.6214 36.3471 3.04033 32.7709 2.87287 32.7709C2.7267 32.7709 2.76159 32.9146 3.01245 33.3465ZM48.162 34.6057C46.0841 35.6003 44.3385 36.4325 44.2828 36.455C44.1757 36.4982 46.1212 43.8773 46.2387 43.8728C46.2764 43.8715 47.451 41.7888 48.8489 39.2447C50.2467 36.7005 51.6201 34.2031 51.9009 33.6949C52.3199 32.9365 52.3692 32.7732 52.1756 32.784C52.0459 32.7912 50.2398 33.6109 48.162 34.6057ZM50.1147 38.4157C48.2441 41.8639 47.1096 44.0934 47.1985 44.1475C47.2785 44.1963 48.5943 44.4638 50.1226 44.7422C51.6511 45.0206 53.0098 45.2793 53.1419 45.3171C53.3685 45.3819 53.3823 45.0214 53.3823 39.0783C53.3823 35.6092 53.336 32.7713 53.2793 32.7717C53.2226 32.7722 51.7986 35.312 50.1147 38.4157ZM7.90682 45.6047C5.10939 48.4498 4.70041 48.8851 4.76471 48.9485C4.82227 49.0054 16.1524 47.287 17.2998 47.0474C17.5151 47.0024 17.6387 46.9181 17.5745 46.8602C17.4615 46.7579 9.42884 44.4195 9.19062 44.4195C9.12551 44.4195 8.54769 44.9529 7.90682 45.6047ZM41.7052 45.5879C39.5518 46.2244 37.7345 46.7976 37.667 46.8617C37.5966 46.9283 37.6847 47.0098 37.873 47.0524C38.6885 47.2363 50.2884 49.005 50.3409 48.9533C50.4404 48.8552 46.0626 44.4891 45.8345 44.4589C45.7168 44.4432 43.8586 44.9513 41.7052 45.5879ZM4.47566 45.4664C3.07784 45.7309 1.90847 45.9691 1.87729 45.9957C1.82193 46.0429 2.97989 48.617 3.23981 49.0248C3.34312 49.1869 3.78671 48.8174 5.4336 47.198C6.56903 46.0813 7.49799 45.1214 7.49799 45.0647C7.49799 44.9093 7.23573 44.9442 4.47566 45.4664ZM47.6125 45.0647C47.6125 45.2234 51.7143 49.2246 51.7952 49.1448C51.9193 49.0225 53.1076 46.2837 53.1076 46.1201C53.1076 46.0245 52.0779 45.7674 50.4631 45.4599C47.5756 44.9102 47.6125 44.9154 47.6125 45.0647ZM10.1769 48.8261C6.55008 49.4482 3.57474 49.9607 3.56498 49.9651C3.41758 50.0308 -0.100683 63.2499 0.00221335 63.3514C0.0634841 63.4117 17.1636 47.9673 17.2289 47.7926C17.2987 47.6064 17.2273 47.6168 10.1769 48.8261ZM9.353 55.9361C4.29075 60.4773 0.132998 64.2401 0.113627 64.2976C0.0779088 64.4032 18.4194 82.9158 18.6431 82.9999C18.7111 83.0255 18.763 75.3793 18.763 65.3577C18.763 55.6297 18.7166 47.6723 18.66 47.6749C18.6034 47.6773 14.4151 51.395 9.353 55.9361ZM36.3474 65.3464C36.3474 75.3059 36.3996 83.0254 36.4668 82.9999C36.8013 82.8734 54.9097 64.432 54.85 64.2787C54.7773 64.0919 36.6957 47.7698 36.4762 47.6929C36.3965 47.665 36.3474 54.4009 36.3474 65.3464ZM37.8586 47.7995C37.8586 47.9794 54.952 63.4123 54.9987 63.2745C55.0731 63.0545 51.8484 50.3079 51.6735 50.131C51.567 50.0233 48.789 49.4921 44.78 48.8128C41.0866 48.1872 38.0184 47.6741 37.9616 47.6727C37.9049 47.6714 37.8586 47.7284 37.8586 47.7995Z" fill="white"/>
</svg>
