<svg width="120" height="130" viewBox="0 0 120 130" fill="none" xmlns="http://www.w3.org/2000/svg">
<path fill-rule="evenodd" clip-rule="evenodd" d="M46.9915 7.28427C39.7173 12.4293 36.9011 14.5887 37.2274 14.7709C37.4795 14.9115 38.5181 16.3354 39.5352 17.9351C40.5526 19.5349 41.4952 20.8009 41.6301 20.7484C41.765 20.6959 45.4349 16.0831 49.7856 10.4981C54.136 4.91286 57.6956 0.265767 57.6956 0.171628C57.6956 0.0771686 57.5871 0.0118475 57.4548 0.0265767C57.3225 0.041306 52.6137 3.30704 46.9915 7.28427ZM50.4783 10.4357C45.9397 16.1916 42.16 21.0725 42.0794 21.2822C41.9988 21.4919 45.1407 26.6955 49.0617 32.8457C52.9824 38.9958 56.1782 44.2439 56.1628 44.508C56.1477 44.7722 55.1784 47.6505 54.0088 50.9047C52.0044 56.4813 51.9155 56.8451 52.4608 57.2434C52.7787 57.4756 54.3585 58.3753 55.9714 59.2428L58.9042 60.8198L62.1549 59.0353C63.9431 58.0539 65.4847 57.124 65.581 56.9687C65.677 56.8134 64.7396 53.9287 63.4973 50.5583C62.2551 47.1878 61.334 44.2676 61.4503 44.069C61.5669 43.8702 64.8163 38.771 68.6712 32.7377C72.5263 26.7045 75.6804 21.6396 75.6804 21.4827C75.6804 21.3254 71.9797 16.4638 67.4562 10.6787C62.9331 4.89332 59.1193 0.117514 58.9816 0.0653212C58.8438 0.0131283 55.0172 4.67975 50.4783 10.4357ZM60.1686 0.446681C60.3099 0.692596 63.894 5.36818 68.1332 10.8369C72.3725 16.306 75.9303 20.7878 76.0395 20.7968C76.1487 20.8057 77.1385 19.4516 78.2391 17.7872C79.3397 16.1231 80.3818 14.7146 80.5549 14.6569C80.728 14.5993 76.236 11.2781 70.5731 7.27627C64.9098 3.27438 60.1942 0 60.094 0C59.9938 0 60.0272 0.201087 60.1686 0.446681ZM36.657 15.4296C36.5693 15.6607 35.0554 20.1631 33.2923 25.4346C31.5291 30.7061 30.1565 35.0887 30.2419 35.1738C30.3273 35.2593 30.4446 35.2689 30.5024 35.1956C30.5605 35.122 32.8748 32.1508 35.6454 28.5924C38.4163 25.0343 40.7681 21.9028 40.8715 21.6338C40.9823 21.3466 40.306 19.9531 39.234 18.2589C38.2297 16.6719 37.2746 15.2916 37.1118 15.1913C36.9493 15.0911 36.7444 15.1981 36.657 15.4296ZM78.6929 17.9966C77.6542 19.6175 76.7566 21.0574 76.6982 21.1961C76.6397 21.335 78.9373 24.4801 81.8033 28.1851C84.6696 31.8905 87.1627 35.0131 87.3435 35.1245C87.5349 35.2427 87.596 35.129 87.4896 34.8527C87.3891 34.5917 85.8919 30.0292 84.1621 24.7138C82.4324 19.3985 80.9191 15.0495 80.7993 15.0495C80.6792 15.0495 79.7315 16.3758 78.6929 17.9966ZM39.6595 24.2095C38.7163 25.4061 36.2491 28.5492 34.1774 31.1941C32.1053 33.8392 30.5155 36.0931 30.6446 36.2033C30.7734 36.3134 33.4082 37.5904 36.4993 39.0409C42.1013 41.6695 42.1408 41.6823 48.6715 42.9378C52.2752 43.6307 55.2863 44.135 55.3631 44.0585C55.4398 43.9819 52.5083 39.2609 48.8484 33.5671C45.1889 27.8732 42.01 22.9489 41.7846 22.6242C41.4088 22.083 41.2322 22.215 39.6595 24.2095ZM69.106 32.9955C65.2605 38.9913 62.1777 43.9605 62.2554 44.0377C62.3331 44.1152 65.396 43.6128 69.0617 42.9211L75.7267 41.664L81.3591 38.9256C85.2518 37.0329 86.9402 36.0544 86.8258 35.7572C86.7349 35.5209 84.3256 32.35 81.4715 28.7109C78.6177 25.0715 76.2411 22.0939 76.1904 22.0939C76.1393 22.0939 72.9515 26.9997 69.106 32.9955ZM29.755 44.3479C29.755 48.3104 29.8636 51.5522 29.9959 51.5515C30.1282 51.5509 31.6569 51.2755 33.3928 50.9399C35.1283 50.604 36.6316 50.2464 36.7334 50.1449C36.8353 50.0434 36.0243 48.2653 34.9311 46.1936C33.8382 44.1219 32.3387 41.2378 31.5991 39.7851C30.8595 38.3323 30.142 37.1434 30.0046 37.1434C29.8674 37.1434 29.755 40.3854 29.755 44.3479ZM31.0397 37.3525C31.0397 37.4678 32.5208 40.3477 34.3315 43.7527C36.1422 47.1577 37.6963 49.9454 37.7856 49.9476C37.8748 49.9499 38.4214 48.1142 39.0002 45.8689C39.5789 43.6236 40.0478 41.6698 40.0423 41.5273C40.0365 41.3848 38.0685 40.34 35.6685 39.2058C33.2685 38.0714 31.2452 37.1434 31.1723 37.1434C31.0994 37.1434 31.0397 37.2375 31.0397 37.3525ZM81.7451 39.3275L77.3719 41.4661L78.5011 45.6982C79.1219 48.0258 79.7373 49.8644 79.8683 49.7834C79.9993 49.7027 81.2987 47.4382 82.7558 44.7508C84.2129 42.0636 85.7599 39.2529 86.1935 38.5043C86.7433 37.5555 86.8512 37.1501 86.5499 37.1661C86.3123 37.1783 84.1503 38.1511 81.7451 39.3275ZM87.41 37.4636C87.2372 37.7278 85.6228 40.6807 83.8217 44.0258C82.021 47.371 80.5806 50.1407 80.6208 50.1807C80.6612 50.2211 82.2554 50.5544 84.1638 50.9214C86.0721 51.2886 87.6926 51.5301 87.7652 51.4577C87.8378 51.3857 87.858 48.0994 87.8105 44.1549C87.7523 39.3422 87.6207 37.1412 87.41 37.4636ZM35.4109 53.0232C34.0174 54.5038 33.0642 55.7151 33.2929 55.7151C33.5212 55.7151 36.8947 55.2057 40.7887 54.5832C44.683 53.9607 47.9261 53.3946 47.9958 53.3251C48.0655 53.2556 47.0609 52.889 45.7634 52.5099C44.4659 52.1311 42.2406 51.4724 40.8182 51.0462C39.3962 50.6204 38.1677 50.2851 38.0884 50.3015C38.0094 50.3178 36.8044 51.5426 35.4109 53.0232ZM74.6562 51.6684C72.2383 52.4049 70.1642 53.1032 70.047 53.2201C69.9298 53.3366 70.3184 53.5163 70.9106 53.6187C71.5028 53.7212 74.6835 54.2348 77.9789 54.7599C81.2743 55.2854 84.1615 55.7151 84.395 55.7151C84.6282 55.7151 83.5972 54.4903 82.1035 52.9934C80.6098 51.4964 79.3124 50.2845 79.2202 50.3005C79.128 50.3162 77.0742 50.9319 74.6562 51.6684ZM33.4483 51.4234C32.2119 51.6636 30.8833 51.9358 30.4959 52.028L29.792 52.1958L30.6241 54.0356C31.0817 55.0475 31.5111 55.9396 31.5786 56.018C31.6457 56.0965 32.7803 55.0914 34.1 53.7846C35.4196 52.4775 36.4993 51.2966 36.4993 51.1602C36.4993 51.0238 36.3188 50.9291 36.0979 50.9495C35.8772 50.97 34.6848 51.1833 33.4483 51.4234ZM81.1401 51.1257C81.1401 51.2813 82.2198 52.4775 83.5394 53.7846C84.8591 55.0914 85.9982 56.0965 86.0714 56.018C86.1443 55.9396 86.531 55.1109 86.9305 54.1769C87.3519 53.1922 87.5362 52.3668 87.3692 52.2121C87.2109 52.0654 86.0698 51.7766 84.8334 51.5701C83.5969 51.3636 82.2603 51.1157 81.8627 51.0187C81.4651 50.922 81.1401 50.97 81.1401 51.1257ZM38.9607 55.3987C35.1036 56.0728 31.8792 56.6924 31.7957 56.7759C31.7122 56.8592 30.7869 60.221 29.7396 64.2462C28.6923 68.2715 27.8756 71.69 27.9248 71.8427C27.9736 71.9954 32.3799 68.128 37.7162 63.2488C43.0525 58.3696 47.4186 54.3184 47.4186 54.2457C47.4186 54.1733 47.0936 54.1275 46.696 54.1436C46.2985 54.1599 42.8178 54.7247 38.9607 55.3987ZM38.2657 63.4762C32.6133 68.6087 27.9588 72.8885 27.9222 72.9871C27.8856 73.0854 32.6127 77.9931 38.4272 83.8929L48.9987 94.6196L49.0116 74.3669C49.0186 63.2277 48.9159 54.1208 48.7836 54.1291C48.6512 54.1378 43.918 58.3436 38.2657 63.4762ZM68.615 74.2602C68.615 85.3699 68.668 94.4595 68.7328 94.4595C68.7977 94.4595 73.5733 89.6424 79.3451 83.7545L89.8392 73.0499L79.5336 63.6619C73.8659 58.4986 69.0903 54.2262 68.9217 54.1676C68.729 54.1003 68.615 61.5703 68.615 74.2602ZM70.2207 54.2595C70.2207 54.3392 74.5654 58.3888 79.8757 63.2584C85.1857 68.1277 89.5968 72.0457 89.678 71.965C89.7593 71.884 89.011 68.519 88.0157 64.487C87.0201 60.4551 86.1013 57.0427 85.9735 56.904C85.8456 56.7654 82.4295 56.0811 78.3823 55.3831C74.3351 54.685 70.8431 54.1141 70.6222 54.1141C70.4016 54.1141 70.2207 54.1794 70.2207 54.2595ZM105.885 120.476L105.869 129.041H107.306H108.743L108.832 123.962L108.92 118.883L114.219 124.44C117.134 127.497 119.626 129.999 119.759 130C119.892 130.001 120 126.256 120 121.677V113.351H118.715H117.431L117.424 118.555L117.417 123.758L111.659 117.834L105.901 111.911L105.885 120.476ZM35.1299 120.478C33.052 124.924 31.3541 128.669 31.3563 128.801C31.3589 128.933 31.9845 129.041 32.7469 129.041H34.133L36.5205 123.767C37.8337 120.866 38.9803 118.491 39.0686 118.49C39.1569 118.489 40.2408 120.861 41.4772 123.762L43.7253 129.037L45.2467 129.039L46.7683 129.041L45.9548 127.2C45.5074 126.187 43.8291 122.441 42.2255 118.875C40.6217 115.309 39.2192 112.392 39.1087 112.393C38.9982 112.395 37.2078 116.033 35.1299 120.478ZM90.9983 113.235C90.7378 113.739 88.9914 117.44 87.1171 121.458C85.2428 125.476 83.7093 128.834 83.7093 128.92C83.7093 129.006 84.3754 129.032 85.1898 128.979L86.6701 128.881L88.9689 123.859C90.233 121.097 91.348 118.757 91.4463 118.659C91.5449 118.561 92.6413 120.821 93.8836 123.681L96.1416 128.881L97.6334 128.979C98.4536 129.032 99.1248 129.007 99.1248 128.922C99.1248 128.837 97.5181 125.191 95.5539 120.819C93.59 116.448 91.868 112.747 91.7273 112.594C91.5866 112.442 91.2588 112.73 90.9983 113.235ZM2.89577 113.645C2.34209 113.982 1.65578 114.59 1.37028 114.996C1.07064 115.422 0.850966 116.373 0.850966 117.241C0.850966 118.376 1.04687 118.978 1.64872 119.691C2.08742 120.211 3.27987 121.027 4.29826 121.505C5.31665 121.982 6.47506 122.674 6.87265 123.041C7.27024 123.409 7.59525 124.025 7.59525 124.411C7.59525 124.797 7.29561 125.492 6.92949 125.956C6.4773 126.53 5.95832 126.8 5.30926 126.8C4.72379 126.8 4.04968 126.496 3.56634 126.014C3.13278 125.582 2.7779 124.933 2.7779 124.573C2.7779 124.213 2.66935 123.919 2.53704 123.92C2.40472 123.921 1.74731 124.074 1.07642 124.259C0.0268783 124.55 -0.114109 124.695 0.0663806 125.298C0.181676 125.684 0.521459 126.431 0.82174 126.959C1.12202 127.487 1.85073 128.243 2.44133 128.64C3.1498 129.116 3.99412 129.362 4.92323 129.362C5.69754 129.362 6.80296 129.165 7.37975 128.925C7.95623 128.685 8.81886 128.025 9.29642 127.459C10.0402 126.578 10.1645 126.14 10.1645 124.398C10.1645 122.707 10.0322 122.209 9.3751 121.431C8.9409 120.916 7.67618 120.094 6.56498 119.604C5.45346 119.113 4.29151 118.492 3.98224 118.223C3.67329 117.955 3.42022 117.477 3.42022 117.162C3.42022 116.847 3.74137 116.365 4.13415 116.091C4.5266 115.817 5.15735 115.593 5.536 115.593C5.91432 115.593 6.60416 115.891 7.06855 116.255C7.58658 116.661 8.15117 116.843 8.52821 116.723C8.86639 116.616 9.31312 116.324 9.5209 116.074C9.81476 115.722 9.78939 115.464 9.40722 114.92C9.13648 114.535 8.5099 113.953 8.01436 113.628C7.4411 113.251 6.52997 113.035 5.50773 113.034C4.49095 113.034 3.53294 113.258 2.89577 113.645ZM17.8723 121.196V129.041H19.3175H20.7627V125.999V122.957L21.8064 122.95C22.3803 122.947 23.4283 122.679 24.1348 122.355C24.8413 122.032 25.702 121.45 26.0476 121.063C26.4908 120.567 26.7089 119.775 26.7879 118.376C26.8772 116.792 26.7654 116.18 26.2326 115.333C25.8658 114.75 25.0681 114.066 24.4592 113.813C23.7896 113.533 22.2708 113.351 20.6124 113.351H17.8723V121.196ZM53.5206 121.196V129.041H54.9543H56.3879L56.4798 125.964L56.5716 122.885L58.6591 125.954L60.7466 129.022L62.4517 129.032C63.727 129.039 64.0982 128.94 63.9254 128.641C63.7979 128.421 62.7535 126.952 61.6041 125.377C60.2337 123.499 59.6573 122.466 59.9293 122.375C60.1576 122.299 60.7675 121.859 61.2852 121.396C61.8386 120.902 62.3444 120.029 62.514 119.277C62.679 118.543 62.6835 117.471 62.5242 116.765C62.3714 116.087 61.9198 115.185 61.5203 114.761C61.1211 114.338 60.2777 113.848 59.6464 113.673C59.015 113.498 57.3783 113.354 56.0096 113.353L53.5206 113.351V121.196ZM67.9727 113.561C67.9727 113.677 68.3413 114.253 68.7919 114.842C69.5441 115.826 69.7541 115.913 71.3612 115.913H73.1112V122.477V129.041H74.3958H75.6804V122.477V115.913H77.4198C79.0654 115.913 79.2141 115.844 80.1766 114.632L81.194 113.351H74.5833C70.9475 113.351 67.9727 113.446 67.9727 113.561ZM23.3711 116.254C23.7228 116.442 24.1271 116.909 24.2694 117.293C24.4116 117.677 24.3965 118.368 24.2353 118.829C24.0741 119.29 23.5815 119.831 23.1402 120.031C22.6992 120.232 21.9837 120.396 21.5505 120.396C20.7893 120.396 20.7627 120.32 20.7627 118.154V115.913H21.7473C22.2888 115.913 23.0194 116.066 23.3711 116.254ZM59.0169 116.253C59.3669 116.439 59.7877 116.944 59.9518 117.375C60.1457 117.884 60.1281 118.424 59.9007 118.921C59.709 119.341 59.1996 119.845 58.7693 120.04C58.3386 120.236 57.6321 120.396 57.1988 120.396C56.4377 120.396 56.411 120.32 56.411 118.154V115.913H57.3957C57.9372 115.913 58.6665 116.066 59.0169 116.253Z" fill="white"/>
</svg>
